<svg width="90" height="150" viewBox="0 0 90 150" fill="none" xmlns="http://www.w3.org/2000/svg">
<path d="M-2.48748 105.075C-7.58748 102.348 -13.7089 95.4746 -14.5767 91.5021C-14.7947 90.504 -12.781 75.421 -9.61056 54.3049C-3.99506 16.9018 -3.75513 15.8207 -0.473595 13.0806C0.275746 12.4548 2.10489 11.5902 3.59122 11.1592C6.05732 10.4442 8.33917 10.6802 29.688 13.8589C43.5989 15.928 53.9796 17.7418 55.2954 18.3282C57.3987 19.2654 61.4225 24.252 61.2121 25.6607C61.1603 26.0074 61.9856 26.4206 63.0461 26.579C66.9985 27.1693 70.6926 31.4346 71.2636 36.0672C71.7539 40.0439 61.8267 104.93 60.2873 107.81C58.6932 110.793 56.951 112.193 53.6391 113.154C51.1563 113.874 48.8567 113.626 25.3331 110.099C5.73178 107.161 -0.790154 105.984 -2.48748 105.075ZM52.8856 105.569C53.7869 104.657 54.8146 98.7926 59.0884 70.1755L64.211 35.8751L62.9528 34.681C62.2609 34.0243 61.4735 33.454 61.2031 33.4136C60.9327 33.3732 58.6748 46.978 56.1855 63.6465C53.2087 83.5787 51.3376 94.5277 50.7192 95.632C49.54 97.738 47.1824 99.6384 44.5224 100.627C42.7528 101.285 39.2762 100.958 19.3454 98.2599L-3.77858 95.1296L-0.874365 97.3224L2.02987 99.5153L26.9176 103.089C50.7369 106.509 51.8518 106.616 52.8856 105.569ZM26.1752 65.5085L27.8035 54.6023L33.1584 55.5362L38.5133 56.4701L39.0758 52.7035L39.6383 48.9368L34.2643 48.1342L28.8903 47.3317L29.7161 41.7995L30.542 36.2674L28.1639 35.9634C22.4986 35.2391 23.0002 34.8366 22.106 40.8247L21.3034 46.1987L15.9294 45.3961L10.5553 44.5935L9.99022 48.3772L9.42516 52.1608L14.8216 52.8151L20.218 53.4695L18.589 64.3757L16.96 75.2817L20.7534 75.8483L24.5469 76.4148L26.1752 65.5085Z" fill="url(#paint0_linear_2472_55)"/>
<defs>
<linearGradient id="paint0_linear_2472_55" x1="-6.99998" y1="57" x2="60.1694" y2="66.857" gradientUnits="userSpaceOnUse">
<stop stop-color="white"/>
<stop offset="0.68" stop-color="#00536E"/>
</linearGradient>
</defs>
</svg>
