<svg width="89" height="150" viewBox="0 0 89 150" fill="none" xmlns="http://www.w3.org/2000/svg">
<path d="M-3.48752 105.075C-8.58751 102.348 -14.7089 95.4746 -15.5767 91.5021C-15.7947 90.504 -13.7811 75.421 -10.6106 54.3049C-4.99509 16.9018 -4.75516 15.8207 -1.47363 13.0806C-0.724285 12.4548 1.10486 11.5902 2.59119 11.1592C5.05729 10.4442 7.33914 10.6802 28.688 13.8589C42.5989 15.928 52.9795 17.7418 54.2953 18.3282C56.3986 19.2654 60.4224 24.252 60.2121 25.6607C60.1603 26.0074 60.9856 26.4206 62.046 26.579C65.9984 27.1693 69.6926 31.4346 70.2636 36.0672C70.7538 40.0439 60.8267 104.93 59.2873 107.81C57.6931 110.793 55.951 112.193 52.6391 113.154C50.1563 113.874 47.8567 113.626 24.333 110.099C4.73175 107.161 -1.79018 105.984 -3.48752 105.075ZM51.8856 105.569C52.7868 104.657 53.8146 98.7926 58.0884 70.1755L63.211 35.8751L61.9528 34.681C61.2608 34.0243 60.4734 33.454 60.2031 33.4136C59.9327 33.3732 57.6748 46.978 55.1854 63.6465C52.2087 83.5787 50.3375 94.5277 49.7192 95.632C48.54 97.738 46.1823 99.6384 43.5223 100.627C41.7528 101.285 38.2762 100.958 18.3453 98.2599L-4.77861 95.1296L-1.8744 97.3224L1.02984 99.5153L25.9176 103.089C49.7369 106.509 50.8517 106.616 51.8856 105.569ZM25.1752 65.5085L26.8035 54.6023L32.1584 55.5362L37.5133 56.4701L38.0758 52.7035L38.6383 48.9368L33.2643 48.1342L27.8903 47.3317L28.7161 41.7995L29.5419 36.2674L27.1639 35.9634C21.4986 35.2391 22.0002 34.8366 21.1059 40.8247L20.3034 46.1987L14.9294 45.3961L9.55527 44.5935L8.99019 48.3772L8.42513 52.1608L13.8215 52.8151L19.218 53.4695L17.589 64.3757L15.9599 75.2817L19.7534 75.8483L23.5469 76.4148L25.1752 65.5085Z" fill="url(#paint0_linear_2448_243)"/>
<defs>
<linearGradient id="paint0_linear_2448_243" x1="-8.00001" y1="57" x2="59.1694" y2="66.857" gradientUnits="userSpaceOnUse">
<stop stop-color="white"/>
<stop offset="0.68" stop-color="#E98900"/>
</linearGradient>
</defs>
</svg>
