<svg width="244" height="185" viewBox="0 0 244 185" fill="none" xmlns="http://www.w3.org/2000/svg">
<path d="M147.512 25.4658C140.835 25.4981 133.563 26.719 126.772 28.9468C122.348 30.3981 114.598 34.2477 110.96 36.8106C103.026 42.3995 97.126 48.5743 92.0891 56.5603C89.5193 60.6348 87.3219 65.4192 85.6575 70.4128C87.4948 70.8191 89.2255 71.5607 90.7584 72.5711C90.7885 72.516 90.7993 72.4907 90.8323 72.4318C91.3464 71.5124 92.2714 70.0014 92.8467 69.1382L93.0078 68.895C93.2307 69.4686 93.4753 70.0938 93.7446 70.6333L94.1661 71.4794L93.2151 73.2282C93.0678 73.4982 92.9041 73.8301 92.7448 74.1361C92.8492 74.2331 92.9551 74.3289 93.0566 74.4289C94.3007 73.3046 95.6944 72.4437 97.1733 71.78C97.1452 71.7488 97.1017 71.7066 97.0756 71.6771C97.0195 71.6136 97.0341 71.6285 96.9904 71.5717C97.0937 71.3712 97.2393 71.1091 97.4345 70.7814C97.8638 70.0608 98.4678 69.1162 99.084 68.19C99.7002 67.2638 100.334 66.3536 100.819 65.6998C100.941 65.5354 101.012 65.4517 101.111 65.3251C101.277 65.4822 101.437 65.6348 101.635 65.8252C102.103 66.2768 102.465 66.6055 102.764 66.8726C102.753 66.9066 102.761 66.8905 102.743 66.9353C102.608 67.2874 102.292 67.93 101.776 68.8879C101.579 69.2514 101.376 69.6505 101.171 70.0425H103.82C104.017 69.6688 104.232 69.2519 104.386 68.9768L104.826 68.1865L105.333 68.433C106.05 68.7799 106.977 69.1617 107.562 69.3392L107.617 69.3546L107.346 70.1806C108.158 70.2786 108.936 70.4371 109.686 70.6398L109.935 69.9079L110.873 70.0619C111.814 70.2183 112.957 70.3544 113.602 70.3687C113.681 70.3738 113.729 70.384 113.803 70.3917C113.768 70.6788 113.722 71.017 113.655 71.3929C113.619 71.5928 113.568 71.955 113.524 72.2303C114.305 72.6848 115.026 73.2034 115.695 73.7647C115.868 72.528 116.037 71.3664 116.123 70.8866L116.215 70.3691L118.177 70.1878C119.426 70.0732 120.356 69.982 120.866 69.9247C120.932 70.5204 121.059 72.2515 121.146 74.0278C121.194 74.9994 121.233 75.9401 121.252 76.6331C121.257 76.8238 121.257 76.9367 121.259 77.0845C121.213 77.0922 121.191 77.0947 121.141 77.1049C120.68 77.1758 120.055 77.2667 119.386 77.3558H119.378L119.368 77.358C119.216 77.3785 119.043 77.3946 118.883 77.4148C119.211 77.9393 119.508 78.4763 119.763 79.0242C120.472 78.8003 121.222 78.6774 121.992 78.6774H125.212C125.419 78.6226 125.563 78.5776 125.786 78.5215C127.189 78.1694 129.078 77.6317 130.069 77.2999C130.442 77.1753 130.751 77.0875 131.027 77.0132C131.093 77.2047 131.155 77.3799 131.244 77.6423C131.336 77.9123 131.482 78.348 131.594 78.6775H132.162C132.864 78.6775 133.545 78.7858 134.197 78.9729C134.161 78.8644 134.126 78.7627 134.091 78.6557L133.301 76.2082L136.833 74.5517C137.988 74.0097 139.042 73.5169 139.809 73.162C140.057 73.047 140.217 72.9751 140.398 72.8918C140.502 73.0667 140.599 73.227 140.737 73.466C141.153 74.1838 141.696 75.1481 142.235 76.114C142.774 77.08 143.309 78.051 143.706 78.7882C143.837 79.0323 143.923 79.1978 144.019 79.3807C143.857 79.469 143.725 79.5445 143.506 79.6577C142.786 80.03 141.799 80.5162 140.767 81.0074C140.003 81.3707 139.222 81.729 138.483 82.0618C138.93 82.7054 139.284 83.4153 139.52 84.1713C141.125 83.4784 142.985 82.6331 143.989 82.1271L145.269 81.4849L146.112 82.9479C146.797 84.1318 147.838 85.9204 148.426 86.929C148.822 87.6089 148.972 87.9073 149.068 88.1149C148.736 88.3463 148.203 88.6771 147.228 89.1614C146.1 89.7219 144.572 90.4244 142.646 91.2631C141.526 91.7508 140.478 92.184 139.703 92.4882C139.576 92.5386 139.497 92.5665 139.398 92.6031C138.879 94.0094 137.951 95.2373 136.769 96.1399C137.056 96.0464 137.398 95.933 137.617 95.8636C137.694 96.0636 137.764 96.2423 137.867 96.5119C138.05 96.993 138.301 97.6627 138.533 98.2781C139.064 98.0242 139.628 97.832 140.227 97.703C140.32 97.3958 140.372 97.1407 140.489 96.8256C140.361 96.5012 140.201 96.1073 140.095 95.8305C139.976 95.5177 139.891 95.2833 139.812 95.0629C140.107 94.9267 140.479 94.7657 140.908 94.5958C141.974 94.1746 144.576 92.97 146.823 91.8659L150.18 90.2157L151.003 91.6255C151.166 91.9042 151.379 92.2932 151.573 92.6379C152.916 93.0532 154.343 93.8321 155.309 95.1273C156.046 96.1159 156.36 97.0051 156.55 97.8084C156.812 97.8834 157.069 97.9692 157.321 98.0628C157.304 98.026 157.282 97.9792 157.264 97.9418C157.352 97.8842 157.407 97.8458 157.514 97.7772C158.014 97.455 158.708 97.0209 159.463 96.5582C160.738 95.7774 162.626 94.5344 164.324 93.3804C165.833 92.355 166.951 91.5579 167.633 91.0156C167.91 91.3531 168.399 92.043 169.367 93.4693C170.536 95.1917 171.633 96.829 171.838 97.1498C172.941 97.2504 174.038 97.4426 175.105 97.7441C175.09 97.7152 175.07 97.6786 175.055 97.6481C175.362 97.4592 175.63 97.2604 176.068 96.8979C176.603 96.4563 177.266 95.8828 177.988 95.2406C179.431 93.9561 181.106 92.3982 182.408 91.1044C183.131 90.387 183.793 89.7385 184.275 89.2737C184.313 89.2363 184.331 89.2233 184.367 89.1884C184.398 89.2325 184.412 89.253 184.445 89.2998C184.828 89.8391 185.353 90.5819 185.921 91.3945C187.034 92.9868 188.061 94.448 188.317 94.8058C188.289 94.8337 188.274 94.8488 188.244 94.879C187.926 95.2 187.493 95.6387 187.023 96.1206C185.667 97.5126 183.729 99.3485 182.01 100.899C181.769 101.116 181.547 101.31 181.317 101.514C181.841 102.102 182.3 102.736 182.699 103.408C185.004 101.413 187.507 99.0853 188.879 97.6193C189.14 97.3405 189.351 97.1278 189.564 96.9144C189.605 96.9812 189.631 97.015 189.676 97.0887C190.038 97.6792 190.511 98.4752 190.976 99.2758C191.442 100.076 191.903 100.886 192.247 101.508C192.407 101.797 192.53 102.033 192.625 102.217C192.486 102.395 192.278 102.643 191.997 102.948C191.404 103.591 190.542 104.455 189.548 105.411C188.097 106.806 186.357 108.398 184.706 109.828C184.771 110.482 184.808 111.142 184.808 111.801V112.651C184.808 112.72 184.809 112.764 184.809 112.832C186.728 111.287 190.828 107.554 192.741 105.605C193.142 105.196 193.49 104.864 193.801 104.574C193.806 104.585 193.806 104.587 193.808 104.597C194.073 105.181 194.416 105.968 194.753 106.755C195.09 107.542 195.421 108.334 195.662 108.931C195.76 109.175 195.828 109.356 195.889 109.518C195.839 109.574 195.806 109.612 195.741 109.682C195.479 109.964 195.101 110.348 194.648 110.795C193.742 111.69 192.534 112.842 191.3 113.99C190.066 115.139 188.805 116.285 187.789 117.178C187.432 117.491 187.158 117.721 186.876 117.959C187.276 118.778 187.482 119.656 187.557 120.453C187.878 120.18 188.405 119.733 189.47 118.838C190.901 117.634 193.294 115.431 194.855 113.881C195.969 112.776 196.411 112.363 196.777 112.037C196.798 112.098 196.798 112.088 196.817 112.152C196.955 112.595 197.118 113.154 197.275 113.717C197.431 114.279 197.582 114.846 197.696 115.307C197.792 115.694 197.84 115.943 197.861 116.054C197.829 116.109 197.792 116.175 197.715 116.282C197.522 116.55 197.197 116.936 196.771 117.401C195.918 118.332 194.653 119.585 193.084 121.027C192.137 121.898 190.877 123.003 189.846 123.882C189.45 124.22 189.139 124.475 188.842 124.719C188.654 124.227 188.43 123.631 188.174 122.937C187.945 122.317 187.761 121.807 187.592 121.337C187.59 121.43 187.59 121.524 187.584 121.612C187.508 123.006 187.096 124.223 186.502 125.264C186.519 125.314 186.545 125.382 186.561 125.43C186.646 125.682 186.715 125.904 186.764 126.069C186.81 126.222 186.829 126.333 186.825 126.288C186.818 126.29 186.802 126.303 186.751 126.349C186.41 126.649 185.509 127.298 183.703 128.585H183.698C181.723 129.993 177.047 132.99 175.739 133.7L175.64 133.752L174.689 131.871L173.815 130.144C172.824 129.955 171.837 129.65 170.851 129.179C169.907 129.569 168.935 129.921 167.953 130.149L165.295 131.417C163.662 132.195 162.039 132.952 160.746 133.541C159.454 134.13 158.428 134.572 158.215 134.647H158.21L158.197 134.655L158.157 134.668L157.69 134.833L156.373 132.34L155.158 130.038L155.633 129.854C156.094 129.673 157.208 129.17 158.612 128.52C158.302 128.343 157.997 128.153 157.699 127.952C155.568 129.361 153.099 130.408 150.09 130.408C149.272 130.408 148.411 130.314 147.531 130.121C147.361 130.175 147.198 130.229 147.032 130.281C145.358 130.802 143.144 131.405 141.311 131.855C140.394 132.08 139.57 132.267 138.964 132.389C138.731 132.435 138.567 132.463 138.411 132.488C138.326 132.334 138.234 132.17 138.115 131.935C137.852 131.417 137.527 130.733 137.201 130.03H134.634C135.037 130.928 135.394 131.75 135.636 132.362C135.748 132.645 135.797 132.806 135.867 133.008C135.426 133.089 134.854 133.188 134.238 133.288C131.451 133.738 126.457 134.195 124.422 134.197H123.389L122.777 132.754C122.432 131.939 122.004 130.918 121.633 130.03H119.07L119.514 131.009C120.176 132.472 120.63 133.525 120.887 134.197C120.753 134.198 120.65 134.204 120.505 134.204H120.406C118.482 134.197 115.171 133.87 112.434 133.397L110.364 133.038L109.422 130.918C109.186 130.384 108.962 129.853 108.754 129.353C108.023 129.629 107.266 129.864 106.477 130.038C106.651 130.464 106.821 130.887 107.003 131.313C107.181 131.732 107.264 131.952 107.378 132.235C107.165 132.163 107.051 132.131 106.766 132.03C105.512 131.586 104.086 130.986 102.839 130.407C99.6947 130.355 96.5755 129.398 93.6853 127.801C93.6058 127.883 93.5341 127.975 93.465 128.068C100.123 137.969 109.438 146.016 120.7 151.219C124.046 152.764 131.547 155.224 134.9 155.866C145.941 157.978 156.538 157.347 167.075 154.209V154.298L167.219 154.169C168.152 153.889 169.088 153.717 170.02 153.395C173.094 152.336 179.876 149.096 182.581 147.392L185.053 145.834H184.721C194.291 139.285 201.831 130.764 207.13 120.117C209.232 115.893 211.854 107.814 212.672 103.052C215.031 89.3246 213.302 76.0548 207.521 63.5527C196.963 40.7231 174.211 25.9639 148.836 25.4762C148.396 25.4685 147.953 25.466 147.508 25.4686L147.512 25.4658ZM151.048 29.2361C151.444 29.2344 151.776 29.3344 152.631 29.6151C152.821 29.6776 152.929 29.7362 153.132 29.8094C152.397 29.9185 151.745 30.0011 151.044 30.1257L150.982 30.1334C150.27 30.2581 149.705 30.3315 149.333 30.3443C148.947 30.3571 148.755 30.2857 148.804 30.312V30.3069C148.592 30.193 148.183 30.0412 147.846 29.8983C148.17 29.8184 148.389 29.7596 148.817 29.6577C150.052 29.3638 150.652 29.2357 151.048 29.2333L151.048 29.2361ZM138.595 30.496C138.886 30.4884 139.26 30.5388 139.521 30.5275L139.513 30.5352L136.909 31.8553L136.228 31.7734C137.039 31.1937 137.764 30.6872 138.341 30.5283C138.412 30.5078 138.498 30.4986 138.595 30.496ZM133.573 30.7016C133.283 30.9023 132.83 31.2613 132.638 31.3473C132.299 31.4988 131.836 31.5538 131.17 31.6243L131.835 30.9386L133.372 30.7277C133.462 30.7174 133.488 30.7124 133.573 30.7016ZM144.07 31.0214L145.324 31.4161C145.393 31.4391 145.419 31.457 145.485 31.4788C144.551 31.7485 143.258 32.1531 142.22 32.5261L140.429 33.1718L139.959 32.968L141.322 32.3224L144.07 31.0214ZM160.712 31.6269C160.915 31.6346 161.07 31.6346 161.285 31.6449C162.552 31.6958 163.98 31.7831 164.461 31.8453C165.406 31.9679 166.478 32.5766 167.878 33.9731C167.89 33.9859 167.89 33.991 167.904 34.0028C167.654 33.9705 167.527 33.958 167.216 33.9175C165.56 33.6997 163.771 33.5047 163.039 33.4792C162.795 33.4716 162.549 33.4327 162.397 33.3904C162.35 33.3776 162.34 33.37 162.318 33.3607C162.279 33.3139 162.237 33.2391 162.19 33.1831C162.084 33.0574 161.956 32.9148 161.805 32.7518C161.503 32.4258 161.118 32.0305 160.715 31.6347V31.6296C160.714 31.6283 160.715 31.6283 160.712 31.6269ZM156.836 31.7081C156.854 31.7102 156.881 31.7132 156.926 31.7337C157.041 31.7862 157.217 31.8857 157.417 32.0142C157.817 32.2718 158.316 32.6471 158.77 33.0285C158.932 33.1647 159.019 33.2693 159.165 33.4032C159.147 33.4033 159.136 33.403 159.119 33.4032H158.994C158.05 33.4032 156.255 33.47 154.939 33.5452C154.313 33.5808 153.707 33.5905 153.26 33.5749C153.039 33.5672 152.86 33.5493 152.747 33.5358C152.677 33.4733 152.576 33.384 152.388 33.2064C152.161 32.9909 151.878 32.7201 151.604 32.4492C151.659 32.4415 151.656 32.439 151.713 32.4288C152.249 32.3448 152.926 32.2424 153.619 32.1421C154.941 31.9506 156.295 31.7658 156.836 31.7081ZM126.964 32.2213C126.584 32.3651 126.312 32.4826 125.426 32.7441C125.316 32.7766 125.248 32.7876 125.143 32.8163L125.161 32.7666L126.641 32.3153C126.761 32.2786 126.84 32.2587 126.964 32.2213ZM169.938 32.7537C170.578 32.9111 171.243 33.0642 171.765 33.2216C172.538 33.4545 173.761 34.0515 174.191 34.3674C174.585 34.6569 175.193 35.2058 175.757 35.7179C174.568 35.3565 173.226 34.9669 172.532 34.8187C171.987 34.7025 171.716 34.6093 171.568 34.5225C171.42 34.4357 171.312 34.329 171.08 34.0014C170.826 33.6429 170.356 33.1919 169.938 32.7537ZM148.58 33.1171C148.65 33.1119 148.691 33.1222 148.728 33.1324C148.802 33.1554 148.965 33.2368 149.287 33.501C149.496 33.6725 149.652 33.8538 149.873 34.0708L149.06 34.1894C147.727 34.3826 145.763 34.7296 144.626 34.9727L143.072 35.302L142.661 34.8838C144.621 34.21 147.568 33.3116 148.25 33.1681C148.409 33.1346 148.509 33.1204 148.58 33.1171ZM133.738 33.9326C133.318 34.2279 132.931 34.505 132.513 34.8187C132.743 34.5961 132.973 34.3712 133.148 34.2158C133.356 34.031 133.519 33.9263 133.468 33.9457C133.526 33.938 133.628 33.9377 133.738 33.9326ZM129.745 34.2524C129.36 34.662 128.986 35.0707 128.692 35.4043C128.532 35.5858 128.394 35.7483 128.283 35.8826C128.205 35.9771 128.149 36.0531 128.089 36.1388C128.147 36.0211 128.119 36.0687 128.187 35.9351C128.703 34.9346 128.998 34.5109 129.241 34.344C129.314 34.2941 129.63 34.2892 129.745 34.2524ZM137.184 34.4267L137.417 34.4989C137.03 34.6972 136.578 34.9222 136.094 35.1611L137.184 34.4267ZM125.986 35.0454C125.814 35.4081 125.661 35.712 125.505 36.057C125.264 36.5895 125.048 36.8587 124.867 36.9919C124.82 37.0264 124.712 37.0175 124.66 37.0416C124.655 36.8593 124.642 36.7682 124.652 36.4787C124.67 36.0363 124.684 35.7283 124.711 35.5759C124.738 35.4239 124.732 35.4708 124.741 35.461C124.754 35.4482 125.428 35.2271 125.986 35.0454ZM159.283 35.7276C160.448 35.7276 160.987 35.8203 161.147 35.915C161.306 36.0097 161.459 36.2431 161.752 37.1009C162.001 37.8305 162.102 38.1755 162.206 38.5333C161.831 38.5021 161.415 38.4657 160.932 38.4079L159.987 38.293V38.326C158.813 38.2057 157.431 38.071 156.41 38.0132C155.613 37.9679 155.058 37.9062 154.767 37.845C154.749 37.8399 154.76 37.8399 154.744 37.8373C154.707 37.7175 154.689 37.598 154.635 37.4391C154.526 37.112 154.386 36.7249 154.234 36.3395C154.174 36.187 154.147 36.0874 154.099 35.9509C154.496 35.9184 154.964 35.8856 155.514 35.8549C156.764 35.7855 158.254 35.7299 159.283 35.7276ZM163.766 35.915C164.824 35.9669 166.504 36.1581 168.44 36.4656L170.188 36.7418L170.669 37.6768C170.961 38.2461 171.368 39.2686 171.66 40.1174C171.701 40.2362 171.716 40.3061 171.752 40.4172C171.308 40.3191 170.836 40.2144 170.264 40.0782L170.014 40.0191L170.004 40.0242C168.546 39.6816 166.756 39.29 165.86 39.1284C165.232 39.0153 164.865 38.9129 164.737 38.8583C164.601 38.2409 164.342 37.4218 164.053 36.6347C163.955 36.367 163.86 36.1467 163.766 35.915ZM140.22 35.9329C140.264 35.9311 140.28 35.938 140.297 35.9431C140.308 35.9482 140.381 36.0105 140.406 36.0261C140.275 36.066 140.235 36.0727 140.077 36.121C139.788 36.2096 139.403 36.3327 139.06 36.4408V36.4306L138.843 36.5004C139.125 36.3814 139.829 36.0159 139.982 35.9768C140.106 35.945 140.176 35.9347 140.22 35.9329ZM151.568 36.1786L151.795 36.623C151.994 37.017 152.175 37.4825 152.318 37.8847C152.033 37.8898 151.759 37.8924 151.41 37.8924L150.564 37.8873V37.9203C149.433 37.9408 147.989 37.9766 146.73 38.0493C145.945 38.0946 145.263 38.1018 144.801 38.0815C144.692 38.0764 144.65 38.0713 144.57 38.0611C144.505 37.8596 144.457 37.7111 144.376 37.4546L144.883 37.3302C145.56 37.1649 147.555 36.798 149.181 36.546L151.568 36.1786ZM122.257 36.3921C122.262 36.5697 122.272 36.7076 122.27 36.9097L122.257 37.9204L121.937 38.0223H121.932C121.743 38.083 121.561 38.1285 121.409 38.1608C121.398 38.1454 121.391 38.1403 121.379 38.1242C121.223 37.9292 121.02 37.6492 120.822 37.3539L120.629 37.0603L121.435 36.7213C121.746 36.5898 121.996 36.4942 122.257 36.3921ZM173.164 37.3837L175.264 38.0293L178.73 39.0959L179.448 40.5127C179.848 41.3054 180.281 42.4129 180.567 43.3053C180.592 43.3831 180.597 43.4217 180.619 43.496C180.317 43.3683 180.06 43.2536 179.579 43.0708C178.858 42.7965 177.98 42.4763 177.107 42.1715L174.398 41.2235L174.217 40.4628C174.034 39.6926 173.589 38.4092 173.183 37.4297L173.164 37.3837ZM142.075 38.0555C142.109 38.183 142.16 38.2987 142.204 38.4241C141.901 38.4622 141.6 38.4973 141.222 38.5426L139.676 38.731L139.728 38.7937C139.488 38.8305 139.267 38.8702 139.01 38.9122C140.702 38.377 141.669 38.1095 142.075 38.0555ZM118.537 38.3352C118.63 38.4358 118.717 38.5167 118.978 38.8623C119.137 39.0725 119.251 39.2456 119.37 39.4226C119.302 39.46 119.255 39.4912 119.183 39.5281C118.815 39.7139 118.806 39.7167 118.659 39.7024C118.512 39.687 118.11 39.5624 117.346 39.251L117.187 39.1848C117.762 38.8218 118.232 38.5281 118.537 38.3352ZM152.01 40.2086C152.341 40.2108 152.551 40.2214 152.674 40.2354C152.679 40.3176 152.697 40.4407 152.692 40.6903C152.686 41.0158 152.666 41.4149 152.632 41.7934C152.607 42.0802 152.57 42.3181 152.536 42.5445C152.301 42.514 152.051 42.4785 151.754 42.4285C151.748 42.4281 151.743 42.429 151.741 42.4285C150.902 42.2883 149.171 42.081 147.557 41.9083C146.747 41.8221 145.974 41.7471 145.375 41.6949C145.191 41.6795 145.06 41.6693 144.911 41.6583C144.906 41.5707 144.898 41.5198 144.893 41.4212C144.886 41.0996 144.916 40.8334 144.936 40.529C145.274 40.4962 145.708 40.4614 146.256 40.4261C147.465 40.3488 149.068 40.2723 150.621 40.2293C151.228 40.2114 151.679 40.206 152.01 40.2086ZM155.088 40.2984C155.317 40.3035 155.562 40.3087 155.89 40.3281C156.733 40.3778 157.83 40.4707 158.918 40.5782C160.006 40.6855 161.087 40.808 161.89 40.9206C162.218 40.9667 162.457 41.0074 162.667 41.046C162.675 41.1638 162.682 41.2705 162.682 41.425C162.684 41.9036 162.659 42.5197 162.617 43.1207C162.574 43.7142 162.513 44.2943 162.446 44.7178C162.107 44.5952 161.681 44.4826 160.997 44.3092C160.258 44.1218 159.343 43.9005 158.43 43.687C157.517 43.4738 156.609 43.2682 155.886 43.1137C155.524 43.0364 155.208 42.9737 154.958 42.9263C154.925 42.9186 154.907 42.9212 154.878 42.9161C154.886 42.8629 154.88 42.911 154.891 42.8508C155.002 42.2314 155.075 41.3231 155.072 40.6472V40.6421C155.072 40.5067 155.08 40.4156 155.085 40.297L155.088 40.2984ZM181.976 40.4466C182.049 40.4809 182.094 40.5001 182.17 40.5354C183.219 41.0308 184.459 41.6522 185.234 42.0829C186.023 42.5218 186.525 42.9736 186.857 43.4762C187.204 44.0024 187.799 45.2877 188.249 46.4832C188.391 46.8616 188.487 47.1882 188.598 47.5305C187.987 47.1649 187.304 46.7576 186.643 46.3943C185.753 45.906 184.618 45.3194 184.033 45.0507L183.42 44.7675L183.065 43.4727C182.82 42.5721 182.367 41.3509 181.976 40.4466ZM111.658 40.5782C111.532 40.7054 111.473 40.7638 111.322 40.9171C111.055 41.186 110.787 41.438 110.582 41.6124C110.489 41.691 110.415 41.7458 110.364 41.7832C110.245 41.8062 109.918 41.8771 109.699 41.9217C110.242 41.4371 110.832 40.9042 111.17 40.6443C111.286 40.555 111.545 40.6084 111.658 40.5782ZM142.513 40.7638C142.515 40.8618 142.521 40.934 142.521 41.0365C142.519 41.1914 142.51 41.3142 142.5 41.4547C142.301 41.4598 142.118 41.4624 141.842 41.4675C141.027 41.4778 139.913 41.4829 138.705 41.4804H138.7C138.539 41.4804 138.441 41.4805 138.285 41.4804C138.218 41.4803 138.174 41.4781 138.108 41.4781C138.686 41.3739 138.958 41.3023 139.549 41.2045C140.485 41.0497 141.387 40.9098 142.074 40.8159C142.253 40.7903 142.367 40.7814 142.513 40.7638ZM114.683 40.9834C114.724 40.9885 114.742 40.982 114.814 40.9936C115.079 41.0359 115.507 41.1492 116.042 41.3326H116.047C116.266 41.4073 116.419 41.4685 116.613 41.5399C116.606 41.541 116.608 41.545 116.603 41.5476C116.303 41.597 115.684 41.6128 114.602 41.5998C114.381 41.5947 114.233 41.5921 114.026 41.5921C114.256 41.3805 114.37 41.2726 114.684 40.9857L114.683 40.9834ZM165.033 41.4016C165.429 41.4641 165.894 41.5452 166.498 41.6683C167.899 41.9536 169.756 42.3807 171.666 42.8707L172.239 43.0189L172.262 43.7465C172.285 44.3997 172.211 45.9432 172.095 47.0105L171.992 47.9489L170.567 47.4087C169.21 46.8951 167.229 46.1924 166.104 45.8281V45.8229C165.357 45.5813 164.968 45.4222 164.78 45.3289C164.87 44.6367 164.947 43.7316 164.991 42.8326C165.017 42.3236 165.032 41.8446 165.034 41.4663C165.034 41.4407 165.033 41.4259 165.033 41.4016ZM154.353 42.8376H154.366C154.36 42.8374 154.376 42.8427 154.373 42.8427C154.366 42.8424 154.363 42.8376 154.353 42.8376ZM174.629 43.783L175.981 44.2631C178.189 45.0442 179.593 45.5794 180.396 45.9657C180.797 46.1589 181.044 46.3191 181.149 46.4075C181.18 46.4331 181.178 46.4305 181.186 46.4346C181.315 47.3093 181.263 49.9099 181.018 51.5519L180.919 52.2167C180.378 51.9522 178.814 51.1791 177.114 50.3294L176.936 50.2406C176.935 50.2401 176.934 50.2411 176.931 50.2406C176.105 49.8267 175.325 49.4289 174.769 49.1375C174.548 49.0221 174.399 48.9427 174.249 48.8613C174.28 48.61 174.325 48.2915 174.384 47.9421C174.529 47.0649 174.631 45.5909 174.628 44.4881L174.629 43.783ZM141.868 43.8127L141.779 44.0392C141.656 44.3587 141.541 44.6317 141.44 44.8626C141.435 44.8619 141.435 44.8634 141.43 44.8626C141.077 44.8004 140.592 44.7029 140.074 44.5899C139.115 44.3818 137.552 44.0949 136.315 43.885C136.966 43.8671 137.26 43.8364 138.56 43.8292L141.868 43.8127ZM144.303 43.9739L144.692 43.9893C145.865 44.0428 147.871 44.2738 149.566 44.5226C150.414 44.647 151.189 44.7772 151.743 44.8885C151.821 44.9038 151.852 44.9141 151.92 44.9277C151.805 45.2913 151.637 45.7568 151.453 46.219C151.26 46.7011 151.052 47.1758 150.886 47.5094C150.879 47.5197 150.879 47.5248 150.874 47.5366C150.662 47.4782 150.434 47.4158 150.119 47.3257C149.334 47.1009 148.27 46.7866 147.121 46.4395L146.035 46.1101L143.78 45.4322L143.997 44.8293L144.303 43.9739ZM112.869 44.0331C112.727 44.0645 112.706 44.0697 112.559 44.1019L111.901 44.2476V44.2553C111.675 44.3057 111.561 44.3333 111.351 44.3807C111.398 44.3479 111.496 44.1818 111.542 44.1603C111.71 44.0814 112.383 44.0668 112.869 44.0331ZM108.087 44.6622C107.923 44.8667 107.74 45.1401 107.55 45.2712C107.246 45.4816 106.603 45.7794 105.473 46.2854L106.378 45.1196L107.807 44.731C107.932 44.6972 107.974 44.6924 108.087 44.6622ZM190.191 45.2617C190.465 45.4644 190.687 45.6171 190.984 45.8446L193.348 47.6491L194.519 50.2309C194.834 50.923 195.132 51.6371 195.375 52.2628C194.808 51.8185 194.517 51.576 193.775 51.0046C192.677 50.1587 192.012 49.6212 191.666 49.2855C191.32 48.9497 191.356 48.9284 191.356 48.9265C191.259 48.0023 190.701 46.5601 190.191 45.2617ZM154.359 45.2668L154.461 45.2796C154.785 45.3146 156.654 45.6985 158.375 46.0995C159.236 46.2999 160.089 46.5076 160.771 46.6824C161.39 46.8411 161.822 46.9739 161.959 47.0188L161.604 47.9798C161.262 48.9082 160.697 50.2378 160.405 50.8213L160.166 51.3022L159.425 50.999C158.619 50.6706 156.679 49.8803 155.113 49.2407L153.092 48.4146L153.115 48.3686C153.366 47.8413 153.775 46.8428 154.069 46.0499V46.0448L154.359 45.2668ZM133.566 45.8819C133.733 45.9024 133.929 45.926 134.195 45.9649C134.823 46.0562 135.678 46.1968 136.594 46.3631C138.564 46.7203 139.508 46.9032 140.166 47.0418C140.022 47.2241 139.885 47.4005 139.725 47.5882C139.493 47.8609 139.269 48.1043 139.089 48.2896C138.732 48.1301 137.841 47.7346 136.512 47.1403C135.722 46.7866 134.95 46.4531 134.337 46.1984C134.036 46.073 133.778 45.9635 133.566 45.8819ZM109.798 47.2822C109.588 47.3687 109.567 47.3846 109.337 47.479C109.339 47.4739 109.378 47.4163 109.376 47.4173C109.406 47.402 109.703 47.3167 109.798 47.2822ZM183.585 47.4493L184.299 47.8214C185.352 48.3685 187.003 49.2983 187.906 49.8533L189.247 50.6768L189.329 51.5263C189.416 52.4241 189.362 54.1846 189.227 55.673C189.166 56.3418 189.086 56.9239 189.007 57.3956C188.999 57.388 188.991 57.3854 188.984 57.3777L188.865 57.2853C188.221 56.7862 186.614 55.7128 185.156 54.7889C183.884 53.9833 183.257 53.557 183.069 53.3896C183.417 52.0828 183.606 49.9501 183.592 47.9489L183.585 47.4493ZM142.631 47.6114L143.948 47.9703C145.769 48.4654 147.408 48.9609 148.573 49.3566C149.009 49.5048 149.296 49.6171 149.577 49.7287C149.566 49.7466 149.561 49.7543 149.551 49.7715C149.266 50.1804 148.876 50.7061 148.48 51.2109C148.085 51.7157 147.682 52.2045 147.378 52.5475C147.334 52.5969 147.315 52.6136 147.276 52.6566C147.092 52.5575 146.893 52.4528 146.627 52.3071C145.961 51.9429 145.072 51.4503 144.119 50.9209C143.167 50.3922 142.296 49.9034 141.664 49.5415C141.537 49.4694 141.47 49.4312 141.364 49.3698C141.524 49.1371 141.689 48.8996 141.904 48.6056L142.631 47.6114ZM164.175 47.7299L166.847 48.6256C168.722 49.2542 169.996 49.7047 170.791 50.0249C171.127 50.1604 171.332 50.2576 171.495 50.3413C171.446 50.5251 171.381 50.7439 171.281 51.0296C171.044 51.7051 170.691 52.5848 170.317 53.4397C169.943 54.2947 169.548 55.1318 169.234 55.7191C169.162 55.8527 169.12 55.9083 169.059 56.0119C168.988 55.973 168.942 55.9484 168.862 55.9039C168.41 55.6543 167.814 55.3198 167.186 54.9646C165.909 54.2427 164.228 53.3438 163.378 52.9326C162.985 52.7427 162.609 52.5513 162.328 52.3994C162.323 52.3977 162.323 52.3943 162.318 52.3917C162.4 52.1542 162.514 51.8658 162.667 51.5421C163.066 50.6976 163.61 49.3619 163.918 48.4733L164.175 47.7299ZM131.829 47.7595L132.882 48.1647C134.344 48.73 135.72 49.3266 136.7 49.8011C137.014 49.9532 137.195 50.0607 137.414 50.1802C137.213 50.377 136.999 50.5825 136.759 50.7953C136.459 51.0611 136.159 51.3091 135.93 51.4837C135.885 51.4501 135.858 51.4304 135.808 51.3912C135.502 51.1565 135.096 50.8333 134.679 50.4859C133.826 49.775 132.629 48.7926 132.006 48.2893L131.614 47.973L131.829 47.7595ZM106.181 48.556L105.983 49.0866L103.488 50.6045C102.984 50.911 102.597 51.1584 102.184 51.4183C102.225 51.3326 102.244 51.2614 102.284 51.1839C102.58 50.5969 102.642 50.466 102.872 50.2785C103.102 50.0911 103.637 49.8014 104.748 49.2408C105.259 48.9831 105.744 48.7573 106.181 48.556ZM190.668 49.0369V49.0807C190.669 49.0705 190.66 49.0577 190.66 49.0477C190.66 49.0426 190.668 49.0395 190.668 49.0369ZM129.739 49.5249L130.953 50.493C132.117 51.4224 133.059 52.2058 133.692 52.7654C133.819 52.878 133.87 52.9325 133.971 53.0259C133.702 53.2112 133.413 53.4117 133.089 53.6254C132.714 53.8727 132.351 54.1043 132.049 54.2937C132.006 54.2284 131.982 54.1939 131.933 54.1194C131.602 53.6132 131.151 52.9093 130.663 52.1362C130.178 51.3666 129.736 50.6441 129.422 50.1078C129.344 49.9742 129.302 49.8964 129.241 49.7889C129.3 49.7554 129.335 49.7287 129.399 49.6965L129.739 49.5249ZM109.23 50.1558C108.99 50.3093 108.568 50.5557 108.409 50.6646C108.21 50.8003 108.129 50.8563 107.972 50.9644C107.979 50.9188 107.979 50.8561 107.987 50.8161C107.995 50.7754 108.002 50.7593 108.01 50.7273C108.036 50.7145 108.048 50.7068 108.08 50.6907C108.271 50.5947 108.547 50.4624 108.876 50.3117C108.973 50.2669 109.124 50.2039 109.23 50.1558ZM151.95 50.5296L152.96 50.9112C153.816 51.2363 155.701 52.0055 157.105 52.6007C158.113 53.0284 158.637 53.2791 158.918 53.4407C158.822 53.5979 158.705 53.7791 158.553 54.0036C158.201 54.5228 157.731 55.1727 157.253 55.8081C156.775 56.4434 156.285 57.0674 155.903 57.5246C155.761 57.6941 155.657 57.8095 155.554 57.9228C155.502 57.8972 155.474 57.8891 155.413 57.8566C155.074 57.6771 154.622 57.4023 154.162 57.0924C153.189 56.436 151.54 55.3539 150.482 54.6753C150.036 54.3896 149.691 54.1381 149.418 53.925C149.472 53.8554 149.51 53.8068 149.57 53.7272C149.893 53.3021 150.311 52.7432 150.748 52.1527L151.95 50.5296ZM127.194 51.0829C127.233 51.1425 127.579 51.5854 128.224 52.6504C128.757 53.5311 129.497 54.711 129.887 55.3079L130.024 55.5189L128.981 55.9633V55.9581C128.512 56.1586 128.099 56.3246 127.75 56.4592C127.69 56.2354 127.636 56.0428 127.556 55.7211C127.312 54.7303 126.987 53.3109 126.624 51.6215C126.597 51.4922 126.589 51.4395 126.58 51.3793C126.606 51.3717 126.681 51.3297 126.898 51.2199C127.075 51.1305 127.121 51.1138 127.194 51.0829ZM173.674 51.2474L175.287 52.0151C176.619 52.6472 178.471 53.5929 179.332 54.0792L180.382 54.6726L180.099 55.5814C179.927 56.134 179.23 57.8729 178.575 59.4014C178.247 60.1656 177.924 60.8915 177.677 61.4238C177.656 61.4673 177.646 61.4852 177.627 61.5256C177.607 61.5154 177.601 61.5077 177.581 61.4959C177.093 61.1774 176.424 60.7285 175.695 60.2308C174.218 59.223 172.472 58.0765 171.725 57.6325C171.483 57.4884 171.302 57.3716 171.12 57.2543C171.879 55.7553 172.779 53.7892 173.279 52.3705L173.674 51.2474ZM139.761 51.2735L140.025 51.392C140.329 51.5287 144.416 53.7997 145.639 54.514C145.353 54.8293 144.951 55.243 144.076 56.0685C143.153 56.9404 142.577 57.3897 142.361 57.501C142.155 57.2647 141.831 56.9513 141.325 56.4667C140.805 55.9683 140.15 55.351 139.481 54.7345C138.821 54.1256 138.225 53.5645 137.802 53.1539C137.771 53.1232 137.76 53.1104 137.73 53.0817C137.993 52.8434 138.296 52.5699 138.651 52.2548L139.761 51.2735ZM124.294 52.1065C124.405 52.5333 124.548 53.129 124.695 53.783C125.193 55.9869 125.411 56.9884 125.436 57.3032C125.374 57.3331 125.413 57.3044 125.305 57.3564H125.3C125.001 57.4982 124.134 57.7894 123.565 57.9263L123.542 57.9339C123.468 57.9518 123.431 57.9467 123.362 57.9611C123.382 57.5368 123.411 56.9843 123.453 56.3735C123.54 55.114 123.666 53.637 123.776 52.6982C123.816 52.3572 123.852 52.2266 123.849 52.1989C123.908 52.1836 123.962 52.1695 124.099 52.1413H124.104C124.176 52.1259 124.226 52.1191 124.294 52.1065ZM105.512 52.1168L105.477 52.6866L103.784 54.0206C102.638 54.9249 101.687 55.8116 100.687 56.7244C100.697 56.6051 100.697 56.5142 100.71 56.3915L100.852 55.1264L102.813 53.869C103.905 53.1691 104.902 52.5196 105.512 52.1168ZM110.262 52.2944C109.928 52.5846 109.576 52.8575 109.301 53.1082C108.883 53.4886 108.516 53.8159 108.192 54.1059C108.157 53.9869 108.119 53.8658 108.096 53.7696C108.135 53.7373 108.152 53.7194 108.201 53.6807C108.46 53.479 108.849 53.2037 109.317 52.8869C109.57 52.7155 109.967 52.4856 110.262 52.2944ZM191.709 52.4129L192.186 52.7649C193.272 53.5688 194.298 54.3885 195.072 55.054C195.459 55.3867 195.782 55.6801 196.011 55.907C196.154 56.049 196.259 56.1838 196.309 56.2424C196.317 56.2762 196.329 56.3126 196.337 56.3678C196.357 56.514 196.376 56.7265 196.389 56.9805C196.415 57.4882 196.419 58.159 196.407 58.8747C196.38 60.306 196.271 61.943 196.117 62.8654C196.078 63.096 196.07 63.0868 196.035 63.261C195.92 63.1586 195.735 62.9952 195.587 62.8654H195.61L193.922 61.3868C193.202 60.7575 192.519 60.158 192 59.6972C191.572 59.3175 191.34 59.1035 191.252 59.0255C191.247 58.9482 191.245 58.8698 191.247 58.7396C191.258 58.3892 191.308 57.9009 191.392 57.3986V57.3935C191.585 56.231 191.72 54.3394 191.715 53.0142V53.0091L191.709 52.4129ZM121.381 52.6604L121.216 54.5077C121.073 56.1069 120.948 57.7295 120.927 58.2518C120.922 58.3836 120.917 58.3993 120.909 58.4663C120.891 58.4484 120.61 58.5372 119.81 58.6309C119.549 58.6614 119.317 58.6772 119.085 58.6936C119.116 58.5666 119.115 58.519 119.161 58.3572C119.405 57.5013 119.867 56.181 120.537 54.4319L121.209 52.6831L121.381 52.6604ZM197.972 52.7057C198.66 53.5775 199.278 54.3382 199.927 55.5907C200.134 55.9898 200.319 56.4993 200.53 56.9805C200.35 56.7909 200.256 56.6819 200.079 56.4969L198.542 54.8963L198.239 53.5396C198.185 53.299 198.051 52.9899 197.972 52.7057ZM98.7314 52.9924C98.4863 53.5664 98.2919 54.1152 97.3989 54.8562C97.6271 54.5285 97.9914 53.604 98.2219 53.4011C98.3421 53.2951 98.5695 53.1252 98.7314 52.9924ZM118.415 53.3679L117.707 55.4225C117.341 56.4843 117.001 57.4546 116.75 58.1594C116.66 58.4136 116.597 58.5865 116.532 58.7624C116.348 58.7547 116.163 58.7496 115.93 58.7394L115.881 58.7371C115.569 58.7167 115.37 58.6947 115.184 58.6709C115.214 58.6069 115.209 58.6035 115.249 58.5262C115.495 58.047 116.519 56.3139 117.444 54.8343C117.995 53.954 118.164 53.7325 118.415 53.3679ZM112.389 53.5858C111.931 54.1167 111.537 54.5364 111.135 55.0244L109.89 56.5326L109.808 56.4699C109.699 56.3854 109.605 56.3005 109.505 56.2138C109.54 56.1736 109.547 56.1587 109.587 56.1144C109.933 55.7369 110.468 55.2168 111.085 54.6523C111.484 54.2877 111.941 53.968 112.389 53.5858ZM115.345 53.7959C114.904 54.5108 114.546 55.0516 114.063 55.8871C113.642 56.6161 113.245 57.2862 112.948 57.7745C112.865 57.9104 112.813 57.9902 112.748 58.0942C112.554 58.0325 112.343 57.9619 112.095 57.8669H112.09L111.913 57.798L111.933 57.7709C112.225 57.3742 113.636 55.7019 114.935 54.2376C115.161 53.9824 115.158 54.0043 115.345 53.7959ZM161.091 54.4486L162.022 54.9025C162.723 55.2453 164.186 56.0173 165.538 56.7472C166.652 57.3487 167.448 57.8006 167.917 58.0742C167.799 58.3112 167.656 58.592 167.391 59.003C166.717 60.0463 165.642 61.489 164.721 62.6356C164.26 63.209 163.835 63.7093 163.526 64.0446C163.503 64.0702 163.498 64.075 163.477 64.0978C163.445 64.0748 163.428 64.0612 163.394 64.0351C163.064 63.7812 162.631 63.4381 162.18 63.0696C161.25 62.3087 159.684 61.085 158.661 60.3236C158.2 59.9808 157.801 59.6719 157.493 59.4244C157.766 59.067 158.139 58.5849 158.546 58.0677C159.388 56.9988 160.359 55.6538 160.794 54.9361L161.091 54.4486ZM135.771 54.6787C135.956 54.8008 136.192 54.9685 136.539 55.2555C137.35 55.9279 138.533 57.0172 140.027 58.4724C140.343 58.7799 140.379 58.8327 140.512 58.977C140.443 59.0289 140.449 59.0251 140.37 59.0824C140.062 59.3046 139.667 59.5848 139.244 59.8753C138.4 60.4564 137.444 61.091 136.897 61.4272C136.759 61.5121 136.641 61.5877 136.516 61.6667C136.378 61.4482 136.331 61.3791 136.141 61.0682C135.745 60.4215 135.258 59.6137 134.785 58.8219C134.312 58.03 133.852 57.2532 133.514 56.6714C133.423 56.515 133.371 56.4201 133.3 56.2959C133.56 56.1152 133.882 55.9013 134.258 55.6702C134.702 55.397 135.129 55.1201 135.469 54.8895C135.586 54.8107 135.677 54.7462 135.771 54.6787ZM106.121 55.1736L106.178 55.2849L106.418 55.7589L104.789 57.4519C103.647 58.6367 102.303 60.1251 101.714 60.8667C101.576 61.0413 101.466 61.1728 101.339 61.3276C101.102 60.809 100.916 60.3101 100.875 59.9936C100.827 59.6239 100.94 59.5616 100.829 59.6547C101.081 59.443 102.215 58.4679 103.403 57.4415C104.542 56.4576 105.763 55.4473 106.121 55.1736ZM147.835 55.7591C147.928 55.8175 148.003 55.8638 148.118 55.9368C148.54 56.205 149.094 56.5651 149.686 56.951C150.869 57.723 152.206 58.608 152.931 59.1085C153.456 59.4716 153.68 59.6557 153.875 59.8195C153.747 59.9533 153.618 60.0909 153.437 60.2708C152.963 60.744 152.336 61.345 151.693 61.9533C150.611 62.976 149.669 63.8064 149.146 64.2458C149.036 64.1427 148.953 64.0725 148.813 63.9365C148.278 63.417 147.55 62.6797 146.759 61.861C145.964 61.0365 145.215 60.2683 144.655 59.6913C144.375 59.4029 144.314 59.3405 144.152 59.1738C144.257 59.0724 144.323 58.9928 144.468 58.874C145.1 58.3585 146.168 57.375 146.927 56.6182V56.6233C147.272 56.2789 147.594 55.9757 147.835 55.7591ZM182.499 55.8812C182.88 56.1193 183.357 56.4251 183.885 56.7674C184.99 57.4847 186.268 58.3327 187.084 58.9013L188.476 59.8728L187.697 62.1348C187.283 63.3366 186.648 64.9059 186.08 66.1787C185.805 66.7955 185.545 67.3314 185.339 67.7305C185.207 67.624 185.097 67.5439 184.948 67.4142C184.328 66.8731 182.797 65.6048 181.505 64.5589C180.865 64.0414 180.276 63.5575 179.845 63.1952C179.721 63.0905 179.647 63.0229 179.553 62.9415C179.671 62.6781 179.834 62.3368 180.03 61.9665C180.517 61.0496 181.291 59.1825 181.837 57.6464C182.085 56.9509 182.314 56.3447 182.499 55.8812ZM98.2872 57.271C98.2869 57.3127 98.2923 57.3265 98.2923 57.3693L98.2693 58.9072L96.7478 60.5148C95.9822 61.3247 95.2487 62.1607 94.6516 62.8561C94.6907 62.4587 94.6999 62.0339 94.7606 61.6867C94.891 60.9389 95.1571 60.2948 95.1385 60.3205C95.1378 60.3216 95.468 59.9466 95.8631 59.5529C96.2582 59.1591 96.7571 58.6803 97.2557 58.2128C97.625 57.8664 97.9594 57.5655 98.2872 57.271ZM131.224 57.6012C131.223 57.6035 131.376 57.7331 131.618 58.111C131.869 58.5035 132.21 59.112 132.694 59.9417C133.343 61.0523 134.11 62.3083 134.472 62.8362L134.48 62.8541L132.291 63.8448C131.441 64.2299 130.657 64.5778 130.082 64.8234C130.026 64.8489 130 64.8569 129.947 64.8792C129.915 64.7694 129.892 64.7033 129.855 64.5759C129.655 63.8843 129.4 62.9527 129.15 62.0203C128.9 61.0879 128.655 60.1526 128.479 59.442C128.415 59.1856 128.374 59.0041 128.331 58.8199C128.351 58.8122 128.357 58.8071 128.377 58.7969C128.737 58.6264 129.242 58.4041 129.792 58.1747C130.4 57.9213 130.83 57.7265 131.069 57.6511C131.178 57.6168 131.212 57.6058 131.224 57.6012ZM107.82 57.8539C107.983 57.9972 108.078 58.0671 108.251 58.246C108.321 58.3181 108.361 58.367 108.422 58.4333C108.354 58.5303 108.301 58.6038 108.215 58.7261C107.888 59.1891 107.444 59.817 106.96 60.4914C105.978 61.8616 104.866 63.5186 104.413 64.3087C104.293 64.5179 104.2 64.6743 104.097 64.8516C103.99 64.7689 103.909 64.7131 103.791 64.6181C102.967 63.9529 102.652 63.5468 102.639 63.542C102.641 63.5369 102.639 63.5437 102.641 63.5369C102.678 63.4519 102.808 63.2503 103.02 62.9732C103.782 61.9802 105.091 60.5267 106.223 59.3711C106.789 58.7933 107.317 58.2873 107.698 57.9517C107.752 57.904 107.772 57.8943 107.82 57.8539ZM198.775 58.4891C198.796 58.5121 198.807 58.5201 198.828 58.5423C199.543 59.3051 200.418 60.3079 201.106 61.1738L202.136 62.4677L202.228 63.847C202.296 64.8722 202.223 66.8098 202.087 68.4181C202.048 68.8881 201.996 69.2162 201.949 69.6039C201.762 69.3843 201.609 69.2087 201.4 68.9583L201.146 68.6559H201.133C200.307 67.6763 199.323 66.5291 198.816 65.9748L198.811 65.9697L198.113 65.2055L198.39 63.6807C198.602 62.5164 198.759 60.5686 198.762 59.1689C198.762 58.9046 198.77 58.7287 198.775 58.4891ZM169.948 59.3656C170.166 59.4801 170.454 59.6438 170.8 59.8527C171.537 60.2974 172.484 60.9098 173.408 61.5326C174.332 62.1555 175.237 62.792 175.886 63.2814C176.106 63.447 176.238 63.5611 176.386 63.6831C176.201 63.9966 176.009 64.3292 175.587 64.9439C175.009 65.7853 174.281 66.7969 173.562 67.7662C172.843 68.7354 172.131 69.6639 171.588 70.3349C171.415 70.5481 171.301 70.6771 171.17 70.8289C171.051 70.7245 170.962 70.6462 170.811 70.5126C170.235 70.0033 169.445 69.3014 168.582 68.5303C166.603 66.7612 165.669 65.9047 165.386 65.56C165.409 65.5303 165.384 65.5702 165.416 65.5339C165.948 64.9318 166.907 63.6754 167.822 62.4345C168.279 61.8141 168.719 61.2057 169.073 60.6988C169.426 60.1919 169.677 59.8307 169.833 59.533C169.866 59.4687 169.907 59.4238 169.948 59.3656ZM154.188 59.4903H154.193C154.195 59.4852 154.188 59.4954 154.188 59.4954C154.188 59.4948 154.188 59.4903 154.188 59.4903ZM126.081 59.6549C126.094 59.7043 126.105 59.7299 126.117 59.7839C126.251 60.2747 126.429 60.9439 126.621 61.6738C126.985 63.0587 127.386 64.6205 127.651 65.6819C127.556 65.7219 127.52 65.747 127.121 65.8929C126.5 66.1204 125.123 66.5311 124.172 66.7686C123.805 66.8599 123.499 66.9278 123.204 66.9926C123.199 66.9025 123.197 66.8576 123.197 66.7555C123.176 66.0374 123.166 65.0379 123.174 63.9464C123.184 62.4208 123.215 61.4183 123.273 60.8409C123.293 60.6397 123.313 60.5675 123.332 60.4784C123.86 60.2801 124.627 60.0302 125.343 59.8363C125.634 59.7575 125.856 59.7063 126.081 59.6549ZM110.331 59.7734C110.465 59.7964 110.688 59.8489 111.039 59.9843C111.265 60.0716 111.447 60.1527 111.628 60.2344C111.621 60.2498 111.621 60.2574 111.616 60.271C111.444 60.6811 111.188 61.244 110.898 61.842C110.298 63.0804 109.475 64.8914 109.045 65.9225V65.9276C108.844 66.4087 108.65 66.8485 108.499 67.1753C108.298 67.1121 108.089 67.0453 107.837 66.9514C107.186 66.7077 106.317 66.3131 106.053 66.1646C106.093 66.096 106.369 65.6289 106.751 65.0379C107.156 64.4107 107.671 63.6287 108.192 62.8517C108.713 62.0748 109.239 61.3027 109.66 60.6978C110.016 60.1878 110.25 59.8828 110.331 59.7734ZM142.177 60.6691C142.459 60.8892 143.106 61.5206 144.392 62.83C145.328 63.7832 146.022 64.4768 146.489 64.9805C146.894 65.4163 147.041 65.6472 147.108 65.7577C146.989 65.8586 146.776 66.0195 146.397 66.2979C145.057 67.2827 142.341 69.0642 141.235 69.6961L139.527 66.8077C138.946 65.8228 138.419 64.8984 138.043 64.2128C137.905 63.9625 137.818 63.7891 137.727 63.6133C137.836 63.5445 137.926 63.4777 138.059 63.4096C139.083 62.8862 141.023 61.5725 142.177 60.6691ZM113.998 60.8869C114.301 60.9125 114.711 60.954 115.156 61.0019L115.878 61.0776C115.77 61.5528 115.405 63.0877 115.032 64.6214C114.837 65.4226 114.655 66.2051 114.518 66.8241C114.397 67.3708 114.333 67.6672 114.294 67.9708C114.167 67.9759 113.849 67.9964 113.063 67.9436C112.251 67.8901 111.247 67.7612 110.852 67.684L110.937 67.4731C111.162 66.91 111.982 65.1068 112.74 63.4945C113.12 62.6884 113.487 61.9204 113.765 61.3545C113.861 61.1577 113.928 61.0262 113.998 60.8869ZM120.822 60.9307C120.821 61.5042 120.82 62.4941 120.801 64.2496V64.2548C120.791 66.0559 120.766 67.0595 120.709 67.4978C120.704 67.5183 120.714 67.4971 120.709 67.5158C120.367 67.5675 119.485 67.6844 118.517 67.805C117.736 67.9015 117.16 67.9755 116.802 67.9934C116.672 68.0011 116.765 68.0203 116.71 68.0139C116.742 67.7539 116.829 67.3354 116.957 66.7331C117.203 65.5737 117.683 63.6722 118.004 62.5837L118.441 61.0955L119.797 60.9864C120.202 60.9529 120.525 60.9411 120.821 60.9342L120.822 60.9307ZM155.831 61.1965L157.223 62.2307C158.995 63.5454 160.323 64.5679 161.176 65.2769C161.509 65.5532 161.703 65.7353 161.883 65.906C161.723 66.0814 161.543 66.276 161.301 66.5221C160.714 67.1184 159.931 67.8756 159.125 68.6325C158.32 69.3893 157.489 70.1471 156.805 70.7437C156.239 71.2377 155.871 71.512 155.683 71.6525C155.634 71.609 155.633 71.6187 155.564 71.5409C155.034 70.9363 153.781 69.5246 152.627 68.2246C151.664 67.1393 151.044 66.4392 150.67 66.0244C150.839 65.8555 151.027 65.6695 151.469 65.3065C152.346 64.5859 153.761 63.283 154.695 62.3396L155.831 61.1965ZM190.481 61.4962C190.496 61.509 190.504 61.5167 190.52 61.5292C190.935 61.8676 191.476 62.3258 192.044 62.817C193.179 63.7995 194.434 64.929 194.987 65.4842L195.547 66.0471L194.786 68.2472C194.29 69.6831 193.348 71.9592 192.745 73.1868L192.14 74.4189C191.643 73.8864 190.612 72.83 189.352 71.5705C188.655 70.8736 188.016 70.2335 187.551 69.7625C187.39 69.5994 187.284 69.4907 187.17 69.3738C187.198 69.3111 187.214 69.2758 187.248 69.2021C187.441 68.7902 187.716 68.2233 188.022 67.6084C188.669 66.3089 189.525 64.2189 189.98 62.83C190.164 62.267 190.33 61.8522 190.481 61.4962ZM98.9029 61.6444C98.9861 61.8323 99.0546 61.983 99.1467 62.1977L99.6405 63.3566L98.2245 65.3101C97.2816 66.6123 96.1805 68.2199 95.7163 68.9819C95.6388 69.1094 95.6705 69.059 95.6014 69.1667C95.506 68.9093 95.4095 68.6517 95.3088 68.3624C95.166 67.9523 95.027 67.5398 94.9204 67.2001C94.8388 66.9397 94.8022 66.7985 94.7748 66.693C94.8129 66.6142 94.8672 66.5123 94.9501 66.3767C95.1442 66.0578 95.4396 65.6375 95.7696 65.2239C96.4206 64.4083 97.3936 63.281 98.2116 62.379C98.4807 62.0823 98.6854 61.8737 98.9029 61.6444ZM92.231 63.8384C92.2234 64.3269 92.198 64.8652 92.2182 65.1942V65.2019V65.207C92.2609 65.7965 92.2233 65.9061 91.5903 66.7745C91.1893 67.3254 90.5475 68.3333 89.9835 69.2317C90.0306 68.8307 90.029 68.4509 90.0984 68.0719C90.2723 67.1203 90.5687 66.2514 90.6618 66.0992C90.9298 65.6614 91.6084 64.6968 92.2321 63.8408L92.231 63.8384ZM135.653 64.9311L135.854 65.2273C136.125 65.6291 137.132 67.3125 137.991 68.8207L139.123 70.81L137.566 71.5968C136.299 72.2372 134.433 73.1049 133.498 73.4902L132.898 73.7377L132.573 73.8729C132.16 72.5344 131.632 70.7883 131.2 69.3245C130.975 68.562 130.776 67.8812 130.637 67.391C130.619 67.3278 130.61 67.2996 130.594 67.2428C130.703 67.1896 130.78 67.1537 130.917 67.0887C131.486 66.8185 132.274 66.4539 133.139 66.064L135.653 64.9311ZM178.305 65.0757C178.561 65.2572 178.846 65.4667 179.22 65.7544C180.129 66.4538 181.303 67.4009 182.387 68.3293C183.223 69.0454 183.75 69.5295 184.013 69.8149C184.055 69.8612 184.048 69.8558 184.075 69.8906C184.027 69.9869 184.017 70.0181 183.917 70.1869C183.741 70.4815 183.498 70.8641 183.213 71.2935C182.643 72.1523 181.9 73.2106 181.146 74.2473C180.391 75.284 179.622 76.3009 179.006 77.073C178.698 77.4591 178.428 77.7823 178.223 78.0115C178.197 78.0401 178.215 78.0217 178.19 78.0481C177.603 77.4392 176.448 76.2323 175.231 74.9522C174.557 74.2444 173.909 73.5609 173.421 73.0457C173.23 72.8443 173.09 72.6967 172.957 72.5552C172.999 72.4873 173.014 72.4523 173.068 72.3704C173.345 71.9531 173.77 71.3761 174.259 70.7697C175.29 69.4922 176.684 67.5848 177.42 66.4357C177.757 65.9087 178.066 65.4349 178.305 65.0757ZM204.595 66.001C204.928 66.5308 205.161 66.8762 205.5 67.4501L206.629 69.354L206.699 71.419C206.759 73.2063 206.613 74.6306 206.432 76.0658C206.07 75.4053 205.454 74.4023 204.872 73.5425L203.934 72.1596L204.253 70.1146C204.443 68.9096 204.559 67.2633 204.595 66.001ZM163.777 67.4205C163.812 67.4502 163.83 67.464 163.869 67.4962C164.23 67.8001 164.716 68.2196 165.248 68.6856C166.31 69.6177 167.555 70.7377 168.351 71.4878C168.797 71.9075 169.194 72.3149 169.458 72.6145C169.47 72.6298 169.47 72.6324 169.484 72.6464C169.282 72.8689 169.002 73.1551 168.664 73.4961C167.962 74.2036 167.031 75.1075 166.074 76.0055C165.117 76.9035 164.136 77.7998 163.339 78.4993C162.94 78.849 162.584 79.148 162.308 79.3714C162.191 79.4664 162.182 79.4682 162.094 79.5327C162.039 79.4715 162.04 79.4815 161.962 79.375C161.584 78.8574 160.312 77.2766 159.04 75.7259C158.409 74.9571 157.841 74.2485 157.434 73.7305C157.35 73.6235 157.308 73.5665 157.24 73.4769C157.292 73.4303 157.319 73.4034 157.377 73.3514C157.797 72.9793 158.374 72.472 159.007 71.9285C160.303 70.8163 161.985 69.2582 162.822 68.3822C163.186 68.001 163.517 67.6718 163.777 67.4205ZM148.793 67.4737C149.323 68.0103 150.724 69.5805 151.953 71.0008C152.569 71.7128 153.149 72.3943 153.566 72.8978C153.651 72.9999 153.693 73.0547 153.763 73.1409C153.651 73.2308 153.57 73.3012 153.424 73.4111C152.88 73.8237 152.128 74.358 151.318 74.9132C149.696 76.0236 147.801 77.2336 146.841 77.739L146.137 78.111L146.061 77.9987C145.979 77.8827 145.632 77.3247 145.225 76.6289C144.817 75.9332 144.322 75.0646 143.839 74.2014L142.46 71.7381L142.938 71.4323C144.161 70.6473 145.631 69.6697 146.828 68.8531C147.427 68.4449 147.955 68.0783 148.356 67.7927C148.531 67.6678 148.67 67.5658 148.793 67.4737ZM197.416 67.9512C197.768 68.3422 198.179 68.8031 198.621 69.3209C199.623 70.493 200.718 71.8481 200.961 72.2155L201.399 72.8777L200.491 75.4037C200 76.7711 199.285 78.4922 198.657 79.8754C198.377 80.4923 198.125 81.0027 197.91 81.4203C197.79 81.2698 197.691 81.1589 197.561 80.9794C196.98 80.1783 195.842 78.7255 194.994 77.6953L193.825 76.2759L194.671 74.6326C195.309 73.3877 196.246 71.1587 196.814 69.5518C197.037 68.9209 197.235 68.4086 197.416 67.9512ZM128.313 68.0175C128.369 68.1872 128.427 68.3707 128.504 68.6135C128.695 69.221 128.941 70.0221 129.192 70.8659C129.695 72.558 130.202 74.2548 130.331 74.6763C130.161 74.7546 129.622 74.97 128.379 75.3541C126.845 75.8282 125.521 76.1919 124.577 76.405C124.221 76.4851 123.984 76.5207 123.754 76.5565C123.731 76.3794 123.714 76.2286 123.689 75.9936C123.608 75.2346 123.518 74.2227 123.438 73.2036C123.357 72.1845 123.286 71.1551 123.244 70.3648C123.226 70.0125 123.217 69.7298 123.211 69.4987C123.248 69.4885 123.26 69.4782 123.3 69.4664C123.673 69.3446 124.202 69.1902 124.775 69.0378C125.96 68.722 127.368 68.3136 128.004 68.0958C128.168 68.0395 128.209 68.0413 128.313 68.0175ZM185.899 71.4749C186.143 71.7012 186.41 71.9506 186.597 72.1206C186.703 72.2176 187.357 72.872 188.19 73.7247C188.95 74.504 189.921 75.5044 190.889 76.5139C190.874 76.5502 190.882 76.5395 190.86 76.5861C190.694 76.9346 190.332 77.5493 189.754 78.4472C188.962 79.6759 187.644 81.4904 186.471 83.0148C185.885 83.777 185.334 84.4691 184.904 84.9779C184.752 85.1588 184.638 85.2819 184.523 85.4092C184.495 85.3821 184.497 85.3862 184.467 85.356C184.072 84.9502 183.429 84.2008 182.475 83.0374C181.785 82.1942 181.119 81.3879 180.603 80.7658C180.188 80.2649 179.982 80.0184 179.803 79.8108C179.871 79.7125 179.946 79.5897 180.244 79.2471C181.688 77.5847 184.377 73.9379 185.507 72.1073L185.899 71.4749ZM171.304 74.2615C171.413 74.3718 171.5 74.4553 171.636 74.5943C172.154 75.1218 172.842 75.8299 173.539 76.5566C174.237 77.2832 174.947 78.0293 175.511 78.6286C176.07 79.2217 176.514 79.708 176.577 79.784L175.603 80.8017C174.192 82.2818 172.173 84.1796 170.501 85.649C169.664 86.3836 168.911 87.0144 168.378 87.4247C168.287 87.4944 168.254 87.5133 168.177 87.5694C168.059 87.4089 167.951 87.2601 167.795 87.0492C167.324 86.4134 166.702 85.5827 166.074 84.7436C165.446 83.9046 164.81 83.0595 164.313 82.4024C164.064 82.0738 163.85 81.7909 163.688 81.579C163.633 81.5075 163.615 81.486 163.575 81.4343C163.767 81.2372 164.145 80.8857 165.04 80.1334C166.255 79.1136 168.251 77.2701 169.543 75.9806C170.173 75.3516 170.754 74.7822 171.179 74.3765C171.232 74.3264 171.256 74.3065 171.304 74.2615ZM155.333 74.9699C155.429 75.0794 155.509 75.1675 155.633 75.3123C156.055 75.8059 156.618 76.4799 157.2 77.1892C158.364 78.6077 159.636 80.2086 160.034 80.7686C160.188 80.9864 160.155 80.8922 160.196 80.9665C157.858 82.7898 153.5 85.6997 151.627 86.6937L151.164 86.9403L150.867 86.4724C150.508 85.9072 149.421 84.044 148.51 82.4189L147.276 80.2118L147.546 80.0741C149.023 79.3271 151.988 77.393 154.172 75.7793C154.611 75.455 155.025 75.1693 155.333 74.9699ZM208.937 75.1634C209.087 75.6485 209.245 76.1499 209.361 76.5697C209.533 77.1911 209.649 77.7447 209.658 77.8445C209.758 78.9256 209.739 80.826 209.65 82.412C209.601 82.2915 209.566 82.2175 209.515 82.0931L209.301 81.566L208.389 79.3327L208.668 77.7295C208.786 77.0584 208.853 76.0853 208.937 75.1634ZM203.111 75.1762C203.456 75.7091 203.889 76.3921 204.335 77.1253L205.839 79.6025L205.632 80.5375C205.443 81.3868 204.582 83.7245 203.723 85.7603C203.293 86.7781 202.86 87.7424 202.511 88.451C202.488 88.4986 202.475 88.518 202.452 88.5633C202.206 88.1643 201.945 87.7392 201.636 87.1997C200.824 85.7805 200.01 84.4093 199.631 83.8929C199.524 83.7465 199.497 83.6953 199.495 83.6969C199.497 83.6892 199.496 83.6991 199.5 83.6841C199.542 83.5013 199.826 82.861 200.421 81.6521C201.109 80.2563 202.082 77.942 202.63 76.4023C202.855 75.7708 202.965 75.53 203.111 75.1762ZM192.554 78.4925C192.902 78.9188 193.347 79.4665 193.832 80.0765C194.853 81.3598 196.011 82.8418 196.574 83.5967C196.62 83.6587 196.601 83.6277 196.613 83.6464C196.55 83.812 196.234 84.3648 195.569 85.4047C194.643 86.8547 193.233 88.8209 191.981 90.4532C191.355 91.2694 190.765 92.0053 190.303 92.548C190.168 92.7069 190.075 92.8076 189.964 92.9296C189.908 92.86 189.879 92.8292 189.815 92.7484C189.394 92.2125 188.825 91.4412 188.226 90.5788C187.616 89.7011 187.034 88.8771 186.583 88.2532C186.358 87.9412 186.166 87.68 186.017 87.4829C185.999 87.4599 185.99 87.4504 185.974 87.4307C186.052 87.3122 186.125 87.1913 186.326 86.9558L186.331 86.9507C187.818 85.2283 191.042 80.8861 192.151 79.1034C192.303 78.8592 192.421 78.6915 192.554 78.4925ZM114.015 80.6412C114.022 80.6642 114.017 80.6992 114.022 80.7231C114.025 80.7359 114.045 80.7663 114.048 80.7799L114.015 80.6412ZM178.206 81.6537C178.256 81.7074 178.29 81.7404 178.348 81.8052C178.639 82.1261 179.027 82.5713 179.464 83.0835C180.337 84.1077 181.406 85.4041 182.314 86.5505C182.634 86.9542 182.756 87.1408 182.841 87.2754C182.739 87.3934 182.586 87.5781 182.235 87.9403C181.781 88.4095 181.178 89.0071 180.514 89.6498C179.186 90.9352 177.604 92.4084 176.419 93.4367C174.944 94.7175 174.189 95.362 173.769 95.696C173.653 95.5386 173.549 95.3945 173.391 95.1724C172.925 94.5144 172.301 93.6055 171.636 92.6142C170.972 91.622 170.374 90.7074 169.948 90.0384C169.806 89.8152 169.718 89.6685 169.619 89.5078C169.703 89.432 169.762 89.3798 169.866 89.2874C170.311 88.8936 170.921 88.3629 171.588 87.7922C172.953 86.6235 175.087 84.6554 176.383 83.3693C177.258 82.5007 177.849 81.9467 178.2 81.6607C178.206 81.6555 178.2 81.6562 178.206 81.6537ZM104.959 81.8461C104.616 81.8472 104.364 81.9568 104.051 81.9978H105.802C105.603 81.9773 105.618 81.8634 105.394 81.8567H105.348L105.305 81.8516C105.207 81.8465 105.095 81.8439 104.97 81.8439L104.959 81.8461ZM161.659 82.849C161.687 82.8805 161.68 82.8644 161.709 82.9012C162.123 83.4011 162.882 84.4069 164.221 86.2114C165.127 87.4331 165.735 88.2884 166.084 88.8298C166.171 88.9652 166.191 89.0121 166.245 89.106C166.015 89.2905 165.691 89.5373 165.297 89.824C164.504 90.401 163.442 91.1368 162.312 91.8986C160.051 93.4222 157.484 95.0616 156.282 95.709L155.975 95.8736L155.498 94.9282C155.005 93.9518 153.997 92.1069 153.23 90.7728V90.7676L152.259 89.0816L154.501 87.7084C156.143 86.7026 158.478 85.1554 159.761 84.2204C160.383 83.767 160.963 83.3458 161.397 83.0345C161.505 82.9565 161.571 82.912 161.659 82.849ZM207.347 82.9936C207.669 83.834 208.071 84.8984 208.364 85.727L208.926 87.3181L208.058 89.8868C207.681 91.0029 206.918 92.8678 206.234 94.4117C206.044 94.8407 205.899 95.1364 205.731 95.4947L205.674 95.3301H205.626C205.304 94.5114 204.871 93.4792 204.431 92.5872L203.7 91.1085L203.976 90.6572C204.896 89.1537 206.324 85.893 207.258 83.2508L207.347 82.9936ZM198.091 85.8821C198.184 86.027 198.273 86.1558 198.39 86.3466C198.749 86.9305 199.198 87.7007 199.644 88.5005L201.05 91.0161L200.362 92.1653C199.248 94.0277 196.612 97.6606 194.941 99.6248C194.574 100.056 194.456 100.162 194.282 100.343C194.192 100.198 194.113 100.072 193.999 99.8819C193.637 99.2752 193.173 98.4648 192.699 97.6094L191.254 95.0015L191.866 94.3193C193.324 92.6986 196.56 88.342 197.765 86.3823C197.977 86.0382 197.966 86.0634 198.091 85.8821ZM185.644 87.0275C185.645 87.0292 185.645 87.0327 185.649 87.0352C185.644 87.0301 185.649 87.0301 185.644 87.0275ZM209.921 91.734C209.994 92.1317 210.04 92.3021 210.106 92.703C210.478 94.9705 210.51 94.5629 209.513 97.524C209.076 98.8183 208.423 100.457 207.857 101.742C207.796 101.88 207.758 101.95 207.699 102.079C207.664 101.933 207.636 101.839 207.6 101.686C207.443 101.017 207.278 100.371 207.139 99.8583C207.07 99.6018 207.009 99.3799 206.955 99.2005C206.904 99.0323 206.877 98.9375 206.793 98.7657C206.794 98.7785 206.791 98.7734 206.843 98.6306C206.972 98.286 207.338 97.5276 208.048 96.1107C208.608 94.9902 209.398 93.1237 209.921 91.734ZM202.261 93.6144C202.425 93.9576 202.584 94.281 202.772 94.6983C203.339 95.961 203.95 97.447 204.098 97.9318C204.186 98.2213 204.202 98.1189 204.098 98.3832C203.994 98.6475 203.666 99.2035 203.035 100.182C202.15 101.552 200.739 103.53 199.487 105.191C198.861 106.021 198.272 106.776 197.815 107.334C197.757 107.405 197.723 107.439 197.67 107.503C197.503 107.166 197.334 106.827 197.133 106.379C196.581 105.15 195.949 103.617 195.774 103.115L195.563 102.513L196.551 101.381C198.227 99.4569 200.735 96.0717 202.008 94.0099C202.102 93.8579 202.172 93.7542 202.261 93.6144ZM93.3536 98.7866C93.0722 99.0798 92.772 99.3501 92.4636 99.61C92.4533 99.7311 92.4456 99.8406 92.4357 99.9586C92.8451 99.6918 93.2618 99.4395 93.6897 99.2109C93.5861 99.0591 93.4848 98.904 93.3536 98.7866ZM90.9804 100.682C90.8131 100.785 90.6467 100.89 90.4744 100.987C90.5553 101.072 90.6382 101.156 90.7157 101.243C90.8694 101.111 91.0277 100.987 91.1851 100.861C91.1536 100.834 91.1275 100.815 91.0955 100.787C91.0561 100.752 91.0193 100.717 90.9804 100.682ZM205.105 101.413C205.269 102.069 205.447 102.82 205.665 103.857C205.877 104.868 205.945 105.111 205.75 105.648C205.555 106.186 204.955 107.122 203.706 108.971C203.21 109.705 202.07 111.219 201.037 112.541C200.582 113.122 200.174 113.635 199.819 114.069C199.643 113.446 199.431 112.712 199.141 111.777L198.591 110.005L200.214 108.045C202.464 105.33 203.382 104.091 204.895 101.723C204.974 101.599 205.029 101.528 205.105 101.413ZM210.003 102.575C209.917 103.048 209.957 103.526 209.855 103.883C209.638 104.641 209.06 106.145 208.515 107.479C208.505 107.307 208.5 107.09 208.489 106.942C208.471 106.717 208.455 106.527 208.436 106.37C208.428 106.307 208.418 106.251 208.41 106.195C208.448 106.078 208.52 105.883 208.617 105.648C208.812 105.179 209.103 104.539 209.437 103.863C209.635 103.46 209.79 103.038 210.003 102.575ZM102.303 108.848C102.123 108.848 101.966 108.877 101.813 108.911L101.821 109.003H103.156C102.953 108.983 102.968 108.864 102.738 108.857L102.695 108.852H102.649C102.552 108.847 102.44 108.845 102.314 108.845L102.303 108.848ZM206.241 109.314C206.256 110.072 206.266 110.905 206.214 111.438C206.149 112.113 205.867 112.777 204.822 114.408C204.257 115.289 203.059 116.945 201.971 118.38C201.561 118.922 201.211 119.368 200.869 119.8C200.851 119.655 200.831 119.566 200.813 119.411C200.681 118.257 200.577 117.357 200.53 117.004C200.551 116.964 200.566 116.929 200.606 116.865C200.723 116.676 200.914 116.418 201.122 116.177C202.43 114.662 205.069 111.095 206.241 109.314ZM184.825 115.117C184.83 115.286 184.83 115.492 184.835 115.638C184.955 115.728 185.085 115.825 185.217 115.928C185.084 115.654 184.961 115.387 184.825 115.117ZM197.887 116.184C197.887 116.184 197.892 116.197 197.892 116.197H197.887C197.885 116.179 197.888 116.198 197.887 116.184ZM167.009 117.818C166.904 117.841 166.736 117.848 166.64 117.872C166.72 117.975 166.704 118.037 166.798 118.144L167.009 117.818ZM204.357 119.051C204.184 119.388 204.156 119.815 203.95 120.139C203.398 121.007 202.299 122.535 201.333 123.81C201.214 123.967 201.134 124.061 201.02 124.209C201.022 124.121 201.036 124.035 201.036 123.952C201.036 123.535 201.056 123.407 201.148 123.215C201.24 123.023 201.47 122.713 201.941 122.18C202.431 121.626 203.441 120.273 204.357 119.051ZM198.427 119.144C198.464 119.462 198.497 119.743 198.535 120.109C198.673 121.455 198.712 121.911 198.545 122.289C198.378 122.668 197.809 123.272 196.507 124.562C195.777 125.285 194.008 126.903 192.432 128.309C191.664 128.994 190.949 129.623 190.405 130.09C190.305 129.736 190.209 129.395 190.089 128.954C189.826 127.989 189.691 127.398 189.665 127.133C189.659 127.078 189.659 127.107 189.659 127.084C192.051 125.14 195.134 122.384 197.118 120.399C197.622 119.894 198.034 119.511 198.427 119.144ZM117.685 121.536C117.677 121.554 117.662 121.569 117.655 121.586C117.65 121.594 117.65 121.612 117.647 121.619L117.685 121.536ZM96.0325 123.133C96.0303 123.191 95.9749 123.275 95.9698 123.335C95.9647 123.391 96.0097 123.452 96.0028 123.506L96.0325 123.133ZM132.249 123.133C132.247 123.191 132.193 123.275 132.188 123.335C132.182 123.391 132.226 123.452 132.22 123.506L132.249 123.133ZM198.473 125.928C198.388 126.475 198.285 127.16 198.268 127.216C198.286 127.163 198.111 127.51 197.802 127.901C197.492 128.291 197.052 128.789 196.518 129.35C195.45 130.471 194.005 131.849 192.426 133.229C191.914 133.677 191.481 134.052 191.08 134.398C191.072 134.341 191.067 134.312 191.06 134.253C191.014 133.789 190.978 133.345 190.958 133.018C190.95 132.921 190.95 132.864 190.95 132.791C191.092 132.657 191.295 132.469 191.548 132.241C192.07 131.771 192.789 131.141 193.573 130.466C195.169 129.091 197.256 127.169 198.28 126.126V126.121C198.355 126.045 198.401 126.001 198.473 125.928ZM187.575 128.744C187.645 128.965 187.711 129.161 187.785 129.425C188.026 130.28 188.258 131.31 188.292 131.641C188.295 131.67 188.295 131.674 188.297 131.686C188.285 131.701 188.266 131.723 188.218 131.771C187.985 132 187.327 132.495 186.082 133.384C183.4 135.301 180.413 137.265 178.524 138.357C178.306 138.483 178.122 138.595 177.935 138.706C177.739 138.371 177.503 137.948 177.244 137.435L176.517 135.996L177.679 135.298C180.432 133.643 184.543 130.938 186.579 129.439C186.956 129.161 187.278 128.942 187.575 128.744ZM152.901 130.848L154.179 133.371L155.353 135.699L155.103 135.788C154.523 135.995 152.523 136.641 150.748 137.191C148.993 137.735 146.206 138.499 144.626 138.873C143.754 139.079 143.14 139.249 142.753 139.315C142.366 139.381 142.306 139.356 142.233 139.315C142.089 139.233 141.528 138.372 140.351 136.312C139.915 135.55 139.68 135.096 139.501 134.731C139.838 134.645 140.234 134.547 140.663 134.45C143.46 133.82 147.874 132.558 150.894 131.53L152.901 130.848ZM171.607 131.043L172.587 132.986L173.552 134.892L168.24 137.428C166.569 138.226 164.946 138.99 163.681 139.572C162.415 140.155 161.401 140.591 161.321 140.619L161.038 140.715L160.643 140.076C160.234 139.415 159.528 138.257 159.079 137.513L158.77 137.003L159.293 136.793C160.201 136.43 163.385 134.961 166.57 133.443L171.607 131.043ZM101.914 132.465C103.7 133.267 105.508 134.105 106.845 134.494L108.699 135.033L109.91 137.111C110.281 137.748 110.659 138.378 110.987 138.906C110.895 138.876 110.813 138.856 110.723 138.824C108.777 138.134 106.29 137.002 104.979 136.226C104.443 135.909 104.132 135.663 103.594 134.985C103.221 134.515 102.548 133.451 101.914 132.465ZM188.703 134.415C188.721 134.651 188.747 134.759 188.756 135.09L188.785 136.216L187.947 136.848V136.853C186.931 137.618 183.39 140.052 181.693 141.151C181.372 141.358 180.479 141.877 179.797 142.244L179.359 142.478L179.138 141.908C178.999 141.548 178.884 141.222 178.793 140.96C178.902 140.887 178.996 140.817 179.128 140.736C182.7 138.552 185.249 136.899 187.262 135.45C187.814 135.053 188.29 134.709 188.703 134.415ZM137.012 135.188L137.118 135.376C137.347 135.791 138.124 137.156 138.873 138.452C139.319 139.225 139.491 139.565 139.653 139.888C139.511 139.913 139.405 139.934 139.231 139.963C138.531 140.083 137.6 140.228 136.614 140.368C134.665 140.646 131.65 140.941 130.015 141.014L127.444 141.129L126.832 140.131C125.554 138.051 125.023 137.173 124.669 136.552C128.367 136.319 131.91 136.007 134.32 135.62L137.012 135.188ZM111.818 135.662C113.715 136.052 117.864 136.499 120.404 136.582L121.954 136.63L122.589 137.672C123.067 138.454 123.915 139.843 124.469 140.757L124.673 141.093L124.419 141.083C123.48 141.053 121.456 140.893 120.011 140.731H120.006C120.001 140.73 119.999 140.726 119.993 140.726C118.562 140.566 117.2 140.369 116.155 140.179C115.632 140.083 115.187 139.991 114.865 139.909C114.572 139.834 114.401 139.749 114.45 139.788C114.424 139.755 114.395 139.719 114.352 139.662C114.24 139.513 114.088 139.295 113.914 139.036C113.566 138.52 113.129 137.84 112.71 137.162C112.373 136.618 112.084 136.122 111.818 135.662ZM190.951 136.7C190.951 136.7 190.959 136.7 190.959 136.7L190.946 136.708C190.954 136.703 190.942 136.706 190.951 136.7ZM174.514 137.069L175.03 138.201C175.266 138.72 175.487 139.228 175.649 139.617C175.682 139.697 175.7 139.743 175.728 139.812C175.623 139.882 175.553 139.935 175.402 140.026C174.866 140.349 174.071 140.779 173.141 141.255C171.286 142.202 168.885 143.328 166.772 144.205L166.749 144.215H166.744C165.933 144.552 165.167 144.849 164.597 145.052C164.384 145.128 164.235 145.174 164.09 145.22C164.035 145.154 163.993 145.109 163.925 145.022C163.665 144.688 163.327 144.225 162.987 143.725L162.329 142.75L162.418 142.717H162.423C162.845 142.564 163.722 142.168 164.987 141.587C166.251 141.006 167.838 140.259 169.448 139.489L174.514 137.069ZM156.489 137.807L156.663 138.07C156.93 138.469 157.653 139.639 158.224 140.599L158.76 141.501L158.22 141.709C157.474 141.994 155.453 142.65 153.836 143.128C152.224 143.605 149.724 144.275 148.339 144.601C147.216 144.865 146.564 144.991 146.268 145.009C145.973 145.027 146.173 145.078 146.072 144.986C146.087 144.999 145.763 144.635 145.443 144.212C145.122 143.79 144.737 143.258 144.372 142.74C144.067 142.307 143.804 141.915 143.573 141.564C143.942 141.468 144.336 141.368 144.823 141.259C147.398 140.682 152.146 139.304 155.189 138.255L156.489 137.807ZM108.314 140.342C109.257 140.715 110.184 141.114 111.033 141.373C112.08 141.692 112.66 141.896 112.981 142.068C113.301 142.239 113.412 142.353 113.702 142.73C113.997 143.114 114.403 143.527 114.825 144.027C114.211 143.794 113.649 143.612 113.027 143.333C111.942 142.845 110.578 142.16 110.147 141.903C110.031 141.834 109.618 141.519 109.169 141.129C108.906 140.901 108.606 140.613 108.314 140.342ZM186.732 140.616C186.627 140.695 186.627 140.729 186.511 140.813C184.067 142.595 182.05 143.912 180.574 144.699L180.224 144.884L180.201 144.808L182.365 143.468C183.696 142.644 185.328 141.571 186.732 140.616ZM176.686 142.124L176.9 142.651C177.046 143.008 177.177 143.369 177.265 143.646C177.267 143.651 177.267 143.653 177.27 143.658C177.136 143.74 177.015 143.816 176.813 143.928C176.221 144.257 175.379 144.69 174.423 145.161C172.513 146.102 170.145 147.191 168.377 147.913C167.899 148.108 167.432 148.284 167.076 148.405C166.955 148.446 166.871 148.47 166.783 148.496C166.75 148.468 166.733 148.457 166.695 148.421C166.495 148.236 166.231 147.97 165.983 147.696C165.845 147.543 165.747 147.414 165.628 147.271C165.674 147.248 165.693 147.238 165.743 147.215C166.323 146.949 167.127 146.597 168.005 146.231C169.806 145.478 172.649 144.167 174.39 143.286L176.686 142.124ZM141.028 142.132C141.093 142.218 141.145 142.288 141.229 142.402C141.515 142.79 141.897 143.324 142.309 143.91C142.729 144.507 143.142 145.079 143.471 145.521C143.484 145.539 143.494 145.549 143.507 145.567C143.039 145.657 142.667 145.737 141.525 145.907C139.953 146.14 137.019 146.442 135.09 146.568C133.315 146.684 132.407 146.727 132.046 146.686C131.684 146.646 131.889 146.723 131.575 146.374C131.007 145.74 130.177 144.739 129.508 143.897C129.374 143.728 129.294 143.615 129.175 143.462C129.638 143.421 130.108 143.381 130.703 143.344C132.37 143.238 135.423 142.907 137.572 142.6C138.631 142.449 139.603 142.314 140.314 142.221C140.614 142.181 140.836 142.155 141.028 142.132ZM116.73 142.679C116.863 142.702 116.951 142.712 117.089 142.735C118.515 142.978 121.174 143.252 123.122 143.364L126.223 143.542L127.562 145.224C128.077 145.87 128.35 146.193 128.728 146.654C128.412 146.641 128.148 146.631 127.79 146.611L127.744 146.606C125.332 146.47 122.366 146.092 120.252 145.648C119.524 145.494 119.307 145.353 118.3 144.343C117.743 143.785 117.223 143.219 116.73 142.679ZM160.067 143.588L160.527 144.299C160.943 144.94 161.438 145.675 161.755 146.127C161.389 146.281 160.619 146.555 158.707 147.148C156.911 147.705 154.091 148.478 152.509 148.851L150.034 149.434L149.079 148.449C148.573 147.926 148.2 147.515 147.858 147.141C150.594 146.501 154.742 145.364 157.371 144.487L160.067 143.588ZM178.111 146.042C178.129 146.109 178.135 146.13 178.157 146.223L175.036 147.688C172.99 148.649 170.641 149.69 169.931 149.963L169.911 149.974H169.906C169.271 150.217 168.937 150.305 168.852 150.309C168.836 150.31 168.801 150.279 168.79 150.279C168.878 150.246 168.906 150.232 169.007 150.194C169.985 149.83 172.511 148.678 174.81 147.566C175.957 147.012 176.79 146.598 177.384 146.325C177.801 146.132 177.94 146.097 178.108 146.041L178.111 146.042ZM145.143 147.724L146.144 148.785C146.799 149.479 146.928 149.633 147.21 149.943C146.684 150.036 146.033 150.141 145.33 150.243C143.855 150.456 141.228 150.719 139.577 150.817L136.825 150.981L135.834 150.22C135.177 149.717 134.734 149.34 134.304 148.973C136.252 148.915 139.48 148.602 142.493 148.136L145.143 147.724ZM163.283 148.122L163.77 148.748C163.957 148.988 164.137 149.21 164.313 149.423C163.665 149.648 162.7 149.948 160.465 150.622C158.736 151.143 156.424 151.763 155.429 151.975L153.862 152.308L152.651 151.472C152.56 151.409 152.501 151.365 152.414 151.304C154.521 150.866 159.122 149.556 161.835 148.623L163.283 148.122ZM123.304 148.511C125.248 148.766 127.724 149.004 130.278 149.101C130.56 149.111 130.652 149.126 130.949 149.301C131.246 149.476 131.71 149.84 132.447 150.478C132.63 150.636 132.659 150.66 132.829 150.807C131.723 150.74 130.39 150.634 129.06 150.461C126.09 150.071 124.896 149.612 123.304 148.511ZM165.929 151.392C165.515 151.533 165.384 151.593 164.553 151.851L164.411 151.894C163.684 152.117 162.82 152.328 161.913 152.575C163.331 152.146 164.769 151.787 165.531 151.508C165.698 151.447 165.793 151.43 165.929 151.392ZM149.369 151.979L150.435 152.786C150.492 152.828 150.496 152.829 150.551 152.871C150.165 152.928 150.116 152.943 149.511 153.03C148.029 153.241 145.602 153.473 144.211 153.54C142.109 153.642 141.825 153.541 140.785 153.082C142.396 152.963 144.867 152.687 146.562 152.421L149.369 151.979Z" fill="#1D80A7"/>
<path d="M18.7937 67.3688C17.519 67.3688 16.8819 67.7945 16.8395 68.6871C16.7966 69.4523 17.093 69.9625 18.1989 71.4928C18.9636 72.5981 19.0062 74.0004 19.0062 76.9335V87.5602C19.0062 90.5358 18.9634 91.939 18.1989 93.0017C17.0941 94.5319 16.797 95.0841 16.8395 95.8493C16.8823 96.7419 17.519 97.1249 18.7937 97.1249H34.8739C34.8647 96.9806 34.8601 96.8357 34.8601 96.691C34.8602 93.1474 37.6079 90.0886 41.4458 89.3596C41.4837 89.1351 41.5328 88.8798 41.5668 88.666C41.7806 87.3483 41.057 86.6253 39.9949 86.6253C37.9981 86.6253 37.0634 88.6659 36.2134 90.2388C35.6187 91.429 34.3866 93.1289 31.4549 93.1289H30.9028C27.9713 93.1289 27.0787 92.3635 27.0787 87.5602V83.9468C28.4809 84.031 29.5433 84.1598 30.1381 84.67C31.2427 85.6477 31.4553 86.5826 32.3902 86.5826C33.5373 86.5826 33.5372 85.4349 33.5372 84.1595V79.7392C33.5372 78.4639 33.5373 77.316 32.3902 77.316C31.4553 77.316 31.2427 78.2508 30.1381 79.2285C29.5433 79.7386 28.4809 79.8668 27.0787 79.9518V76.9335C27.0787 72.3001 27.8861 71.4497 30.6476 71.3648C33.5368 71.407 34.7262 73.1081 35.3635 74.2558C36.1707 75.8285 37.148 77.9111 39.1022 77.9111C40.2068 77.9111 40.8866 77.1456 40.6741 75.8278C40.3768 74 39.9526 71.62 39.6552 69.8347C39.3578 68.0069 38.5929 67.3688 36.8083 67.3688H18.7937ZM74.7469 75.9279C74.3373 75.9126 73.8722 75.9771 73.3517 76.1258C72.8844 76.2538 70.3778 77.0182 69.0608 77.4432C67.7863 77.8683 67.1915 78.4214 67.1065 79.314C67.0638 80.0792 67.3603 80.632 68.466 82.1624C69.2307 83.225 69.2733 84.6272 69.2733 87.5603V96.8696C69.2733 99.8027 69.2306 101.206 68.466 102.268C67.3614 103.799 67.064 104.351 67.1065 105.116C67.192 106.009 67.7863 106.392 69.0608 106.392H77.5581C78.8326 106.392 79.3849 106.009 79.5124 105.116C79.6406 104.308 79.0447 103.544 77.8551 102.268C77.048 101.461 77.0478 99.8027 77.0478 96.8696V95.5095C78.3223 96.6571 80.0218 97.4223 82.146 97.5075C88.2639 97.6774 92.0029 93.0869 92.0454 86.7107C92.0027 80.3345 88.2639 75.7433 82.146 75.9559C79.9365 75.9978 78.2803 76.8063 76.9633 77.9965C76.7085 76.7213 75.9757 75.9718 74.7469 75.9279ZM104.959 75.9458C98.834 75.9561 93.537 79.9264 93.7428 87.0092C93.9966 94.1505 99.8614 97.5088 105.767 97.5088C110.781 97.5088 113.669 95.0432 114.944 92.1527C115.666 90.5799 114.477 89.645 113.245 90.8352C109.803 94.1933 102.708 93.3424 101.688 87.9014H112.182C114.901 87.9014 115.411 86.7962 115.114 83.9482C114.774 80.4626 111.799 76.1272 105.554 75.9572C105.355 75.9495 105.157 75.9458 104.959 75.9458ZM44.1585 76.297C43.2239 76.297 42.8413 76.8922 42.7563 77.4873C42.6709 78.1249 42.7987 78.8906 44.4555 79.7832C45.3901 80.3358 45.9424 80.9732 47.0473 82.2909L50.8714 86.9665L48.1942 90.4527C48.1407 90.5208 48.0924 90.5766 48.0401 90.6416C48.9934 91.2706 49.787 92.0763 50.368 93.0047C50.4641 92.5466 50.6578 92.2407 51.3808 91.3021L52.8257 89.3468L54.8226 91.8127C55.5023 92.7053 55.7569 93.1725 55.3321 93.6826C54.5249 94.7029 54.3125 95.2982 54.3549 95.9359C54.3978 96.5734 54.8224 97.1261 55.7571 97.1261H65.1888C66.0813 97.1261 66.4633 96.5309 66.5483 95.9359C66.6765 95.2982 66.4637 94.5752 64.8919 93.6399C63.8298 93.0448 63.2775 92.4076 62.173 91.005L57.7967 85.5635L59.751 82.9704C61.3232 80.9725 62.4274 80.2081 63.2345 79.783C64.2542 79.1878 65.3163 78.6773 65.4013 77.4871C65.4441 76.8921 65.0188 76.2968 63.9992 76.2968H58.476C57.4564 76.2968 56.9463 76.8495 56.8614 77.4871C56.7331 78.5498 57.7968 79.0603 57.6269 80.1656C57.5414 80.7606 57.4554 80.9731 56.7342 81.9082L55.8424 83.1411L54.6101 81.6103C53.8454 80.6751 53.6327 80.2079 53.9726 79.7404C54.8223 78.7201 54.9922 78.1248 54.9498 77.4871C54.907 76.8921 54.4822 76.2968 53.5476 76.2968L44.1585 76.297ZM105.344 79.3824C107.385 79.4028 108.038 81.008 108.316 82.1637C108.656 83.4389 108.187 84.1608 107.168 84.1608H102.198C101.816 84.1608 101.603 83.7361 101.731 83.2686C102.113 81.4832 103.005 79.5273 104.917 79.3998C105.066 79.387 105.208 79.3824 105.344 79.3824ZM80.2344 80.2502C82.8259 80.2502 84.143 82.9714 84.143 86.7121C84.143 90.4528 82.8259 93.173 80.2344 93.173C77.6001 93.173 76.2831 90.4528 76.2831 86.7121C76.2831 82.9714 77.6001 80.2502 80.2344 80.2502Z" fill="#1D80A7"/>
<path d="M43.3451 92.3274C40.7111 92.3274 38.5439 94.2828 38.5439 96.7058C38.5439 99.1713 40.7111 101.127 43.3451 101.127C46.0219 101.127 48.189 99.1713 48.189 96.7058C48.189 94.2828 46.0219 92.3274 43.3451 92.3274ZM147.502 98.1513C144.528 98.1513 146.313 103.296 142.574 103.296H141.724C140.789 103.296 140.067 104.06 140.067 104.953V105.336C140.067 106.271 140.789 106.994 141.724 106.994H143.169V117.322C143.169 122.849 146.737 124.507 150.094 124.507C154.81 124.507 158.124 120.596 156.68 118.895C156.212 118.343 155.448 118.427 154.725 118.811C152.729 119.916 150.901 119.321 150.901 117.025V106.994H154.427C155.32 106.994 156.085 106.271 156.085 105.336V104.953C156.085 104.06 155.32 103.296 154.427 103.296H150.901V100.149C150.901 98.8316 150.604 98.1513 149.202 98.1513L147.502 98.1513ZM45.3926 102.931C45.02 102.936 44.6064 102.997 44.1524 103.125C43.685 103.253 41.1785 104.017 39.8615 104.442C38.5868 104.867 37.9489 105.42 37.9064 106.312C37.8209 107.077 38.1608 107.63 39.2667 109.161C40.0314 110.223 40.074 111.626 40.074 114.559C40.074 117.535 40.0312 118.937 39.2667 120C38.1619 121.53 37.8214 122.083 37.9064 122.848C37.9492 123.741 38.5443 124.123 39.8615 124.123H48.061C49.3357 124.123 49.9303 123.741 50.0152 122.848C50.058 122.083 49.7614 121.53 48.6558 120C47.8908 118.937 47.8485 117.535 47.8485 114.559V105.972C47.8485 104.038 47.0069 102.918 45.3926 102.931ZM23.7604 102.936C23.4254 102.951 23.0588 103.014 22.6605 103.126C22.1932 103.254 19.6859 104.018 18.4114 104.443C17.0941 104.868 16.4994 105.42 16.4145 106.313C16.3717 107.078 16.6683 107.631 17.7739 109.161C18.5389 110.224 18.5813 111.797 18.5813 114.687C18.5813 117.535 18.5385 118.938 17.7739 120.001C16.6693 121.531 16.372 122.084 16.4145 122.849C16.4999 123.742 17.0941 124.124 18.4114 124.124H26.866C28.1833 124.124 28.6938 123.699 28.8212 122.849C28.9494 122.042 28.3537 121.234 27.1639 120.001C26.3992 119.151 26.3566 117.536 26.3566 114.56V109.331C26.3994 107.971 26.6537 107.164 27.7161 107.164C29.1605 107.164 28.9056 108.566 30.0526 110.096C31.667 112.264 34.7684 111.755 35.9155 109.757C37.6151 106.696 35.9155 102.955 31.3694 102.955C29.0328 102.955 27.4183 103.933 26.2712 105.166C26.065 103.68 25.2125 102.869 23.7604 102.936ZM58.793 102.941C58.4328 102.949 58.0337 103.009 57.5955 103.128C57.1282 103.256 54.6208 104.021 53.3037 104.446C52.0292 104.871 51.3919 105.423 51.3494 106.316C51.264 107.081 51.6033 107.634 52.7089 109.164C53.4737 110.227 53.5162 111.63 53.5162 114.563C53.5162 117.538 53.4734 118.941 52.7089 120.003C51.6043 121.534 51.2645 122.087 51.3494 122.852C51.3922 123.744 51.9868 124.126 53.3037 124.126H61.4614C62.7784 124.126 63.3734 123.744 63.4584 122.852C63.5012 122.087 63.2045 121.534 62.0989 120.003C61.2917 118.941 61.2489 117.538 61.2489 114.563V111.544C61.2489 108.952 62.3536 107.464 64.2657 107.464C67.3245 107.464 66.8574 111.204 66.8574 114.138V114.563C66.8574 117.538 66.8147 118.941 66.0501 120.003C64.9456 121.534 64.6057 122.087 64.6907 122.852C64.7335 123.744 65.328 124.126 66.645 124.126H74.8026C76.1196 124.126 76.7137 123.744 76.7987 122.852C76.8414 122.087 76.5449 121.534 75.4392 120.003C74.6745 118.941 74.6319 117.538 74.6319 114.563V111.544C74.6319 108.952 75.6942 107.464 77.606 107.464C80.6651 107.464 80.1978 111.204 80.1978 114.138V114.563C80.1978 117.538 80.1551 118.941 79.3905 120.003C78.2856 121.534 77.9885 122.087 78.031 122.852C78.1164 123.744 78.711 124.126 80.0279 124.126H88.1856C89.5026 124.126 90.0974 123.744 90.1399 122.852C90.2254 122.087 89.8861 121.534 88.7804 120.003C88.0157 118.941 87.9731 117.538 87.9731 114.563V109.972C87.9731 106.699 86.4863 102.958 80.9207 102.958C77.7341 102.958 75.3969 104.786 73.9099 106.444C73.0175 104.488 71.1058 102.958 67.5794 102.958C64.8179 102.958 62.7358 104.276 61.2489 105.721C61.1795 103.925 60.3538 102.915 58.793 102.941ZM121.692 102.941C121.332 102.949 120.933 103.009 120.495 103.128C120.028 103.256 117.521 104.021 116.247 104.446C114.93 104.871 114.335 105.423 114.25 106.316C114.207 107.081 114.503 107.634 115.609 109.164C116.374 110.227 116.458 111.799 116.458 114.69C116.458 117.538 116.373 118.941 115.609 120.003C114.505 121.534 114.207 122.087 114.25 122.852C114.335 123.744 114.93 124.126 116.247 124.126H124.403C125.72 124.126 126.315 123.744 126.358 122.852C126.443 122.087 126.104 121.534 124.998 120.003C124.234 118.941 124.191 117.538 124.191 114.563V111.545C124.191 108.952 125.169 107.464 127.081 107.464C130.14 107.464 130.096 111.205 130.096 114.138V114.563C130.096 117.538 130.054 118.941 129.29 120.004C128.185 121.534 127.845 122.087 127.888 122.852C127.973 123.745 128.567 124.127 129.884 124.127H138.042C139.359 124.127 139.954 123.745 140.039 122.852C140.081 122.087 139.741 121.534 138.636 120.004C137.872 118.941 137.829 117.538 137.829 114.563V109.972C137.829 106.699 135.917 102.958 130.352 102.958C127.675 102.958 125.635 104.234 124.191 105.679C124.087 103.917 123.254 102.913 121.692 102.941ZM102.304 102.946C96.1786 102.956 90.8816 106.927 91.0874 114.009C91.3412 121.151 97.2055 124.509 103.111 124.509C108.125 124.509 111.014 122.043 112.288 119.153C113.011 117.58 111.821 116.645 110.589 117.835C107.148 121.193 100.052 120.343 99.0326 114.902H109.527C112.246 114.902 112.756 113.797 112.458 110.949C112.118 107.464 109.144 103.127 102.899 102.957C102.699 102.95 102.501 102.946 102.304 102.946ZM169.772 102.956C166.16 102.956 161.826 103.722 160.594 106.952C159.872 108.78 160.935 110.14 162.082 110.566C163.951 111.203 165.608 110.608 166.415 108.015C166.925 106.4 168.115 106.06 169.347 106.23C171.046 106.485 171.174 108.355 171.174 110.736V111.331C163.739 111.331 158.556 112.988 158.556 118.642C158.556 122.128 161.275 124.508 165.863 124.508C168.582 124.508 170.324 123.573 171.471 121.788C172.151 123.615 173.766 124.508 176.91 124.508C179.289 124.508 181.626 123.106 181.711 121.278C181.796 120.003 180.776 120.172 179.714 119.067C178.779 118.089 178.907 115.581 178.907 112.648V111.799C178.907 105.592 175.635 102.956 169.772 102.956ZM102.689 106.382C104.73 106.403 105.382 108.007 105.661 109.163C106.001 110.438 105.532 111.161 104.513 111.161H99.543C99.1606 111.161 98.9478 110.735 99.0752 110.268C99.4576 108.482 100.35 106.527 102.262 106.4C102.411 106.387 102.553 106.382 102.689 106.382ZM170.395 114.017C171.16 113.985 171.471 114.264 171.471 115.284V116.984C171.471 119.194 170.706 120.555 169.007 120.555C167.138 120.555 166.33 119.28 166.415 117.494C166.544 115.624 167.86 114.391 169.474 114.136C169.835 114.073 170.14 114.027 170.395 114.017Z" fill="#1D80A7"/>
<path d="M121.991 84.5808H132.161C133.159 84.5808 133.962 85.3848 133.962 86.3834V90.0289C133.962 91.0276 133.159 91.8315 132.161 91.8315H121.991C120.993 91.8315 120.19 91.0276 120.19 90.0289V86.3834C120.19 85.3848 120.993 84.5808 121.991 84.5808Z" fill="#1D80A7"/>
<path d="M18.7937 67.3688C17.519 67.3688 16.8819 67.7945 16.8395 68.6871C16.7966 69.4523 17.093 69.9625 18.1989 71.4928C18.9636 72.5981 19.0062 74.0004 19.0062 76.9335V87.5602C19.0062 90.5358 18.9634 91.939 18.1989 93.0017C17.0941 94.5319 16.797 95.0841 16.8395 95.8493C16.8823 96.7419 17.519 97.1249 18.7937 97.1249H34.8739C34.8647 96.9804 34.8601 96.8357 34.8601 96.691C34.8602 94.9717 35.5147 93.3047 36.7138 91.9698C37.9129 90.6349 39.5837 89.7133 41.4458 89.3596C41.4837 89.1351 41.5328 88.8798 41.5668 88.666C41.7806 87.3483 41.057 86.6253 39.9949 86.6253C37.9981 86.6253 37.0634 88.6659 36.2134 90.2388C35.6187 91.429 34.3866 93.1289 31.4549 93.1289H30.9028C27.9713 93.1289 27.0787 92.3635 27.0787 87.5602V83.9468C28.4809 84.031 29.5433 84.1598 30.1381 84.67C31.2427 85.6477 31.4553 86.5826 32.3902 86.5826C33.5373 86.5826 33.5372 85.4349 33.5372 84.1595V79.7392C33.5372 78.4639 33.5373 77.316 32.3902 77.316C31.4553 77.316 31.2427 78.2508 30.1381 79.2285C29.5433 79.7386 28.4809 79.8668 27.0787 79.9518V76.9335C27.0787 72.3001 27.8861 71.4497 30.6476 71.3648C33.5368 71.407 34.7262 73.1081 35.3635 74.2558C36.1707 75.8285 37.148 77.9111 39.1022 77.9111C40.2068 77.9111 40.8866 77.1456 40.6741 75.8278C40.3768 74 39.9526 71.62 39.6552 69.8347C39.3578 68.0069 38.5929 67.3688 36.8083 67.3688H18.7937ZM74.7469 75.9279C74.3373 75.9126 73.8722 75.9771 73.3517 76.1258C72.8844 76.2538 70.3778 77.0182 69.0608 77.4432C67.7863 77.8683 67.1915 78.4214 67.1065 79.314C67.0638 80.0792 67.3603 80.632 68.466 82.1624C69.2307 83.225 69.2733 84.6272 69.2733 87.5603V96.8696C69.2733 99.8027 69.2306 101.206 68.466 102.268C67.3614 103.799 67.064 104.351 67.1065 105.116C67.192 106.009 67.7863 106.392 69.0608 106.392H77.5581C78.8326 106.392 79.3849 106.009 79.5124 105.116C79.6406 104.308 79.0447 103.544 77.8551 102.268C77.048 101.461 77.0478 99.8027 77.0478 96.8696V95.5095C78.3223 96.6571 80.0218 97.4223 82.146 97.5075C88.2639 97.6774 92.0029 93.0869 92.0454 86.7107C92.0027 80.3345 88.2639 75.7433 82.146 75.9559C79.9365 75.9978 78.2803 76.8063 76.9633 77.9965C76.7085 76.7213 75.9757 75.9718 74.7469 75.9279ZM104.959 75.9458C98.834 75.9561 93.537 79.9264 93.7428 87.0092C93.9966 94.1505 99.8614 97.5088 105.767 97.5088C110.781 97.5088 113.669 95.0432 114.944 92.1527C115.666 90.5799 114.477 89.645 113.245 90.8352C109.803 94.1933 102.708 93.3424 101.688 87.9014H112.182C114.901 87.9014 115.411 86.7962 115.114 83.9482C114.774 80.4626 111.799 76.1272 105.554 75.9572C105.355 75.9495 105.157 75.9458 104.959 75.9458ZM44.1585 76.297C43.2239 76.297 42.8413 76.8922 42.7563 77.4873C42.6709 78.1249 42.7987 78.8906 44.4555 79.7832C45.3901 80.3358 45.9424 80.9732 47.0473 82.2909L50.8714 86.9665L48.1942 90.4527C48.1407 90.5208 48.0924 90.5766 48.0401 90.6416C48.9934 91.2706 49.787 92.0763 50.368 93.0047C50.4641 92.5466 50.6578 92.2407 51.3808 91.3021L52.8257 89.3468L54.8226 91.8127C55.5023 92.7053 55.7569 93.1725 55.3321 93.6826C54.5249 94.7029 54.3125 95.2982 54.3549 95.9359C54.3978 96.5734 54.8224 97.1261 55.7571 97.1261H65.1888C66.0813 97.1261 66.4633 96.5309 66.5483 95.9359C66.6765 95.2982 66.4637 94.5752 64.8919 93.6399C63.8298 93.0448 63.2775 92.4076 62.173 91.005L57.7967 85.5635L59.751 82.9704C61.3232 80.9725 62.4274 80.2081 63.2345 79.783C64.2542 79.1878 65.3163 78.6773 65.4013 77.4871C65.4441 76.8921 65.0188 76.2968 63.9992 76.2968H58.476C57.4564 76.2968 56.9463 76.8495 56.8614 77.4871C56.7331 78.5498 57.7968 79.0603 57.6269 80.1656C57.5414 80.7606 57.4554 80.9731 56.7342 81.9082L55.8424 83.1411L54.6101 81.6103C53.8454 80.6751 53.6327 80.2079 53.9726 79.7404C54.8223 78.7201 54.9922 78.1248 54.9498 77.4871C54.907 76.8921 54.4822 76.2968 53.5476 76.2968L44.1585 76.297ZM105.344 79.3824C107.385 79.4028 108.038 81.008 108.316 82.1637C108.656 83.4389 108.187 84.1608 107.168 84.1608H102.198C101.816 84.1608 101.603 83.7361 101.731 83.2686C102.113 81.4832 103.005 79.5273 104.917 79.3998C105.066 79.387 105.208 79.3824 105.344 79.3824ZM80.2344 80.2502C82.8259 80.2502 84.143 82.9714 84.143 86.7121C84.143 90.4528 82.8259 93.173 80.2344 93.173C77.6001 93.173 76.2831 90.4528 76.2831 86.7121C76.2831 82.9714 77.6001 80.2502 80.2344 80.2502Z" fill="#1D80A7"/>
<path d="M43.3451 92.3274C40.7111 92.3274 38.5439 94.2828 38.5439 96.7058C38.5439 99.1713 40.7111 101.127 43.3451 101.127C46.0219 101.127 48.189 99.1713 48.189 96.7058C48.189 94.2828 46.0219 92.3274 43.3451 92.3274ZM147.502 98.1513C144.528 98.1513 146.313 103.296 142.574 103.296H141.724C140.789 103.296 140.067 104.06 140.067 104.953V105.336C140.067 106.271 140.789 106.994 141.724 106.994H143.169V117.322C143.169 122.849 146.737 124.507 150.094 124.507C154.81 124.507 158.124 120.596 156.68 118.895C156.212 118.343 155.448 118.427 154.725 118.811C152.729 119.916 150.901 119.321 150.901 117.025V106.994H154.427C155.32 106.994 156.085 106.271 156.085 105.336V104.953C156.085 104.06 155.32 103.296 154.427 103.296H150.901V100.149C150.901 98.8316 150.604 98.1513 149.202 98.1513L147.502 98.1513ZM45.3926 102.931C45.02 102.936 44.6064 102.997 44.1524 103.125C43.685 103.253 41.1785 104.017 39.8615 104.442C38.5868 104.867 37.9489 105.42 37.9064 106.312C37.8209 107.077 38.1608 107.63 39.2667 109.161C40.0314 110.223 40.074 111.626 40.074 114.559C40.074 117.535 40.0312 118.937 39.2667 120C38.1619 121.53 37.8214 122.083 37.9064 122.848C37.9492 123.741 38.5443 124.123 39.8615 124.123H48.061C49.3357 124.123 49.9303 123.741 50.0152 122.848C50.058 122.083 49.7614 121.53 48.6558 120C47.8908 118.937 47.8485 117.535 47.8485 114.559V105.972C47.8485 104.038 47.0069 102.918 45.3926 102.931ZM23.7604 102.936C23.4254 102.951 23.0588 103.014 22.6605 103.126C22.1932 103.254 19.6859 104.018 18.4114 104.443C17.0941 104.868 16.4994 105.42 16.4145 106.313C16.3717 107.078 16.6683 107.631 17.7739 109.161C18.5389 110.224 18.5813 111.797 18.5813 114.687C18.5813 117.535 18.5385 118.938 17.7739 120.001C16.6693 121.531 16.372 122.084 16.4145 122.849C16.4999 123.742 17.0941 124.124 18.4114 124.124H26.866C28.1833 124.124 28.6938 123.699 28.8212 122.849C28.9494 122.042 28.3537 121.234 27.1639 120.001C26.3992 119.151 26.3566 117.536 26.3566 114.56V109.331C26.3994 107.971 26.6537 107.164 27.7161 107.164C29.1605 107.164 28.9056 108.566 30.0526 110.096C31.667 112.264 34.7684 111.755 35.9155 109.757C37.6151 106.696 35.9155 102.955 31.3694 102.955C29.0328 102.955 27.4183 103.933 26.2712 105.166C26.065 103.68 25.2125 102.869 23.7604 102.936ZM58.793 102.941C58.4328 102.949 58.0337 103.009 57.5955 103.128C57.1282 103.256 54.6208 104.021 53.3037 104.446C52.0292 104.871 51.3919 105.423 51.3494 106.316C51.264 107.081 51.6033 107.634 52.7089 109.164C53.4737 110.227 53.5162 111.63 53.5162 114.563C53.5162 117.538 53.4734 118.941 52.7089 120.003C51.6043 121.534 51.2645 122.087 51.3494 122.852C51.3922 123.744 51.9868 124.126 53.3037 124.126H61.4614C62.7784 124.126 63.3734 123.744 63.4584 122.852C63.5012 122.087 63.2045 121.534 62.0989 120.003C61.2917 118.941 61.2489 117.538 61.2489 114.563V111.544C61.2489 108.952 62.3536 107.464 64.2657 107.464C67.3245 107.464 66.8574 111.204 66.8574 114.138V114.563C66.8574 117.538 66.8147 118.941 66.0501 120.003C64.9456 121.534 64.6057 122.087 64.6907 122.852C64.7335 123.744 65.328 124.126 66.645 124.126H74.8026C76.1196 124.126 76.7137 123.744 76.7987 122.852C76.8414 122.087 76.5449 121.534 75.4392 120.003C74.6745 118.941 74.6319 117.538 74.6319 114.563V111.544C74.6319 108.952 75.6942 107.464 77.606 107.464C80.6651 107.464 80.1978 111.204 80.1978 114.138V114.563C80.1978 117.538 80.1551 118.941 79.3905 120.003C78.2856 121.534 77.9885 122.087 78.031 122.852C78.1164 123.744 78.711 124.126 80.0279 124.126H88.1856C89.5026 124.126 90.0974 123.744 90.1399 122.852C90.2254 122.087 89.8861 121.534 88.7804 120.003C88.0157 118.941 87.9731 117.538 87.9731 114.563V109.972C87.9731 106.699 86.4863 102.958 80.9207 102.958C77.7341 102.958 75.3969 104.786 73.9099 106.444C73.0175 104.488 71.1058 102.958 67.5794 102.958C64.8179 102.958 62.7358 104.276 61.2489 105.721C61.1795 103.925 60.3538 102.915 58.793 102.941ZM121.692 102.941C121.332 102.949 120.933 103.009 120.495 103.128C120.028 103.256 117.521 104.021 116.247 104.446C114.93 104.871 114.335 105.423 114.25 106.316C114.207 107.081 114.503 107.634 115.609 109.164C116.374 110.227 116.458 111.799 116.458 114.69C116.458 117.538 116.373 118.941 115.609 120.003C114.505 121.534 114.207 122.087 114.25 122.852C114.335 123.744 114.93 124.126 116.247 124.126H124.403C125.72 124.126 126.315 123.744 126.358 122.852C126.443 122.087 126.104 121.534 124.998 120.003C124.234 118.941 124.191 117.538 124.191 114.563V111.545C124.191 108.952 125.169 107.464 127.081 107.464C130.14 107.464 130.096 111.205 130.096 114.138V114.563C130.096 117.538 130.054 118.941 129.29 120.004C128.185 121.534 127.845 122.087 127.888 122.852C127.973 123.745 128.567 124.127 129.884 124.127H138.042C139.359 124.127 139.954 123.745 140.039 122.852C140.081 122.087 139.741 121.534 138.636 120.004C137.872 118.941 137.829 117.538 137.829 114.563V109.972C137.829 106.699 135.917 102.958 130.352 102.958C127.675 102.958 125.635 104.234 124.191 105.679C124.087 103.917 123.254 102.913 121.692 102.941ZM102.304 102.946C96.1786 102.956 90.8816 106.927 91.0874 114.009C91.3412 121.151 97.2055 124.509 103.111 124.509C108.125 124.509 111.014 122.043 112.288 119.153C113.011 117.58 111.821 116.645 110.589 117.835C107.148 121.193 100.052 120.343 99.0326 114.902H109.527C112.246 114.902 112.756 113.797 112.458 110.949C112.118 107.464 109.144 103.127 102.899 102.957C102.699 102.95 102.501 102.946 102.304 102.946ZM169.772 102.956C166.16 102.956 161.826 103.722 160.594 106.952C159.872 108.78 160.935 110.14 162.082 110.566C163.951 111.203 165.608 110.608 166.415 108.015C166.925 106.4 168.115 106.06 169.347 106.23C171.046 106.485 171.174 108.355 171.174 110.736V111.331C163.739 111.331 158.556 112.988 158.556 118.642C158.556 122.128 161.275 124.508 165.863 124.508C168.582 124.508 170.324 123.573 171.471 121.788C172.151 123.615 173.766 124.508 176.91 124.508C179.289 124.508 181.626 123.106 181.711 121.278C181.796 120.003 180.776 120.172 179.714 119.067C178.779 118.089 178.907 115.581 178.907 112.648V111.799C178.907 105.592 175.635 102.956 169.772 102.956ZM102.689 106.382C104.73 106.403 105.382 108.007 105.661 109.163C106.001 110.438 105.532 111.161 104.513 111.161H99.543C99.1606 111.161 98.9478 110.735 99.0752 110.268C99.4576 108.482 100.35 106.527 102.262 106.4C102.411 106.387 102.553 106.382 102.689 106.382ZM170.395 114.017C171.16 113.985 171.471 114.264 171.471 115.284V116.984C171.471 119.194 170.706 120.555 169.007 120.555C167.138 120.555 166.33 119.28 166.415 117.494C166.544 115.624 167.86 114.391 169.474 114.136C169.835 114.073 170.14 114.027 170.395 114.017Z" fill="#1D80A7"/>
<path d="M132.16 84.5808H121.991C120.996 84.5808 120.189 85.3879 120.189 86.3834V90.0289C120.189 91.0245 120.996 91.8316 121.991 91.8316H132.16C133.156 91.8316 133.962 91.0245 133.962 90.0289V86.3834C133.962 85.3879 133.156 84.5808 132.16 84.5808Z" fill="#1D80A7"/>
<path d="M179.132 165.624C180.23 165.158 181.32 164.666 182.402 164.146C183.274 163.727 183.641 162.68 183.222 161.807C182.803 160.935 181.756 160.567 180.884 160.986C179.859 161.479 178.817 161.948 177.763 162.394C176.874 162.773 176.458 163.8 176.834 164.691C177.211 165.584 178.24 166.001 179.132 165.624ZM169.26 169.051C170.037 168.691 170.439 167.821 170.212 166.995C169.956 166.062 168.992 165.513 168.059 165.769C166.959 166.072 165.851 166.35 164.74 166.599C163.796 166.809 163.201 167.746 163.411 168.691C163.623 169.636 164.561 170.231 165.506 170.019C166.675 169.758 167.837 169.466 168.99 169.149C169.082 169.123 169.173 169.091 169.26 169.051ZM191.502 159.019C191.593 158.979 191.68 158.933 191.763 158.878C192.759 158.224 193.746 157.548 194.718 156.841C195.501 156.272 195.674 155.175 195.104 154.391C194.536 153.61 193.441 153.436 192.659 154.003C191.74 154.671 190.796 155.316 189.838 155.945C189.028 156.476 188.803 157.564 189.335 158.374C189.804 159.089 190.719 159.361 191.502 159.019ZM155.451 171.525C156.135 171.221 156.551 170.515 156.485 169.768C156.399 168.804 155.548 168.093 154.585 168.178C153.452 168.278 152.315 168.347 151.172 168.394C150.204 168.433 149.451 169.249 149.49 170.217C149.529 171.186 150.347 171.939 151.316 171.898C152.507 171.85 153.701 171.776 154.896 171.67C155.088 171.652 155.275 171.603 155.451 171.525ZM202.493 150.301C202.671 150.221 202.834 150.111 202.975 149.977C203.845 149.151 204.693 148.305 205.519 147.441C206.188 146.74 206.161 145.63 205.46 144.961C204.761 144.292 203.653 144.317 202.983 145.015C202.195 145.841 201.389 146.648 200.563 147.432C199.861 148.097 199.83 149.207 200.495 149.91C201.009 150.453 201.811 150.611 202.493 150.301ZM141.424 171.475C142.015 171.223 142.422 170.668 142.483 170.027C142.575 169.063 141.868 168.207 140.904 168.115C139.768 168.007 138.635 167.873 137.506 167.712C136.547 167.575 135.659 168.242 135.522 169.201C135.386 170.161 136.054 171.05 137.013 171.185C138.198 171.354 139.385 171.493 140.574 171.605C140.864 171.633 141.156 171.588 141.424 171.475ZM211.736 139.746C212.001 139.622 212.231 139.432 212.404 139.196C213.111 138.227 213.791 137.243 214.448 136.247C214.982 135.439 214.759 134.35 213.951 133.817C213.143 133.283 212.056 133.506 211.522 134.314C210.893 135.269 210.244 136.208 209.573 137.127C209.002 137.91 209.174 139.008 209.957 139.579C210.475 139.956 211.157 140.02 211.736 139.746ZM127.636 168.91C128.138 168.707 128.518 168.282 128.664 167.761C128.927 166.828 128.383 165.859 127.45 165.597C126.35 165.287 125.259 164.952 124.178 164.592C123.259 164.287 122.268 164.785 121.963 165.704C121.657 166.623 122.153 167.615 123.071 167.921C124.208 168.299 125.352 168.649 126.501 168.973C126.875 169.079 127.275 169.057 127.636 168.91ZM218.942 127.712C219.294 127.54 219.579 127.254 219.75 126.901C220.272 125.822 220.763 124.73 221.232 123.632C221.611 122.743 221.199 121.713 220.31 121.333C219.421 120.953 218.392 121.366 218.011 122.255C217.562 123.307 217.091 124.347 216.595 125.372C216.173 126.243 216.536 127.291 217.406 127.714C217.891 127.95 218.457 127.949 218.942 127.712ZM114.661 163.869C115.012 163.698 115.296 163.414 115.467 163.063C115.894 162.192 115.533 161.14 114.661 160.715C113.634 160.215 112.619 159.694 111.619 159.147C110.769 158.682 109.703 158.995 109.24 159.846C108.777 160.695 109.089 161.759 109.937 162.224C110.987 162.798 112.052 163.348 113.125 163.871C113.61 164.107 114.177 164.106 114.661 163.869ZM223.756 114.647C224.259 114.443 224.638 114.017 224.784 113.494C225.106 112.339 225.395 111.177 225.661 110.013C225.878 109.07 225.288 108.13 224.345 107.913C223.401 107.695 222.459 108.286 222.243 109.231C221.988 110.346 221.711 111.453 221.405 112.55C221.144 113.483 221.689 114.452 222.623 114.712C222.997 114.817 223.396 114.794 223.756 114.647ZM102.652 156.637C102.917 156.513 103.146 156.323 103.319 156.087C103.893 155.307 103.726 154.208 102.945 153.635C102.024 152.957 101.119 152.262 100.235 151.546C99.4819 150.937 98.3784 151.054 97.77 151.807C97.1598 152.56 97.2755 153.665 98.0281 154.274C98.9597 155.029 99.9112 155.756 100.873 156.463C101.389 156.842 102.071 156.909 102.652 156.637ZM226.288 100.855C226.881 100.602 227.286 100.043 227.345 99.4011C227.456 98.2059 227.534 97.011 227.588 95.8194C227.63 94.8531 226.883 94.0351 225.917 93.991C224.951 93.9487 224.134 94.6966 224.089 95.6627C224.037 96.8066 223.961 97.9453 223.856 99.0782C223.767 100.042 224.476 100.896 225.439 100.985C225.728 101.013 226.02 100.967 226.288 100.855ZM92.1368 147.37C92.3148 147.29 92.4785 147.181 92.6208 147.048C93.3251 146.383 93.3569 145.273 92.6919 144.568C91.907 143.737 91.1431 142.89 90.4036 142.026C89.7739 141.289 88.6653 141.203 87.9295 141.834C87.1941 142.465 87.1096 143.573 87.741 144.308C88.5215 145.22 89.3261 146.107 90.1456 146.975C90.658 147.517 91.4567 147.676 92.1368 147.37ZM226.311 86.8321C226.995 86.5263 227.409 85.8197 227.341 85.0736C227.233 83.8833 227.097 82.6935 226.932 81.5065C226.799 80.5475 225.914 79.8781 224.955 80.0114C223.996 80.1448 223.327 81.0305 223.461 81.9896C223.618 83.1183 223.746 84.2511 223.85 85.3891C223.937 86.3538 224.789 87.0653 225.753 86.978C225.946 86.9601 226.135 86.9115 226.311 86.8321ZM83.4687 136.361C83.5585 136.322 83.6455 136.275 83.7273 136.221C84.5383 135.693 84.7676 134.607 84.2394 133.795C83.619 132.844 83.022 131.87 82.4419 130.881C81.952 130.046 80.8779 129.766 80.043 130.257C79.2081 130.747 78.9286 131.822 79.4187 132.657C80.0215 133.684 80.6474 134.705 81.3038 135.712C81.7711 136.427 82.6854 136.701 83.4687 136.361ZM223.803 73.0428C224.578 72.6814 224.98 71.8133 224.753 70.9885C224.433 69.8322 224.084 68.6853 223.71 67.5504C223.407 66.6302 222.416 66.13 221.497 66.4333C220.579 66.7373 220.081 67.7276 220.383 68.6464C220.741 69.7317 221.072 70.8227 221.375 71.9198C221.632 72.8542 222.598 73.4029 223.532 73.1448C223.625 73.1184 223.715 73.084 223.803 73.0428ZM218.865 59.9351C218.867 59.9332 218.87 59.9328 218.87 59.9274C219.742 59.5079 220.109 58.4608 219.69 57.5882C219.171 56.5092 218.625 55.4423 218.055 54.3903C217.593 53.5399 216.53 53.2251 215.679 53.6871C214.829 54.148 214.512 55.2111 214.972 56.0625C215.516 57.0658 216.036 58.0833 216.53 59.1109C216.949 59.982 217.993 60.3518 218.865 59.9351ZM211.693 47.9047C211.781 47.8602 211.865 47.8087 211.945 47.7504C212.724 47.179 212.894 46.0844 212.325 45.3032C211.622 44.341 210.898 43.3863 210.145 42.4508C209.537 41.6975 208.435 41.5789 207.681 42.1858C206.928 42.7933 206.81 43.8963 207.416 44.6502C208.129 45.5349 208.82 46.4456 209.496 47.371C210 48.0609 210.928 48.2863 211.693 47.9047ZM202.34 37.4321C202.566 37.3397 202.769 37.2002 202.938 37.0242C203.604 36.3227 203.577 35.2131 202.876 34.5456C202.009 33.7194 201.122 32.9141 200.216 32.1318C199.483 31.4994 198.377 31.5806 197.745 32.3133C197.113 33.0462 197.194 34.1529 197.926 34.7857C198.789 35.5307 199.634 36.2967 200.459 37.0829C200.962 37.5619 201.699 37.6987 202.34 37.4321ZM191.376 28.7373C191.691 28.6022 191.958 28.3772 192.146 28.0914C192.676 27.282 192.451 26.1955 191.642 25.664C190.641 25.0064 189.625 24.3739 188.595 23.7669C187.761 23.2757 186.687 23.5537 186.196 24.3882C185.705 25.2226 185.983 26.2973 186.817 26.7887C187.8 27.3681 188.767 27.9698 189.719 28.5948C190.213 28.9182 190.835 28.9717 191.376 28.7373ZM74.5309 70.5525C74.9751 70.3433 75.311 69.9569 75.457 69.4879C75.7967 68.3997 76.1638 67.3191 76.5562 66.2479C76.8872 65.3395 76.4208 64.3345 75.5138 64.0012C74.6051 63.6669 73.5977 64.1333 73.2639 65.0424C72.8523 66.1662 72.4668 67.3002 72.1099 68.4435C71.821 69.3691 72.3379 70.3537 73.2637 70.6409C73.6823 70.771 74.1344 70.7393 74.5309 70.5525ZM179.04 22.1505C179.442 21.9693 179.76 21.6433 179.933 21.2376C180.311 20.3457 179.895 19.3154 179.003 18.9374C177.901 18.4692 176.788 18.0283 175.667 17.6148C174.758 17.2805 173.75 17.7468 173.417 18.656C173.083 19.5634 173.547 20.5696 174.453 20.9053C175.524 21.3001 176.588 21.7209 177.636 22.1661C178.086 22.3568 178.595 22.3509 179.04 22.1505ZM79.8865 57.6294C80.2431 57.4682 80.5353 57.1917 80.7167 56.8448C81.2447 55.8345 81.7976 54.8352 82.3745 53.8511C82.8626 53.0157 82.5822 51.9425 81.7475 51.4532C80.913 50.9634 79.8396 51.2428 79.3495 52.0775C78.7442 53.1101 78.1642 54.1577 77.6096 55.2191C77.1603 56.0783 77.4934 57.1393 78.3529 57.5872C78.8304 57.8362 79.396 57.8518 79.8865 57.6294ZM165.726 17.8716C166.216 17.642 166.573 17.1987 166.692 16.6704C166.907 15.7258 166.315 14.7865 165.37 14.5726C164.202 14.3083 163.027 14.0746 161.849 13.8678C160.897 13.7012 159.99 14.3373 159.822 15.2897C159.653 16.2439 160.29 17.1538 161.244 17.3216C162.368 17.5189 163.485 17.742 164.596 17.9931C164.975 18.0794 165.373 18.0365 165.726 17.8716ZM87.4603 45.8753C87.7287 45.7578 87.9634 45.5747 88.1429 45.3432C88.8422 44.4442 89.5663 43.5622 90.3102 42.6967C90.9424 41.9624 90.8592 40.8543 90.1247 40.2226C89.3902 39.5917 88.2835 39.6763 87.6532 40.4112C86.8735 41.3182 86.1139 42.2422 85.378 43.1882C84.7815 43.953 84.9191 45.057 85.6849 45.6519C86.1913 46.0458 86.8722 46.1317 87.4603 45.8753ZM151.866 16.0409C152.445 15.7595 152.823 15.1832 152.851 14.5397C152.892 13.5723 152.141 12.7549 151.174 12.714C149.976 12.663 148.778 12.6446 147.584 12.6518C146.618 12.6594 145.839 13.4473 145.844 14.4147C145.852 15.3821 146.639 16.1613 147.606 16.1561C148.749 16.1484 149.89 16.1689 151.026 16.2178C151.317 16.228 151.605 16.1686 151.866 16.0409ZM97.0232 35.6758C97.2033 35.5998 97.3699 35.4951 97.5155 35.3646C98.3636 34.6075 99.2356 33.8702 100.125 33.1492C100.876 32.5394 100.991 31.4363 100.382 30.6844C99.7737 29.9313 98.6701 29.8147 97.9176 30.4237C96.9915 31.1746 96.0761 31.9502 95.1805 32.7495C94.4588 33.3939 94.3954 34.5017 95.039 35.2243C95.5364 35.7829 96.3332 35.9642 97.0232 35.6758ZM137.778 16.7987C138.522 16.4959 138.965 15.726 138.853 14.9303C138.719 13.9696 137.83 13.3008 136.87 13.4378C135.686 13.605 134.508 13.8016 133.333 14.0254C132.382 14.2061 131.758 15.1236 131.938 16.0747C132.119 17.0258 133.036 17.6504 133.987 17.47C135.107 17.2568 136.234 17.0697 137.363 16.9101C137.506 16.8897 137.645 16.8527 137.778 16.7987ZM108.395 27.3158C108.441 27.2928 108.485 27.269 108.528 27.2423C109.504 26.649 110.492 26.0795 111.492 25.5364C112.342 25.0739 112.656 24.0098 112.195 23.1591C111.734 22.3069 110.669 21.9906 109.817 22.4529C108.764 23.0252 107.729 23.6246 106.708 24.2449C105.881 24.7477 105.617 25.8264 106.12 26.6541C106.592 27.4316 107.58 27.7191 108.395 27.3158ZM124.176 20.0096C125.016 19.6531 125.443 18.7116 125.156 17.8447C124.852 16.9255 123.86 16.4273 122.941 16.7319C121.801 17.1088 120.677 17.5156 119.565 17.9435C118.662 18.2904 118.21 19.3036 118.556 20.2073C118.903 21.1107 119.916 21.5622 120.819 21.2162C121.887 20.8054 122.962 20.4188 124.041 20.0622C124.086 20.0468 124.132 20.0291 124.176 20.0096Z" fill="#1D80A7"/>
</svg>
