<svg width="185" height="75" viewBox="0 0 185 75" fill="none" xmlns="http://www.w3.org/2000/svg">
<g clip-path="url(#clip0_2249_23)">
<g clip-path="url(#clip1_2249_23)">
<path d="M13.6792 69.7239C12.6718 69.2539 12.3177 68.4498 12.3842 67.3528C12.4441 66.3567 12.4158 65.3528 12.3906 64.3535C12.3732 63.6582 12.6151 63.1093 13.1001 62.6243C14.9079 60.817 16.6957 58.9889 18.5074 57.1849C18.806 56.888 18.9395 56.597 18.9363 56.1647C18.915 53.5963 18.926 51.0273 18.926 48.459C18.926 44.8235 19.7541 41.3939 21.4562 38.1888C24.3075 32.8209 27.1692 27.4583 30.0348 22.0983C31.5614 19.2435 34.6211 18.5 37.3086 20.3138C37.3551 20.345 37.4086 20.3672 37.4821 20.4069C38.6837 19.485 40.0329 19.123 41.5273 19.4388C42.9365 19.7363 44.031 20.5195 44.7141 21.7929C47.7531 27.459 50.8038 33.1191 53.7757 38.8203C55.3185 41.7806 55.9873 44.9941 55.9983 48.3398C56.0066 50.9479 56.0105 53.556 55.9899 56.1634C55.9867 56.5963 56.1221 56.8854 56.4201 57.1823C58.2176 58.972 59.9899 60.789 61.7861 62.58C62.3027 63.095 62.5601 63.6718 62.5369 64.4121C62.5059 65.3912 62.4827 66.3756 62.5414 67.3522C62.6078 68.4479 62.2557 69.2539 61.2463 69.7233C55.3391 69.7233 49.4326 69.7233 43.5254 69.7233C43.1533 69.3984 42.7005 69.1308 42.4232 68.7376C41.2996 67.1426 40.2039 65.526 39.1513 63.8821C38.5366 62.9225 38.0239 61.8965 37.4331 60.8431C37.2396 61.2363 37.0945 61.6165 36.881 61.9524C35.5118 64.11 34.1496 66.2728 32.732 68.3978C32.3908 68.9095 31.8497 69.2851 31.4008 69.7233C25.493 69.7239 19.5864 69.7239 13.6792 69.7239ZM58.9586 66.1933C59.2018 65.2311 58.8961 64.6054 58.2505 63.9889C56.5426 62.3587 54.9186 60.6406 53.243 58.9752C52.7245 58.4596 52.4884 57.8815 52.4936 57.1425C52.5129 54.1419 52.5219 51.1406 52.4936 48.1399C52.4684 45.4362 51.9131 42.8314 50.6599 40.4375C47.7228 34.8255 44.727 29.2454 41.7479 23.6562C41.3674 22.942 40.696 22.6875 40.0362 22.9603C39.3596 23.2396 39.0784 23.8952 39.3196 24.7207C40.6689 29.3405 42.022 33.959 43.3912 38.5729C43.4525 38.7793 43.6454 39.0123 43.8369 39.1022C45.7021 39.9759 46.6547 41.4414 46.6683 43.5091C46.6844 45.8821 46.6734 48.2558 46.6702 50.6289C46.6702 50.8431 46.6702 51.0644 46.6225 51.2708C46.4213 52.1452 45.6318 52.7291 44.7792 52.6536C43.873 52.5729 43.1849 51.8314 43.1797 50.8672C43.1668 48.455 43.1771 46.0423 43.1739 43.6295C43.1726 42.6198 42.6166 42.1582 41.6402 42.3418C40.2051 42.6113 39.2216 43.7903 39.2145 45.2936C39.2035 47.6471 39.1951 50.0013 39.2171 52.3541C39.248 55.7044 40.1252 58.8203 41.8924 61.6588C42.7495 63.0351 43.695 64.3554 44.5728 65.72C44.8005 66.0735 45.0423 66.2044 45.4622 66.2031C49.7757 66.1868 54.0892 66.1927 58.4027 66.1927C58.5929 66.1933 58.7826 66.1933 58.9586 66.1933ZM15.9534 66.1933C20.5539 66.1933 25.1195 66.1979 29.6846 66.1777C29.8806 66.1771 30.1399 65.9909 30.2618 65.8144C31.1189 64.5781 31.9645 63.3327 32.7836 62.0703C34.3857 59.6002 35.4382 56.901 35.5892 53.9485C35.7401 50.9948 35.7053 48.0299 35.6956 45.0696C35.6911 43.75 34.7127 42.6777 33.4073 42.3743C32.3212 42.1224 31.7517 42.5677 31.751 43.6777C31.7491 46.0312 31.7542 48.3847 31.7484 50.7383C31.7452 51.8717 31.0016 52.6692 29.9819 52.6569C28.9848 52.6452 28.2579 51.8574 28.2553 50.7571C28.2489 48.3053 28.2308 45.8535 28.2605 43.4023C28.2844 41.4062 29.2492 39.9993 31.0209 39.123C31.2428 39.013 31.4743 38.761 31.5453 38.5267C32.3334 35.9245 33.0919 33.3125 33.8562 30.7031C34.4502 28.6751 35.0551 26.651 35.6292 24.6172C35.9149 23.6054 35.2048 22.7597 34.2128 22.8769C33.6188 22.9472 33.3247 23.3665 33.0667 23.8509C30.2728 29.0957 27.4756 34.3392 24.6739 39.58C23.1589 42.414 22.4023 45.4342 22.4197 48.6575C22.4352 51.4622 22.4055 54.2669 22.4339 57.0716C22.4417 57.8789 22.1746 58.4948 21.611 59.0534C19.9186 60.7285 18.2849 62.4661 16.5596 64.1054C15.9185 64.7155 15.7857 65.3437 15.9534 66.1933ZM37.5298 31.0859C37.4853 31.0859 37.4402 31.0853 37.3957 31.0853C36.6088 33.7689 35.822 36.4524 35.0584 39.0573C35.9168 39.6341 36.7153 40.1699 37.4628 40.6718C38.2354 40.153 39.0203 39.6263 39.8672 39.0579C39.1035 36.4537 38.3167 33.7702 37.5298 31.0859Z" fill="#D6C5A3"/>
<path d="M39.2106 12.7643C39.2106 13.2337 39.2229 13.7031 39.208 14.1719C39.1764 15.1732 38.4263 15.9316 37.477 15.9401C36.5037 15.9486 35.7349 15.1758 35.7182 14.1419C35.7027 13.1843 35.7027 12.2253 35.7182 11.2676C35.7349 10.2344 36.5044 9.46225 37.4776 9.47071C38.4276 9.47917 39.1777 10.2376 39.208 11.2389C39.2229 11.7468 39.2106 12.2559 39.2106 12.7643Z" fill="#D6C5A3"/>
<path d="M32.7042 14.9336C32.6268 15.8242 32.3456 16.3724 31.7065 16.6875C31.0248 17.0235 30.3585 16.9492 29.809 16.4492C29.0892 15.7943 28.3998 15.1003 27.7509 14.3737C27.1189 13.666 27.1905 12.6276 27.8432 11.9798C28.4959 11.3314 29.5162 11.2774 30.2166 11.9206C30.919 12.5658 31.5981 13.2435 32.2257 13.9616C32.4908 14.2643 32.5972 14.7077 32.7042 14.9336Z" fill="#D6C5A3"/>
<path d="M45.6892 11.4518C46.5431 11.5196 47.0868 11.8002 47.4054 12.4421C47.7228 13.0801 47.7047 13.739 47.2494 14.2617C46.5599 15.0541 45.8201 15.8119 45.0352 16.5072C44.3683 17.0977 43.3719 16.9844 42.7572 16.3653C42.1258 15.7285 42.0374 14.7044 42.645 14.0169C43.3151 13.2585 44.0388 12.5423 44.7895 11.8646C45.0584 11.6218 45.4744 11.5456 45.6892 11.4518Z" fill="#D6C5A3"/>
</g>
<path d="M34.0938 38.3977V38.6534C34.0938 39.2358 34.0476 39.7028 33.9553 40.0543C33.8629 40.4023 33.7262 40.6811 33.5451 40.8906C33.3675 41.1001 33.1456 41.2919 32.8793 41.4659C32.6555 41.6151 32.4531 41.7589 32.272 41.8974C32.0909 42.0359 31.9471 42.1832 31.8406 42.3395C31.7376 42.4957 31.6861 42.6733 31.6861 42.8722C31.6861 43.0497 31.7287 43.206 31.8139 43.3409C31.8991 43.4759 32.0146 43.5806 32.1602 43.6552C32.3058 43.7298 32.4673 43.767 32.6449 43.767C32.8366 43.767 33.0124 43.7227 33.1722 43.6339C33.3356 43.5451 33.4652 43.4208 33.5611 43.261C33.6605 43.1048 33.7102 42.9254 33.7102 42.723H36.4375C36.4304 43.5043 36.2528 44.1381 35.9048 44.6246C35.5568 45.1147 35.0952 45.4734 34.5199 45.7006C33.9482 45.9315 33.3161 46.0469 32.6236 46.0469C31.8672 46.0469 31.1889 45.935 30.5888 45.7113C29.9922 45.4911 29.5217 45.1573 29.1772 44.7099C28.8327 44.266 28.6605 43.7102 28.6605 43.0426C28.6605 42.6094 28.7333 42.2312 28.8789 41.908C29.0281 41.5849 29.234 41.3008 29.4968 41.0558C29.7596 40.8072 30.0632 40.5817 30.4077 40.3793C30.6669 40.2266 30.8817 40.0721 31.0522 39.9158C31.2262 39.7596 31.3576 39.5803 31.4464 39.3778C31.5352 39.1754 31.5795 38.9339 31.5795 38.6534V38.3977H34.0938ZM32.794 34.8182C33.206 34.8182 33.5593 34.9638 33.854 35.255C34.1488 35.5426 34.2926 35.8942 34.2855 36.3097C34.2926 36.7145 34.1488 37.0607 33.854 37.3484C33.5593 37.636 33.206 37.7798 32.794 37.7798C32.4034 37.7798 32.0589 37.636 31.7607 37.3484C31.4624 37.0607 31.3097 36.7145 31.3026 36.3097C31.3061 36.0327 31.3771 35.7823 31.5156 35.5586C31.6577 35.3313 31.8406 35.152 32.0643 35.0206C32.2915 34.8857 32.5348 34.8182 32.794 34.8182ZM37.6973 43V32.0909H42.4061C43.2157 32.0909 43.9242 32.2383 44.5314 32.533C45.1387 32.8278 45.611 33.2521 45.9483 33.8061C46.2857 34.3601 46.4544 35.0241 46.4544 35.7983C46.4544 36.5795 46.2804 37.2383 45.9324 37.7745C45.5879 38.3107 45.1032 38.7156 44.4782 38.989C43.8567 39.2624 43.1305 39.3991 42.2995 39.3991H39.487V37.098H41.7029C42.051 37.098 42.3475 37.0554 42.5925 36.9702C42.8411 36.8814 43.0311 36.7411 43.1625 36.5494C43.2974 36.3576 43.3649 36.1072 43.3649 35.7983C43.3649 35.4858 43.2974 35.2319 43.1625 35.0366C43.0311 34.8377 42.8411 34.6921 42.5925 34.5998C42.3475 34.5039 42.051 34.456 41.7029 34.456H40.6589V43H37.6973ZM44.0893 37.9929L46.8166 43H43.5993L40.9359 37.9929H44.0893ZM51.5041 43.1491C50.6305 43.1491 49.8777 42.9822 49.2456 42.6484C48.617 42.3111 48.1323 41.8281 47.7914 41.1996C47.454 40.5675 47.2853 39.8111 47.2853 38.9304C47.2853 38.0852 47.4558 37.3466 47.7967 36.7145C48.1376 36.0824 48.6188 35.5906 49.2402 35.239C49.8617 34.8874 50.595 34.7116 51.4402 34.7116C52.0581 34.7116 52.6174 34.8075 53.1181 34.9993C53.6188 35.1911 54.0467 35.4698 54.4018 35.8356C54.7569 36.1978 55.0304 36.6381 55.2221 37.1566C55.4139 37.6751 55.5098 38.2592 55.5098 38.9091V39.5909H48.2015V37.9716H52.8038C52.8002 37.7372 52.7399 37.5312 52.6227 37.3537C52.5091 37.1726 52.3546 37.0323 52.1593 36.9329C51.9675 36.8299 51.7491 36.7784 51.5041 36.7784C51.2662 36.7784 51.0478 36.8299 50.8489 36.9329C50.65 37.0323 50.4902 37.1708 50.3695 37.3484C50.2523 37.5259 50.1902 37.7337 50.1831 37.9716V39.7188C50.1831 39.9815 50.2381 40.2159 50.3482 40.4219C50.4583 40.6278 50.6163 40.7894 50.8223 40.9066C51.0282 41.0238 51.2768 41.0824 51.568 41.0824C51.7704 41.0824 51.9551 41.054 52.122 40.9972C52.2924 40.9403 52.438 40.8587 52.5588 40.7521C52.6795 40.642 52.7683 40.5107 52.8251 40.358H55.5098C55.4174 40.9261 55.199 41.4197 54.8546 41.8388C54.5101 42.2543 54.0538 42.5774 53.4856 42.8082C52.921 43.0355 52.2605 43.1491 51.5041 43.1491ZM58.9894 43.1278C58.4674 43.1278 58.0058 43.0426 57.6045 42.8722C57.2068 42.6982 56.8943 42.4354 56.667 42.0838C56.4397 41.7322 56.3261 41.2848 56.3261 40.7415C56.3261 40.294 56.4024 39.9123 56.5551 39.5962C56.7078 39.2766 56.9209 39.0156 57.1943 38.8132C57.4678 38.6108 57.7856 38.4563 58.1478 38.3498C58.5136 38.2433 58.9078 38.174 59.3303 38.142C59.7884 38.1065 60.156 38.0639 60.433 38.0142C60.7135 37.9609 60.9159 37.8881 61.0402 37.7958C61.1645 37.6999 61.2267 37.5739 61.2267 37.4176V37.3963C61.2267 37.1832 61.145 37.0199 60.9816 36.9062C60.8183 36.7926 60.6088 36.7358 60.3531 36.7358C60.0725 36.7358 59.8435 36.7979 59.6659 36.9222C59.4919 37.043 59.3872 37.2294 59.3517 37.4815H56.6457C56.6812 36.9844 56.8392 36.5263 57.1198 36.1072C57.4039 35.6847 57.8176 35.3473 58.3609 35.0952C58.9042 34.8395 59.5825 34.7116 60.3957 34.7116C60.9816 34.7116 61.5072 34.7809 61.9724 34.9194C62.4376 35.0543 62.8335 35.2443 63.1602 35.4893C63.4869 35.7308 63.7355 36.0149 63.906 36.3416C64.08 36.6648 64.167 37.0163 64.167 37.3963V43H61.4184V41.8494H61.3545C61.1911 42.1548 60.9923 42.4016 60.7579 42.5898C60.5271 42.7781 60.2625 42.9148 59.9642 43C59.6695 43.0852 59.3445 43.1278 58.9894 43.1278ZM59.9482 41.2741C60.172 41.2741 60.3815 41.228 60.5768 41.1357C60.7757 41.0433 60.9372 40.9102 61.0615 40.7362C61.1858 40.5621 61.248 40.3509 61.248 40.1023V39.4205C61.1698 39.4524 61.0864 39.4826 60.9976 39.511C60.9124 39.5394 60.82 39.5661 60.7206 39.5909C60.6247 39.6158 60.5218 39.6388 60.4117 39.6602C60.3051 39.6815 60.1933 39.701 60.0761 39.7188C59.8488 39.7543 59.6624 39.8129 59.5168 39.8945C59.3747 39.9727 59.2682 40.0703 59.1972 40.1875C59.1297 40.3011 59.096 40.429 59.096 40.571C59.096 40.7983 59.1759 40.9723 59.3357 41.093C59.4955 41.2138 59.6997 41.2741 59.9482 41.2741ZM68.5123 32.0909V43H65.5719V32.0909H68.5123ZM70.0104 43V34.8182H72.8016V36.3736H72.8868C73.0573 35.8622 73.3485 35.4574 73.7604 35.1591C74.1723 34.8608 74.6624 34.7116 75.2306 34.7116C75.8058 34.7116 76.3012 34.8643 76.7167 35.1697C77.1322 35.4716 77.3825 35.8729 77.4678 36.3736H77.553C77.6915 35.8729 77.9862 35.4716 78.4372 35.1697C78.8882 34.8643 79.4173 34.7116 80.0246 34.7116C80.8094 34.7116 81.445 34.9638 81.9316 35.468C82.4216 35.9723 82.6666 36.6435 82.6666 37.4815V43H79.7263V38.2273C79.7263 37.8686 79.6357 37.5881 79.4546 37.3857C79.2735 37.1797 79.0303 37.0767 78.7249 37.0767C78.423 37.0767 78.1833 37.1797 78.0058 37.3857C77.8318 37.5881 77.7448 37.8686 77.7448 38.2273V43H74.9323V38.2273C74.9323 37.8686 74.8417 37.5881 74.6606 37.3857C74.4795 37.1797 74.2362 37.0767 73.9308 37.0767C73.7284 37.0767 73.5544 37.1229 73.4088 37.2152C73.2632 37.3075 73.1496 37.4407 73.0679 37.6147C72.9898 37.7852 72.9507 37.9893 72.9507 38.2273V43H70.0104ZM88.0373 43.1491C87.1637 43.1491 86.4109 42.9822 85.7788 42.6484C85.1502 42.3111 84.6655 41.8281 84.3246 41.1996C83.9872 40.5675 83.8185 39.8111 83.8185 38.9304C83.8185 38.0852 83.989 37.3466 84.3299 36.7145C84.6708 36.0824 85.152 35.5906 85.7734 35.239C86.3949 34.8874 87.1282 34.7116 87.9734 34.7116C88.5913 34.7116 89.1506 34.8075 89.6513 34.9993C90.152 35.1911 90.5799 35.4698 90.935 35.8356C91.2901 36.1978 91.5636 36.6381 91.7553 37.1566C91.9471 37.6751 92.043 38.2592 92.043 38.9091V39.5909H84.7347V37.9716H89.337C89.3335 37.7372 89.2731 37.5312 89.1559 37.3537C89.0423 37.1726 88.8878 37.0323 88.6925 36.9329C88.5007 36.8299 88.2823 36.7784 88.0373 36.7784C87.7994 36.7784 87.581 36.8299 87.3821 36.9329C87.1832 37.0323 87.0234 37.1708 86.9027 37.3484C86.7855 37.5259 86.7234 37.7337 86.7163 37.9716V39.7188C86.7163 39.9815 86.7713 40.2159 86.8814 40.4219C86.9915 40.6278 87.1495 40.7894 87.3555 40.9066C87.5614 41.0238 87.81 41.0824 88.1012 41.0824C88.3036 41.0824 88.4883 41.054 88.6552 40.9972C88.8256 40.9403 88.9712 40.8587 89.092 40.7521C89.2127 40.642 89.3015 40.5107 89.3583 40.358H92.043C91.9506 40.9261 91.7322 41.4197 91.3878 41.8388C91.0433 42.2543 90.587 42.5774 90.0188 42.8082C89.4542 43.0355 88.7937 43.1491 88.0373 43.1491ZM96.1831 38.3977V43H93.2428V34.8182H96.034V36.3736H96.1192C96.2968 35.8551 96.6093 35.4485 97.0567 35.1538C97.5077 34.859 98.0333 34.7116 98.6334 34.7116C99.2123 34.7116 99.7148 34.8448 100.141 35.1112C100.571 35.3739 100.903 35.7362 101.137 36.1978C101.375 36.6594 101.492 37.1868 101.489 37.7798V43H98.5482V38.3977C98.5518 37.9929 98.4488 37.6751 98.2393 37.4442C98.0333 37.2134 97.7456 37.098 97.3763 37.098C97.1349 37.098 96.9236 37.1513 96.7425 37.2578C96.5649 37.3608 96.4282 37.5099 96.3323 37.7053C96.2364 37.897 96.1867 38.1278 96.1831 38.3977ZM107.819 34.8182V36.9489H102.429V34.8182H107.819ZM103.473 32.858H106.413V40.3686C106.413 40.4822 106.433 40.5781 106.472 40.6562C106.511 40.7308 106.571 40.7876 106.653 40.8267C106.734 40.8622 106.839 40.88 106.967 40.88C107.056 40.88 107.159 40.8693 107.276 40.848C107.397 40.8267 107.486 40.8089 107.542 40.7947L107.968 42.8615C107.837 42.9006 107.649 42.9485 107.404 43.0053C107.162 43.0621 106.875 43.0994 106.541 43.1172C105.866 43.1527 105.3 43.0835 104.842 42.9094C104.384 42.7319 104.039 42.4531 103.808 42.0732C103.578 41.6932 103.466 41.2173 103.473 40.6456V32.858ZM112.852 43.1491C111.978 43.1491 111.225 42.9822 110.593 42.6484C109.965 42.3111 109.48 41.8281 109.139 41.1996C108.802 40.5675 108.633 39.8111 108.633 38.9304C108.633 38.0852 108.803 37.3466 109.144 36.7145C109.485 36.0824 109.966 35.5906 110.588 35.239C111.209 34.8874 111.943 34.7116 112.788 34.7116C113.406 34.7116 113.965 34.8075 114.466 34.9993C114.966 35.1911 115.394 35.4698 115.749 35.8356C116.105 36.1978 116.378 36.6381 116.57 37.1566C116.762 37.6751 116.857 38.2592 116.857 38.9091V39.5909H109.549V37.9716H114.151C114.148 37.7372 114.088 37.5312 113.97 37.3537C113.857 37.1726 113.702 37.0323 113.507 36.9329C113.315 36.8299 113.097 36.7784 112.852 36.7784C112.614 36.7784 112.395 36.8299 112.197 36.9329C111.998 37.0323 111.838 37.1708 111.717 37.3484C111.6 37.5259 111.538 37.7337 111.531 37.9716V39.7188C111.531 39.9815 111.586 40.2159 111.696 40.4219C111.806 40.6278 111.964 40.7894 112.17 40.9066C112.376 41.0238 112.624 41.0824 112.916 41.0824C113.118 41.0824 113.303 41.054 113.47 40.9972C113.64 40.9403 113.786 40.8587 113.906 40.7521C114.027 40.642 114.116 40.5107 114.173 40.358H116.857C116.765 40.9261 116.547 41.4197 116.202 41.8388C115.858 42.2543 115.401 42.5774 114.833 42.8082C114.269 43.0355 113.608 43.1491 112.852 43.1491ZM123.986 38.3977V43H121.046V32.0909H123.879V36.3736H123.965C124.149 35.8516 124.456 35.445 124.886 35.1538C125.316 34.859 125.832 34.7116 126.436 34.7116C127.015 34.7116 127.517 34.843 127.944 35.1058C128.373 35.3686 128.705 35.7308 128.94 36.1925C129.178 36.6541 129.295 37.1832 129.291 37.7798V43H126.351V38.3977C126.354 37.9929 126.253 37.6751 126.047 37.4442C125.845 37.2134 125.555 37.098 125.179 37.098C124.941 37.098 124.732 37.1513 124.551 37.2578C124.373 37.3608 124.234 37.5099 124.135 37.7053C124.039 37.897 123.989 38.1278 123.986 38.3977ZM133.023 43.1278C132.501 43.1278 132.039 43.0426 131.638 42.8722C131.24 42.6982 130.927 42.4354 130.7 42.0838C130.473 41.7322 130.359 41.2848 130.359 40.7415C130.359 40.294 130.436 39.9123 130.588 39.5962C130.741 39.2766 130.954 39.0156 131.228 38.8132C131.501 38.6108 131.819 38.4563 132.181 38.3498C132.547 38.2433 132.941 38.174 133.364 38.142C133.822 38.1065 134.189 38.0639 134.466 38.0142C134.747 37.9609 134.949 37.8881 135.073 37.7958C135.198 37.6999 135.26 37.5739 135.26 37.4176V37.3963C135.26 37.1832 135.178 37.0199 135.015 36.9062C134.851 36.7926 134.642 36.7358 134.386 36.7358C134.106 36.7358 133.877 36.7979 133.699 36.9222C133.525 37.043 133.42 37.2294 133.385 37.4815H130.679C130.714 36.9844 130.872 36.5263 131.153 36.1072C131.437 35.6847 131.851 35.3473 132.394 35.0952C132.937 34.8395 133.616 34.7116 134.429 34.7116C135.015 34.7116 135.54 34.7809 136.006 34.9194C136.471 35.0543 136.867 35.2443 137.193 35.4893C137.52 35.7308 137.769 36.0149 137.939 36.3416C138.113 36.6648 138.2 37.0163 138.2 37.3963V43H135.452V41.8494H135.388C135.224 42.1548 135.025 42.4016 134.791 42.5898C134.56 42.7781 134.296 42.9148 133.997 43C133.703 43.0852 133.378 43.1278 133.023 43.1278ZM133.981 41.2741C134.205 41.2741 134.415 41.228 134.61 41.1357C134.809 41.0433 134.97 40.9102 135.095 40.7362C135.219 40.5621 135.281 40.3509 135.281 40.1023V39.4205C135.203 39.4524 135.12 39.4826 135.031 39.511C134.946 39.5394 134.853 39.5661 134.754 39.5909C134.658 39.6158 134.555 39.6388 134.445 39.6602C134.338 39.6815 134.226 39.701 134.109 39.7188C133.882 39.7543 133.696 39.8129 133.55 39.8945C133.408 39.9727 133.301 40.0703 133.23 40.1875C133.163 40.3011 133.129 40.429 133.129 40.571C133.129 40.7983 133.209 40.9723 133.369 41.093C133.529 41.2138 133.733 41.2741 133.981 41.2741ZM141.102 46.0682C140.765 46.0682 140.443 46.0415 140.138 45.9883C139.832 45.9386 139.564 45.8693 139.333 45.7805L139.973 43.6925C140.214 43.7777 140.434 43.8327 140.633 43.8576C140.836 43.8825 141.008 43.8683 141.15 43.815C141.295 43.7617 141.4 43.6605 141.464 43.5114L141.528 43.3622L138.652 34.8182H141.72L143.041 40.4858H143.126L144.468 34.8182H147.558L144.575 43.6818C144.426 44.1328 144.209 44.5376 143.925 44.8963C143.645 45.2585 143.275 45.5444 142.817 45.7539C142.359 45.9634 141.787 46.0682 141.102 46.0682ZM28.7457 64.0682V52.8182H31.6648V54.2457H31.7287C31.8352 53.9687 31.9915 53.7148 32.1974 53.484C32.4034 53.2496 32.6591 53.0632 32.9645 52.9247C33.2699 52.7827 33.625 52.7116 34.0298 52.7116C34.5696 52.7116 35.0827 52.8555 35.5692 53.1431C36.0593 53.4308 36.457 53.8835 36.7624 54.5014C37.0714 55.1193 37.2259 55.9219 37.2259 56.9091C37.2259 57.8537 37.0785 58.6367 36.7837 59.2582C36.4925 59.8796 36.1019 60.343 35.6119 60.6484C35.1254 60.9538 34.5909 61.1065 34.0085 61.1065C33.625 61.1065 33.2823 61.0444 32.9805 60.9201C32.6822 60.7923 32.4265 60.62 32.2134 60.4034C32.0039 60.1832 31.8423 59.9347 31.7287 59.6577H31.6861V64.0682H28.7457ZM31.6222 56.9091C31.6222 57.3068 31.6737 57.6513 31.7766 57.9425C31.8832 58.2301 32.0323 58.4538 32.2241 58.6136C32.4194 58.7699 32.652 58.848 32.9219 58.848C33.1918 58.848 33.4208 58.7717 33.609 58.619C33.8008 58.4627 33.9464 58.2408 34.0458 57.9531C34.1488 57.6619 34.2003 57.3139 34.2003 56.9091C34.2003 56.5043 34.1488 56.158 34.0458 55.8704C33.9464 55.5792 33.8008 55.3572 33.609 55.2045C33.4208 55.0483 33.1918 54.9702 32.9219 54.9702C32.652 54.9702 32.4194 55.0483 32.2241 55.2045C32.0323 55.3572 31.8832 55.5792 31.7766 55.8704C31.6737 56.158 31.6222 56.5043 31.6222 56.9091ZM42.3994 61.1491C41.5116 61.1491 40.7517 60.9734 40.1196 60.6218C39.4875 60.2667 39.0028 59.7731 38.6654 59.141C38.328 58.5053 38.1594 57.7685 38.1594 56.9304C38.1594 56.0923 38.328 55.3572 38.6654 54.7251C39.0028 54.0895 39.4875 53.5959 40.1196 53.2443C40.7517 52.8892 41.5116 52.7116 42.3994 52.7116C43.2872 52.7116 44.0471 52.8892 44.6792 53.2443C45.3113 53.5959 45.7961 54.0895 46.1334 54.7251C46.4708 55.3572 46.6395 56.0923 46.6395 56.9304C46.6395 57.7685 46.4708 58.5053 46.1334 59.141C45.7961 59.7731 45.3113 60.2667 44.6792 60.6218C44.0471 60.9734 43.2872 61.1491 42.3994 61.1491ZM42.4207 58.9759C42.6693 58.9759 42.8841 58.8924 43.0653 58.7255C43.2464 58.5586 43.3866 58.3207 43.4861 58.0117C43.5855 57.7028 43.6352 57.3352 43.6352 56.9091C43.6352 56.4794 43.5855 56.1119 43.4861 55.8065C43.3866 55.4975 43.2464 55.2596 43.0653 55.0927C42.8841 54.9258 42.6693 54.8423 42.4207 54.8423C42.1579 54.8423 41.9324 54.9258 41.7442 55.0927C41.556 55.2596 41.4122 55.4975 41.3128 55.8065C41.2133 56.1119 41.1636 56.4794 41.1636 56.9091C41.1636 57.3352 41.2133 57.7028 41.3128 58.0117C41.4122 58.3207 41.556 58.5586 41.7442 58.7255C41.9324 58.8924 42.1579 58.9759 42.4207 58.9759ZM50.7943 61.1065C50.2119 61.1065 49.6757 60.9538 49.1856 60.6484C48.6991 60.343 48.3085 59.8796 48.0138 59.2582C47.7226 58.6367 47.577 57.8537 47.577 56.9091C47.577 55.9219 47.7297 55.1193 48.0351 54.5014C48.344 53.8835 48.7417 53.4308 49.2282 53.1431C49.7183 52.8555 50.2332 52.7116 50.773 52.7116C51.1778 52.7116 51.5329 52.7827 51.8383 52.9247C52.1437 53.0632 52.3994 53.2496 52.6054 53.484C52.8113 53.7148 52.9676 53.9687 53.0741 54.2457H53.1167V50.0909H56.0571V61H53.1381V59.6577H53.0741C52.9605 59.9347 52.7971 60.1832 52.5841 60.4034C52.3746 60.62 52.1189 60.7923 51.817 60.9201C51.5187 61.0444 51.1778 61.1065 50.7943 61.1065ZM51.8809 58.848C52.1508 58.848 52.3817 58.7699 52.5734 58.6136C52.7687 58.4538 52.9179 58.2301 53.0209 57.9425C53.1274 57.6513 53.1807 57.3068 53.1807 56.9091C53.1807 56.5043 53.1274 56.158 53.0209 55.8704C52.9179 55.5792 52.7687 55.3572 52.5734 55.2045C52.3817 55.0483 52.1508 54.9702 51.8809 54.9702C51.6111 54.9702 51.3802 55.0483 51.1885 55.2045C51.0003 55.3572 50.8547 55.5792 50.7517 55.8704C50.6523 56.158 50.6025 56.5043 50.6025 56.9091C50.6025 57.3139 50.6523 57.6619 50.7517 57.9531C50.8547 58.2408 51.0003 58.4627 51.1885 58.619C51.3802 58.7717 51.6111 58.848 51.8809 58.848ZM61.4211 61.1491C60.5475 61.1491 59.7947 60.9822 59.1626 60.6484C58.534 60.3111 58.0493 59.8281 57.7084 59.1996C57.371 58.5675 57.2023 57.8111 57.2023 56.9304C57.2023 56.0852 57.3728 55.3466 57.7137 54.7145C58.0546 54.0824 58.5358 53.5906 59.1572 53.239C59.7787 52.8874 60.512 52.7116 61.3572 52.7116C61.9751 52.7116 62.5344 52.8075 63.0351 52.9993C63.5358 53.1911 63.9637 53.4698 64.3188 53.8356C64.6739 54.1978 64.9474 54.6381 65.1391 55.1566C65.3309 55.6751 65.4268 56.2592 65.4268 56.9091V57.5909H58.1185V55.9716H62.7208C62.7172 55.7372 62.6569 55.5312 62.5397 55.3537C62.426 55.1726 62.2716 55.0323 62.0763 54.9329C61.8845 54.8299 61.6661 54.7784 61.4211 54.7784C61.1831 54.7784 60.9648 54.8299 60.7659 54.9329C60.567 55.0323 60.4072 55.1708 60.2865 55.3484C60.1693 55.5259 60.1072 55.7337 60.1001 55.9716V57.7188C60.1001 57.9815 60.1551 58.2159 60.2652 58.4219C60.3753 58.6278 60.5333 58.7894 60.7393 58.9066C60.9452 59.0238 61.1938 59.0824 61.485 59.0824C61.6874 59.0824 61.8721 59.054 62.039 58.9972C62.2094 58.9403 62.355 58.8587 62.4758 58.7521C62.5965 58.642 62.6853 58.5107 62.7421 58.358H65.4268C65.3344 58.9261 65.116 59.4197 64.7716 59.8388C64.4271 60.2543 63.9708 60.5774 63.4026 60.8082C62.838 61.0355 62.1775 61.1491 61.4211 61.1491ZM66.6266 61V52.8182H69.4817V54.3736H69.5669C69.7161 53.7983 69.9522 53.3775 70.2754 53.1112C70.6021 52.8448 70.9838 52.7116 71.4206 52.7116C71.5485 52.7116 71.6745 52.7223 71.7988 52.7436C71.9267 52.7614 72.0492 52.788 72.1664 52.8235V55.3324C72.0208 55.2827 71.8414 55.2454 71.6284 55.2205C71.4153 55.1957 71.2324 55.1832 71.0797 55.1832C70.7921 55.1832 70.5328 55.2489 70.302 55.3803C70.0748 55.5082 69.8954 55.6893 69.764 55.9237C69.6326 56.1545 69.5669 56.4261 69.5669 56.7386V61H66.6266ZM80.0392 61.1491C79.1657 61.1491 78.4128 60.9822 77.7807 60.6484C77.1522 60.3111 76.6674 59.8281 76.3265 59.1996C75.9892 58.5675 75.8205 57.8111 75.8205 56.9304C75.8205 56.0852 75.9909 55.3466 76.3319 54.7145C76.6728 54.0824 77.1539 53.5906 77.7754 53.239C78.3968 52.8874 79.1301 52.7116 79.9753 52.7116C80.5932 52.7116 81.1525 52.8075 81.6532 52.9993C82.1539 53.1911 82.5819 53.4698 82.937 53.8356C83.2921 54.1978 83.5655 54.6381 83.7573 55.1566C83.949 55.6751 84.0449 56.2592 84.0449 56.9091V57.5909H76.7367V55.9716H81.339C81.3354 55.7372 81.275 55.5312 81.1578 55.3537C81.0442 55.1726 80.8897 55.0323 80.6944 54.9329C80.5027 54.8299 80.2843 54.7784 80.0392 54.7784C79.8013 54.7784 79.5829 54.8299 79.3841 54.9329C79.1852 55.0323 79.0254 55.1708 78.9047 55.3484C78.7875 55.5259 78.7253 55.7337 78.7182 55.9716V57.7188C78.7182 57.9815 78.7733 58.2159 78.8833 58.4219C78.9934 58.6278 79.1515 58.7894 79.3574 58.9066C79.5634 59.0238 79.812 59.0824 80.1032 59.0824C80.3056 59.0824 80.4902 59.054 80.6571 58.9972C80.8276 58.9403 80.9732 58.8587 81.0939 58.7521C81.2147 58.642 81.3034 58.5107 81.3603 58.358H84.0449C83.9526 58.9261 83.7342 59.4197 83.3897 59.8388C83.0453 60.2543 82.589 60.5774 82.0208 60.8082C81.4561 61.0355 80.7956 61.1491 80.0392 61.1491ZM88.1851 56.3977V61H85.2448V52.8182H88.036V54.3736H88.1212C88.2987 53.8551 88.6112 53.4485 89.0587 53.1538C89.5097 52.859 90.0352 52.7116 90.6354 52.7116C91.2142 52.7116 91.7167 52.8448 92.1428 53.1112C92.5725 53.3739 92.9046 53.7362 93.1389 54.1978C93.3769 54.6594 93.4941 55.1868 93.4905 55.7798V61H90.5502V56.3977C90.5537 55.9929 90.4507 55.6751 90.2412 55.4442C90.0352 55.2134 89.7476 55.098 89.3783 55.098C89.1368 55.098 88.9255 55.1513 88.7444 55.2578C88.5669 55.3608 88.4301 55.5099 88.3343 55.7053C88.2384 55.897 88.1887 56.1278 88.1851 56.3977ZM100.871 50.0909V61H97.9303V50.0909H100.871ZM104.649 61.1278C104.127 61.1278 103.665 61.0426 103.264 60.8722C102.866 60.6982 102.553 60.4354 102.326 60.0838C102.099 59.7322 101.985 59.2848 101.985 58.7415C101.985 58.294 102.062 57.9123 102.214 57.5962C102.367 57.2766 102.58 57.0156 102.854 56.8132C103.127 56.6108 103.445 56.4563 103.807 56.3498C104.173 56.2433 104.567 56.174 104.99 56.142C105.448 56.1065 105.815 56.0639 106.092 56.0142C106.373 55.9609 106.575 55.8881 106.699 55.7958C106.824 55.6999 106.886 55.5739 106.886 55.4176V55.3963C106.886 55.1832 106.804 55.0199 106.641 54.9062C106.477 54.7926 106.268 54.7358 106.012 54.7358C105.732 54.7358 105.503 54.7979 105.325 54.9222C105.151 55.043 105.046 55.2294 105.011 55.4815H102.305C102.34 54.9844 102.498 54.5263 102.779 54.1072C103.063 53.6847 103.477 53.3473 104.02 53.0952C104.563 52.8395 105.242 52.7116 106.055 52.7116C106.641 52.7116 107.166 52.7809 107.632 52.9194C108.097 53.0543 108.493 53.2443 108.819 53.4893C109.146 53.7308 109.395 54.0149 109.565 54.3416C109.739 54.6648 109.826 55.0163 109.826 55.3963V61H107.078V59.8494H107.014C106.85 60.1548 106.651 60.4016 106.417 60.5898C106.186 60.7781 105.922 60.9148 105.623 61C105.329 61.0852 105.004 61.1278 104.649 61.1278ZM105.607 59.2741C105.831 59.2741 106.041 59.228 106.236 59.1357C106.435 59.0433 106.596 58.9102 106.721 58.7362C106.845 58.5621 106.907 58.3509 106.907 58.1023V57.4205C106.829 57.4524 106.746 57.4826 106.657 57.511C106.572 57.5394 106.479 57.5661 106.38 57.5909C106.284 57.6158 106.181 57.6388 106.071 57.6602C105.964 57.6815 105.852 57.701 105.735 57.7188C105.508 57.7543 105.322 57.8129 105.176 57.8945C105.034 57.9727 104.927 58.0703 104.856 58.1875C104.789 58.3011 104.755 58.429 104.755 58.571C104.755 58.7983 104.835 58.9723 104.995 59.093C105.155 59.2138 105.359 59.2741 105.607 59.2741ZM118.161 61.1491C117.273 61.1491 116.513 60.9734 115.881 60.6218C115.249 60.2667 114.764 59.7731 114.427 59.141C114.09 58.5053 113.921 57.7685 113.921 56.9304C113.921 56.0923 114.09 55.3572 114.427 54.7251C114.764 54.0895 115.249 53.5959 115.881 53.2443C116.513 52.8892 117.273 52.7116 118.161 52.7116C119.049 52.7116 119.809 52.8892 120.441 53.2443C121.073 53.5959 121.558 54.0895 121.895 54.7251C122.233 55.3572 122.401 56.0923 122.401 56.9304C122.401 57.7685 122.233 58.5053 121.895 59.141C121.558 59.7731 121.073 60.2667 120.441 60.6218C119.809 60.9734 119.049 61.1491 118.161 61.1491ZM118.182 58.9759C118.431 58.9759 118.646 58.8924 118.827 58.7255C119.008 58.5586 119.148 58.3207 119.248 58.0117C119.347 57.7028 119.397 57.3352 119.397 56.9091C119.397 56.4794 119.347 56.1119 119.248 55.8065C119.148 55.4975 119.008 55.2596 118.827 55.0927C118.646 54.9258 118.431 54.8423 118.182 54.8423C117.92 54.8423 117.694 54.9258 117.506 55.0927C117.318 55.2596 117.174 55.4975 117.074 55.8065C116.975 56.1119 116.925 56.4794 116.925 56.9091C116.925 57.3352 116.975 57.7028 117.074 58.0117C117.174 58.3207 117.318 58.5586 117.506 58.7255C117.694 58.8924 117.92 58.9759 118.182 58.9759ZM123.594 61V52.8182H126.449V54.3736H126.535C126.684 53.7983 126.92 53.3775 127.243 53.1112C127.57 52.8448 127.952 52.7116 128.388 52.7116C128.516 52.7116 128.642 52.7223 128.767 52.7436C128.894 52.7614 129.017 52.788 129.134 52.8235V55.3324C128.989 55.2827 128.809 55.2454 128.596 55.2205C128.383 55.1957 128.2 55.1832 128.047 55.1832C127.76 55.1832 127.501 55.2489 127.27 55.3803C127.043 55.5082 126.863 55.6893 126.732 55.9237C126.6 56.1545 126.535 56.4261 126.535 56.7386V61H123.594ZM131.997 61.1278C131.475 61.1278 131.014 61.0426 130.612 60.8722C130.215 60.6982 129.902 60.4354 129.675 60.0838C129.448 59.7322 129.334 59.2848 129.334 58.7415C129.334 58.294 129.41 57.9123 129.563 57.5962C129.716 57.2766 129.929 57.0156 130.202 56.8132C130.476 56.6108 130.793 56.4563 131.156 56.3498C131.521 56.2433 131.916 56.174 132.338 56.142C132.796 56.1065 133.164 56.0639 133.441 56.0142C133.721 55.9609 133.924 55.8881 134.048 55.7958C134.172 55.6999 134.234 55.5739 134.234 55.4176V55.3963C134.234 55.1832 134.153 55.0199 133.989 54.9062C133.826 54.7926 133.617 54.7358 133.361 54.7358C133.08 54.7358 132.851 54.7979 132.674 54.9222C132.5 55.043 132.395 55.2294 132.359 55.4815H129.653C129.689 54.9844 129.847 54.5263 130.128 54.1072C130.412 53.6847 130.825 53.3473 131.369 53.0952C131.912 52.8395 132.59 52.7116 133.403 52.7116C133.989 52.7116 134.515 52.7809 134.98 52.9194C135.445 53.0543 135.841 53.2443 136.168 53.4893C136.495 53.7308 136.743 54.0149 136.914 54.3416C137.088 54.6648 137.175 55.0163 137.175 55.3963V61H134.426V59.8494H134.362C134.199 60.1548 134 60.4016 133.766 60.5898C133.535 60.7781 133.27 60.9148 132.972 61C132.677 61.0852 132.352 61.1278 131.997 61.1278ZM132.956 59.2741C133.18 59.2741 133.389 59.228 133.585 59.1357C133.783 59.0433 133.945 58.9102 134.069 58.7362C134.194 58.5621 134.256 58.3509 134.256 58.1023V57.4205C134.178 57.4524 134.094 57.4826 134.005 57.511C133.92 57.5394 133.828 57.5661 133.728 57.5909C133.633 57.6158 133.53 57.6388 133.419 57.6602C133.313 57.6815 133.201 57.701 133.084 57.7188C132.857 57.7543 132.67 57.8129 132.525 57.8945C132.383 57.9727 132.276 58.0703 132.205 58.1875C132.138 58.3011 132.104 58.429 132.104 58.571C132.104 58.7983 132.184 58.9723 132.343 59.093C132.503 59.2138 132.707 59.2741 132.956 59.2741ZM142.521 61.1491C141.634 61.1491 140.874 60.9734 140.242 60.6218C139.61 60.2667 139.125 59.7731 138.787 59.141C138.45 58.5053 138.281 57.7685 138.281 56.9304C138.281 56.0923 138.45 55.3572 138.787 54.7251C139.125 54.0895 139.61 53.5959 140.242 53.2443C140.874 52.8892 141.634 52.7116 142.521 52.7116C143.324 52.7116 144.018 52.8572 144.604 53.1484C145.194 53.4361 145.65 53.8445 145.973 54.3736C146.296 54.8991 146.46 55.517 146.463 56.2273H143.736C143.697 55.7976 143.573 55.4709 143.363 55.2472C143.157 55.0199 142.891 54.9062 142.564 54.9062C142.308 54.9062 142.085 54.9808 141.893 55.13C141.701 55.2756 141.552 55.4975 141.445 55.7958C141.339 56.0906 141.286 56.4616 141.286 56.9091C141.286 57.3565 141.339 57.7294 141.445 58.0277C141.552 58.3224 141.701 58.5444 141.893 58.6935C142.085 58.8391 142.308 58.9119 142.564 58.9119C142.781 58.9119 142.972 58.8622 143.139 58.7628C143.306 58.6598 143.441 58.5107 143.544 58.3153C143.651 58.1165 143.715 57.875 143.736 57.5909H146.463C146.453 58.3118 146.287 58.9403 145.968 59.4766C145.648 60.0092 145.195 60.4212 144.61 60.7124C144.027 61.0036 143.331 61.1491 142.521 61.1491ZM147.676 61V52.8182H150.617V61H147.676ZM149.147 51.9659C148.749 51.9659 148.408 51.8345 148.124 51.5717C147.84 51.3089 147.698 50.9929 147.698 50.6236C147.698 50.2543 147.84 49.9382 148.124 49.6754C148.408 49.4126 148.749 49.2812 149.147 49.2812C149.548 49.2812 149.889 49.4126 150.169 49.6754C150.453 49.9382 150.595 50.2543 150.595 50.6236C150.595 50.9929 150.453 51.3089 150.169 51.5717C149.889 51.8345 149.548 51.9659 149.147 51.9659ZM156.057 61.1491C155.169 61.1491 154.409 60.9734 153.777 60.6218C153.145 60.2667 152.66 59.7731 152.323 59.141C151.985 58.5053 151.817 57.7685 151.817 56.9304C151.817 56.0923 151.985 55.3572 152.323 54.7251C152.66 54.0895 153.145 53.5959 153.777 53.2443C154.409 52.8892 155.169 52.7116 156.057 52.7116C156.944 52.7116 157.704 52.8892 158.336 53.2443C158.969 53.5959 159.453 54.0895 159.791 54.7251C160.128 55.3572 160.297 56.0923 160.297 56.9304C160.297 57.7685 160.128 58.5053 159.791 59.141C159.453 59.7731 158.969 60.2667 158.336 60.6218C157.704 60.9734 156.944 61.1491 156.057 61.1491ZM156.078 58.9759C156.327 58.9759 156.541 58.8924 156.722 58.7255C156.904 58.5586 157.044 58.3207 157.143 58.0117C157.243 57.7028 157.292 57.3352 157.292 56.9091C157.292 56.4794 157.243 56.1119 157.143 55.8065C157.044 55.4975 156.904 55.2596 156.722 55.0927C156.541 54.9258 156.327 54.8423 156.078 54.8423C155.815 54.8423 155.59 54.9258 155.401 55.0927C155.213 55.2596 155.069 55.4975 154.97 55.8065C154.871 56.1119 154.821 56.4794 154.821 56.9091C154.821 57.3352 154.871 57.7028 154.97 58.0117C155.069 58.3207 155.213 58.5586 155.401 58.7255C155.59 58.8924 155.815 58.9759 156.078 58.9759ZM155.077 51.7955L156.099 49.4091H158.613L157.015 51.7955H155.077ZM164.43 56.3977V61H161.49V52.8182H164.281V54.3736H164.366C164.544 53.8551 164.856 53.4485 165.304 53.1538C165.755 52.859 166.28 52.7116 166.881 52.7116C167.459 52.7116 167.962 52.8448 168.388 53.1112C168.818 53.3739 169.15 53.7362 169.384 54.1978C169.622 54.6594 169.739 55.1868 169.736 55.7798V61H166.795V56.3977C166.799 55.9929 166.696 55.6751 166.486 55.4442C166.28 55.2134 165.993 55.098 165.623 55.098C165.382 55.098 165.171 55.1513 164.99 55.2578C164.812 55.3608 164.675 55.5099 164.579 55.7053C164.483 55.897 164.434 56.1278 164.43 56.3977ZM173.339 57.5909V57.3352C173.339 56.7493 173.385 56.2823 173.478 55.9343C173.57 55.5863 173.707 55.3075 173.888 55.098C174.069 54.8849 174.291 54.6932 174.554 54.5227C174.781 54.3736 174.983 54.2298 175.161 54.0913C175.342 53.9528 175.484 53.8054 175.587 53.6491C175.694 53.4929 175.747 53.3153 175.747 53.1165C175.747 52.9389 175.704 52.7827 175.619 52.6477C175.534 52.5128 175.418 52.408 175.273 52.3335C175.127 52.2589 174.966 52.2216 174.788 52.2216C174.596 52.2216 174.419 52.266 174.255 52.3548C174.096 52.4435 173.966 52.5661 173.866 52.7223C173.771 52.8786 173.723 53.0597 173.723 53.2656H170.995C171.002 52.4844 171.18 51.8505 171.528 51.364C171.876 50.8739 172.338 50.5153 172.913 50.288C173.488 50.0572 174.12 49.9418 174.809 49.9418C175.569 49.9418 176.248 50.0536 176.844 50.2773C177.441 50.4975 177.911 50.8313 178.256 51.2788C178.6 51.7227 178.772 52.2784 178.772 52.946C178.772 53.3757 178.698 53.7539 178.549 54.0806C178.403 54.4038 178.199 54.6896 177.936 54.9382C177.677 55.1832 177.373 55.407 177.025 55.6094C176.77 55.7585 176.555 55.913 176.381 56.0728C176.207 56.229 176.075 56.4084 175.987 56.6108C175.898 56.8097 175.853 57.0511 175.853 57.3352V57.5909H173.339ZM174.639 61.1705C174.227 61.1705 173.874 61.0266 173.579 60.739C173.288 60.4478 173.144 60.0945 173.147 59.679C173.144 59.2741 173.288 58.9279 173.579 58.6403C173.874 58.3526 174.227 58.2088 174.639 58.2088C175.029 58.2088 175.374 58.3526 175.672 58.6403C175.974 58.9279 176.127 59.2741 176.13 59.679C176.127 59.956 176.054 60.2081 175.912 60.4354C175.773 60.6591 175.592 60.8384 175.369 60.9734C175.145 61.1048 174.902 61.1705 174.639 61.1705Z" fill="#005D7E"/>
</g>
<defs>
<clipPath id="clip0_2249_23">
<rect width="185" height="75" fill="white"/>
</clipPath>
<clipPath id="clip1_2249_23">
<rect width="66" height="75" fill="white" transform="translate(5)"/>
</clipPath>
</defs>
</svg>
