<svg width="149" height="71" viewBox="0 0 149 71" fill="none" xmlns="http://www.w3.org/2000/svg">
<g clip-path="url(#clip0_2118_18)">
<path d="M22.7353 24.4545H16.3262C16.2808 23.9242 16.1596 23.4432 15.9626 23.0114C15.7732 22.5795 15.5081 22.2083 15.1671 21.8977C14.8338 21.5795 14.4285 21.3371 13.9512 21.1705C13.474 20.9962 12.9323 20.9091 12.3262 20.9091C11.2656 20.9091 10.3679 21.1667 9.63306 21.6818C8.90578 22.197 8.35275 22.9356 7.97397 23.8977C7.60275 24.8598 7.41715 26.0152 7.41715 27.3636C7.41715 28.7879 7.60654 29.9811 7.98533 30.9432C8.37169 31.8977 8.92851 32.6174 9.65578 33.1023C10.3831 33.5795 11.2581 33.8182 12.2808 33.8182C12.8641 33.8182 13.3868 33.7462 13.849 33.6023C14.3111 33.4508 14.7126 33.2348 15.0535 32.9545C15.3944 32.6742 15.6709 32.3371 15.8831 31.9432C16.1028 31.5417 16.2505 31.0909 16.3262 30.5909L22.7353 30.6364C22.6596 31.6212 22.3831 32.625 21.9058 33.6477C21.4285 34.6629 20.7505 35.6023 19.8717 36.4659C19.0005 37.322 17.9209 38.0114 16.6331 38.5341C15.3452 39.0568 13.849 39.3182 12.1444 39.3182C10.0081 39.3182 8.09139 38.8598 6.39442 37.9432C4.70503 37.0265 3.36791 35.678 2.38306 33.8977C1.40578 32.1174 0.917148 29.9394 0.917148 27.3636C0.917148 24.7727 1.41715 22.5909 2.41715 20.8182C3.41715 19.0379 4.76563 17.6932 6.4626 16.7841C8.15957 15.8674 10.0535 15.4091 12.1444 15.4091C13.6141 15.4091 14.9664 15.6098 16.2012 16.0114C17.4361 16.4129 18.5194 17 19.4512 17.7727C20.3831 18.5379 21.1331 19.4811 21.7012 20.6023C22.2694 21.7235 22.6141 23.0076 22.7353 24.4545ZM25.6927 39V21.5455H31.7836V24.8636H31.9654C32.2836 23.6364 32.7874 22.7386 33.4768 22.1705C34.1738 21.6023 34.9882 21.3182 35.92 21.3182C36.1927 21.3182 36.4617 21.3409 36.7268 21.3864C36.9995 21.4242 37.2609 21.4811 37.5109 21.5568V26.9091C37.2003 26.803 36.8177 26.7235 36.3632 26.6705C35.9086 26.6174 35.5185 26.5909 35.1927 26.5909C34.5791 26.5909 34.026 26.7311 33.5336 27.0114C33.0488 27.2841 32.6662 27.6705 32.3859 28.1705C32.1056 28.6629 31.9654 29.2424 31.9654 29.9091V39H25.6927ZM39.5677 39V21.5455H45.8404V39H39.5677ZM42.7041 19.7273C41.8556 19.7273 41.1283 19.447 40.5223 18.8864C39.9162 18.3258 39.6132 17.6515 39.6132 16.8636C39.6132 16.0758 39.9162 15.4015 40.5223 14.8409C41.1283 14.2803 41.8556 14 42.7041 14C43.5601 14 44.2874 14.2803 44.8859 14.8409C45.492 15.4015 45.795 16.0758 45.795 16.8636C45.795 17.6515 45.492 18.3258 44.8859 18.8864C44.2874 19.447 43.5601 19.7273 42.7041 19.7273ZM64.991 27.2273H59.2183C59.188 26.8712 59.063 26.5644 58.8433 26.3068C58.6236 26.0492 58.3395 25.8523 57.991 25.7159C57.6501 25.572 57.2713 25.5 56.8546 25.5C56.3168 25.5 55.8546 25.5985 55.4683 25.7955C55.0819 25.9924 54.8925 26.2727 54.9001 26.6364C54.8925 26.8939 55.0024 27.1326 55.2296 27.3523C55.4645 27.572 55.9153 27.7424 56.5819 27.8636L60.1274 28.5C61.9153 28.8258 63.2448 29.375 64.116 30.1477C64.9948 30.9129 65.438 31.9394 65.4456 33.2273C65.438 34.4697 65.0668 35.5492 64.3319 36.4659C63.6046 37.375 62.6084 38.0795 61.3433 38.5795C60.0857 39.072 58.6501 39.3182 57.0365 39.3182C54.3698 39.3182 52.2827 38.7727 50.7751 37.6818C49.2751 36.5909 48.438 35.1515 48.2637 33.3636H54.491C54.5743 33.9167 54.8471 34.3447 55.3092 34.6477C55.7789 34.9432 56.3698 35.0909 57.0819 35.0909C57.6577 35.0909 58.1312 34.9924 58.5024 34.7955C58.8812 34.5985 59.0743 34.3182 59.0819 33.9545C59.0743 33.6212 58.9077 33.3561 58.5819 33.1591C58.2637 32.9621 57.7637 32.803 57.0819 32.6818L53.991 32.1364C52.2107 31.8258 50.8774 31.2348 49.991 30.3636C49.1046 29.4924 48.6653 28.3712 48.6728 27C48.6653 25.7879 48.9834 24.7614 49.6274 23.9205C50.2789 23.072 51.2069 22.428 52.4115 21.9886C53.6236 21.5417 55.0592 21.3182 56.7183 21.3182C59.241 21.3182 61.2296 21.8409 62.6842 22.8864C64.1463 23.9318 64.9153 25.3788 64.991 27.2273ZM78.2581 21.5455V26.0909H66.7581V21.5455H78.2581ZM68.9853 17.3636H75.2581V33.3864C75.2581 33.6288 75.2997 33.8333 75.3831 34C75.4664 34.1591 75.5952 34.2803 75.7694 34.3636C75.9437 34.4394 76.1671 34.4773 76.4399 34.4773C76.6293 34.4773 76.849 34.4545 77.099 34.4091C77.3565 34.3636 77.5459 34.3258 77.6671 34.2955L78.5762 38.7045C78.2959 38.7879 77.8944 38.8902 77.3717 39.0114C76.8565 39.1326 76.2429 39.2121 75.5308 39.25C74.0914 39.3258 72.8831 39.178 71.9058 38.8068C70.9285 38.428 70.1937 37.8333 69.7012 37.0227C69.2088 36.2121 68.9702 35.197 68.9853 33.9773V17.3636ZM80.8177 39V21.5455H87.0904V39H80.8177ZM83.9541 19.7273C83.1056 19.7273 82.3783 19.447 81.7723 18.8864C81.1662 18.3258 80.8632 17.6515 80.8632 16.8636C80.8632 16.0758 81.1662 15.4015 81.7723 14.8409C82.3783 14.2803 83.1056 14 83.9541 14C84.8101 14 85.5374 14.2803 86.1359 14.8409C86.742 15.4015 87.045 16.0758 87.045 16.8636C87.045 17.6515 86.742 18.3258 86.1359 18.8864C85.5374 19.447 84.8101 19.7273 83.9541 19.7273ZM95.1501 39.2727C94.0365 39.2727 93.0516 39.0909 92.1956 38.7273C91.3471 38.3561 90.6804 37.7955 90.1956 37.0455C89.7107 36.2955 89.4683 35.3409 89.4683 34.1818C89.4683 33.2273 89.6312 32.4129 89.9569 31.7386C90.2827 31.0568 90.7372 30.5 91.3206 30.0682C91.9039 29.6364 92.5819 29.3068 93.3546 29.0795C94.135 28.8523 94.9759 28.7045 95.8774 28.6364C96.8546 28.5606 97.6387 28.4697 98.2296 28.3636C98.8281 28.25 99.26 28.0947 99.5251 27.8977C99.7903 27.6932 99.9228 27.4242 99.9228 27.0909V27.0455C99.9228 26.5909 99.7486 26.2424 99.4001 26C99.0516 25.7576 98.6046 25.6364 98.0592 25.6364C97.4607 25.6364 96.9721 25.7689 96.5933 26.0341C96.2221 26.2917 95.9986 26.6894 95.9228 27.2273H90.1501C90.2259 26.1667 90.563 25.1894 91.1615 24.2955C91.7675 23.3939 92.6501 22.6742 93.8092 22.1364C94.9683 21.5909 96.4153 21.3182 98.1501 21.3182C99.4001 21.3182 100.521 21.4659 101.514 21.7614C102.506 22.0492 103.351 22.4545 104.048 22.9773C104.745 23.4924 105.275 24.0985 105.639 24.7955C106.01 25.4848 106.196 26.2348 106.196 27.0455V39H100.332V36.5455H100.196C99.8471 37.197 99.4228 37.7235 98.9228 38.125C98.4304 38.5265 97.866 38.8182 97.2296 39C96.6009 39.1818 95.9077 39.2727 95.1501 39.2727ZM97.1956 35.3182C97.6728 35.3182 98.1198 35.2197 98.5365 35.0227C98.9607 34.8258 99.3054 34.5417 99.5706 34.1705C99.8357 33.7992 99.9683 33.3485 99.9683 32.8182V31.3636C99.8016 31.4318 99.6236 31.4962 99.4342 31.5568C99.2524 31.6174 99.0554 31.6742 98.8433 31.7273C98.6387 31.7803 98.419 31.8295 98.1842 31.875C97.9569 31.9205 97.7183 31.9621 97.4683 32C96.9834 32.0758 96.5857 32.2008 96.2751 32.375C95.9721 32.5417 95.7448 32.75 95.5933 33C95.4493 33.2424 95.3774 33.5152 95.3774 33.8182C95.3774 34.303 95.5478 34.6742 95.8887 34.9318C96.2296 35.1894 96.6653 35.3182 97.1956 35.3182ZM115.465 29.1818V39H109.193V21.5455H115.147V24.8636H115.329C115.708 23.7576 116.375 22.8902 117.329 22.2614C118.291 21.6326 119.412 21.3182 120.693 21.3182C121.928 21.3182 123 21.6023 123.909 22.1705C124.825 22.7311 125.534 23.5038 126.034 24.4886C126.541 25.4735 126.791 26.5985 126.784 27.8636V39H120.511V29.1818C120.518 28.3182 120.299 27.6402 119.852 27.1477C119.412 26.6553 118.799 26.4091 118.011 26.4091C117.496 26.4091 117.045 26.5227 116.659 26.75C116.28 26.9697 115.988 27.2879 115.784 27.7045C115.579 28.1136 115.473 28.6061 115.465 29.1818ZM138.289 39.3182C136.395 39.3182 134.774 38.9432 133.426 38.1932C132.077 37.4356 131.043 36.3826 130.323 35.0341C129.604 33.678 129.244 32.1061 129.244 30.3182C129.244 28.5303 129.604 26.9621 130.323 25.6136C131.043 24.2576 132.077 23.2045 133.426 22.4545C134.774 21.697 136.395 21.3182 138.289 21.3182C140.183 21.3182 141.804 21.697 143.153 22.4545C144.501 23.2045 145.536 24.2576 146.255 25.6136C146.975 26.9621 147.335 28.5303 147.335 30.3182C147.335 32.1061 146.975 33.678 146.255 35.0341C145.536 36.3826 144.501 37.4356 143.153 38.1932C141.804 38.9432 140.183 39.3182 138.289 39.3182ZM138.335 34.6818C138.865 34.6818 139.323 34.5038 139.71 34.1477C140.096 33.7917 140.395 33.2841 140.607 32.625C140.82 31.9659 140.926 31.1818 140.926 30.2727C140.926 29.3561 140.82 28.572 140.607 27.9205C140.395 27.2614 140.096 26.7538 139.71 26.3977C139.323 26.0417 138.865 25.8636 138.335 25.8636C137.774 25.8636 137.293 26.0417 136.892 26.3977C136.49 26.7538 136.183 27.2614 135.971 27.9205C135.759 28.572 135.653 29.3561 135.653 30.2727C135.653 31.1818 135.759 31.9659 135.971 32.625C136.183 33.2841 136.49 33.7917 136.892 34.1477C137.293 34.5038 137.774 34.6818 138.335 34.6818Z" fill="#66B072"/>
<path d="M16.1217 48.4091C16.0232 48.0076 15.8679 47.6553 15.6558 47.3523C15.4437 47.0417 15.1785 46.7803 14.8603 46.5682C14.5497 46.3485 14.1861 46.1856 13.7694 46.0795C13.3603 45.9659 12.9096 45.9091 12.4171 45.9091C11.3565 45.9091 10.4512 46.1629 9.70124 46.6705C8.95881 47.178 8.39063 47.9091 7.99669 48.8636C7.61033 49.8182 7.41715 50.9697 7.41715 52.3182C7.41715 53.6818 7.60275 54.8485 7.97397 55.8182C8.34518 56.7879 8.89821 57.5303 9.63306 58.0455C10.3679 58.5606 11.2808 58.8182 12.3717 58.8182C13.3338 58.8182 14.1331 58.678 14.7694 58.3977C15.4134 58.1174 15.8944 57.7197 16.2126 57.2045C16.5308 56.6894 16.6899 56.0833 16.6899 55.3864L17.7808 55.5H12.4626V51H22.7808V54.2273C22.7808 56.3485 22.33 58.1629 21.4285 59.6705C20.5346 61.1705 19.2997 62.322 17.724 63.125C16.1558 63.9205 14.3565 64.3182 12.3262 64.3182C10.0611 64.3182 8.07245 63.8371 6.36033 62.875C4.64821 61.9129 3.31109 60.5417 2.34897 58.7614C1.39442 56.9811 0.917148 54.8636 0.917148 52.4091C0.917148 50.4848 1.20881 48.7803 1.79215 47.2955C2.38306 45.8106 3.20124 44.5568 4.24669 43.5341C5.29215 42.5038 6.50048 41.7273 7.87169 41.2045C9.24291 40.6742 10.7126 40.4091 12.2808 40.4091C13.6596 40.4091 14.9399 40.6061 16.1217 41C17.3111 41.3864 18.3603 41.9394 19.2694 42.6591C20.1861 43.3712 20.9247 44.2159 21.4853 45.1932C22.0459 46.1705 22.3868 47.2424 22.5081 48.4091H16.1217ZM25.7268 64V40.7273H32.045V58.9091H41.4541V64H25.7268ZM65.6473 52.3636C65.6473 54.9545 65.1435 57.1402 64.1359 58.9205C63.1283 60.6932 61.7685 62.0379 60.0564 62.9545C58.3442 63.8636 56.4351 64.3182 54.3291 64.3182C52.2079 64.3182 50.2912 63.8598 48.5791 62.9432C46.8745 62.0189 45.5185 60.6705 44.5109 58.8977C43.5109 57.1174 43.0109 54.9394 43.0109 52.3636C43.0109 49.7727 43.5109 47.5909 44.5109 45.8182C45.5185 44.0379 46.8745 42.6932 48.5791 41.7841C50.2912 40.8674 52.2079 40.4091 54.3291 40.4091C56.4351 40.4091 58.3442 40.8674 60.0564 41.7841C61.7685 42.6932 63.1283 44.0379 64.1359 45.8182C65.1435 47.5909 65.6473 49.7727 65.6473 52.3636ZM59.1473 52.3636C59.1473 50.9697 58.9617 49.7955 58.5904 48.8409C58.2268 47.8788 57.6851 47.1515 56.9654 46.6591C56.2533 46.1591 55.3745 45.9091 54.3291 45.9091C53.2836 45.9091 52.401 46.1591 51.6814 46.6591C50.9692 47.1515 50.4276 47.8788 50.0564 48.8409C49.6927 49.7955 49.5109 50.9697 49.5109 52.3636C49.5109 53.7576 49.6927 54.9356 50.0564 55.8977C50.4276 56.8523 50.9692 57.5795 51.6814 58.0795C52.401 58.572 53.2836 58.8182 54.3291 58.8182C55.3745 58.8182 56.2533 58.572 56.9654 58.0795C57.6851 57.5795 58.2268 56.8523 58.5904 55.8977C58.9617 54.9356 59.1473 53.7576 59.1473 52.3636ZM68.5706 64V40.7273H78.6615C80.4342 40.7273 81.9228 40.9659 83.1274 41.4432C84.3395 41.9205 85.2524 42.5947 85.866 43.4659C86.4872 44.3371 86.7978 45.3636 86.7978 46.5455C86.7978 47.4015 86.6084 48.1818 86.2296 48.8864C85.8584 49.5909 85.3357 50.1818 84.6615 50.6591C83.9872 51.1288 83.1993 51.4545 82.2978 51.6364V51.8636C83.2978 51.9015 84.2069 52.1553 85.0251 52.625C85.8433 53.0871 86.4948 53.7273 86.9796 54.5455C87.4645 55.3561 87.7069 56.3106 87.7069 57.4091C87.7069 58.6818 87.3736 59.8144 86.7069 60.8068C86.0478 61.7992 85.1084 62.5795 83.8887 63.1477C82.669 63.7159 81.2145 64 79.5251 64H68.5706ZM74.8887 58.9545H77.8433C78.9039 58.9545 79.6993 58.7576 80.2296 58.3636C80.76 57.9621 81.0251 57.3712 81.0251 56.5909C81.0251 56.0455 80.9001 55.5833 80.6501 55.2045C80.4001 54.8258 80.044 54.5379 79.5819 54.3409C79.1274 54.1439 78.5781 54.0455 77.9342 54.0455H74.8887V58.9545ZM74.8887 50.1364H77.4796C78.0327 50.1364 78.5213 50.0492 78.9456 49.875C79.3698 49.7008 79.6993 49.4508 79.9342 49.125C80.1766 48.7917 80.2978 48.3864 80.2978 47.9091C80.2978 47.1894 80.0403 46.6402 79.5251 46.2614C79.01 45.875 78.3584 45.6818 77.5706 45.6818H74.8887V50.1364ZM95.991 64H89.1728L96.8546 40.7273H105.491L113.173 64H106.355L101.264 47.1364H101.082L95.991 64ZM94.7183 54.8182H107.536V59.5455H94.7183V54.8182ZM115.414 64V40.7273H121.732V58.9091H131.142V64H115.414Z" fill="#00536E"/>
</g>
<defs>
<clipPath id="clip0_2118_18">
<rect width="149" height="71" fill="white"/>
</clipPath>
</defs>
</svg>
