<svg width="142" height="128" viewBox="0 0 142 128" fill="none" xmlns="http://www.w3.org/2000/svg">
<g opacity="0.25">
<path d="M-16.1836 126.259C-19.2766 124.717 -21.5016 120.181 -20.9021 116.64C-20.3191 113.197 -17.4177 109.969 -14.1043 109.079C-12.604 108.676 -8.11283 108.473 -3.45335 108.599C0.977819 108.718 4.60217 108.675 4.60074 108.501C4.59954 108.328 3.37255 107.684 1.87462 107.069C-6.51039 103.629 -11.0665 94.1475 -10.2754 81.7846C-9.38816 67.9156 -4.38777 53.228 3.28589 41.9507C10.1432 31.873 19.4134 29.231 26.5438 35.3219C29.4453 37.8007 30.9571 40.7195 31.2985 44.5026C31.4199 45.8408 31.6384 47.0558 31.7858 47.2026C31.9334 47.3499 35.108 45.0634 38.8417 42.1222C42.575 39.1811 46.3775 36.4908 47.2916 36.1439C52.0128 34.3525 57.5136 38.244 57.5136 43.3753C57.5136 46.8097 56.3333 48.3388 50.0685 53.0215C47.4076 55.0104 42.6238 58.6631 39.4375 61.1388C31.9643 66.9454 29.6434 67.473 25.2287 64.3699L23.4934 63.1501L22.3283 65.8667C19.7488 71.8811 15.779 85.9399 16.3339 87.0946C16.6375 87.7259 22.3518 93.8614 29.0328 100.729C41.8151 113.869 42.9798 115.571 42.1625 119.92C41.9435 121.08 41.0166 122.836 40.101 123.822C36.8712 127.298 36.3457 127.36 10.1346 127.359C-11.5608 127.359 -14.2 127.247 -16.1836 126.259ZM26.9639 32.1962C15.0531 26.5767 14.7267 10.103 26.4131 4.39705C29.4299 2.92396 30.3762 2.76312 34.4843 3.02637C38.5365 3.28583 39.5292 3.60489 42.1675 5.49635C49.849 11.0028 51.006 22.4521 44.5334 28.9127C39.8742 33.5636 32.7026 34.9036 26.9639 32.1962Z" fill="black"/>
<path d="M43.7177 69.6555C34.8848 69.6317 29.2643 74.7369 29.2419 82.9716C29.2196 91.2064 34.8121 96.3946 43.6451 96.4184C52.4251 96.442 58.0457 91.284 58.0681 83.0493C58.0905 74.8145 52.4978 69.6791 43.7177 69.6555ZM43.6587 91.4036C40.5909 91.3954 39.0668 87.8017 39.0799 82.9981C39.0929 78.1945 40.6364 74.662 43.7041 74.6702C46.719 74.6783 48.2432 78.2192 48.2302 83.0228C48.2171 87.8264 46.6735 91.4117 43.6587 91.4036Z" fill="black"/>
<path d="M78.3332 69.7488C75.4242 69.741 73.411 70.9497 71.9788 72.4766C71.6676 70.206 70.1364 69.1989 67.4898 69.9308C66.9076 70.0876 63.7844 71.0293 62.1962 71.5529C60.5551 72.0764 59.8127 72.7606 59.7039 73.8688C59.6485 74.8189 60.0168 75.5061 61.3869 77.4101C62.3354 78.7323 62.3829 80.6856 62.3732 84.2751C62.3636 87.8118 62.306 89.5536 61.3503 90.8707C59.97 92.7673 59.5979 93.4526 59.6482 94.4029C59.751 95.5117 60.4901 95.9887 62.1298 95.9932C62.1827 95.9933 72.3909 96.0208 72.6553 96.0215C74.295 96.0259 74.9311 95.4998 75.0927 94.4445C75.2541 93.442 74.5163 92.437 73.0395 90.9022C72.0903 89.8439 72.0428 87.8379 72.0529 84.1428C72.0592 81.8202 72.0653 79.5504 72.0705 77.65C72.128 75.961 72.448 74.9589 73.7703 74.9625C75.5687 74.9673 75.2466 76.7084 76.6695 78.6126C78.6721 81.3101 82.5349 80.6871 83.9698 78.2099C86.0958 74.415 83.9927 69.7641 78.3332 69.7488Z" fill="black"/>
<path d="M110.374 89.8416C109.213 88.6244 109.381 85.5104 109.39 81.8681L109.393 80.8124C109.414 73.1055 105.35 69.8217 98.0514 69.8021C93.5556 69.79 88.158 70.7256 86.6132 74.7332C85.7079 77.0006 87.0256 78.6934 88.4523 79.2251C90.7774 80.0232 92.8422 79.2898 93.8558 76.0724C94.496 74.0683 95.9781 73.65 97.5114 73.8652C99.6262 74.1877 99.7786 76.5107 99.7706 79.4668C99.7706 79.4668 99.7697 79.7835 99.7686 80.2058C90.5125 80.1808 84.0541 82.2221 84.035 89.2428C84.0232 93.5713 87.4003 96.5365 93.1126 96.5519C96.4977 96.561 98.6695 95.4055 100.104 93.1923C100.944 95.4644 102.951 96.5784 106.865 96.5889C109.827 96.5969 112.74 94.8627 112.852 92.5932C112.962 91.0099 111.692 91.2176 110.374 89.8416ZM100.12 87.2274C100.112 89.9723 99.1557 91.6589 97.04 91.6532C94.7127 91.647 93.7121 90.0606 93.8239 87.8439C93.9889 85.5217 95.6327 83.9953 97.6434 83.684C99.4426 83.3721 100.13 83.4268 100.125 85.1159C100.124 85.7494 100.123 86.1717 100.12 87.2274Z" fill="black"/>
<path d="M132.982 69.8963C130.073 69.8885 128.059 71.0971 126.627 72.6241C126.316 70.3534 124.785 69.3463 122.138 70.0782C121.556 70.2351 118.433 71.1768 116.845 71.7004C115.204 72.2238 114.461 72.9081 114.352 74.0163C114.297 74.9663 114.665 75.6536 116.035 77.5576C116.984 78.8798 117.031 80.833 117.022 84.4225C117.012 87.9593 116.955 89.7011 115.999 91.0182C114.618 92.9148 114.246 93.6 114.297 94.5503C114.399 95.6592 115.139 96.1362 116.778 96.1406C116.831 96.1408 127.039 96.1683 127.304 96.169C128.943 96.1734 129.58 95.6472 129.741 94.5919C129.903 93.5894 129.165 92.5845 127.688 91.0497C126.739 89.9914 126.691 87.9853 126.701 84.2903C126.708 81.9676 126.714 79.6978 126.719 77.7975C126.777 76.1085 127.097 75.1064 128.419 75.1099C130.217 75.1148 129.895 76.8559 131.318 78.76C133.321 81.4576 137.183 80.8345 138.618 78.3574C140.744 74.5625 138.641 69.9115 132.982 69.8963Z" fill="black"/>
<path d="M65.3892 21.2967C64.686 21.1915 63.9778 21.1006 63.2641 21.0278C63.1273 21.0137 62.9891 21.0267 62.8573 21.0659C62.7255 21.1052 62.6027 21.17 62.496 21.2567C62.3894 21.3433 62.3008 21.4501 62.2355 21.5709C62.1702 21.6917 62.1294 21.8242 62.1154 21.9607C62.0878 22.2361 62.1709 22.5111 62.3463 22.7255C62.5217 22.9398 62.7751 23.0759 63.0509 23.104C63.7258 23.1729 64.4004 23.2638 65.0775 23.3652C65.2137 23.3855 65.3525 23.3789 65.4861 23.3457C65.6197 23.3124 65.7454 23.2532 65.856 23.1714C65.9666 23.0896 66.06 22.9868 66.1307 22.869C66.2015 22.7511 66.2483 22.6205 66.2684 22.4845C66.3094 22.2107 66.2399 21.9318 66.0751 21.709C65.9102 21.4863 65.6635 21.338 65.3892 21.2967ZM71.5429 22.6358C71.2885 22.592 71.0269 22.6435 70.8083 22.7805C70.5897 22.9175 70.4295 23.1302 70.3585 23.3779C70.3204 23.51 70.3089 23.6483 70.3245 23.7848C70.3401 23.9214 70.3825 24.0535 70.4493 24.1737C70.5162 24.2938 70.6061 24.3996 70.714 24.4851C70.8219 24.5705 70.9456 24.6338 71.0781 24.6714C71.7312 24.8568 72.3824 25.0591 73.0307 25.2765C73.1611 25.3203 73.2989 25.338 73.4361 25.3286C73.5734 25.3193 73.7075 25.283 73.8307 25.2218C73.9539 25.1607 74.0639 25.0759 74.1542 24.9723C74.2446 24.8687 74.3136 24.7484 74.3573 24.6181C74.4449 24.3556 74.4246 24.0691 74.3008 23.8215C74.177 23.5739 73.9598 23.3854 73.6969 23.2974C73.0221 23.0711 72.3408 22.8547 71.6514 22.6591C71.6157 22.6494 71.5794 22.6416 71.5429 22.6358ZM57.0531 20.7923C56.9878 20.7819 56.9216 20.7778 56.8555 20.7799C56.1445 20.8003 55.4313 20.8336 54.7162 20.8876C54.4396 20.9085 54.1826 21.038 54.0017 21.2478C53.8207 21.4576 53.7306 21.7305 53.7511 22.0066C53.772 22.2826 53.9018 22.539 54.112 22.7196C54.3222 22.9002 54.5956 22.9902 54.8722 22.9697C55.5488 22.9186 56.2293 22.8873 56.9135 22.8677C57.0511 22.864 57.1867 22.8334 57.3124 22.7774C57.4381 22.7215 57.5516 22.6413 57.6462 22.5415C57.7408 22.4418 57.8148 22.3244 57.8639 22.196C57.913 22.0677 57.9363 21.9309 57.9324 21.7936C57.9254 21.5507 57.8338 21.3178 57.6733 21.1351C57.5128 20.9523 57.2935 20.8311 57.0531 20.7923ZM79.3084 25.6362C79.0901 25.6065 78.8679 25.6464 78.6736 25.7501C78.4793 25.8538 78.3227 26.016 78.2262 26.2137C78.1656 26.337 78.1299 26.471 78.1212 26.608C78.1126 26.745 78.1311 26.8824 78.1756 27.0124C78.2202 27.1423 78.29 27.2621 78.381 27.3651C78.4721 27.468 78.5826 27.5521 78.7062 27.6124C79.3161 27.9098 79.921 28.2224 80.5202 28.5509C80.6407 28.6173 80.7731 28.6594 80.9099 28.6747C81.0467 28.69 81.1852 28.6782 81.3174 28.64C81.4497 28.6018 81.573 28.538 81.6805 28.4522C81.788 28.3664 81.8775 28.2602 81.9438 28.1398C82.0098 28.0195 82.0515 27.8873 82.0663 27.7509C82.0811 27.6145 82.0689 27.4765 82.0303 27.3448C81.9917 27.2131 81.9275 27.0903 81.8413 26.9833C81.7551 26.8764 81.6487 26.7875 81.5281 26.7216C80.9039 26.3795 80.2719 26.0488 79.6277 25.7346C79.5272 25.685 79.4194 25.6518 79.3084 25.6362ZM48.7843 21.7747C48.6461 21.7479 48.5039 21.7491 48.3662 21.7784C47.6644 21.923 46.9697 22.0839 46.2798 22.2605C46.1463 22.2945 46.0209 22.3544 45.9106 22.4369C45.8004 22.5194 45.7076 22.6227 45.6374 22.7411C45.5673 22.8594 45.5213 22.9904 45.502 23.1266C45.4827 23.2627 45.4905 23.4013 45.525 23.5344C45.5947 23.8022 45.7679 24.0315 46.0067 24.172C46.2456 24.3125 46.5305 24.3527 46.799 24.2839C47.461 24.1143 48.1253 23.9617 48.7903 23.8246C48.925 23.7969 49.0528 23.7429 49.1665 23.6658C49.2802 23.5887 49.3776 23.49 49.4531 23.3753C49.5287 23.2607 49.5808 23.1323 49.6066 22.9975C49.6324 22.8628 49.6313 22.7242 49.6035 22.5899C49.5623 22.3887 49.4626 22.2041 49.3169 22.0591C49.1712 21.9141 48.986 21.8152 48.7843 21.7747ZM86.5324 29.9896C86.3355 29.9477 86.1306 29.9633 85.9424 30.0346C85.7542 30.106 85.5906 30.2299 85.4712 30.3917C85.3067 30.6144 85.2375 30.8932 85.2787 31.1669C85.32 31.4405 85.4683 31.6866 85.6911 31.8512C86.2414 32.2572 86.7815 32.6729 87.3081 33.1006C87.5233 33.2749 87.7991 33.357 88.0749 33.3287C88.3507 33.3004 88.604 33.164 88.7792 32.9496C88.8662 32.8431 88.9314 32.7206 88.9709 32.589C89.0105 32.4575 89.0236 32.3194 89.0096 32.1827C88.9956 32.0461 88.9548 31.9135 88.8894 31.7926C88.824 31.6717 88.7354 31.5649 88.6285 31.4782C88.0725 31.0266 87.5058 30.5942 86.9336 30.1722C86.8144 30.0836 86.6776 30.0213 86.5324 29.9896ZM40.8167 24.2107C40.6064 24.1613 40.3859 24.1781 40.1856 24.2587C39.5241 24.5249 38.8673 24.8088 38.2175 25.1059C38.0925 25.1631 37.9801 25.2443 37.8866 25.3449C37.793 25.4455 37.7203 25.5635 37.6725 25.6921C37.6246 25.8207 37.6027 25.9575 37.6078 26.0946C37.6129 26.2317 37.6451 26.3665 37.7024 26.4912C37.7597 26.6159 37.8411 26.7281 37.9419 26.8215C38.0426 26.9148 38.1608 26.9874 38.2897 27.0351C38.4186 27.0829 38.5557 27.1048 38.6931 27.0997C38.8304 27.0945 38.9655 27.0625 39.0904 27.0052C39.7096 26.7222 40.3366 26.4536 40.9696 26.1989C41.0974 26.1476 41.2137 26.0717 41.3121 25.9756C41.4104 25.8794 41.4887 25.7648 41.5426 25.6383C41.5965 25.5118 41.6249 25.376 41.6261 25.2386C41.6273 25.1012 41.6013 24.9649 41.5496 24.8375C41.4868 24.682 41.3874 24.5439 41.2599 24.4348C41.1323 24.3257 40.9803 24.2488 40.8167 24.2107ZM92.7559 35.5175C92.5948 35.489 92.4293 35.4985 92.2726 35.5453C92.1158 35.5921 91.9723 35.6749 91.8534 35.7871C91.7537 35.8816 91.6736 35.9948 91.6177 36.1203C91.5618 36.2457 91.5313 36.3809 91.5278 36.5181C91.5243 36.6553 91.5479 36.7919 91.5973 36.92C91.6467 37.0481 91.721 37.1652 91.8158 37.2647C92.2846 37.7574 92.7408 38.2626 93.1858 38.7776C93.3669 38.9871 93.624 39.1163 93.9006 39.1369C94.1771 39.1574 94.4506 39.0676 94.6608 38.8872C94.7653 38.7977 94.8511 38.6885 94.9132 38.5658C94.9753 38.4432 95.0126 38.3095 95.0228 38.1725C95.0331 38.0354 95.0162 37.8977 94.9731 37.7672C94.9299 37.6367 94.8614 37.516 94.7714 37.4119C94.3049 36.872 93.8255 36.3452 93.3333 35.8278C93.1791 35.6653 92.9767 35.5566 92.7559 35.5175ZM33.2966 27.9951C33.0453 27.9536 32.7874 28.0049 32.5713 28.1395C31.9675 28.5171 31.3711 28.9076 30.7829 29.3151C30.6697 29.3933 30.573 29.493 30.4985 29.6086C30.424 29.7242 30.373 29.8532 30.3486 29.9885C30.3241 30.1237 30.3266 30.2625 30.356 30.3967C30.3853 30.531 30.4409 30.6582 30.5196 30.771C30.598 30.8839 30.698 30.9804 30.8138 31.0548C30.9295 31.1292 31.0589 31.18 31.1944 31.2044C31.3299 31.2288 31.4689 31.2263 31.6035 31.197C31.738 31.1677 31.8654 31.1122 31.9784 31.0337C32.5369 30.6469 33.1066 30.2726 33.6854 29.9106C33.8021 29.8377 33.9031 29.7425 33.9828 29.6305C34.0626 29.5186 34.1194 29.3921 34.1501 29.2582C34.1807 29.1243 34.1847 28.9857 34.1616 28.8503C34.1386 28.7149 34.089 28.5853 34.0157 28.4691C33.9364 28.3437 33.8313 28.2366 33.7073 28.1548C33.5833 28.0731 33.4433 28.0187 33.2966 27.9951ZM98.0162 42.0781C97.8753 42.0429 97.7286 42.0373 97.5855 42.0616C97.4423 42.086 97.3058 42.1398 97.1846 42.2197C97.0698 42.2954 96.9712 42.393 96.8942 42.5069C96.8172 42.6208 96.7636 42.7486 96.7362 42.8832C96.7088 43.0178 96.7083 43.1565 96.7346 43.2913C96.761 43.4261 96.8138 43.5544 96.8899 43.6688C97.2644 44.2347 97.6265 44.8111 97.9764 45.3974C98.1184 45.6352 98.349 45.8071 98.6179 45.8754C98.8867 45.9436 99.1716 45.9026 99.4101 45.7613C99.5284 45.691 99.6317 45.598 99.7139 45.4878C99.7962 45.3776 99.8559 45.2522 99.8895 45.119C99.9231 44.9857 99.9301 44.8471 99.91 44.7111C99.8898 44.5752 99.843 44.4445 99.7722 44.3266C99.4079 43.7162 99.031 43.114 98.6362 42.5175C98.4921 42.2987 98.2706 42.1419 98.0162 42.0781ZM26.67 33.0404C26.5094 33.0084 26.3436 33.0146 26.1857 33.0583C26.0279 33.102 25.8826 33.182 25.7614 33.292C25.2307 33.7701 24.7104 34.2578 24.2038 34.7602C24.1062 34.8569 24.0287 34.9719 23.9756 35.0986C23.9226 35.2252 23.8951 35.3611 23.8947 35.4983C23.8943 35.6356 23.921 35.7716 23.9733 35.8986C24.0256 36.0255 24.1024 36.141 24.1994 36.2383C24.2963 36.3357 24.4116 36.413 24.5385 36.466C24.6654 36.5189 24.8015 36.5464 24.939 36.5468C25.0766 36.5472 25.2128 36.5205 25.3401 36.4683C25.4673 36.4161 25.583 36.3395 25.6805 36.2426C26.1638 35.7632 26.6582 35.2969 27.1635 34.8417C27.2656 34.7496 27.3485 34.6384 27.4075 34.5144C27.4665 34.3903 27.5003 34.2559 27.5072 34.1188C27.5141 33.9817 27.4938 33.8445 27.4476 33.7152C27.4013 33.5859 27.33 33.467 27.2376 33.3652C27.0881 33.1992 26.8892 33.0853 26.67 33.0404ZM101.94 49.4215C101.728 49.3764 101.508 49.3979 101.309 49.4829C101.182 49.5369 101.068 49.6154 100.971 49.7138C100.875 49.8122 100.799 49.9286 100.748 50.0563C100.697 50.184 100.672 50.3205 100.674 50.458C100.676 50.5954 100.705 50.7312 100.76 50.8574C101.029 51.4829 101.284 52.1136 101.524 52.7501C101.622 53.009 101.819 53.2185 102.071 53.3326C102.324 53.4467 102.612 53.4561 102.871 53.3587C103.131 53.2615 103.342 53.0653 103.457 52.8132C103.572 52.5612 103.582 52.2739 103.485 52.0145C103.233 51.347 102.965 50.6849 102.683 50.0306C102.617 49.8771 102.515 49.7418 102.386 49.6358C102.256 49.5298 102.103 49.4563 101.94 49.4215ZM21.0296 39.1797C20.8336 39.1327 20.6281 39.1433 20.4378 39.21C20.2476 39.2768 20.0807 39.397 19.9573 39.5561C19.5188 40.1209 19.0982 40.6977 18.6885 41.2795C18.5295 41.5061 18.467 41.7863 18.5147 42.0588C18.5624 42.3313 18.7165 42.5738 18.9431 42.7331C19.1701 42.8919 19.451 42.9543 19.724 42.9066C19.9971 42.859 20.2401 42.7052 20.3997 42.4791C20.7925 41.9211 21.1977 41.3737 21.6142 40.8373C21.6983 40.7287 21.7602 40.6047 21.7962 40.4722C21.8323 40.3397 21.8419 40.2015 21.8244 40.0653C21.8068 39.9291 21.7626 39.7978 21.6942 39.6787C21.6258 39.5596 21.5346 39.4551 21.4257 39.3712C21.3088 39.2801 21.1738 39.2148 21.0296 39.1797ZM104.506 57.3468C104.367 57.3228 104.224 57.3272 104.086 57.3599C103.816 57.4231 103.582 57.5907 103.436 57.8261C103.289 58.0614 103.242 58.3452 103.306 58.6149C103.46 59.2783 103.599 59.942 103.721 60.6093C103.745 60.7443 103.797 60.8731 103.871 60.9885C103.946 61.1038 104.042 61.2033 104.155 61.2813C104.268 61.3594 104.396 61.4145 104.53 61.4434C104.664 61.4723 104.803 61.4745 104.938 61.4499C105.074 61.4254 105.203 61.3744 105.318 61.3001C105.434 61.2257 105.534 61.1293 105.612 61.0165C105.69 60.9036 105.745 60.7765 105.774 60.6424C105.803 60.5083 105.805 60.3698 105.781 60.2348C105.652 59.5318 105.506 58.8324 105.344 58.1391C105.298 57.9397 105.193 57.7582 105.045 57.6174C104.896 57.4765 104.709 57.3824 104.506 57.3468ZM16.4546 46.2003C16.2369 46.1653 16.0138 46.1997 15.8168 46.2986C15.6199 46.3976 15.4594 46.5561 15.358 46.7514C15.0283 47.3833 14.7136 48.0225 14.4142 48.671C14.2981 48.9227 14.2869 49.21 14.3831 49.4699C14.4792 49.7297 14.6749 49.9409 14.927 50.0568C15.1792 50.1726 15.4671 50.1838 15.7275 50.0878C15.9878 49.9918 16.1994 49.7966 16.3155 49.545C16.6002 48.9285 16.9016 48.3197 17.2165 47.7161C17.2803 47.5942 17.3193 47.4609 17.3314 47.3238C17.3434 47.1868 17.3282 47.0487 17.2867 46.9176C17.2451 46.7864 17.178 46.6648 17.0892 46.5595C17.0005 46.4543 16.8917 46.3676 16.7693 46.3045C16.6706 46.2533 16.5644 46.2182 16.4546 46.2003ZM105.626 65.608C105.56 65.5997 105.493 65.5977 105.427 65.602C105.289 65.6088 105.155 65.6426 105.03 65.7014C104.906 65.7602 104.795 65.8428 104.702 65.9446C104.61 66.0464 104.539 66.1654 104.493 66.2947C104.446 66.424 104.426 66.5611 104.433 66.6982C104.468 67.3763 104.486 68.0544 104.489 68.7354C104.489 68.8727 104.517 69.0085 104.57 69.1351C104.623 69.2617 104.7 69.3767 104.798 69.4734C104.895 69.5701 105.011 69.6467 105.138 69.6988C105.266 69.7508 105.402 69.7773 105.54 69.7768C105.677 69.7764 105.813 69.7489 105.94 69.6959C106.067 69.643 106.182 69.5656 106.279 69.4682C106.376 69.3708 106.453 69.2553 106.505 69.1283C106.557 69.0013 106.584 68.8652 106.583 68.728C106.58 68.016 106.562 67.3035 106.526 66.5905C106.514 66.3478 106.417 66.117 106.253 65.9377C106.089 65.7584 105.867 65.6418 105.626 65.608ZM13.3128 53.9279C13.0594 53.8781 12.7964 53.9236 12.5745 54.0556C12.3527 54.1876 12.1875 54.3968 12.1109 54.643C11.9003 55.3207 11.6979 56.0081 11.5177 56.7011C11.4481 56.9693 11.488 57.2541 11.6288 57.493C11.7695 57.7318 11.9996 57.905 12.2684 57.9745C12.5371 58.0441 12.8225 58.0042 13.0618 57.8637C13.3011 57.7232 13.4747 57.4936 13.5444 57.2254C13.7148 56.5701 13.9071 55.9174 14.1099 55.2647C14.1921 55.0001 14.1655 54.7137 14.0362 54.4685C13.9068 54.2234 13.6851 54.0396 13.4199 53.9576C13.3848 53.9458 13.349 53.936 13.3128 53.9279ZM105.363 73.9628C105.335 73.9568 105.307 73.9519 105.279 73.9482C105.004 73.9136 104.726 73.9895 104.507 74.1592C104.288 74.329 104.145 74.5787 104.11 74.8534C104.025 75.5258 103.92 76.1972 103.803 76.8696C103.769 77.0623 103.79 77.2606 103.864 77.4418C103.938 77.6231 104.061 77.7801 104.22 77.895C104.03 77.9418 103.857 78.0407 103.721 78.1805C103.585 78.3202 103.49 78.4952 103.449 78.6857C103.304 79.3548 103.151 80.0195 102.977 80.6733C102.907 80.9408 102.946 81.2253 103.085 81.4643C103.224 81.7034 103.453 81.8776 103.721 81.9486C103.989 82.019 104.274 81.9803 104.514 81.8412C104.753 81.7021 104.928 81.4739 104.999 81.2066C105.182 80.5138 105.346 79.8204 105.496 79.128C105.539 78.9303 105.523 78.7245 105.45 78.5357C105.377 78.3469 105.252 78.1832 105.088 78.0644C105.284 78.0152 105.463 77.91 105.601 77.7616C105.739 77.6131 105.831 77.4279 105.865 77.2284C105.987 76.5285 106.097 75.825 106.186 75.1153C106.219 74.8552 106.153 74.5922 106 74.3787C105.847 74.1652 105.62 74.0167 105.363 73.9628ZM11.5564 62.0891C11.5277 62.0828 11.4987 62.0777 11.4696 62.0739C11.333 62.0563 11.1944 62.0657 11.0615 62.1017C10.9286 62.1376 10.8042 62.1994 10.6952 62.2834C10.5863 62.3674 10.4951 62.472 10.4267 62.5913C10.3584 62.7106 10.3143 62.8421 10.2969 62.9784C10.2056 63.6857 10.1333 64.3956 10.0759 65.1062C10.0537 65.3824 10.1423 65.6561 10.3222 65.8671C10.5022 66.078 10.7587 66.2091 11.0354 66.2313C11.3121 66.2535 11.5863 66.1651 11.7978 65.9855C12.0092 65.8059 12.1405 65.5499 12.1627 65.2738C12.2175 64.596 12.2889 63.9183 12.3759 63.2442C12.4094 62.9841 12.3438 62.721 12.192 62.5071C12.0401 62.2931 11.8133 62.1439 11.5564 62.0891ZM102.19 85.8541C101.954 85.8126 101.711 85.8532 101.501 85.9689C101.292 86.0846 101.128 86.2685 101.038 86.49C100.779 87.1223 100.511 87.7471 100.225 88.361C100.108 88.612 100.095 88.8991 100.19 89.1592C100.285 89.4194 100.479 89.6313 100.731 89.7485C100.855 89.8064 100.99 89.8392 101.128 89.845C101.265 89.8508 101.402 89.8295 101.532 89.7823C101.661 89.7351 101.779 89.663 101.881 89.5701C101.982 89.4771 102.064 89.3652 102.122 89.2406C102.424 88.5913 102.709 87.936 102.978 87.2789C103.03 87.1518 103.056 87.0157 103.055 86.8784C103.055 86.7412 103.027 86.6054 102.973 86.4789C102.92 86.3524 102.842 86.2376 102.744 86.1411C102.646 86.0446 102.531 85.9683 102.403 85.9165C102.334 85.8881 102.263 85.8674 102.19 85.8541ZM11.1661 70.4165C11.1001 70.4082 11.0334 70.4062 10.9671 70.4105C10.6901 70.425 10.4302 70.5487 10.2445 70.7544C10.0588 70.96 9.96247 71.2308 9.97668 71.5073C10.0132 72.217 10.0644 72.9279 10.1352 73.6399C10.1631 73.9151 10.2991 74.168 10.5136 74.3432C10.728 74.5185 11.0033 74.6017 11.2792 74.5746C11.5554 74.5476 11.8095 74.4122 11.9857 74.1983C12.162 73.9843 12.2459 73.7093 12.219 73.4337C12.1519 72.7595 12.1012 72.0803 12.0661 71.3989C12.0539 71.1562 11.9574 70.9254 11.7932 70.7461C11.6289 70.5668 11.4071 70.4502 11.1661 70.4165ZM98.315 93.2647C98.1156 93.2367 97.9124 93.2667 97.7297 93.351C97.547 93.4353 97.3925 93.5704 97.2848 93.7401C96.9213 94.3138 96.5431 94.8809 96.1514 95.4392C95.9924 95.6662 95.9303 95.9469 95.9786 96.2196C96.027 96.4923 96.1818 96.7347 96.4092 96.8935C96.6366 97.0521 96.9179 97.1141 97.1911 97.0659C97.4644 97.0177 97.7073 96.8631 97.8664 96.6363C98.2753 96.0535 98.6709 95.4624 99.0534 94.8587C99.127 94.7428 99.177 94.6136 99.2005 94.4784C99.2241 94.3432 99.2207 94.2047 99.1907 94.0708C99.1606 93.937 99.1044 93.8103 99.0253 93.6981C98.9461 93.5858 98.8456 93.4903 98.7295 93.4169C98.6037 93.3373 98.4624 93.2854 98.315 93.2647ZM12.3767 78.6873C12.2376 78.6624 12.095 78.6658 11.9573 78.6973C11.8233 78.7283 11.6966 78.7852 11.5847 78.865C11.4727 78.9448 11.3776 79.0458 11.3048 79.1623C11.232 79.2788 11.1829 79.4085 11.1603 79.544C11.1378 79.6794 11.1422 79.8179 11.1733 79.9517C11.3347 80.6487 11.5168 81.3383 11.7091 82.0219C11.7843 82.2883 11.9623 82.514 12.2041 82.6495C12.4459 82.785 12.7317 82.8193 12.9988 82.7447C13.2657 82.6697 13.4919 82.492 13.6277 82.2507C13.7635 82.0093 13.7978 81.7241 13.7231 81.4576C13.5381 80.8 13.3663 80.1431 13.2135 79.4829C13.1676 79.283 13.0639 79.1009 12.9151 78.9594C12.7663 78.8179 12.579 78.7233 12.3767 78.6873ZM93.2961 99.8971C93.1173 99.8587 92.9316 99.8678 92.7574 99.9234C92.5832 99.979 92.4267 100.079 92.3034 100.214C91.8411 100.716 91.3721 101.206 90.8891 101.683C90.6918 101.878 90.5801 102.143 90.5787 102.42C90.5773 102.697 90.6862 102.963 90.8815 103.16C91.0768 103.357 91.3425 103.469 91.6201 103.47C91.8977 103.471 92.1646 103.363 92.3619 103.168C92.871 102.665 93.3628 102.151 93.845 101.627C94.0329 101.423 94.1322 101.154 94.121 100.877C94.1098 100.601 93.9891 100.34 93.7853 100.152C93.648 100.025 93.4791 99.9368 93.2961 99.8971ZM15.0284 86.6208C14.8163 86.5766 14.5957 86.5991 14.397 86.6853C14.1425 86.7953 13.9421 87.0015 13.8398 87.2587C13.7376 87.5159 13.7417 87.8032 13.8514 88.0574C14.1335 88.7099 14.4282 89.3581 14.7416 90.0004C14.8017 90.1241 14.8856 90.2348 14.9885 90.3261C15.0915 90.4174 15.2115 90.4875 15.3417 90.5324C15.4719 90.5773 15.6097 90.5962 15.7471 90.5879C15.8846 90.5795 16.0191 90.5442 16.1429 90.4839C16.2667 90.4237 16.3774 90.3398 16.4686 90.2368C16.5598 90.1339 16.6298 90.014 16.6745 89.884C16.7192 89.7541 16.7378 89.6166 16.7291 89.4794C16.7205 89.3423 16.6849 89.2082 16.6243 89.0848C16.3265 88.4747 16.0458 87.857 15.775 87.2305C15.7087 87.0766 15.6062 86.9408 15.4763 86.8347C15.3463 86.7286 15.1927 86.6552 15.0284 86.6208ZM87.0711 105.511C86.9286 105.486 86.7825 105.491 86.6418 105.525C86.5012 105.559 86.3692 105.622 86.2541 105.709C85.7134 106.122 85.1619 106.52 84.6011 106.907C84.4877 106.985 84.3909 107.085 84.3161 107.2C84.2413 107.316 84.1901 107.445 84.1653 107.58C84.1406 107.715 84.1428 107.854 84.1718 107.988C84.2009 108.122 84.2562 108.25 84.3346 108.362C84.413 108.475 84.5129 108.572 84.6287 108.646C84.7445 108.721 84.8739 108.772 85.0094 108.796C85.1449 108.82 85.2839 108.818 85.4184 108.789C85.553 108.759 85.6804 108.704 85.7934 108.625C86.3807 108.22 86.9578 107.801 87.526 107.368C87.7465 107.2 87.8912 106.951 87.9284 106.677C87.9655 106.403 87.892 106.125 87.724 105.905C87.5636 105.696 87.3306 105.556 87.0711 105.511ZM19.0402 93.9731C18.8998 93.9384 18.7537 93.9331 18.6111 93.9576C18.4685 93.9821 18.3326 94.0358 18.2119 94.1153C18.0969 94.1908 17.998 94.2881 17.9207 94.4018C17.8435 94.5155 17.7895 94.6432 17.7618 94.7777C17.734 94.9123 17.7332 95.0509 17.7592 95.1858C17.7852 95.3206 17.8377 95.449 17.9135 95.5637C18.3057 96.1582 18.7127 96.7438 19.1341 97.321C19.2149 97.4319 19.3169 97.5259 19.4342 97.5975C19.5515 97.6692 19.6817 97.717 19.8175 97.7384C19.9533 97.7598 20.092 97.7543 20.2257 97.7221C20.3593 97.69 20.4854 97.632 20.5965 97.5512C20.7076 97.4703 20.8015 97.3683 20.873 97.2511C20.9446 97.1339 20.9922 97.0038 21.0134 96.8682C21.0345 96.7326 21.0286 96.5941 20.9961 96.4608C20.9636 96.3274 20.9051 96.2018 20.824 96.091C20.4234 95.5424 20.0383 94.9819 19.6631 94.4131C19.5183 94.1934 19.2959 94.0363 19.0402 93.9731ZM79.9603 109.953C79.7449 109.923 79.5255 109.961 79.3327 110.062C78.7291 110.373 78.117 110.669 77.4953 110.954C77.3703 111.011 77.2578 111.092 77.1643 111.193C77.0708 111.293 76.998 111.411 76.9502 111.54C76.9024 111.669 76.8804 111.805 76.8856 111.942C76.8907 112.08 76.9228 112.214 76.9802 112.339C77.0375 112.464 77.1189 112.576 77.2196 112.669C77.3204 112.763 77.4386 112.835 77.5675 112.883C77.6964 112.931 77.8334 112.953 77.9708 112.947C78.1082 112.942 78.2432 112.91 78.3682 112.853C79.0149 112.557 79.6588 112.245 80.2953 111.917C80.5415 111.79 80.727 111.57 80.8113 111.307C80.8955 111.043 80.8716 110.757 80.7447 110.511C80.6682 110.362 80.5571 110.234 80.4206 110.137C80.2841 110.04 80.1262 109.977 79.9603 109.953ZM24.1749 100.497C24.0142 100.468 23.8489 100.477 23.6923 100.523C23.5358 100.569 23.3922 100.652 23.2731 100.763C23.0712 100.953 22.9532 101.215 22.9449 101.492C22.9367 101.769 23.0389 102.038 23.2291 102.239C23.7206 102.758 24.2269 103.266 24.7411 103.759C24.9412 103.951 25.2092 104.055 25.4864 104.05C25.7635 104.044 26.0271 103.929 26.2194 103.73C26.4112 103.53 26.5158 103.263 26.5103 102.986C26.5048 102.709 26.3895 102.446 26.1898 102.254C25.6981 101.782 25.2195 101.3 24.7523 100.807C24.5981 100.645 24.3957 100.536 24.1749 100.497ZM72.2846 113.111C72.1106 113.073 71.9299 113.081 71.7594 113.132C71.106 113.332 70.4496 113.518 69.7911 113.686C69.6576 113.72 69.5321 113.78 69.4219 113.862C69.3116 113.945 69.2188 114.048 69.1486 114.167C69.0785 114.285 69.0325 114.416 69.0132 114.552C68.9939 114.688 69.0018 114.827 69.0362 114.96C69.0703 115.093 69.1304 115.218 69.213 115.328C69.2956 115.438 69.3992 115.531 69.5178 115.601C69.6364 115.671 69.7676 115.717 69.904 115.736C70.0405 115.755 70.1793 115.748 70.3127 115.713C71.0062 115.536 71.6926 115.341 72.3736 115.132C72.5054 115.092 72.6278 115.027 72.7341 114.939C72.8404 114.852 72.9283 114.744 72.9929 114.623C73.0574 114.502 73.0974 114.369 73.1104 114.232C73.1234 114.095 73.1093 113.957 73.0688 113.826C73.0137 113.648 72.912 113.487 72.7742 113.362C72.6363 113.236 72.4672 113.15 72.2846 113.111ZM30.4823 106.023C30.2854 105.981 30.0806 105.996 29.8924 106.068C29.7041 106.139 29.5405 106.263 29.4211 106.425C29.2566 106.648 29.1874 106.926 29.2286 107.2C29.2699 107.474 29.4182 107.72 29.6411 107.884C30.2162 108.307 30.8018 108.718 31.3959 109.113C31.5103 109.19 31.6386 109.243 31.7736 109.27C31.9087 109.297 32.0477 109.297 32.1827 109.27C32.3177 109.244 32.4462 109.19 32.5606 109.114C32.6751 109.038 32.7734 108.94 32.8498 108.825C32.9264 108.711 32.9796 108.583 33.0065 108.448C33.0333 108.313 33.0331 108.174 33.006 108.039C32.9789 107.904 32.9254 107.776 32.8485 107.662C32.7716 107.548 32.6729 107.45 32.558 107.374C31.9909 106.996 31.4327 106.606 30.8843 106.202C30.7645 106.115 30.6275 106.053 30.4823 106.023ZM64.0642 114.83C63.9624 114.812 63.8585 114.809 63.7558 114.821C63.0808 114.903 62.4034 114.971 61.7233 115.021C61.5861 115.031 61.4523 115.068 61.3294 115.13C61.2065 115.191 61.0969 115.276 61.007 115.38C60.9171 115.484 60.8485 115.604 60.8053 115.735C60.762 115.865 60.745 116.003 60.755 116.139C60.7759 116.416 60.9057 116.672 61.1159 116.853C61.3261 117.033 61.5995 117.123 61.8761 117.103C62.5879 117.05 63.2995 116.984 64.0098 116.897C64.1464 116.881 64.2785 116.838 64.3984 116.77C64.5183 116.703 64.6237 116.613 64.7086 116.505C64.7936 116.397 64.8564 116.273 64.8934 116.141C64.9304 116.009 64.9409 115.87 64.9244 115.734C64.8973 115.511 64.7991 115.303 64.6442 115.14C64.4892 114.977 64.2858 114.869 64.0642 114.83ZM37.6708 110.355C37.4388 110.297 37.1939 110.32 36.9768 110.42C36.7597 110.52 36.5835 110.691 36.4775 110.905C36.4164 111.029 36.3802 111.163 36.3711 111.3C36.3619 111.437 36.38 111.574 36.4242 111.705C36.4685 111.835 36.538 111.955 36.6288 112.058C36.7197 112.162 36.8301 112.246 36.9537 112.307C37.5957 112.622 38.2457 112.92 38.9002 113.204C39.0262 113.258 39.1619 113.288 39.2993 113.29C39.4368 113.293 39.5734 113.268 39.7014 113.218C39.8294 113.168 39.9462 113.093 40.0452 112.998C40.1441 112.902 40.2233 112.789 40.2782 112.663C40.3332 112.537 40.3626 112.401 40.365 112.264C40.3673 112.126 40.3425 111.99 40.2918 111.862C40.2412 111.734 40.1658 111.618 40.0699 111.519C39.9741 111.42 39.8597 111.341 39.7332 111.287C39.1075 111.016 38.4914 110.73 37.8815 110.43C37.8142 110.398 37.7435 110.373 37.6708 110.355ZM55.6733 115.077C55.644 115.073 55.6146 115.07 55.5851 115.068C54.902 115.028 54.2221 114.976 53.5475 114.905C53.272 114.876 52.9962 114.957 52.7805 115.13C52.5649 115.304 52.4269 115.556 52.397 115.83C52.382 115.967 52.3943 116.105 52.433 116.237C52.4717 116.369 52.5361 116.492 52.6225 116.599C52.709 116.706 52.8157 116.795 52.9366 116.861C53.0575 116.927 53.1903 116.968 53.3273 116.983C54.0405 117.059 54.7531 117.112 55.4633 117.154C55.7398 117.17 56.0113 117.076 56.2185 116.892C56.4256 116.709 56.5515 116.451 56.5685 116.175C56.5846 115.913 56.5014 115.655 56.3356 115.452C56.1697 115.248 55.9333 115.114 55.6733 115.077ZM45.4053 113.329C45.1509 113.285 44.8893 113.337 44.6707 113.474C44.4521 113.611 44.2918 113.823 44.2208 114.071C44.1441 114.337 44.1764 114.623 44.3108 114.865C44.4451 115.108 44.6705 115.287 44.9373 115.364C45.6243 115.561 46.316 115.74 47.0104 115.905C47.2804 115.968 47.5646 115.922 47.8006 115.776C48.0366 115.631 48.205 115.398 48.2689 115.128C48.3325 114.859 48.2863 114.575 48.1404 114.34C47.9946 114.104 47.7611 113.936 47.4912 113.872C46.8277 113.715 46.1706 113.544 45.5163 113.356C45.4798 113.345 45.4427 113.336 45.4053 113.329Z" fill="black"/>
</g>
<path d="M-14.4153 123.612C-17.5083 122.07 -19.7332 117.534 -19.1338 113.993C-18.5508 110.549 -15.6494 107.322 -12.336 106.432C-10.8357 106.028 -6.34451 105.826 -1.68504 105.952C2.74613 106.07 6.37048 106.028 6.36905 105.854C6.36786 105.681 5.14086 105.037 3.64293 104.422C-4.74208 100.982 -9.29823 91.5003 -8.50713 79.1375C-7.61985 65.2685 -2.61946 50.5808 5.0542 39.3035C11.9115 29.2258 21.1817 26.5838 28.3121 32.6747C31.2136 35.1535 32.7254 38.0723 33.0668 41.8555C33.1882 43.1936 33.4067 44.4087 33.5541 44.5555C33.7017 44.7027 36.8763 42.4162 40.61 39.4751C44.3434 36.5339 48.1458 33.8437 49.06 33.4968C53.7811 31.7053 59.2819 35.5968 59.2819 40.7281C59.2819 44.1625 58.1016 45.6917 51.8368 50.3743C49.1759 52.3632 44.3922 56.016 41.2058 58.4917C33.7326 64.2982 31.4117 64.8259 26.997 61.7227L25.2617 60.5029L24.0966 63.2195C21.5171 69.2339 17.5473 83.2927 18.1023 84.4474C18.4058 85.0787 24.1201 91.2143 30.8011 98.0821C43.5834 111.222 44.7481 112.924 43.9308 117.273C43.7118 118.433 42.785 120.189 41.8693 121.175C38.6395 124.651 38.1141 124.713 11.903 124.712C-9.79246 124.711 -12.4317 124.6 -14.4153 123.612ZM28.7323 29.5491C16.8215 23.9296 16.4951 7.45587 28.1814 1.74989C31.1982 0.276806 32.1445 0.115961 36.2526 0.379209C40.3048 0.638672 41.2975 0.957739 43.9358 2.8492C51.6173 8.35564 52.7743 19.805 46.3017 26.2655C41.6425 30.9164 34.4709 32.2565 28.7323 29.5491Z" fill="#008066"/>
<path d="M45.486 67.0083C36.6531 66.9845 31.0326 72.0897 31.0102 80.3244C30.9879 88.5591 36.5804 93.7474 45.4134 93.7711C54.1935 93.7948 59.8141 88.6368 59.8364 80.4021C59.8588 72.1673 54.2661 67.0319 45.486 67.0083ZM45.427 88.7564C42.3593 88.7481 40.8351 85.1545 40.8482 80.3509C40.8612 75.5473 42.4047 72.0147 45.4724 72.023C48.4873 72.0311 50.0115 75.572 49.9985 80.3756C49.9855 85.1792 48.4418 88.7645 45.427 88.7564Z" fill="#008066"/>
<path d="M80.1016 67.1017C77.1925 67.0938 75.1793 68.3025 73.7471 69.8295C73.4359 67.5588 71.9047 66.5517 69.2581 67.2836C68.6759 67.4405 65.5527 68.3822 63.9645 68.9058C62.3234 69.4292 61.581 70.1134 61.4722 71.2217C61.4168 72.1717 61.7852 72.8589 63.1552 74.763C64.1037 76.0852 64.1512 78.0384 64.1415 81.6279C64.1319 85.1646 64.0743 86.9065 63.1186 88.2236C61.7383 90.1202 61.3662 90.8054 61.4165 91.7557C61.5193 92.8645 62.2585 93.3416 63.8981 93.346C63.951 93.3462 74.1592 93.3736 74.4236 93.3744C76.0633 93.3788 76.6994 92.8526 76.861 91.7973C77.0224 90.7948 76.2846 89.7899 74.8078 88.2551C73.8586 87.1968 73.8111 85.1907 73.8212 81.4957C73.8275 79.173 73.8336 76.9032 73.8388 75.0029C73.8963 73.3139 74.2164 72.3117 75.5387 72.3153C77.337 72.3201 77.0149 74.0612 78.4378 75.9654C80.4404 78.663 84.3032 78.0399 85.7381 75.5628C87.8641 71.7678 85.761 67.1169 80.1016 67.1017Z" fill="#008066"/>
<path d="M112.142 87.1944C110.982 85.9771 111.149 82.8632 111.159 79.2209L111.162 78.1651C111.183 70.4583 107.119 67.1745 99.8197 67.1549C95.3239 67.1428 89.9263 68.0784 88.3815 72.086C87.4762 74.3534 88.7939 76.0462 90.2206 76.5779C92.5457 77.376 94.6105 76.6426 95.6242 73.4252C96.2643 71.4211 97.7464 71.0028 99.2797 71.218C101.395 71.5404 101.547 73.8635 101.539 76.8195C101.539 76.8195 101.538 77.1363 101.537 77.5585C92.2808 77.5336 85.8224 79.5749 85.8033 86.5956C85.7916 90.9241 89.1686 93.8893 94.8809 93.9046C98.266 93.9138 100.438 92.7583 101.872 90.5451C102.712 92.8172 104.719 93.9311 108.633 93.9417C111.595 93.9497 114.509 92.2155 114.621 89.946C114.731 88.3627 113.461 88.5704 112.142 87.1944ZM101.888 84.5802C101.881 87.3251 100.924 89.0117 98.8083 89.006C96.481 88.9997 95.4804 87.4134 95.5922 85.1967C95.7572 82.8745 97.401 81.3481 99.4118 81.0368C101.211 80.7249 101.898 80.7795 101.894 82.4687C101.892 83.1022 101.891 83.5245 101.888 84.5802Z" fill="#008066"/>
<path d="M134.75 67.2491C131.841 67.2413 129.828 68.45 128.396 69.9769C128.084 67.7063 126.553 66.6992 123.907 67.4311C123.324 67.5879 120.201 68.5296 118.613 69.0532C116.972 69.5767 116.23 70.2609 116.121 71.3691C116.065 72.3192 116.434 73.0064 117.804 74.9104C118.752 76.2326 118.8 78.1859 118.79 81.7754C118.78 85.3121 118.723 87.0539 117.767 88.371C116.387 90.2676 116.015 90.9529 116.065 91.9032C116.168 93.012 116.907 93.4891 118.547 93.4935C118.599 93.4936 128.808 93.5211 129.072 93.5218C130.712 93.5262 131.348 93.0001 131.509 91.9448C131.671 90.9423 130.933 89.9373 129.456 88.4025C128.507 87.3442 128.46 85.3382 128.47 81.6431C128.476 79.3205 128.482 77.0507 128.487 75.1503C128.545 73.4613 128.865 72.4592 130.187 72.4628C131.985 72.4676 131.663 74.2087 133.086 76.1129C135.089 78.8104 138.952 78.1874 140.387 75.7103C142.513 71.9153 140.409 67.2644 134.75 67.2491Z" fill="#008066"/>
<path d="M67.1575 18.6496C66.4543 18.5444 65.7461 18.4535 65.0324 18.3806C64.8956 18.3665 64.7574 18.3795 64.6256 18.4188C64.4938 18.4581 64.371 18.5229 64.2643 18.6095C64.1577 18.6962 64.0691 18.8029 64.0038 18.9238C63.9385 19.0446 63.8977 19.177 63.8837 19.3136C63.8561 19.5889 63.9392 19.864 64.1146 20.0783C64.29 20.2926 64.5434 20.4288 64.8192 20.4568C65.4941 20.5257 66.1688 20.6167 66.8458 20.718C66.982 20.7384 67.1208 20.7318 67.2544 20.6985C67.388 20.6653 67.5137 20.606 67.6243 20.5242C67.7349 20.4424 67.8283 20.3397 67.899 20.2218C67.9698 20.1039 68.0166 19.9733 68.0367 19.8374C68.0778 19.5635 68.0082 19.2846 67.8434 19.0619C67.6785 18.8392 67.4318 18.6909 67.1575 18.6496ZM73.3112 19.9886C73.0568 19.9449 72.7952 19.9964 72.5766 20.1334C72.358 20.2703 72.1978 20.4831 72.1268 20.7307C72.0887 20.8628 72.0772 21.0011 72.0928 21.1377C72.1084 21.2742 72.1508 21.4064 72.2177 21.5265C72.2845 21.6467 72.3745 21.7525 72.4823 21.8379C72.5902 21.9233 72.714 21.9866 72.8464 22.0242C73.4995 22.2096 74.1507 22.412 74.799 22.6293C74.9294 22.6732 75.0672 22.6909 75.2045 22.6815C75.3417 22.6721 75.4758 22.6358 75.599 22.5747C75.7223 22.5135 75.8322 22.4287 75.9225 22.3251C76.0129 22.2216 76.0819 22.1012 76.1256 21.971C76.2132 21.7084 76.1929 21.4219 76.0691 21.1743C75.9453 20.9267 75.7281 20.7382 75.4652 20.6502C74.7905 20.4239 74.1091 20.2076 73.4197 20.0119C73.384 20.0022 73.3478 19.9945 73.3112 19.9886ZM58.8214 18.1451C58.7561 18.1348 58.6899 18.1307 58.6238 18.1328C57.9128 18.1532 57.1996 18.1865 56.4845 18.2405C56.2079 18.2613 55.9509 18.3909 55.77 18.6007C55.589 18.8105 55.4989 19.0834 55.5194 19.3594C55.5403 19.6354 55.6701 19.8919 55.8803 20.0725C56.0905 20.253 56.3639 20.343 56.6405 20.3226C57.3171 20.2714 57.9976 20.2401 58.6818 20.2205C58.8195 20.2169 58.955 20.1862 59.0807 20.1303C59.2064 20.0743 59.3199 19.9941 59.4145 19.8944C59.5091 19.7946 59.5831 19.6772 59.6322 19.5489C59.6814 19.4205 59.7046 19.2838 59.7007 19.1464C59.6937 18.9035 59.6021 18.6707 59.4416 18.4879C59.2811 18.3052 59.0618 18.1839 58.8214 18.1451ZM81.0767 22.9891C80.8584 22.9594 80.6362 22.9992 80.4419 23.1029C80.2476 23.2066 80.091 23.3689 79.9945 23.5665C79.9339 23.6898 79.8982 23.8238 79.8895 23.9608C79.8809 24.0979 79.8994 24.2353 79.9439 24.3652C79.9885 24.4951 80.0583 24.615 80.1494 24.7179C80.2404 24.8209 80.3509 24.9049 80.4745 24.9652C81.0844 25.2626 81.6893 25.5753 82.2885 25.9037C82.409 25.9702 82.5414 26.0122 82.6782 26.0275C82.815 26.0428 82.9535 26.031 83.0857 25.9929C83.218 25.9547 83.3414 25.8908 83.4488 25.805C83.5563 25.7192 83.6458 25.6131 83.7121 25.4927C83.7781 25.3723 83.8198 25.2402 83.8346 25.1037C83.8495 24.9673 83.8372 24.8293 83.7986 24.6976C83.76 24.5659 83.6958 24.4431 83.6096 24.3362C83.5234 24.2293 83.417 24.1403 83.2964 24.0744C82.6722 23.7324 82.0402 23.4016 81.396 23.0875C81.2955 23.0378 81.1877 23.0046 81.0767 22.9891ZM50.5526 19.1275C50.4144 19.1007 50.2722 19.1019 50.1346 19.1312C49.4327 19.2759 48.738 19.4367 48.0481 19.6134C47.9146 19.6473 47.7892 19.7073 47.6789 19.7897C47.5687 19.8722 47.4759 19.9756 47.4057 20.0939C47.3356 20.2123 47.2896 20.3433 47.2703 20.4794C47.251 20.6155 47.2588 20.7542 47.2933 20.8873C47.363 21.1551 47.5362 21.3844 47.775 21.5249C48.0139 21.6654 48.2988 21.7056 48.5673 21.6367C49.2294 21.4672 49.8936 21.3146 50.5586 21.1775C50.6933 21.1497 50.8211 21.0957 50.9348 21.0186C51.0485 20.9415 51.146 20.8428 51.2215 20.7282C51.297 20.6135 51.3491 20.4851 51.3749 20.3504C51.4007 20.2156 51.3996 20.0771 51.3718 19.9427C51.3306 19.7415 51.2309 19.5569 51.0852 19.4119C50.9395 19.267 50.7543 19.168 50.5526 19.1275ZM88.3007 27.3424C88.1038 27.3005 87.899 27.3162 87.7108 27.3875C87.5225 27.4588 87.3589 27.5828 87.2395 27.7445C87.075 27.9673 87.0058 28.2461 87.047 28.5197C87.0883 28.7933 87.2366 29.0395 87.4594 29.2041C88.0097 29.61 88.5498 30.0257 89.0764 30.4534C89.2917 30.6278 89.5674 30.7098 89.8432 30.6815C90.119 30.6532 90.3723 30.5169 90.5475 30.3024C90.6345 30.196 90.6997 30.0735 90.7392 29.9419C90.7788 29.8103 90.7919 29.6722 90.7779 29.5356C90.764 29.3989 90.7231 29.2663 90.6577 29.1454C90.5923 29.0246 90.5037 28.9177 90.3969 28.8311C89.8408 28.3795 89.2741 27.9471 88.702 27.525C88.5827 27.4364 88.4459 27.3741 88.3007 27.3424ZM42.585 21.5636C42.3747 21.5142 42.1543 21.5309 41.9539 21.6115C41.2924 21.8778 40.6356 22.1617 39.9858 22.4588C39.8608 22.516 39.7484 22.5972 39.6549 22.6978C39.5614 22.7983 39.4886 22.9163 39.4408 23.0449C39.3929 23.1736 39.371 23.3104 39.3761 23.4475C39.3812 23.5846 39.4134 23.7193 39.4707 23.844C39.528 23.9688 39.6094 24.081 39.7102 24.1743C39.811 24.2676 39.9292 24.3402 40.0581 24.388C40.1869 24.4357 40.324 24.4576 40.4614 24.4525C40.5988 24.4474 40.7338 24.4153 40.8587 24.3581C41.4779 24.075 42.1049 23.8065 42.7379 23.5517C42.8657 23.5005 42.982 23.4246 43.0804 23.3284C43.1787 23.2322 43.2571 23.1176 43.3109 22.9911C43.3648 22.8647 43.3932 22.7289 43.3944 22.5915C43.3956 22.454 43.3696 22.3177 43.318 22.1904C43.2551 22.0349 43.1557 21.8967 43.0282 21.7876C42.9006 21.6785 42.7486 21.6017 42.585 21.5636ZM94.5242 32.8704C94.3631 32.8418 94.1976 32.8513 94.0409 32.8981C93.8841 32.9449 93.7406 33.0277 93.6217 33.1399C93.522 33.2344 93.4419 33.3477 93.386 33.4731C93.3301 33.5985 93.2996 33.7337 93.2961 33.8709C93.2926 34.0082 93.3162 34.1447 93.3656 34.2728C93.4151 34.4009 93.4893 34.5181 93.5841 34.6175C94.0529 35.1103 94.5091 35.6154 94.9541 36.1304C95.1353 36.3399 95.3924 36.4692 95.6689 36.4897C95.9455 36.5103 96.2189 36.4205 96.4292 36.2401C96.5336 36.1505 96.6194 36.0413 96.6815 35.9187C96.7436 35.796 96.7809 35.6623 96.7912 35.5253C96.8014 35.3883 96.7845 35.2505 96.7414 35.12C96.6982 34.9895 96.6297 34.8688 96.5397 34.7648C96.0732 34.2249 95.5938 33.698 95.1016 33.1807C94.9474 33.0182 94.745 32.9094 94.5242 32.8704ZM35.0649 25.348C34.8136 25.3064 34.5557 25.3577 34.3396 25.4923C33.7358 25.8699 33.1394 26.2605 32.5512 26.6679C32.438 26.7461 32.3413 26.8459 32.2668 26.9614C32.1923 27.077 32.1413 27.2061 32.1169 27.3413C32.0924 27.4766 32.095 27.6153 32.1243 27.7496C32.1537 27.8839 32.2093 28.011 32.2879 28.1238C32.3663 28.2368 32.4663 28.3332 32.5821 28.4076C32.6979 28.482 32.8272 28.5328 32.9627 28.5572C33.0982 28.5816 33.2372 28.5791 33.3718 28.5498C33.5063 28.5206 33.6337 28.4651 33.7468 28.3865C34.3052 27.9997 34.8749 27.6254 35.4538 27.2634C35.5704 27.1905 35.6714 27.0953 35.7512 26.9834C35.8309 26.8714 35.8877 26.7449 35.9184 26.611C35.9491 26.4771 35.953 26.3385 35.9299 26.2031C35.9069 26.0677 35.8573 25.9382 35.784 25.8219C35.7047 25.6965 35.5996 25.5894 35.4756 25.5077C35.3516 25.426 35.2116 25.3715 35.0649 25.348ZM99.7845 39.431C99.6436 39.3957 99.497 39.3901 99.3538 39.4145C99.2106 39.4388 99.0741 39.4927 98.9529 39.5725C98.8382 39.6483 98.7395 39.7459 98.6625 39.8597C98.5856 39.9736 98.5319 40.1015 98.5045 40.2361C98.4771 40.3707 98.4766 40.5093 98.503 40.6441C98.5293 40.7789 98.5821 40.9072 98.6582 41.0217C99.0327 41.5875 99.3948 42.164 99.7448 42.7502C99.8867 42.9881 100.117 43.16 100.386 43.2282C100.655 43.2965 100.94 43.2554 101.178 43.1142C101.297 43.0438 101.4 42.9509 101.482 42.8407C101.565 42.7304 101.624 42.6051 101.658 42.4718C101.691 42.3385 101.698 42.1999 101.678 42.064C101.658 41.928 101.611 41.7973 101.541 41.6795C101.176 41.0691 100.799 40.4668 100.405 39.8703C100.26 39.6516 100.039 39.4947 99.7845 39.431ZM28.4384 30.3932C28.2777 30.3613 28.1119 30.3674 27.9541 30.4111C27.7962 30.4548 27.6509 30.5349 27.5297 30.6448C26.999 31.1229 26.4787 31.6106 25.9721 32.113C25.8745 32.2098 25.797 32.3248 25.7439 32.4514C25.6909 32.5781 25.6634 32.7139 25.663 32.8512C25.6626 32.9885 25.6893 33.1245 25.7416 33.2514C25.7939 33.3784 25.8707 33.4938 25.9677 33.5911C26.0647 33.6885 26.1799 33.7659 26.3068 33.8188C26.4337 33.8717 26.5698 33.8992 26.7073 33.8996C26.8449 33.9 26.9812 33.8734 27.1084 33.8212C27.2356 33.769 27.3513 33.6923 27.4488 33.5955C27.9322 33.1161 28.4266 32.6498 28.9319 32.1945C29.0339 32.1025 29.1168 31.9913 29.1758 31.8672C29.2348 31.7432 29.2687 31.6088 29.2755 31.4716C29.2824 31.3345 29.2622 31.1974 29.2159 31.0681C29.1696 30.9388 29.0983 30.8198 29.006 30.7181C28.8564 30.552 28.6575 30.4382 28.4384 30.3932ZM103.708 46.7743C103.497 46.7293 103.276 46.7507 103.077 46.8357C102.951 46.8898 102.836 46.9683 102.74 47.0667C102.644 47.1651 102.568 47.2814 102.517 47.4091C102.466 47.5368 102.44 47.6733 102.442 47.8108C102.444 47.9483 102.473 48.084 102.528 48.2102C102.797 48.8358 103.052 49.4664 103.292 50.1029C103.39 50.3618 103.587 50.5713 103.84 50.6855C104.092 50.7996 104.38 50.809 104.64 50.7116C104.9 50.6144 105.11 50.4182 105.225 50.1661C105.34 49.914 105.35 49.6267 105.253 49.3673C105.001 48.6998 104.733 48.0378 104.451 47.3834C104.385 47.23 104.283 47.0946 104.154 46.9886C104.025 46.8827 103.872 46.8092 103.708 46.7743ZM22.798 36.5326C22.6019 36.4856 22.3964 36.4961 22.2061 36.5629C22.0159 36.6296 21.849 36.7498 21.7256 36.909C21.2871 37.4737 20.8665 38.0505 20.4569 38.6323C20.2978 38.8589 20.2353 39.1392 20.283 39.4117C20.3307 39.6842 20.4848 39.9267 20.7114 40.086C20.9384 40.2447 21.2193 40.3071 21.4923 40.2595C21.7654 40.2119 22.0084 40.0581 22.168 39.8319C22.5608 39.274 22.966 38.7265 23.3825 38.1902C23.4666 38.0816 23.5285 37.9575 23.5645 37.825C23.6006 37.6926 23.6102 37.5543 23.5927 37.4181C23.5752 37.282 23.5309 37.1506 23.4625 37.0315C23.3941 36.9124 23.3029 36.8079 23.194 36.7241C23.0771 36.633 22.9421 36.5677 22.798 36.5326ZM106.275 54.6996C106.135 54.6756 105.992 54.6801 105.855 54.7128C105.584 54.7759 105.35 54.9436 105.204 55.1789C105.058 55.4143 105.011 55.698 105.074 55.9678C105.229 56.6311 105.367 57.2949 105.489 57.9622C105.514 58.0972 105.565 58.226 105.639 58.3413C105.714 58.4566 105.81 58.5561 105.924 58.6342C106.037 58.7122 106.164 58.7673 106.298 58.7962C106.433 58.8252 106.572 58.8274 106.707 58.8028C106.842 58.7782 106.971 58.7273 107.087 58.6529C107.202 58.5785 107.302 58.4822 107.38 58.3693C107.458 58.2565 107.514 58.1294 107.543 57.9952C107.571 57.8611 107.574 57.7226 107.549 57.5876C107.42 56.8847 107.274 56.1853 107.112 55.492C107.066 55.2925 106.962 55.1111 106.813 54.9702C106.664 54.8293 106.477 54.7353 106.275 54.6996ZM18.2229 43.5532C18.0052 43.5181 17.7821 43.5525 17.5852 43.6515C17.3882 43.7504 17.2277 43.9089 17.1263 44.1043C16.7966 44.7362 16.4819 45.3753 16.1825 46.0239C16.0664 46.2755 16.0552 46.5629 16.1514 46.8227C16.2476 47.0826 16.4432 47.2937 16.6953 47.4096C16.9475 47.5255 17.2354 47.5366 17.4958 47.4407C17.7562 47.3447 17.9677 47.1494 18.0838 46.8978C18.3685 46.2813 18.6699 45.6725 18.9848 45.0689C19.0486 44.947 19.0876 44.8137 19.0997 44.6767C19.1117 44.5396 19.0965 44.4016 19.055 44.2704C19.0134 44.1393 18.9463 44.0176 18.8576 43.9124C18.7688 43.8072 18.66 43.7205 18.5376 43.6573C18.4389 43.6061 18.3327 43.571 18.2229 43.5532ZM107.394 62.9609C107.328 62.9526 107.261 62.9506 107.195 62.9549C107.058 62.9617 106.923 62.9954 106.799 63.0542C106.674 63.113 106.563 63.1957 106.471 63.2975C106.378 63.3993 106.307 63.5182 106.261 63.6475C106.215 63.7768 106.194 63.9139 106.201 64.051C106.236 64.7291 106.254 65.4073 106.257 66.0882C106.257 66.2255 106.285 66.3613 106.338 66.488C106.391 66.6146 106.469 66.7296 106.566 66.8263C106.664 66.923 106.78 66.9996 106.907 67.0516C107.034 67.1037 107.17 67.1302 107.308 67.1296C107.445 67.1292 107.582 67.1017 107.708 67.0488C107.835 66.9958 107.95 66.9184 108.047 66.821C108.144 66.7236 108.221 66.6081 108.273 66.4811C108.325 66.3541 108.352 66.2181 108.351 66.0808C108.349 65.3688 108.331 64.6563 108.294 63.9433C108.282 63.7007 108.185 63.4698 108.021 63.2905C107.857 63.1112 107.635 62.9946 107.394 62.9609ZM15.0811 51.2808C14.8277 51.231 14.5647 51.2765 14.3429 51.4085C14.121 51.5404 13.9558 51.7497 13.8792 51.9958C13.6686 52.6736 13.4662 53.3609 13.286 54.0539C13.2164 54.3221 13.2563 54.607 13.3971 54.8458C13.5378 55.0846 13.7679 55.2578 14.0367 55.3274C14.3054 55.3969 14.5908 55.3571 14.8301 55.2166C15.0695 55.0761 15.243 54.8465 15.3127 54.5783C15.4831 53.9229 15.6755 53.2702 15.8782 52.6176C15.9604 52.3529 15.9339 52.0665 15.8045 51.8214C15.6751 51.5762 15.4534 51.3925 15.1882 51.3104C15.1531 51.2986 15.1173 51.2888 15.0811 51.2808ZM107.131 71.3156C107.104 71.3096 107.076 71.3048 107.048 71.3011C106.772 71.2664 106.494 71.3423 106.275 71.5121C106.056 71.6818 105.913 71.9315 105.878 72.2063C105.793 72.8787 105.688 73.55 105.571 74.2224C105.537 74.4151 105.559 74.6134 105.632 74.7947C105.706 74.976 105.829 75.133 105.988 75.2478C105.798 75.2947 105.626 75.3936 105.489 75.5333C105.353 75.6731 105.259 75.8481 105.217 76.0385C105.072 76.7077 104.92 77.3723 104.746 78.0261C104.675 78.2937 104.714 78.5781 104.853 78.8172C104.993 79.0563 105.221 79.2304 105.489 79.3015C105.757 79.3718 106.042 79.3331 106.282 79.194C106.521 79.0549 106.696 78.8267 106.767 78.5594C106.951 77.8667 107.115 77.1732 107.265 76.4808C107.307 76.2831 107.291 76.0774 107.218 75.8886C107.146 75.6998 107.02 75.536 106.856 75.4172C107.053 75.368 107.231 75.2628 107.369 75.1144C107.507 74.966 107.599 74.7807 107.633 74.5812C107.755 73.8813 107.865 73.1778 107.955 72.4682C107.987 72.208 107.921 71.9451 107.768 71.7316C107.616 71.5181 107.388 71.3695 107.131 71.3156ZM13.3247 59.4419C13.296 59.4356 13.267 59.4306 13.2379 59.4267C13.1013 59.4091 12.9627 59.4186 12.8298 59.4545C12.6969 59.4905 12.5725 59.5522 12.4635 59.6362C12.3546 59.7203 12.2634 59.8249 12.195 59.9441C12.1267 60.0634 12.0826 60.1949 12.0652 60.3312C11.974 61.0386 11.9016 61.7485 11.8443 62.4591C11.822 62.7353 11.9106 63.0089 12.0905 63.2199C12.2705 63.4309 12.527 63.5619 12.8037 63.5841C13.0804 63.6063 13.3547 63.5179 13.5661 63.3384C13.7775 63.1588 13.9088 62.9028 13.931 62.6266C13.9858 61.9488 14.0572 61.2712 14.1442 60.597C14.1777 60.337 14.1121 60.0739 13.9603 59.8599C13.8085 59.646 13.5816 59.4967 13.3247 59.4419ZM103.958 83.2069C103.722 83.1655 103.479 83.206 103.269 83.3217C103.06 83.4375 102.896 83.6214 102.806 83.8428C102.547 84.4751 102.279 85.1 101.993 85.7138C101.876 85.9648 101.864 86.2519 101.958 86.5121C102.053 86.7722 102.248 86.9842 102.499 87.1014C102.624 87.1593 102.759 87.192 102.896 87.1978C103.033 87.2036 103.171 87.1823 103.3 87.1351C103.429 87.088 103.548 87.0159 103.649 86.9229C103.75 86.83 103.832 86.718 103.89 86.5934C104.192 85.9442 104.477 85.2888 104.746 84.6317C104.798 84.5046 104.824 84.3686 104.824 84.2313C104.823 84.094 104.795 83.9582 104.742 83.8317C104.688 83.7052 104.61 83.5904 104.513 83.4939C104.415 83.3974 104.299 83.3211 104.171 83.2694C104.103 83.2409 104.031 83.2203 103.958 83.2069ZM12.9344 67.7693C12.8684 67.761 12.8018 67.759 12.7354 67.7633C12.4584 67.7779 12.1985 67.9016 12.0128 68.1072C11.8271 68.3129 11.7308 68.5837 11.745 68.8601C11.7815 69.5698 11.8327 70.2807 11.9035 70.9927C11.9314 71.2679 12.0674 71.5209 12.2819 71.6961C12.4963 71.8713 12.7716 71.9545 13.0475 71.9275C13.3237 71.9005 13.5778 71.7651 13.7541 71.5511C13.9303 71.3372 14.0142 71.0622 13.9873 70.7865C13.9202 70.1124 13.8695 69.4331 13.8344 68.7517C13.8223 68.5091 13.7257 68.2782 13.5615 68.0989C13.3972 67.9196 13.1754 67.8031 12.9344 67.7693ZM100.083 90.6176C99.8839 90.5896 99.6807 90.6195 99.498 90.7038C99.3153 90.7881 99.1608 90.9232 99.0531 91.093C98.6896 91.6666 98.3114 92.2337 97.9197 92.792C97.7608 93.019 97.6986 93.2997 97.7469 93.5724C97.7953 93.8451 97.9501 94.0875 98.1775 94.2463C98.4049 94.405 98.6862 94.467 98.9595 94.4187C99.2327 94.3705 99.4756 94.216 99.6347 93.9891C100.044 93.4063 100.439 92.8152 100.822 92.2115C100.895 92.0957 100.945 91.9664 100.969 91.8313C100.992 91.6961 100.989 91.5576 100.959 91.4237C100.929 91.2898 100.873 91.1631 100.794 91.0509C100.714 90.9387 100.614 90.8431 100.498 90.7697C100.372 90.6902 100.231 90.6383 100.083 90.6176ZM14.145 76.0401C14.006 76.0152 13.8633 76.0186 13.7256 76.0502C13.5916 76.0811 13.4649 76.1381 13.353 76.2178C13.241 76.2976 13.1459 76.3987 13.0731 76.5152C13.0003 76.6317 12.9512 76.7614 12.9286 76.8968C12.9061 77.0322 12.9105 77.1708 12.9416 77.3045C13.103 78.0016 13.2851 78.6912 13.4774 79.3747C13.5526 79.6411 13.7306 79.8668 13.9724 80.0024C14.2142 80.1379 14.5 80.1721 14.7671 80.0975C15.034 80.0225 15.2602 79.8448 15.396 79.6035C15.5318 79.3622 15.5661 79.077 15.4914 78.8104C15.3064 78.1529 15.1346 77.4959 14.9818 76.8358C14.936 76.6358 14.8322 76.4538 14.6834 76.3123C14.5346 76.1708 14.3473 76.0761 14.145 76.0401ZM95.0644 97.2499C94.8856 97.2116 94.6999 97.2207 94.5257 97.2763C94.3515 97.3319 94.195 97.432 94.0717 97.5668C93.6094 98.0687 93.1405 98.5587 92.6574 99.0357C92.4601 99.2307 92.3484 99.4958 92.347 99.7729C92.3456 100.05 92.4545 100.316 92.6498 100.513C92.8451 100.71 93.1108 100.821 93.3884 100.823C93.6661 100.824 93.9329 100.716 94.1302 100.521C94.6393 100.018 95.1311 99.5034 95.6133 98.9799C95.8012 98.7762 95.9005 98.5065 95.8893 98.2299C95.8781 97.9534 95.7574 97.6925 95.5536 97.5047C95.4163 97.3776 95.2474 97.2896 95.0644 97.2499ZM16.7967 83.9736C16.5846 83.9294 16.364 83.952 16.1653 84.0382C15.9108 84.1481 15.7105 84.3543 15.6082 84.6116C15.5059 84.8688 15.51 85.156 15.6197 85.4102C15.9018 86.0627 16.1965 86.7109 16.51 87.3532C16.57 87.4769 16.6539 87.5876 16.7569 87.6789C16.8598 87.7702 16.9799 87.8403 17.11 87.8852C17.2402 87.9302 17.378 87.949 17.5155 87.9407C17.6529 87.9324 17.7874 87.8971 17.9112 87.8368C18.035 87.7766 18.1457 87.6926 18.2369 87.5897C18.3281 87.4867 18.3981 87.3668 18.4428 87.2369C18.4875 87.1069 18.5061 86.9694 18.4975 86.8323C18.4888 86.6951 18.4532 86.561 18.3926 86.4376C18.0948 85.8276 17.8141 85.2099 17.5433 84.5834C17.477 84.4294 17.3745 84.2937 17.2446 84.1875C17.1146 84.0814 16.961 84.0081 16.7967 83.9736ZM88.8394 102.864C88.6969 102.839 88.5508 102.844 88.4102 102.878C88.2695 102.912 88.1375 102.975 88.0224 103.062C87.4817 103.475 86.9303 103.873 86.3694 104.26C86.256 104.338 86.1592 104.438 86.0844 104.553C86.0096 104.668 85.9584 104.797 85.9336 104.933C85.9089 105.068 85.9111 105.206 85.9401 105.341C85.9692 105.475 86.0245 105.602 86.1029 105.715C86.1813 105.828 86.2812 105.925 86.397 105.999C86.5128 106.074 86.6422 106.124 86.7777 106.149C86.9132 106.173 87.0522 106.171 87.1867 106.141C87.3213 106.112 87.4487 106.057 87.5617 105.978C88.149 105.573 88.7261 105.154 89.2943 104.721C89.5148 104.553 89.6595 104.304 89.6967 104.03C89.7338 103.756 89.6603 103.478 89.4923 103.257C89.3319 103.049 89.0989 102.909 88.8394 102.864ZM20.8085 91.3259C20.6681 91.2912 20.522 91.2859 20.3794 91.3104C20.2368 91.3349 20.1009 91.3886 19.9802 91.4681C19.8652 91.5436 19.7663 91.641 19.689 91.7546C19.6118 91.8683 19.5578 91.996 19.5301 92.1306C19.5023 92.2651 19.5015 92.4038 19.5275 92.5386C19.5535 92.6735 19.606 92.8019 19.6818 92.9165C20.074 93.5111 20.481 94.0966 20.9024 94.6738C20.9832 94.7848 21.0852 94.8787 21.2025 94.9504C21.3198 95.022 21.45 95.0699 21.5858 95.0913C21.7216 95.1126 21.8603 95.1071 21.994 95.075C22.1276 95.0429 22.2537 94.9848 22.3648 94.9041C22.4759 94.8231 22.5698 94.7211 22.6413 94.6039C22.7129 94.4867 22.7605 94.3566 22.7817 94.221C22.8028 94.0854 22.7969 93.947 22.7645 93.8136C22.732 93.6803 22.6735 93.5546 22.5923 93.4438C22.1918 92.8952 21.8066 92.3348 21.4314 91.7659C21.2866 91.5463 21.0642 91.3891 20.8085 91.3259ZM81.7286 107.306C81.5132 107.276 81.2939 107.314 81.1011 107.415C80.4974 107.726 79.8853 108.022 79.2636 108.307C79.1386 108.364 79.0261 108.445 78.9326 108.546C78.8391 108.646 78.7663 108.764 78.7185 108.893C78.6707 109.021 78.6487 109.158 78.6539 109.295C78.659 109.432 78.6912 109.567 78.7485 109.692C78.8058 109.817 78.8872 109.929 78.9879 110.022C79.0887 110.115 79.2069 110.188 79.3358 110.236C79.4647 110.284 79.6018 110.305 79.7391 110.3C79.8765 110.295 80.0116 110.263 80.1365 110.206C80.7832 109.909 81.4271 109.598 82.0636 109.27C82.3098 109.143 82.4953 108.923 82.5796 108.66C82.6638 108.396 82.6399 108.11 82.513 107.864C82.4365 107.715 82.3254 107.587 82.1889 107.49C82.0524 107.392 81.8945 107.33 81.7286 107.306ZM25.9432 97.8496C25.7825 97.8208 25.6172 97.8298 25.4606 97.8761C25.3041 97.9223 25.1605 98.0045 25.0414 98.116C24.8395 98.306 24.7215 98.5682 24.7132 98.845C24.705 99.1219 24.8072 99.3906 24.9974 99.5922C25.4889 100.111 25.9952 100.619 26.5094 101.112C26.7095 101.304 26.9775 101.408 27.2547 101.402C27.5318 101.397 27.7954 101.282 27.9877 101.083C28.1795 100.883 28.2842 100.615 28.2786 100.339C28.2731 100.062 28.1578 99.7991 27.9581 99.6072C27.4664 99.1353 26.9878 98.6532 26.5206 98.1599C26.3664 97.9974 26.164 97.8887 25.9432 97.8496ZM74.0529 110.464C73.8789 110.426 73.6982 110.433 73.5277 110.485C72.8743 110.685 72.2179 110.87 71.5594 111.039C71.4259 111.073 71.3004 111.133 71.1902 111.215C71.0799 111.298 70.9871 111.401 70.917 111.519C70.8468 111.638 70.8008 111.769 70.7815 111.905C70.7622 112.041 70.7701 112.18 70.8046 112.313C70.8386 112.446 70.8987 112.571 70.9813 112.681C71.0639 112.791 71.1675 112.884 71.2861 112.954C71.4047 113.024 71.5359 113.07 71.6724 113.089C71.8088 113.108 71.9476 113.1 72.081 113.066C72.7745 112.889 73.4609 112.693 74.1419 112.485C74.2737 112.445 74.3962 112.379 74.5024 112.292C74.6087 112.205 74.6966 112.097 74.7612 111.976C74.8257 111.854 74.8657 111.721 74.8787 111.585C74.8917 111.448 74.8776 111.31 74.8371 111.178C74.7821 111 74.6803 110.84 74.5425 110.715C74.4046 110.589 74.2355 110.503 74.0529 110.464ZM32.2506 103.376C32.0537 103.334 31.8489 103.349 31.6607 103.421C31.4725 103.492 31.3088 103.616 31.1894 103.778C31.025 104 30.9557 104.279 30.997 104.553C31.0382 104.826 31.1865 105.073 31.4094 105.237C31.9845 105.66 32.5701 106.071 33.1642 106.466C33.2786 106.543 33.4069 106.596 33.542 106.623C33.677 106.65 33.816 106.65 33.951 106.623C34.0861 106.596 34.2145 106.543 34.3289 106.467C34.4434 106.391 34.5417 106.292 34.6181 106.178C34.6947 106.064 34.7479 105.935 34.7748 105.801C34.8016 105.666 34.8014 105.527 34.7743 105.392C34.7472 105.257 34.6937 105.129 34.6168 105.015C34.5399 104.9 34.4412 104.803 34.3263 104.727C33.7592 104.349 33.201 103.958 32.6526 103.555C32.5328 103.467 32.3958 103.406 32.2506 103.376ZM65.8325 112.183C65.7307 112.165 65.6268 112.161 65.5241 112.174C64.8491 112.256 64.1717 112.324 63.4916 112.374C63.3544 112.384 63.2206 112.421 63.0977 112.482C62.9748 112.544 62.8652 112.629 62.7753 112.733C62.6854 112.837 62.6168 112.957 62.5736 113.088C62.5303 113.218 62.5133 113.355 62.5233 113.492C62.5442 113.768 62.674 114.025 62.8842 114.205C63.0944 114.386 63.3678 114.476 63.6444 114.455C64.3563 114.403 65.0678 114.337 65.7781 114.25C65.9147 114.234 66.0468 114.191 66.1667 114.123C66.2866 114.056 66.392 113.966 66.477 113.858C66.5619 113.75 66.6247 113.626 66.6617 113.494C66.6987 113.361 66.7092 113.223 66.6927 113.087C66.6657 112.864 66.5674 112.656 66.4125 112.493C66.2575 112.33 66.0541 112.221 65.8325 112.183ZM39.4391 107.708C39.2071 107.65 38.9622 107.673 38.7451 107.773C38.528 107.873 38.3518 108.044 38.2458 108.258C38.1847 108.381 38.1485 108.515 38.1394 108.653C38.1302 108.79 38.1483 108.927 38.1925 109.057C38.2368 109.188 38.3063 109.308 38.3972 109.411C38.488 109.514 38.5984 109.599 38.722 109.659C39.3641 109.975 40.014 110.273 40.6685 110.556C40.7945 110.611 40.9302 110.641 41.0677 110.643C41.2051 110.646 41.3418 110.621 41.4697 110.571C41.5977 110.521 41.7145 110.446 41.8135 110.351C41.9124 110.255 41.9916 110.141 42.0465 110.016C42.1015 109.89 42.1309 109.754 42.1333 109.617C42.1356 109.479 42.1108 109.343 42.0601 109.215C42.0095 109.087 41.9341 108.97 41.8382 108.872C41.7424 108.773 41.628 108.694 41.5015 108.64C40.8758 108.368 40.2597 108.083 39.6498 107.783C39.5825 107.751 39.5118 107.725 39.4391 107.708ZM57.4416 112.43C57.4123 112.426 57.3829 112.423 57.3534 112.421C56.6703 112.381 55.9904 112.329 55.3158 112.257C55.0403 112.228 54.7645 112.31 54.5488 112.483C54.3332 112.657 54.1953 112.908 54.1653 113.183C54.1503 113.32 54.1626 113.458 54.2013 113.59C54.24 113.722 54.3044 113.845 54.3908 113.952C54.4773 114.059 54.584 114.148 54.7049 114.214C54.8259 114.28 54.9586 114.321 55.0956 114.335C55.8088 114.411 56.5214 114.465 57.2316 114.507C57.5081 114.523 57.7796 114.429 57.9868 114.245C58.1939 114.062 58.3198 113.804 58.3368 113.528C58.3529 113.266 58.2697 113.008 58.1039 112.805C57.9381 112.601 57.7016 112.467 57.4416 112.43ZM47.1736 110.682C46.9192 110.638 46.6576 110.689 46.439 110.826C46.2204 110.963 46.0602 111.176 45.9891 111.424C45.9124 111.69 45.9448 111.976 46.0791 112.218C46.2135 112.461 46.4388 112.64 46.7056 112.717C47.3926 112.914 48.0843 113.093 48.7787 113.258C49.0488 113.321 49.333 113.275 49.5689 113.129C49.8049 112.984 49.9733 112.751 50.0373 112.481C50.1008 112.212 50.0546 111.928 49.9088 111.693C49.7629 111.457 49.5294 111.289 49.2595 111.225C48.596 111.068 47.9389 110.897 47.2846 110.709C47.2481 110.698 47.211 110.689 47.1736 110.682Z" fill="#008066"/>
</svg>
