<svg width="133" height="133" viewBox="0 0 133 133" fill="none" xmlns="http://www.w3.org/2000/svg">
<path d="M64.4751 121.585L48.5657 118.875C48.4995 118.721 48.4604 118.543 48.3634 118.406C45.3185 113.959 41.1868 111.167 35.847 110.252C25.6664 108.509 15.4782 106.782 5.29606 105.048C4.89147 104.979 4.48238 104.909 4.0688 104.839L16.9757 29.0749L29.5 31.2085L31.6338 18.683L44.2075 20.825L46.3314 8.35789C52.9074 9.04838 58.755 11.2184 63.6549 15.5838C70.1774 21.3949 73.4088 28.7388 73.5444 37.501C73.8311 37.4204 73.9991 37.3843 74.162 37.3243C80.5286 35.0353 87.0352 34.5586 93.6876 35.7242C99.5765 36.7552 105.474 37.7367 111.372 38.7415C111.745 38.805 112.118 38.8686 112.604 38.9513L110.466 51.4993L123.013 53.6367L111.182 123.082C100.699 121.296 90.2187 119.492 79.7247 117.741C78.2359 117.492 76.7011 117.351 75.1992 117.423C71.1803 117.607 67.5601 118.927 64.4803 121.582L64.4751 121.585ZM63.1071 100.533C63.5409 100.404 63.8358 100.329 64.1255 100.231C69.9684 98.2729 75.9376 97.774 82.0156 98.7539C86.1395 99.4195 90.2528 100.148 94.3661 100.849C94.7347 100.911 95.1033 100.974 95.4585 101.035L105.15 44.1423C100.678 43.3803 96.2871 42.5954 91.8874 41.8921C85.5344 40.8699 79.4299 41.7293 73.5761 44.4292C72.8027 44.7873 72.502 45.2491 72.3643 46.0574C69.364 63.8054 66.3366 81.5487 63.3138 99.2928L63.1026 100.532L63.1071 100.533ZM22.1799 36.5146L11.4275 99.6317L12.6458 99.8392C20.7061 101.212 28.7619 102.585 36.8222 103.958C42.8776 104.989 47.9132 107.825 51.9147 112.495C52.185 112.809 52.6338 113.08 53.0377 113.153C56.066 113.706 59.1004 114.223 62.1409 114.704C62.5508 114.769 63.0654 114.681 63.4199 114.474C68.7735 111.37 74.4947 110.371 80.586 111.409C88.6464 112.782 96.7022 114.154 104.762 115.527L105.909 115.723L115.588 58.9065L109.344 57.8427L100.734 108.38C100.289 108.305 99.9116 108.24 99.534 108.176C93.4292 107.136 87.3267 106.082 81.2188 105.06C75.8437 104.163 70.4692 104.403 65.4936 106.592C62.4385 107.934 59.6017 108.157 56.534 107.293C56.0217 107.15 55.4618 106.907 55.0987 106.54C50.3038 101.721 44.5368 98.8068 37.8521 97.668C31.8507 96.6456 25.8538 95.624 19.8524 94.6016C19.4838 94.5388 19.1196 94.4768 18.6791 94.4017L28.3627 37.5586L22.1859 36.5064L22.1799 36.5146ZM59.0702 86.2955C59.1551 85.797 59.1903 85.5904 59.2248 85.3883C61.7602 70.505 64.3227 55.6263 66.8177 40.7361C67.8073 34.8183 66.5097 29.3474 63.0885 24.4205C60.2209 20.2903 56.3488 17.4679 51.5316 15.8755L41.8518 72.6961C49.301 74.968 54.9608 79.4351 59.0702 86.2955ZM56.2999 98.8373C56.0664 94.9942 54.8739 91.4313 52.7342 88.1877C48.4362 81.6741 42.1571 78.5341 34.4411 77.7742L43.0597 27.1826L36.847 26.1242L26.0992 89.2143C26.5172 89.2855 26.8949 89.3499 27.268 89.4134C31.4532 90.1264 35.6415 90.8215 39.8214 91.5659C43.2514 92.1779 46.5553 93.2306 49.6294 94.8727C51.8892 96.0803 54.042 97.4822 56.2962 98.8321L56.2999 98.8373Z" fill="#00536E"/>
</svg>
