<svg width="108" height="116" viewBox="0 0 108 116" fill="none" xmlns="http://www.w3.org/2000/svg">
<path d="M48.4751 113.585L32.5657 110.875C32.4996 110.721 32.4604 110.543 32.3634 110.406C29.3185 105.959 25.1869 103.167 19.8471 102.252C9.66643 100.509 -0.521753 98.7824 -10.7039 97.0478C-11.1085 96.9789 -11.5176 96.9092 -11.9312 96.8388L0.975722 21.0749L13.5 23.2085L15.6338 10.683L28.2076 12.825L30.3314 0.357892C36.9075 1.04838 42.755 3.21838 47.6549 7.58384C54.1774 13.3949 57.4088 20.7388 57.5444 29.501C57.8311 29.4204 57.9991 29.3843 58.162 29.3243C64.5286 27.0353 71.0352 26.5586 77.6876 27.7242C83.5765 28.7552 89.4739 29.7367 95.3719 30.7415C95.745 30.805 96.1181 30.8686 96.6036 30.9513L94.466 43.4993L107.013 45.6367L95.1823 115.082C84.699 113.296 74.2187 111.492 63.7247 109.741C62.236 109.492 60.7011 109.351 59.1992 109.423C55.1803 109.607 51.5601 110.927 48.4804 113.582L48.4751 113.585ZM47.1072 92.5331C47.5409 92.4036 47.8358 92.3291 48.1255 92.2306C53.9685 90.2729 59.9376 89.774 66.0156 90.754C70.1396 91.4195 74.2528 92.148 78.3661 92.8487C78.7347 92.9115 79.1034 92.9743 79.4585 93.0348L89.1505 36.1423C84.6776 35.3803 80.2872 34.5954 75.8875 33.8921C69.5345 32.8699 63.4299 33.7293 57.5762 36.4292C56.8028 36.7873 56.5021 37.2491 56.3643 38.0574C53.364 55.8054 50.3367 73.5487 47.3138 91.2928L47.1027 92.5323L47.1072 92.5331ZM6.17996 28.5146L-4.57246 91.6317L-3.3542 91.8392C4.70611 93.2123 12.7619 94.5847 20.8222 95.9578C26.8776 96.9894 31.9132 99.8252 35.9147 104.495C36.185 104.809 36.6339 105.08 37.0377 105.153C40.066 105.706 43.1004 106.223 46.141 106.704C46.5508 106.769 47.0654 106.681 47.4199 106.474C52.7735 103.37 58.4948 102.371 64.5861 103.409C72.6464 104.782 80.7022 106.154 88.7625 107.527L89.9089 107.723L99.5879 50.9065L93.3437 49.8427L84.7343 100.38C84.2892 100.305 83.9116 100.24 83.534 100.176C77.4292 99.1359 71.3267 98.0824 65.2188 97.0604C59.8437 96.1632 54.4692 96.403 49.4936 98.5916C46.4386 99.9335 43.6018 100.157 40.5341 99.2928C40.0218 99.15 39.4618 98.9068 39.0988 98.5399C34.3039 93.721 28.5368 90.8068 21.8521 89.668C15.8507 88.6456 9.85381 87.624 3.85241 86.6016C3.48378 86.5388 3.11966 86.4768 2.67911 86.4017L12.3627 29.5586L6.18598 28.5064L6.17996 28.5146ZM43.0703 78.2955C43.1552 77.797 43.1904 77.5904 43.2248 77.3883C45.7603 62.505 48.3227 47.6263 50.8177 32.7361C51.8074 26.8183 50.5097 21.3474 47.0886 16.4205C44.221 12.2903 40.3488 9.46787 35.5316 7.87546L25.8518 64.6961C33.3011 66.968 38.9608 71.4351 43.0703 78.2955ZM40.2999 90.8373C40.0665 86.9942 38.8739 83.4313 36.7342 80.1877C32.4362 73.6741 26.1572 70.5341 18.4411 69.7742L27.0597 19.1826L20.847 18.1242L10.0992 81.2143C10.5173 81.2855 10.8949 81.3499 11.268 81.4134C15.4533 82.1264 19.6416 82.8215 23.8215 83.5659C27.2514 84.1779 30.5554 85.2306 33.6294 86.8727C35.8893 88.0803 38.042 89.4822 40.2962 90.8321L40.2999 90.8373Z" fill="#00536E"/>
</svg>
