<svg width="155" height="172" viewBox="0 0 155 172" fill="none" xmlns="http://www.w3.org/2000/svg">
<path d="M103.683 7.72279C103.598 7.68442 103.509 7.67668 103.424 7.64026C103.379 7.62123 103.351 7.57737 103.308 7.55916C103.173 7.49928 103.016 7.52044 102.881 7.46529C59.8986 -10.8155 9.96487 8.87896 -8.78555 51.7746C-27.534 94.6711 -8.07421 144.698 34.5367 163.827C34.6716 163.889 34.7622 164.017 34.896 164.076C34.9389 164.095 34.9906 164.087 35.0346 164.108C35.1205 164.144 35.1869 164.204 35.2719 164.243C78.4205 183.103 128.868 163.348 147.733 120.188C166.596 77.0266 146.832 26.5828 103.683 7.72279ZM84.5042 59.2302C93.9567 63.2702 103.28 66.8757 112.05 69.8711C110.173 78.7662 107.238 88.0844 103.35 97.4498L73.5007 84.4023L84.5042 59.2302ZM86.9535 53.6304L103.717 15.2762C113.594 22.4935 116.755 41.1151 113.069 63.7797C104.76 60.9083 95.9171 57.4607 86.9535 53.6304ZM98.1907 12.6554L81.3471 51.1921C72.187 47.1195 63.4065 42.8467 55.4204 38.5678C69.8741 20.0594 86.1015 9.64906 98.1907 12.6554ZM78.8989 56.7946L67.9023 81.9559L37.3036 68.5811C41.533 59.3767 46.3737 50.8965 51.6228 43.4827C59.9505 47.971 69.1628 52.4685 78.8989 56.7946ZM31.7013 66.1331L-1.67573 51.5428C3.77416 40.2917 11.6045 31.015 20.9225 23.7713C27.1796 28.9188 35.807 34.6161 46.1435 40.4515C40.8817 48.0256 36.0222 56.6912 31.7013 66.1331ZM29.2531 71.7356C25.2438 81.3489 22.1752 90.834 20.19 99.8649C8.83456 96.263 -1.23947 93.8238 -9.14106 92.7967C-10.1884 80.9737 -8.70955 68.8552 -4.12473 57.1473L29.2531 71.7356ZM34.8515 74.182L65.4502 87.5568L54.4552 112.714C44.7266 108.555 35.1453 104.867 26.143 101.817C28.0207 92.9041 30.958 83.5659 34.8515 74.182ZM52.0079 118.315L35.1609 156.859C24.75 150.032 21.3696 131.067 25.1241 107.909C33.6676 110.836 42.767 114.362 52.0079 118.315ZM40.8388 159.135L57.6135 120.755C66.4943 124.705 75.037 128.849 82.8284 133.006C68.6888 151.132 52.8558 161.486 40.8388 159.135ZM60.0617 115.153L71.0525 90.0049L100.902 103.05C96.6845 112.228 91.8624 120.686 86.6314 128.084C78.4908 123.719 69.5147 119.354 60.0617 115.153ZM106.502 105.5L140.624 120.413C135.17 131.674 127.333 140.954 118.005 148.201C111.612 142.927 102.734 137.084 92.1028 131.112C97.3477 123.556 102.192 114.916 106.502 105.5ZM108.95 99.8971C112.952 90.3014 116.016 80.8374 118 71.8199C129.675 75.5528 140.031 78.0816 148.085 79.1183C149.143 90.9548 147.66 103.088 143.071 114.812L108.95 99.8971ZM147.548 72.8753C139.84 71.7667 130.051 69.3012 119.059 65.7477C122.057 48.4494 121.246 33.2417 116.632 22.4242C133.296 34.7948 144.179 53.0029 147.548 72.8753ZM82.8998 8.06977C71.9538 12.1298 60.4193 21.7549 49.8991 35.5164C40.1432 30.0379 31.8978 24.6937 25.8913 19.9103C42.4699 9.01361 62.8106 4.62072 82.8998 8.06977ZM-8.60378 99.0396C-1.05197 100.137 8.45893 102.515 19.1376 105.938C16.1919 122.984 16.9632 137.97 21.4131 148.75C5.28174 136.384 -5.31044 118.542 -8.60378 99.0396ZM54.857 163.758C65.9455 159.791 77.6767 150.033 88.3514 136.053C98.3978 141.667 106.892 147.158 113.034 152.066C96.1331 163.169 75.317 167.597 54.857 163.758Z" fill="#D9D9D9"/>
</svg>
