<svg width="111" height="96" viewBox="0 0 111 96" fill="none" xmlns="http://www.w3.org/2000/svg">
<path d="M110.312 42.6282C108.32 53.3834 104.156 63.3051 98.0064 71.6171C92.0427 79.6748 84.2332 86.2212 74.7698 90.5365C65.3061 94.8546 55.1452 96.5062 44.9708 95.8077C34.4769 95.0841 23.9892 91.8496 14.2306 86.4542C11.7435 85.0771 9.85597 83.0681 8.71996 80.7042C7.58395 78.3402 7.20523 75.6428 7.71372 72.8994C8.92229 66.3407 10.9507 60.0908 13.7306 54.3427L0.186362 46.6354C-2.30693 45.219 -3.25551 42.0847 -1.93747 39.6393C-0.629239 37.201 2.44896 36.3544 4.92959 37.7774L18.7862 45.6434C19.188 45.0612 19.5971 44.4891 20.0156 43.9129C25.0208 37.1619 31.3007 31.4734 38.7701 27.2664L31.9257 13.0335C30.6828 10.4479 31.7218 7.41834 34.2468 6.26688C36.7718 5.11542 39.8263 6.27761 41.0692 8.86326L47.9136 23.0961C56.0118 20.2023 64.5213 19.1461 73.0513 19.7223C73.7744 19.7788 74.4852 19.8391 75.2034 19.9094L77.8742 4.50468C78.3421 1.73639 80.9789 -0.0229703 83.7392 0.558145C86.5118 1.13559 88.3761 3.85346 87.8959 6.62541L85.3016 21.6947C91.6177 23.2963 97.8424 25.7794 103.789 29.0752C106.276 30.4524 108.163 32.4613 109.299 34.8253C110.435 37.1892 110.811 39.8861 110.305 42.63L110.312 42.6282ZM25.1071 54.9901L25.0892 55.0133C25.0269 55.143 24.9507 55.2466 24.8937 55.3597C21.4502 61.2966 19.0267 67.998 17.7001 75.1253C17.6012 75.6416 17.6654 76.1256 17.8631 76.5368C18.0538 76.9349 18.394 77.2924 18.8702 77.56C27.2756 82.2015 36.282 84.9879 45.2418 85.5972C53.7926 86.1918 62.3202 84.7984 70.2653 81.1757C78.2202 77.5461 84.7676 72.0641 89.774 65.284C95.0327 58.1913 98.6011 49.6709 100.322 40.4075C100.416 39.8787 100.349 39.3942 100.159 38.9961C99.9609 38.5849 99.6206 38.2274 99.1514 37.9729C92.6832 34.4013 85.8636 31.9316 78.9705 30.6959C78.84 30.6842 78.7022 30.6623 78.5606 30.6252L78.5148 30.6169C76.6024 30.2909 74.6939 30.0624 72.7754 29.926C64.229 29.341 55.7137 30.7308 47.7564 34.3571C39.8112 37.9797 33.254 43.4687 28.2436 50.2363C27.1224 51.7604 26.0771 53.3509 25.11 54.9906L25.1071 54.9901ZM50.0086 39.0374C60.112 34.4292 72.3272 39.0775 77.3011 49.4235C82.275 59.7695 78.1196 71.8849 68.0163 76.4931C57.9129 81.1013 45.6978 76.453 40.7238 66.107C35.7499 55.761 39.9053 43.6456 50.0086 39.0374Z" fill="#DEDEDE"/>
</svg>
