<svg width="380" height="192" viewBox="0 0 380 192" fill="none" xmlns="http://www.w3.org/2000/svg">
<path d="M42 41H338V39H42V41ZM339 42V150H341V42H339ZM338 151H42V153H338V151ZM41 150V42H39V150H41ZM42 151C41.4477 151 41 150.552 41 150H39C39 151.657 40.3431 153 42 153V151ZM339 150C339 150.552 338.552 151 338 151V153C339.657 153 341 151.657 341 150H339ZM338 41C338.552 41 339 41.4477 339 42H341C341 40.3431 339.657 39 338 39V41ZM42 39C40.3431 39 39 40.3431 39 42H41C41 41.4477 41.4477 41 42 41V39Z" fill="white" fill-opacity="0.1"/>
<rect x="126" y="104" width="79" height="13" fill="#66B072"/>
<path d="M54.8778 117.565H52.0938L52.3523 110.565H54.6193L54.8778 117.565ZM53.4858 107.224C53.8504 107.224 54.1719 107.36 54.4503 107.632C54.732 107.901 54.8745 108.229 54.8778 108.616C54.8745 108.994 54.732 109.317 54.4503 109.586C54.1719 109.854 53.8504 109.989 53.4858 109.989C53.1013 109.989 52.7715 109.854 52.4964 109.586C52.2247 109.317 52.0904 108.994 52.0938 108.616C52.0904 108.358 52.1518 108.124 52.2777 107.915C52.4036 107.703 52.5727 107.536 52.7848 107.413C52.9969 107.287 53.2306 107.224 53.4858 107.224ZM60.5504 115H56.6328V104.818H60.5107C61.558 104.818 62.4628 105.022 63.2251 105.43C63.9908 105.834 64.5807 106.417 64.995 107.18C65.4126 107.939 65.6214 108.848 65.6214 109.909C65.6214 110.97 65.4143 111.881 65 112.643C64.5857 113.402 63.9991 113.986 63.2401 114.393C62.4811 114.798 61.5845 115 60.5504 115ZM59.397 112.653H60.451C60.9548 112.653 61.384 112.572 61.7386 112.41C62.0966 112.247 62.3684 111.967 62.554 111.57C62.7429 111.172 62.8374 110.618 62.8374 109.909C62.8374 109.2 62.7412 108.646 62.549 108.249C62.3601 107.851 62.0817 107.571 61.7138 107.408C61.3492 107.246 60.9018 107.165 60.3714 107.165H59.397V112.653ZM70.5993 115.139C69.7839 115.139 69.0813 114.983 68.4913 114.672C67.9047 114.357 67.4522 113.906 67.1341 113.32C66.8192 112.73 66.6618 112.024 66.6618 111.202C66.6618 110.413 66.8208 109.723 67.139 109.134C67.4572 108.544 67.9063 108.085 68.4863 107.756C69.0663 107.428 69.7508 107.264 70.5396 107.264C71.1163 107.264 71.6383 107.354 72.1056 107.533C72.573 107.712 72.9724 107.972 73.3038 108.313C73.6352 108.651 73.8904 109.062 74.0694 109.546C74.2484 110.03 74.3379 110.575 74.3379 111.182V111.818H67.5169V110.307H71.8123C71.809 110.088 71.7527 109.896 71.6433 109.73C71.5372 109.561 71.3931 109.43 71.2108 109.337C71.0318 109.241 70.8279 109.193 70.5993 109.193C70.3772 109.193 70.1734 109.241 69.9877 109.337C69.8021 109.43 69.653 109.559 69.5403 109.725C69.4309 109.891 69.3729 110.085 69.3663 110.307V111.938C69.3663 112.183 69.4177 112.402 69.5204 112.594C69.6232 112.786 69.7707 112.937 69.9629 113.046C70.1551 113.156 70.3871 113.21 70.6589 113.21C70.8478 113.21 71.0202 113.184 71.176 113.131C71.335 113.078 71.4709 113.001 71.5836 112.902C71.6963 112.799 71.7792 112.677 71.8322 112.534H74.3379C74.2517 113.064 74.0479 113.525 73.7264 113.916C73.4049 114.304 72.979 114.606 72.4487 114.821C71.9217 115.033 71.3052 115.139 70.5993 115.139ZM82.4379 109.849H79.9123C79.899 109.694 79.8443 109.559 79.7482 109.447C79.6521 109.334 79.5278 109.248 79.3754 109.188C79.2262 109.125 79.0605 109.094 78.8782 109.094C78.6429 109.094 78.4407 109.137 78.2717 109.223C78.1026 109.309 78.0198 109.432 78.0231 109.591C78.0198 109.704 78.0678 109.808 78.1673 109.904C78.27 110 78.4672 110.075 78.7589 110.128L80.31 110.406C81.0922 110.549 81.6739 110.789 82.055 111.127C82.4395 111.462 82.6334 111.911 82.6367 112.474C82.6334 113.018 82.471 113.49 82.1495 113.891C81.8313 114.289 81.3955 114.597 80.842 114.816C80.2918 115.031 79.6637 115.139 78.9577 115.139C77.7911 115.139 76.878 114.901 76.2184 114.423C75.5621 113.946 75.1959 113.316 75.1197 112.534H77.8441C77.8806 112.776 77.9999 112.963 78.2021 113.096C78.4076 113.225 78.6661 113.29 78.9776 113.29C79.2295 113.29 79.4367 113.247 79.5991 113.161C79.7648 113.074 79.8493 112.952 79.8526 112.793C79.8493 112.647 79.7764 112.531 79.6339 112.445C79.4947 112.358 79.2759 112.289 78.9776 112.236L77.6254 111.997C76.8465 111.861 76.2631 111.603 75.8754 111.222C75.4876 110.84 75.2953 110.35 75.2987 109.75C75.2953 109.22 75.4345 108.771 75.7163 108.403C76.0013 108.031 76.4073 107.75 76.9343 107.558C77.4646 107.362 78.0927 107.264 78.8185 107.264C79.9222 107.264 80.7923 107.493 81.4286 107.95C82.0683 108.408 82.4047 109.041 82.4379 109.849ZM87.3672 115.139C86.5386 115.139 85.8293 114.975 85.2393 114.647C84.6494 114.316 84.197 113.855 83.8821 113.265C83.5672 112.672 83.4098 111.984 83.4098 111.202C83.4098 110.42 83.5672 109.733 83.8821 109.143C84.197 108.55 84.6494 108.089 85.2393 107.761C85.8293 107.43 86.5386 107.264 87.3672 107.264C88.1162 107.264 88.7642 107.4 89.3111 107.672C89.8613 107.94 90.2872 108.321 90.5888 108.815C90.8904 109.306 91.0429 109.883 91.0462 110.545H88.5007C88.4643 110.144 88.3482 109.839 88.1527 109.631C87.9605 109.419 87.7119 109.312 87.407 109.312C87.1683 109.312 86.9595 109.382 86.7805 109.521C86.6016 109.657 86.4624 109.864 86.3629 110.143C86.2635 110.418 86.2138 110.764 86.2138 111.182C86.2138 111.599 86.2635 111.947 86.3629 112.226C86.4624 112.501 86.6016 112.708 86.7805 112.847C86.9595 112.983 87.1683 113.051 87.407 113.051C87.6091 113.051 87.7881 113.005 87.9439 112.912C88.0997 112.816 88.2256 112.677 88.3217 112.494C88.4212 112.309 88.4808 112.083 88.5007 111.818H91.0462C91.0362 112.491 90.8821 113.078 90.5838 113.578C90.2855 114.075 89.8629 114.46 89.3161 114.732C88.7725 115.003 88.1229 115.139 87.3672 115.139ZM97.1301 111.659V107.364H99.8745V115H97.2694V113.548H97.1898C97.0241 114.036 96.7341 114.417 96.3198 114.692C95.9055 114.964 95.4133 115.099 94.8432 115.099C94.3096 115.099 93.8423 114.977 93.4412 114.732C93.0435 114.486 92.7336 114.148 92.5115 113.717C92.2928 113.286 92.1818 112.793 92.1784 112.236V107.364H94.9228V111.659C94.9261 112.037 95.0222 112.334 95.2111 112.549C95.4033 112.764 95.6718 112.872 96.0165 112.872C96.2452 112.872 96.4424 112.824 96.6081 112.728C96.7772 112.629 96.9064 112.489 96.9959 112.31C97.0887 112.128 97.1335 111.911 97.1301 111.659ZM101.23 115V104.818H103.975V108.696H104.015C104.114 108.437 104.26 108.201 104.452 107.985C104.644 107.766 104.883 107.592 105.168 107.463C105.453 107.33 105.784 107.264 106.162 107.264C106.666 107.264 107.145 107.398 107.599 107.667C108.056 107.935 108.428 108.358 108.713 108.935C109.001 109.511 109.145 110.26 109.145 111.182C109.145 112.063 109.008 112.794 108.733 113.374C108.461 113.954 108.096 114.387 107.639 114.672C107.185 114.957 106.686 115.099 106.142 115.099C105.784 115.099 105.465 115.041 105.183 114.925C104.904 114.806 104.666 114.645 104.467 114.443C104.271 114.238 104.121 114.006 104.015 113.747H103.955V115H101.23ZM103.915 111.182C103.915 111.553 103.963 111.875 104.059 112.146C104.159 112.415 104.298 112.624 104.477 112.773C104.659 112.919 104.876 112.991 105.128 112.991C105.38 112.991 105.594 112.92 105.77 112.778C105.949 112.632 106.084 112.425 106.177 112.156C106.273 111.884 106.321 111.56 106.321 111.182C106.321 110.804 106.273 110.481 106.177 110.212C106.084 109.941 105.949 109.733 105.77 109.591C105.594 109.445 105.38 109.372 105.128 109.372C104.876 109.372 104.659 109.445 104.477 109.591C104.298 109.733 104.159 109.941 104.059 110.212C103.963 110.481 103.915 110.804 103.915 111.182ZM110.294 115V107.364H112.958V108.815H113.038C113.177 108.278 113.398 107.886 113.699 107.637C114.004 107.388 114.36 107.264 114.768 107.264C114.887 107.264 115.005 107.274 115.121 107.294C115.24 107.311 115.355 107.335 115.464 107.369V109.71C115.328 109.664 115.161 109.629 114.962 109.606C114.763 109.583 114.592 109.571 114.45 109.571C114.181 109.571 113.94 109.632 113.724 109.755C113.512 109.874 113.345 110.043 113.222 110.262C113.099 110.478 113.038 110.731 113.038 111.023V115H110.294ZM119.586 115.139C118.77 115.139 118.068 114.983 117.478 114.672C116.891 114.357 116.439 113.906 116.12 113.32C115.806 112.73 115.648 112.024 115.648 111.202C115.648 110.413 115.807 109.723 116.125 109.134C116.444 108.544 116.893 108.085 117.473 107.756C118.053 107.428 118.737 107.264 119.526 107.264C120.103 107.264 120.625 107.354 121.092 107.533C121.559 107.712 121.959 107.972 122.29 108.313C122.622 108.651 122.877 109.062 123.056 109.546C123.235 110.03 123.324 110.575 123.324 111.182V111.818H116.503V110.307H120.799C120.795 110.088 120.739 109.896 120.63 109.73C120.524 109.561 120.379 109.43 120.197 109.337C120.018 109.241 119.814 109.193 119.586 109.193C119.364 109.193 119.16 109.241 118.974 109.337C118.788 109.43 118.639 109.559 118.527 109.725C118.417 109.891 118.359 110.085 118.353 110.307V111.938C118.353 112.183 118.404 112.402 118.507 112.594C118.609 112.786 118.757 112.937 118.949 113.046C119.141 113.156 119.373 113.21 119.645 113.21C119.834 113.21 120.007 113.184 120.162 113.131C120.321 113.078 120.457 113.001 120.57 112.902C120.683 112.799 120.766 112.677 120.819 112.534H123.324C123.238 113.064 123.034 113.525 122.713 113.916C122.391 114.304 121.965 114.606 121.435 114.821C120.908 115.033 120.292 115.139 119.586 115.139ZM209.328 115.119C208.841 115.119 208.41 115.04 208.035 114.881C207.664 114.718 207.372 114.473 207.16 114.145C206.948 113.817 206.842 113.399 206.842 112.892C206.842 112.474 206.913 112.118 207.056 111.823C207.198 111.525 207.397 111.281 207.652 111.092C207.908 110.903 208.204 110.759 208.542 110.66C208.884 110.56 209.252 110.496 209.646 110.466C210.074 110.433 210.417 110.393 210.675 110.347C210.937 110.297 211.126 110.229 211.242 110.143C211.358 110.053 211.416 109.936 211.416 109.79V109.77C211.416 109.571 211.34 109.419 211.187 109.312C211.035 109.206 210.839 109.153 210.6 109.153C210.339 109.153 210.125 109.211 209.959 109.327C209.797 109.44 209.699 109.614 209.666 109.849H207.14C207.173 109.385 207.321 108.958 207.583 108.567C207.848 108.172 208.234 107.857 208.741 107.622C209.248 107.384 209.881 107.264 210.64 107.264C211.187 107.264 211.678 107.329 212.112 107.458C212.546 107.584 212.916 107.761 213.221 107.99C213.525 108.215 213.757 108.481 213.917 108.786C214.079 109.087 214.16 109.415 214.16 109.77V115H211.595V113.926H211.535C211.383 114.211 211.197 114.442 210.978 114.617C210.763 114.793 210.516 114.92 210.238 115C209.962 115.08 209.659 115.119 209.328 115.119ZM210.223 113.389C210.431 113.389 210.627 113.346 210.809 113.26C210.995 113.174 211.146 113.049 211.262 112.887C211.378 112.725 211.436 112.527 211.436 112.295V111.659C211.363 111.689 211.285 111.717 211.202 111.744C211.123 111.77 211.036 111.795 210.944 111.818C210.854 111.841 210.758 111.863 210.655 111.883C210.556 111.903 210.451 111.921 210.342 111.938C210.13 111.971 209.956 112.025 209.82 112.102C209.687 112.174 209.588 112.266 209.522 112.375C209.459 112.481 209.427 112.6 209.427 112.733C209.427 112.945 209.502 113.107 209.651 113.22C209.8 113.333 209.991 113.389 210.223 113.389ZM223.709 108C223.683 107.669 223.559 107.41 223.336 107.224C223.118 107.039 222.785 106.946 222.337 106.946C222.052 106.946 221.818 106.981 221.636 107.05C221.457 107.117 221.325 107.208 221.238 107.324C221.152 107.44 221.108 107.572 221.104 107.722C221.098 107.844 221.119 107.955 221.169 108.055C221.222 108.151 221.305 108.239 221.417 108.318C221.53 108.394 221.674 108.464 221.85 108.527C222.026 108.59 222.234 108.646 222.476 108.696L223.312 108.875C223.875 108.994 224.357 109.152 224.758 109.347C225.159 109.543 225.488 109.773 225.743 110.038C225.998 110.3 226.185 110.595 226.305 110.923C226.427 111.251 226.49 111.609 226.493 111.997C226.49 112.667 226.323 113.233 225.991 113.697C225.66 114.161 225.186 114.514 224.569 114.756C223.956 114.998 223.219 115.119 222.357 115.119C221.472 115.119 220.7 114.988 220.04 114.727C219.384 114.465 218.874 114.062 218.509 113.518C218.148 112.972 217.965 112.272 217.962 111.42H220.587C220.604 111.732 220.682 111.994 220.821 112.206C220.96 112.418 221.156 112.579 221.407 112.688C221.663 112.798 221.966 112.852 222.317 112.852C222.612 112.852 222.859 112.816 223.058 112.743C223.257 112.67 223.408 112.569 223.51 112.44C223.613 112.31 223.666 112.163 223.67 111.997C223.666 111.841 223.615 111.705 223.515 111.589C223.419 111.47 223.26 111.364 223.038 111.271C222.816 111.175 222.516 111.086 222.138 111.003L221.124 110.784C220.223 110.589 219.512 110.262 218.991 109.805C218.474 109.344 218.217 108.716 218.221 107.92C218.217 107.274 218.39 106.709 218.738 106.225C219.089 105.738 219.575 105.358 220.194 105.087C220.818 104.815 221.532 104.679 222.337 104.679C223.159 104.679 223.87 104.817 224.47 105.092C225.07 105.367 225.532 105.754 225.857 106.255C226.185 106.752 226.351 107.334 226.354 108H223.709ZM231.244 115.139C230.428 115.139 229.726 114.983 229.136 114.672C228.549 114.357 228.097 113.906 227.779 113.32C227.464 112.73 227.306 112.024 227.306 111.202C227.306 110.413 227.465 109.723 227.784 109.134C228.102 108.544 228.551 108.085 229.131 107.756C229.711 107.428 230.395 107.264 231.184 107.264C231.761 107.264 232.283 107.354 232.75 107.533C233.218 107.712 233.617 107.972 233.948 108.313C234.28 108.651 234.535 109.062 234.714 109.546C234.893 110.03 234.982 110.575 234.982 111.182V111.818H228.161V110.307H232.457C232.454 110.088 232.397 109.896 232.288 109.73C232.182 109.561 232.038 109.43 231.855 109.337C231.676 109.241 231.472 109.193 231.244 109.193C231.022 109.193 230.818 109.241 230.632 109.337C230.447 109.43 230.298 109.559 230.185 109.725C230.075 109.891 230.017 110.085 230.011 110.307V111.938C230.011 112.183 230.062 112.402 230.165 112.594C230.268 112.786 230.415 112.937 230.607 113.046C230.8 113.156 231.032 113.21 231.303 113.21C231.492 113.21 231.665 113.184 231.82 113.131C231.98 113.078 232.115 113.001 232.228 112.902C232.341 112.799 232.424 112.677 232.477 112.534H234.982C234.896 113.064 234.692 113.525 234.371 113.916C234.049 114.304 233.624 114.606 233.093 114.821C232.566 115.033 231.95 115.139 231.244 115.139ZM236.102 115V107.364H238.767V108.815H238.847C238.986 108.278 239.206 107.886 239.508 107.637C239.813 107.388 240.169 107.264 240.577 107.264C240.696 107.264 240.814 107.274 240.93 107.294C241.049 107.311 241.163 107.335 241.273 107.369V109.71C241.137 109.664 240.969 109.629 240.771 109.606C240.572 109.583 240.401 109.571 240.259 109.571C239.99 109.571 239.748 109.632 239.533 109.755C239.321 109.874 239.153 110.043 239.031 110.262C238.908 110.478 238.847 110.731 238.847 111.023V115H236.102ZM249.913 111.659V107.364H252.658V115H250.053V113.548H249.973C249.807 114.036 249.517 114.417 249.103 114.692C248.689 114.964 248.196 115.099 247.626 115.099C247.093 115.099 246.625 114.977 246.224 114.732C245.827 114.486 245.517 114.148 245.295 113.717C245.076 113.286 244.965 112.793 244.962 112.236V107.364H247.706V111.659C247.709 112.037 247.805 112.334 247.994 112.549C248.187 112.764 248.455 112.872 248.8 112.872C249.028 112.872 249.226 112.824 249.391 112.728C249.56 112.629 249.69 112.489 249.779 112.31C249.872 112.128 249.917 111.911 249.913 111.659ZM256.798 110.705V115H254.053V107.364H256.659V108.815H256.738C256.904 108.331 257.195 107.952 257.613 107.677C258.034 107.402 258.525 107.264 259.085 107.264C259.625 107.264 260.094 107.388 260.492 107.637C260.893 107.882 261.203 108.22 261.421 108.651C261.643 109.082 261.753 109.574 261.749 110.128V115H259.005V110.705C259.008 110.327 258.912 110.03 258.717 109.815C258.525 109.599 258.256 109.491 257.911 109.491C257.686 109.491 257.489 109.541 257.32 109.641C257.154 109.737 257.026 109.876 256.937 110.058C256.847 110.237 256.801 110.453 256.798 110.705ZM275.359 108.636H272.555C272.535 108.404 272.482 108.194 272.396 108.005C272.313 107.816 272.197 107.654 272.048 107.518C271.902 107.379 271.725 107.272 271.516 107.2C271.307 107.123 271.07 107.085 270.805 107.085C270.341 107.085 269.948 107.198 269.627 107.423C269.309 107.649 269.067 107.972 268.901 108.393C268.739 108.814 268.657 109.319 268.657 109.909C268.657 110.532 268.74 111.054 268.906 111.475C269.075 111.893 269.319 112.208 269.637 112.42C269.955 112.629 270.338 112.733 270.785 112.733C271.041 112.733 271.269 112.701 271.471 112.638C271.674 112.572 271.849 112.478 271.998 112.355C272.148 112.232 272.269 112.085 272.361 111.913C272.457 111.737 272.522 111.54 272.555 111.321L275.359 111.341C275.326 111.772 275.205 112.211 274.996 112.658C274.787 113.103 274.491 113.513 274.106 113.891C273.725 114.266 273.253 114.567 272.689 114.796C272.126 115.025 271.471 115.139 270.726 115.139C269.791 115.139 268.952 114.939 268.21 114.538C267.471 114.137 266.886 113.547 266.455 112.768C266.028 111.989 265.814 111.036 265.814 109.909C265.814 108.776 266.032 107.821 266.47 107.045C266.907 106.267 267.497 105.678 268.24 105.281C268.982 104.879 269.811 104.679 270.726 104.679C271.369 104.679 271.96 104.767 272.501 104.942C273.041 105.118 273.515 105.375 273.922 105.713C274.33 106.048 274.658 106.46 274.907 106.951C275.155 107.442 275.306 108.003 275.359 108.636ZM276.653 115V107.364H279.318V108.815H279.397C279.537 108.278 279.757 107.886 280.059 107.637C280.364 107.388 280.72 107.264 281.127 107.264C281.247 107.264 281.364 107.274 281.48 107.294C281.6 107.311 281.714 107.335 281.824 107.369V109.71C281.688 109.664 281.52 109.629 281.321 109.606C281.123 109.583 280.952 109.571 280.809 109.571C280.541 109.571 280.299 109.632 280.083 109.755C279.871 109.874 279.704 110.043 279.581 110.262C279.459 110.478 279.397 110.731 279.397 111.023V115H276.653ZM282.723 115V107.364H285.468V115H282.723ZM284.096 106.568C283.724 106.568 283.406 106.446 283.141 106.2C282.876 105.955 282.743 105.66 282.743 105.315C282.743 104.971 282.876 104.676 283.141 104.43C283.406 104.185 283.724 104.062 284.096 104.062C284.47 104.062 284.788 104.185 285.05 104.43C285.315 104.676 285.448 104.971 285.448 105.315C285.448 105.66 285.315 105.955 285.05 106.2C284.788 106.446 284.47 106.568 284.096 106.568ZM293.846 109.849H291.32C291.307 109.694 291.253 109.559 291.156 109.447C291.06 109.334 290.936 109.248 290.784 109.188C290.634 109.125 290.469 109.094 290.286 109.094C290.051 109.094 289.849 109.137 289.68 109.223C289.511 109.309 289.428 109.432 289.431 109.591C289.428 109.704 289.476 109.808 289.575 109.904C289.678 110 289.875 110.075 290.167 110.128L291.718 110.406C292.5 110.549 293.082 110.789 293.463 111.127C293.848 111.462 294.042 111.911 294.045 112.474C294.042 113.018 293.879 113.49 293.558 113.891C293.24 114.289 292.804 114.597 292.25 114.816C291.7 115.031 291.072 115.139 290.366 115.139C289.199 115.139 288.286 114.901 287.627 114.423C286.97 113.946 286.604 113.316 286.528 112.534H289.252C289.289 112.776 289.408 112.963 289.61 113.096C289.816 113.225 290.074 113.29 290.386 113.29C290.638 113.29 290.845 113.247 291.007 113.161C291.173 113.074 291.258 112.952 291.261 112.793C291.258 112.647 291.185 112.531 291.042 112.445C290.903 112.358 290.684 112.289 290.386 112.236L289.034 111.997C288.255 111.861 287.671 111.603 287.284 111.222C286.896 110.84 286.704 110.35 286.707 109.75C286.704 109.22 286.843 108.771 287.124 108.403C287.41 108.031 287.816 107.75 288.343 107.558C288.873 107.362 289.501 107.264 290.227 107.264C291.33 107.264 292.2 107.493 292.837 107.95C293.477 108.408 293.813 109.041 293.846 109.849ZM299.65 107.364V109.352H294.619V107.364H299.65ZM295.594 105.534H298.338V112.544C298.338 112.65 298.356 112.74 298.393 112.812C298.429 112.882 298.485 112.935 298.562 112.972C298.638 113.005 298.736 113.021 298.855 113.021C298.938 113.021 299.034 113.011 299.143 112.991C299.256 112.972 299.339 112.955 299.392 112.942L299.79 114.871C299.667 114.907 299.491 114.952 299.263 115.005C299.037 115.058 298.769 115.093 298.457 115.109C297.827 115.143 297.299 115.078 296.871 114.915C296.444 114.75 296.122 114.49 295.907 114.135C295.691 113.78 295.587 113.336 295.594 112.803V105.534ZM300.77 115V107.364H303.515V115H300.77ZM302.142 106.568C301.771 106.568 301.453 106.446 301.188 106.2C300.923 105.955 300.79 105.66 300.79 105.315C300.79 104.971 300.923 104.676 301.188 104.43C301.453 104.185 301.771 104.062 302.142 104.062C302.517 104.062 302.835 104.185 303.097 104.43C303.362 104.676 303.495 104.971 303.495 105.315C303.495 105.66 303.362 105.955 303.097 106.2C302.835 106.446 302.517 106.568 302.142 106.568ZM307.041 115.119C306.553 115.119 306.123 115.04 305.748 114.881C305.377 114.718 305.085 114.473 304.873 114.145C304.661 113.817 304.555 113.399 304.555 112.892C304.555 112.474 304.626 112.118 304.769 111.823C304.911 111.525 305.11 111.281 305.365 111.092C305.62 110.903 305.917 110.759 306.255 110.66C306.597 110.56 306.964 110.496 307.359 110.466C307.786 110.433 308.129 110.393 308.388 110.347C308.65 110.297 308.839 110.229 308.955 110.143C309.071 110.053 309.129 109.936 309.129 109.79V109.77C309.129 109.571 309.052 109.419 308.9 109.312C308.748 109.206 308.552 109.153 308.313 109.153C308.052 109.153 307.838 109.211 307.672 109.327C307.51 109.44 307.412 109.614 307.379 109.849H304.853C304.886 109.385 305.034 108.958 305.296 108.567C305.561 108.172 305.947 107.857 306.454 107.622C306.961 107.384 307.594 107.264 308.353 107.264C308.9 107.264 309.391 107.329 309.825 107.458C310.259 107.584 310.628 107.761 310.933 107.99C311.238 108.215 311.47 108.481 311.629 108.786C311.792 109.087 311.873 109.415 311.873 109.77V115H309.308V113.926H309.248C309.096 114.211 308.91 114.442 308.691 114.617C308.476 114.793 308.229 114.92 307.95 115C307.675 115.08 307.372 115.119 307.041 115.119ZM307.936 113.389C308.144 113.389 308.34 113.346 308.522 113.26C308.708 113.174 308.859 113.049 308.975 112.887C309.091 112.725 309.149 112.527 309.149 112.295V111.659C309.076 111.689 308.998 111.717 308.915 111.744C308.835 111.77 308.749 111.795 308.656 111.818C308.567 111.841 308.471 111.863 308.368 111.883C308.269 111.903 308.164 111.921 308.055 111.938C307.843 111.971 307.669 112.025 307.533 112.102C307.4 112.174 307.301 112.266 307.235 112.375C307.172 112.481 307.14 112.6 307.14 112.733C307.14 112.945 307.215 113.107 307.364 113.22C307.513 113.333 307.704 113.389 307.936 113.389ZM315.929 110.705V115H313.184V107.364H315.789V108.815H315.869C316.035 108.331 316.326 107.952 316.744 107.677C317.165 107.402 317.655 107.264 318.216 107.264C318.756 107.264 319.225 107.388 319.623 107.637C320.024 107.882 320.333 108.22 320.552 108.651C320.774 109.082 320.884 109.574 320.88 110.128V115H318.136V110.705C318.139 110.327 318.043 110.03 317.848 109.815C317.655 109.599 317.387 109.491 317.042 109.491C316.817 109.491 316.62 109.541 316.451 109.641C316.285 109.737 316.157 109.876 316.068 110.058C315.978 110.237 315.932 110.453 315.929 110.705ZM325.914 115.139C325.085 115.139 324.376 114.975 323.786 114.647C323.196 114.316 322.744 113.855 322.429 113.265C322.114 112.672 321.957 111.984 321.957 111.202C321.957 110.42 322.114 109.733 322.429 109.143C322.744 108.55 323.196 108.089 323.786 107.761C324.376 107.43 325.085 107.264 325.914 107.264C326.743 107.264 327.452 107.43 328.042 107.761C328.632 108.089 329.084 108.55 329.399 109.143C329.714 109.733 329.871 110.42 329.871 111.202C329.871 111.984 329.714 112.672 329.399 113.265C329.084 113.855 328.632 114.316 328.042 114.647C327.452 114.975 326.743 115.139 325.914 115.139ZM325.934 113.111C326.166 113.111 326.366 113.033 326.536 112.877C326.705 112.721 326.835 112.499 326.928 112.211C327.021 111.923 327.067 111.58 327.067 111.182C327.067 110.781 327.021 110.438 326.928 110.153C326.835 109.864 326.705 109.642 326.536 109.487C326.366 109.331 326.166 109.253 325.934 109.253C325.689 109.253 325.478 109.331 325.303 109.487C325.127 109.642 324.993 109.864 324.9 110.153C324.807 110.438 324.761 110.781 324.761 111.182C324.761 111.58 324.807 111.923 324.9 112.211C324.993 112.499 325.127 112.721 325.303 112.877C325.478 113.033 325.689 113.111 325.934 113.111ZM58.2685 125.179C58.2254 125.003 58.1574 124.849 58.0646 124.717C57.9718 124.581 57.8558 124.466 57.7166 124.374C57.5807 124.277 57.4216 124.206 57.2393 124.16C57.0604 124.11 56.8632 124.085 56.6477 124.085C56.1837 124.085 55.7876 124.196 55.4595 124.418C55.1347 124.64 54.8861 124.96 54.7138 125.378C54.5447 125.795 54.4602 126.299 54.4602 126.889C54.4602 127.486 54.5414 127.996 54.7038 128.42C54.8662 128.845 55.1082 129.17 55.4297 129.395C55.7512 129.62 56.1506 129.733 56.6278 129.733C57.0488 129.733 57.3984 129.672 57.6768 129.549C57.9586 129.426 58.169 129.252 58.3082 129.027C58.4474 128.802 58.517 128.536 58.517 128.232L58.9943 128.281H56.6676V126.312H61.1818V127.724C61.1818 128.652 60.9846 129.446 60.5902 130.106C60.1991 130.762 59.6589 131.266 58.9695 131.617C58.2834 131.965 57.4962 132.139 56.608 132.139C55.617 132.139 54.7469 131.929 53.9979 131.508C53.2488 131.087 52.6638 130.487 52.2429 129.708C51.8253 128.929 51.6165 128.003 51.6165 126.929C51.6165 126.087 51.7441 125.341 51.9993 124.692C52.2578 124.042 52.6158 123.494 53.0732 123.046C53.5305 122.595 54.0592 122.256 54.6591 122.027C55.259 121.795 55.902 121.679 56.5881 121.679C57.1913 121.679 57.7514 121.765 58.2685 121.938C58.7888 122.107 59.2479 122.348 59.6456 122.663C60.0466 122.975 60.3698 123.344 60.6151 123.772C60.8603 124.2 61.0095 124.669 61.0625 125.179H58.2685ZM65.2548 121.818V132H62.5105V121.818H65.2548ZM70.332 132.139C69.5034 132.139 68.7942 131.975 68.2042 131.647C67.6142 131.316 67.1618 130.855 66.8469 130.265C66.5321 129.672 66.3746 128.984 66.3746 128.202C66.3746 127.42 66.5321 126.733 66.8469 126.143C67.1618 125.55 67.6142 125.089 68.2042 124.761C68.7942 124.43 69.5034 124.264 70.332 124.264C71.1606 124.264 71.8699 124.43 72.4599 124.761C73.0498 125.089 73.5022 125.55 73.8171 126.143C74.132 126.733 74.2894 127.42 74.2894 128.202C74.2894 128.984 74.132 129.672 73.8171 130.265C73.5022 130.855 73.0498 131.316 72.4599 131.647C71.8699 131.975 71.1606 132.139 70.332 132.139ZM70.3519 130.111C70.5839 130.111 70.7844 130.033 70.9535 129.877C71.1225 129.721 71.2534 129.499 71.3462 129.211C71.439 128.923 71.4854 128.58 71.4854 128.182C71.4854 127.781 71.439 127.438 71.3462 127.153C71.2534 126.864 71.1225 126.642 70.9535 126.487C70.7844 126.331 70.5839 126.253 70.3519 126.253C70.1067 126.253 69.8962 126.331 69.7205 126.487C69.5449 126.642 69.4106 126.864 69.3178 127.153C69.225 127.438 69.1786 127.781 69.1786 128.182C69.1786 128.58 69.225 128.923 69.3178 129.211C69.4106 129.499 69.5449 129.721 69.7205 129.877C69.8962 130.033 70.1067 130.111 70.3519 130.111ZM75.3633 132V121.818H78.1076V125.696H78.1474C78.2468 125.437 78.3926 125.201 78.5849 124.985C78.7771 124.766 79.0157 124.592 79.3008 124.463C79.5858 124.33 79.9173 124.264 80.2951 124.264C80.7989 124.264 81.2778 124.398 81.7319 124.667C82.1893 124.935 82.5605 125.358 82.8455 125.935C83.1339 126.511 83.2781 127.26 83.2781 128.182C83.2781 129.063 83.1405 129.794 82.8654 130.374C82.5936 130.954 82.229 131.387 81.7717 131.672C81.3176 131.957 80.8188 132.099 80.2752 132.099C79.9173 132.099 79.5974 132.041 79.3157 131.925C79.0373 131.806 78.7987 131.645 78.5998 131.443C78.4042 131.238 78.2534 131.006 78.1474 130.747H78.0877V132H75.3633ZM78.0479 128.182C78.0479 128.553 78.096 128.875 78.1921 129.146C78.2915 129.415 78.4308 129.624 78.6097 129.773C78.792 129.919 79.0091 129.991 79.261 129.991C79.5129 129.991 79.7267 129.92 79.9023 129.778C80.0813 129.632 80.2172 129.425 80.31 129.156C80.4061 128.884 80.4542 128.56 80.4542 128.182C80.4542 127.804 80.4061 127.481 80.31 127.212C80.2172 126.941 80.0813 126.733 79.9023 126.591C79.7267 126.445 79.5129 126.372 79.261 126.372C79.0091 126.372 78.792 126.445 78.6097 126.591C78.4308 126.733 78.2915 126.941 78.1921 127.212C78.096 127.481 78.0479 127.804 78.0479 128.182ZM86.5543 132.119C86.0671 132.119 85.6362 132.04 85.2617 131.881C84.8905 131.718 84.5988 131.473 84.3867 131.145C84.1746 130.817 84.0685 130.399 84.0685 129.892C84.0685 129.474 84.1398 129.118 84.2823 128.823C84.4248 128.525 84.6237 128.281 84.8789 128.092C85.1341 127.903 85.4308 127.759 85.7688 127.66C86.1102 127.56 86.4781 127.496 86.8725 127.466C87.3001 127.433 87.6431 127.393 87.9016 127.347C88.1635 127.297 88.3524 127.229 88.4684 127.143C88.5844 127.053 88.6424 126.936 88.6424 126.79V126.77C88.6424 126.571 88.5662 126.419 88.4137 126.312C88.2612 126.206 88.0657 126.153 87.8271 126.153C87.5652 126.153 87.3514 126.211 87.1857 126.327C87.0233 126.44 86.9255 126.614 86.8924 126.849H84.3668C84.4 126.385 84.5475 125.958 84.8093 125.567C85.0745 125.172 85.4606 124.857 85.9677 124.622C86.4748 124.384 87.1078 124.264 87.8668 124.264C88.4137 124.264 88.9042 124.329 89.3384 124.458C89.7726 124.584 90.1422 124.761 90.4471 124.99C90.752 125.215 90.984 125.481 91.1431 125.786C91.3055 126.087 91.3867 126.415 91.3867 126.77V132H88.8214V130.926H88.7617C88.6093 131.211 88.4237 131.442 88.2049 131.617C87.9895 131.793 87.7425 131.92 87.4641 132C87.189 132.08 86.8858 132.119 86.5543 132.119ZM87.4492 130.389C87.658 130.389 87.8536 130.346 88.0359 130.26C88.2215 130.174 88.3723 130.049 88.4883 129.887C88.6043 129.725 88.6623 129.527 88.6623 129.295V128.659C88.5894 128.689 88.5115 128.717 88.4286 128.744C88.3491 128.77 88.2629 128.795 88.1701 128.818C88.0806 128.841 87.9845 128.863 87.8817 128.883C87.7823 128.903 87.6779 128.921 87.5685 128.938C87.3564 128.971 87.1824 129.025 87.0465 129.102C86.9139 129.174 86.8145 129.266 86.7482 129.375C86.6853 129.481 86.6538 129.6 86.6538 129.733C86.6538 129.945 86.7283 130.107 86.8775 130.22C87.0266 130.333 87.2172 130.389 87.4492 130.389ZM95.4423 121.818V132H92.698V121.818H95.4423ZM100.022 121.818L99.7638 128.818H97.4968L97.2383 121.818H100.022ZM98.6303 132.159C98.2459 132.159 97.9161 132.025 97.641 131.756C97.3692 131.485 97.235 131.155 97.2383 130.767C97.235 130.389 97.3692 130.066 97.641 129.798C97.9161 129.529 98.2459 129.395 98.6303 129.395C98.9949 129.395 99.3164 129.529 99.5948 129.798C99.8765 130.066 100.019 130.389 100.022 130.767C100.019 131.026 99.9511 131.261 99.8185 131.473C99.6893 131.682 99.5202 131.849 99.3114 131.975C99.1026 132.098 98.8756 132.159 98.6303 132.159Z" fill="black"/>
<path d="M131.787 107.364V109.352H126.756V107.364H131.787ZM127.73 105.534H130.475V112.544C130.475 112.65 130.493 112.74 130.529 112.812C130.566 112.882 130.622 112.935 130.698 112.972C130.775 113.005 130.872 113.021 130.992 113.021C131.075 113.021 131.171 113.011 131.28 112.991C131.393 112.972 131.476 112.955 131.529 112.942L131.926 114.871C131.804 114.907 131.628 114.952 131.399 115.005C131.174 115.058 130.905 115.093 130.594 115.109C129.964 115.143 129.436 115.078 129.008 114.915C128.58 114.75 128.259 114.49 128.044 114.135C127.828 113.78 127.724 113.336 127.73 112.803V105.534ZM137.859 111.659V107.364H140.603V115H137.998V113.548H137.918C137.753 114.036 137.463 114.417 137.048 114.692C136.634 114.964 136.142 115.099 135.572 115.099C135.038 115.099 134.571 114.977 134.17 114.732C133.772 114.486 133.462 114.148 133.24 113.717C133.021 113.286 132.91 112.793 132.907 112.236V107.364H135.651V111.659C135.655 112.037 135.751 112.334 135.94 112.549C136.132 112.764 136.4 112.872 136.745 112.872C136.974 112.872 137.171 112.824 137.337 112.728C137.506 112.629 137.635 112.489 137.724 112.31C137.817 112.128 137.862 111.911 137.859 111.659ZM135.85 106.409L136.805 104.182H139.151L137.66 106.409H135.85ZM144.748 115V104.818H147.512V112.773H151.629V115H144.748ZM155.53 104.818V115H152.786V104.818H155.53ZM159.056 115.119C158.569 115.119 158.138 115.04 157.764 114.881C157.392 114.718 157.101 114.473 156.889 114.145C156.677 113.817 156.57 113.399 156.57 112.892C156.57 112.474 156.642 112.118 156.784 111.823C156.927 111.525 157.126 111.281 157.381 111.092C157.636 110.903 157.933 110.759 158.271 110.66C158.612 110.56 158.98 110.496 159.374 110.466C159.802 110.433 160.145 110.393 160.404 110.347C160.665 110.297 160.854 110.229 160.97 110.143C161.086 110.053 161.144 109.936 161.144 109.79V109.77C161.144 109.571 161.068 109.419 160.916 109.312C160.763 109.206 160.568 109.153 160.329 109.153C160.067 109.153 159.853 109.211 159.688 109.327C159.525 109.44 159.427 109.614 159.394 109.849H156.869C156.902 109.385 157.049 108.958 157.311 108.567C157.576 108.172 157.963 107.857 158.47 107.622C158.977 107.384 159.61 107.264 160.369 107.264C160.916 107.264 161.406 107.329 161.84 107.458C162.275 107.584 162.644 107.761 162.949 107.99C163.254 108.215 163.486 108.481 163.645 108.786C163.807 109.087 163.889 109.415 163.889 109.77V115H161.323V113.926H161.264C161.111 114.211 160.926 114.442 160.707 114.617C160.491 114.793 160.244 114.92 159.966 115C159.691 115.08 159.388 115.119 159.056 115.119ZM159.951 113.389C160.16 113.389 160.356 113.346 160.538 113.26C160.723 113.174 160.874 113.049 160.99 112.887C161.106 112.725 161.164 112.527 161.164 112.295V111.659C161.091 111.689 161.013 111.717 160.931 111.744C160.851 111.77 160.765 111.795 160.672 111.818C160.583 111.841 160.486 111.863 160.384 111.883C160.284 111.903 160.18 111.921 160.07 111.938C159.858 111.971 159.684 112.025 159.548 112.102C159.416 112.174 159.316 112.266 159.25 112.375C159.187 112.481 159.156 112.6 159.156 112.733C159.156 112.945 159.23 113.107 159.379 113.22C159.529 113.333 159.719 113.389 159.951 113.389ZM165.2 115V107.364H167.805V108.815H167.885C168.044 108.338 168.315 107.96 168.7 107.682C169.084 107.403 169.542 107.264 170.072 107.264C170.609 107.264 171.071 107.407 171.459 107.692C171.847 107.973 172.081 108.348 172.16 108.815H172.24C172.369 108.348 172.644 107.973 173.065 107.692C173.486 107.407 173.98 107.264 174.547 107.264C175.279 107.264 175.872 107.5 176.326 107.97C176.784 108.441 177.012 109.067 177.012 109.849V115H174.268V110.545C174.268 110.211 174.184 109.949 174.015 109.76C173.846 109.568 173.618 109.472 173.333 109.472C173.052 109.472 172.828 109.568 172.662 109.76C172.5 109.949 172.419 110.211 172.419 110.545V115H169.794V110.545C169.794 110.211 169.709 109.949 169.54 109.76C169.371 109.568 169.144 109.472 168.859 109.472C168.67 109.472 168.508 109.515 168.372 109.601C168.236 109.687 168.13 109.811 168.054 109.974C167.981 110.133 167.944 110.323 167.944 110.545V115H165.2ZM180.494 115.119C180.007 115.119 179.576 115.04 179.201 114.881C178.83 114.718 178.538 114.473 178.326 114.145C178.114 113.817 178.008 113.399 178.008 112.892C178.008 112.474 178.079 112.118 178.222 111.823C178.364 111.525 178.563 111.281 178.818 111.092C179.074 110.903 179.37 110.759 179.708 110.66C180.05 110.56 180.418 110.496 180.812 110.466C181.24 110.433 181.583 110.393 181.841 110.347C182.103 110.297 182.292 110.229 182.408 110.143C182.524 110.053 182.582 109.936 182.582 109.79V109.77C182.582 109.571 182.506 109.419 182.353 109.312C182.201 109.206 182.005 109.153 181.767 109.153C181.505 109.153 181.291 109.211 181.125 109.327C180.963 109.44 180.865 109.614 180.832 109.849H178.306C178.339 109.385 178.487 108.958 178.749 108.567C179.014 108.172 179.4 107.857 179.907 107.622C180.414 107.384 181.047 107.264 181.806 107.264C182.353 107.264 182.844 107.329 183.278 107.458C183.712 107.584 184.082 107.761 184.387 107.99C184.691 108.215 184.923 108.481 185.083 108.786C185.245 109.087 185.326 109.415 185.326 109.77V115H182.761V113.926H182.701C182.549 114.211 182.363 114.442 182.144 114.617C181.929 114.793 181.682 114.92 181.404 115C181.128 115.08 180.825 115.119 180.494 115.119ZM181.389 113.389C181.597 113.389 181.793 113.346 181.975 113.26C182.161 113.174 182.312 113.049 182.428 112.887C182.544 112.725 182.602 112.527 182.602 112.295V111.659C182.529 111.689 182.451 111.717 182.368 111.744C182.289 111.77 182.202 111.795 182.11 111.818C182.02 111.841 181.924 111.863 181.821 111.883C181.722 111.903 181.617 111.921 181.508 111.938C181.296 111.971 181.122 112.025 180.986 112.102C180.853 112.174 180.754 112.266 180.688 112.375C180.625 112.481 180.593 112.6 180.593 112.733C180.593 112.945 180.668 113.107 180.817 113.22C180.966 113.333 181.157 113.389 181.389 113.389ZM189.402 115.099C188.858 115.099 188.358 114.957 187.9 114.672C187.446 114.387 187.082 113.954 186.806 113.374C186.535 112.794 186.399 112.063 186.399 111.182C186.399 110.26 186.541 109.511 186.826 108.935C187.115 108.358 187.486 107.935 187.94 107.667C188.397 107.398 188.878 107.264 189.382 107.264C189.76 107.264 190.091 107.33 190.376 107.463C190.661 107.592 190.9 107.766 191.092 107.985C191.284 108.201 191.43 108.437 191.529 108.696H191.569V104.818H194.314V115H191.589V113.747H191.529C191.423 114.006 191.271 114.238 191.072 114.443C190.877 114.645 190.638 114.806 190.356 114.925C190.078 115.041 189.76 115.099 189.402 115.099ZM190.416 112.991C190.668 112.991 190.883 112.919 191.062 112.773C191.244 112.624 191.384 112.415 191.48 112.146C191.579 111.875 191.629 111.553 191.629 111.182C191.629 110.804 191.579 110.481 191.48 110.212C191.384 109.941 191.244 109.733 191.062 109.591C190.883 109.445 190.668 109.372 190.416 109.372C190.164 109.372 189.949 109.445 189.77 109.591C189.594 109.733 189.458 109.941 189.362 110.212C189.269 110.481 189.223 110.804 189.223 111.182C189.223 111.56 189.269 111.884 189.362 112.156C189.458 112.425 189.594 112.632 189.77 112.778C189.949 112.92 190.164 112.991 190.416 112.991ZM199.34 115.139C198.511 115.139 197.802 114.975 197.212 114.647C196.622 114.316 196.17 113.855 195.855 113.265C195.54 112.672 195.382 111.984 195.382 111.202C195.382 110.42 195.54 109.733 195.855 109.143C196.17 108.55 196.622 108.089 197.212 107.761C197.802 107.43 198.511 107.264 199.34 107.264C200.168 107.264 200.878 107.43 201.468 107.761C202.058 108.089 202.51 108.55 202.825 109.143C203.14 109.733 203.297 110.42 203.297 111.202C203.297 111.984 203.14 112.672 202.825 113.265C202.51 113.855 202.058 114.316 201.468 114.647C200.878 114.975 200.168 115.139 199.34 115.139ZM199.36 113.111C199.592 113.111 199.792 113.033 199.961 112.877C200.13 112.721 200.261 112.499 200.354 112.211C200.447 111.923 200.493 111.58 200.493 111.182C200.493 110.781 200.447 110.438 200.354 110.153C200.261 109.864 200.13 109.642 199.961 109.487C199.792 109.331 199.592 109.253 199.36 109.253C199.114 109.253 198.904 109.331 198.728 109.487C198.553 109.642 198.418 109.864 198.326 110.153C198.233 110.438 198.186 110.781 198.186 111.182C198.186 111.58 198.233 111.923 198.326 112.211C198.418 112.499 198.553 112.721 198.728 112.877C198.904 113.033 199.114 113.111 199.36 113.111Z" fill="white"/>
<path d="M75.2273 56.4545H68.8182C68.7727 55.9242 68.6515 55.4432 68.4545 55.0114C68.2652 54.5795 68 54.2083 67.6591 53.8977C67.3258 53.5795 66.9205 53.3371 66.4432 53.1705C65.9659 52.9962 65.4242 52.9091 64.8182 52.9091C63.7576 52.9091 62.8598 53.1667 62.125 53.6818C61.3977 54.197 60.8447 54.9356 60.4659 55.8977C60.0947 56.8598 59.9091 58.0152 59.9091 59.3636C59.9091 60.7879 60.0985 61.9811 60.4773 62.9432C60.8636 63.8977 61.4205 64.6174 62.1477 65.1023C62.875 65.5795 63.75 65.8182 64.7727 65.8182C65.3561 65.8182 65.8788 65.7462 66.3409 65.6023C66.803 65.4508 67.2045 65.2348 67.5455 64.9545C67.8864 64.6742 68.1629 64.3371 68.375 63.9432C68.5947 63.5417 68.7424 63.0909 68.8182 62.5909L75.2273 62.6364C75.1515 63.6212 74.875 64.625 74.3977 65.6477C73.9205 66.6629 73.2424 67.6023 72.3636 68.4659C71.4924 69.322 70.4129 70.0114 69.125 70.5341C67.8371 71.0568 66.3409 71.3182 64.6364 71.3182C62.5 71.3182 60.5833 70.8598 58.8864 69.9432C57.197 69.0265 55.8598 67.678 54.875 65.8977C53.8977 64.1174 53.4091 61.9394 53.4091 59.3636C53.4091 56.7727 53.9091 54.5909 54.9091 52.8182C55.9091 51.0379 57.2576 49.6932 58.9545 48.7841C60.6515 47.8674 62.5455 47.4091 64.6364 47.4091C66.1061 47.4091 67.4583 47.6098 68.6932 48.0114C69.928 48.4129 71.0114 49 71.9432 49.7727C72.875 50.5379 73.625 51.4811 74.1932 52.6023C74.7614 53.7235 75.1061 55.0076 75.2273 56.4545ZM78.1847 71V53.5455H84.2756V56.8636H84.4574C84.7756 55.6364 85.2794 54.7386 85.9688 54.1705C86.6657 53.6023 87.4801 53.3182 88.4119 53.3182C88.6847 53.3182 88.9536 53.3409 89.2188 53.3864C89.4915 53.4242 89.7528 53.4811 90.0028 53.5568V58.9091C89.6922 58.803 89.3097 58.7235 88.8551 58.6705C88.4006 58.6174 88.0104 58.5909 87.6847 58.5909C87.071 58.5909 86.518 58.7311 86.0256 59.0114C85.5407 59.2841 85.1581 59.6705 84.8778 60.1705C84.5975 60.6629 84.4574 61.2424 84.4574 61.9091V71H78.1847ZM92.0597 71V53.5455H98.3324V71H92.0597ZM95.196 51.7273C94.3475 51.7273 93.6203 51.447 93.0142 50.8864C92.4081 50.3258 92.1051 49.6515 92.1051 48.8636C92.1051 48.0758 92.4081 47.4015 93.0142 46.8409C93.6203 46.2803 94.3475 46 95.196 46C96.0521 46 96.7794 46.2803 97.3778 46.8409C97.9839 47.4015 98.2869 48.0758 98.2869 48.8636C98.2869 49.6515 97.9839 50.3258 97.3778 50.8864C96.7794 51.447 96.0521 51.7273 95.196 51.7273ZM117.483 59.2273H111.71C111.68 58.8712 111.555 58.5644 111.335 58.3068C111.116 58.0492 110.831 57.8523 110.483 57.7159C110.142 57.572 109.763 57.5 109.347 57.5C108.809 57.5 108.347 57.5985 107.96 57.7955C107.574 57.9924 107.384 58.2727 107.392 58.6364C107.384 58.8939 107.494 59.1326 107.722 59.3523C107.956 59.572 108.407 59.7424 109.074 59.8636L112.619 60.5C114.407 60.8258 115.737 61.375 116.608 62.1477C117.487 62.9129 117.93 63.9394 117.938 65.2273C117.93 66.4697 117.559 67.5492 116.824 68.4659C116.097 69.375 115.1 70.0795 113.835 70.5795C112.578 71.072 111.142 71.3182 109.528 71.3182C106.862 71.3182 104.775 70.7727 103.267 69.6818C101.767 68.5909 100.93 67.1515 100.756 65.3636H106.983C107.066 65.9167 107.339 66.3447 107.801 66.6477C108.271 66.9432 108.862 67.0909 109.574 67.0909C110.15 67.0909 110.623 66.9924 110.994 66.7955C111.373 66.5985 111.566 66.3182 111.574 65.9545C111.566 65.6212 111.4 65.3561 111.074 65.1591C110.756 64.9621 110.256 64.803 109.574 64.6818L106.483 64.1364C104.703 63.8258 103.369 63.2348 102.483 62.3636C101.597 61.4924 101.157 60.3712 101.165 59C101.157 57.7879 101.475 56.7614 102.119 55.9205C102.771 55.072 103.699 54.428 104.903 53.9886C106.116 53.5417 107.551 53.3182 109.21 53.3182C111.733 53.3182 113.722 53.8409 115.176 54.8864C116.638 55.9318 117.407 57.3788 117.483 59.2273ZM130.75 53.5455V58.0909H119.25V53.5455H130.75ZM121.477 49.3636H127.75V65.3864C127.75 65.6288 127.792 65.8333 127.875 66C127.958 66.1591 128.087 66.2803 128.261 66.3636C128.436 66.4394 128.659 66.4773 128.932 66.4773C129.121 66.4773 129.341 66.4545 129.591 66.4091C129.848 66.3636 130.038 66.3258 130.159 66.2955L131.068 70.7045C130.788 70.7879 130.386 70.8902 129.864 71.0114C129.348 71.1326 128.735 71.2121 128.023 71.25C126.583 71.3258 125.375 71.178 124.398 70.8068C123.42 70.428 122.686 69.8333 122.193 69.0227C121.701 68.2121 121.462 67.197 121.477 65.9773V49.3636ZM133.31 71V53.5455H139.582V71H133.31ZM136.446 51.7273C135.598 51.7273 134.87 51.447 134.264 50.8864C133.658 50.3258 133.355 49.6515 133.355 48.8636C133.355 48.0758 133.658 47.4015 134.264 46.8409C134.87 46.2803 135.598 46 136.446 46C137.302 46 138.029 46.2803 138.628 46.8409C139.234 47.4015 139.537 48.0758 139.537 48.8636C139.537 49.6515 139.234 50.3258 138.628 50.8864C138.029 51.447 137.302 51.7273 136.446 51.7273ZM147.642 71.2727C146.528 71.2727 145.544 71.0909 144.688 70.7273C143.839 70.3561 143.172 69.7955 142.688 69.0455C142.203 68.2955 141.96 67.3409 141.96 66.1818C141.96 65.2273 142.123 64.4129 142.449 63.7386C142.775 63.0568 143.229 62.5 143.812 62.0682C144.396 61.6364 145.074 61.3068 145.847 61.0795C146.627 60.8523 147.468 60.7045 148.369 60.6364C149.347 60.5606 150.131 60.4697 150.722 60.3636C151.32 60.25 151.752 60.0947 152.017 59.8977C152.282 59.6932 152.415 59.4242 152.415 59.0909V59.0455C152.415 58.5909 152.241 58.2424 151.892 58C151.544 57.7576 151.097 57.6364 150.551 57.6364C149.953 57.6364 149.464 57.7689 149.085 58.0341C148.714 58.2917 148.491 58.6894 148.415 59.2273H142.642C142.718 58.1667 143.055 57.1894 143.653 56.2955C144.259 55.3939 145.142 54.6742 146.301 54.1364C147.46 53.5909 148.907 53.3182 150.642 53.3182C151.892 53.3182 153.013 53.4659 154.006 53.7614C154.998 54.0492 155.843 54.4545 156.54 54.9773C157.237 55.4924 157.767 56.0985 158.131 56.7955C158.502 57.4848 158.688 58.2348 158.688 59.0455V71H152.824V68.5455H152.688C152.339 69.197 151.915 69.7235 151.415 70.125C150.922 70.5265 150.358 70.8182 149.722 71C149.093 71.1818 148.4 71.2727 147.642 71.2727ZM149.688 67.3182C150.165 67.3182 150.612 67.2197 151.028 67.0227C151.453 66.8258 151.797 66.5417 152.062 66.1705C152.328 65.7992 152.46 65.3485 152.46 64.8182V63.3636C152.294 63.4318 152.116 63.4962 151.926 63.5568C151.744 63.6174 151.547 63.6742 151.335 63.7273C151.131 63.7803 150.911 63.8295 150.676 63.875C150.449 63.9205 150.21 63.9621 149.96 64C149.475 64.0758 149.078 64.2008 148.767 64.375C148.464 64.5417 148.237 64.75 148.085 65C147.941 65.2424 147.869 65.5152 147.869 65.8182C147.869 66.303 148.04 66.6742 148.381 66.9318C148.722 67.1894 149.157 67.3182 149.688 67.3182ZM167.957 61.1818V71H161.685V53.5455H167.639V56.8636H167.821C168.2 55.7576 168.866 54.8902 169.821 54.2614C170.783 53.6326 171.904 53.3182 173.185 53.3182C174.42 53.3182 175.491 53.6023 176.401 54.1705C177.317 54.7311 178.026 55.5038 178.526 56.4886C179.033 57.4735 179.283 58.5985 179.276 59.8636V71H173.003V61.1818C173.01 60.3182 172.791 59.6402 172.344 59.1477C171.904 58.6553 171.291 58.4091 170.503 58.4091C169.988 58.4091 169.537 58.5227 169.151 58.75C168.772 58.9697 168.48 59.2879 168.276 59.7045C168.071 60.1136 167.965 60.6061 167.957 61.1818ZM190.781 71.3182C188.887 71.3182 187.266 70.9432 185.918 70.1932C184.569 69.4356 183.535 68.3826 182.815 67.0341C182.096 65.678 181.736 64.1061 181.736 62.3182C181.736 60.5303 182.096 58.9621 182.815 57.6136C183.535 56.2576 184.569 55.2045 185.918 54.4545C187.266 53.697 188.887 53.3182 190.781 53.3182C192.675 53.3182 194.296 53.697 195.645 54.4545C196.993 55.2045 198.027 56.2576 198.747 57.6136C199.467 58.9621 199.827 60.5303 199.827 62.3182C199.827 64.1061 199.467 65.678 198.747 67.0341C198.027 68.3826 196.993 69.4356 195.645 70.1932C194.296 70.9432 192.675 71.3182 190.781 71.3182ZM190.827 66.6818C191.357 66.6818 191.815 66.5038 192.202 66.1477C192.588 65.7917 192.887 65.2841 193.099 64.625C193.312 63.9659 193.418 63.1818 193.418 62.2727C193.418 61.3561 193.312 60.572 193.099 59.9205C192.887 59.2614 192.588 58.7538 192.202 58.3977C191.815 58.0417 191.357 57.8636 190.827 57.8636C190.266 57.8636 189.785 58.0417 189.384 58.3977C188.982 58.7538 188.675 59.2614 188.463 59.9205C188.251 60.572 188.145 61.3561 188.145 62.2727C188.145 63.1818 188.251 63.9659 188.463 64.625C188.675 65.2841 188.982 65.7917 189.384 66.1477C189.785 66.5038 190.266 66.6818 190.827 66.6818Z" fill="#66B072"/>
<path d="M68.6136 80.4091C68.5152 80.0076 68.3598 79.6553 68.1477 79.3523C67.9356 79.0417 67.6705 78.7803 67.3523 78.5682C67.0417 78.3485 66.678 78.1856 66.2614 78.0795C65.8523 77.9659 65.4015 77.9091 64.9091 77.9091C63.8485 77.9091 62.9432 78.1629 62.1932 78.6705C61.4508 79.178 60.8826 79.9091 60.4886 80.8636C60.1023 81.8182 59.9091 82.9697 59.9091 84.3182C59.9091 85.6818 60.0947 86.8485 60.4659 87.8182C60.8371 88.7879 61.3902 89.5303 62.125 90.0455C62.8598 90.5606 63.7727 90.8182 64.8636 90.8182C65.8258 90.8182 66.625 90.678 67.2614 90.3977C67.9053 90.1174 68.3864 89.7197 68.7045 89.2045C69.0227 88.6894 69.1818 88.0833 69.1818 87.3864L70.2727 87.5H64.9545V83H75.2727V86.2273C75.2727 88.3485 74.822 90.1629 73.9205 91.6705C73.0265 93.1705 71.7917 94.322 70.2159 95.125C68.6477 95.9205 66.8485 96.3182 64.8182 96.3182C62.553 96.3182 60.5644 95.8371 58.8523 94.875C57.1402 93.9129 55.803 92.5417 54.8409 90.7614C53.8864 88.9811 53.4091 86.8636 53.4091 84.4091C53.4091 82.4848 53.7008 80.7803 54.2841 79.2955C54.875 77.8106 55.6932 76.5568 56.7386 75.5341C57.7841 74.5038 58.9924 73.7273 60.3636 73.2045C61.7348 72.6742 63.2045 72.4091 64.7727 72.4091C66.1515 72.4091 67.4318 72.6061 68.6136 73C69.803 73.3864 70.8523 73.9394 71.7614 74.6591C72.678 75.3712 73.4167 76.2159 73.9773 77.1932C74.5379 78.1705 74.8788 79.2424 75 80.4091H68.6136ZM78.2188 96V72.7273H84.5369V90.9091H93.946V96H78.2188ZM118.139 84.3636C118.139 86.9545 117.635 89.1402 116.628 90.9205C115.62 92.6932 114.26 94.0379 112.548 94.9545C110.836 95.8636 108.927 96.3182 106.821 96.3182C104.7 96.3182 102.783 95.8598 101.071 94.9432C99.3665 94.0189 98.0104 92.6705 97.0028 90.8977C96.0028 89.1174 95.5028 86.9394 95.5028 84.3636C95.5028 81.7727 96.0028 79.5909 97.0028 77.8182C98.0104 76.0379 99.3665 74.6932 101.071 73.7841C102.783 72.8674 104.7 72.4091 106.821 72.4091C108.927 72.4091 110.836 72.8674 112.548 73.7841C114.26 74.6932 115.62 76.0379 116.628 77.8182C117.635 79.5909 118.139 81.7727 118.139 84.3636ZM111.639 84.3636C111.639 82.9697 111.454 81.7955 111.082 80.8409C110.719 79.8788 110.177 79.1515 109.457 78.6591C108.745 78.1591 107.866 77.9091 106.821 77.9091C105.776 77.9091 104.893 78.1591 104.173 78.6591C103.461 79.1515 102.92 79.8788 102.548 80.8409C102.185 81.7955 102.003 82.9697 102.003 84.3636C102.003 85.7576 102.185 86.9356 102.548 87.8977C102.92 88.8523 103.461 89.5795 104.173 90.0795C104.893 90.572 105.776 90.8182 106.821 90.8182C107.866 90.8182 108.745 90.572 109.457 90.0795C110.177 89.5795 110.719 88.8523 111.082 87.8977C111.454 86.9356 111.639 85.7576 111.639 84.3636ZM121.062 96V72.7273H131.153C132.926 72.7273 134.415 72.9659 135.619 73.4432C136.831 73.9205 137.744 74.5947 138.358 75.4659C138.979 76.3371 139.29 77.3636 139.29 78.5455C139.29 79.4015 139.1 80.1818 138.722 80.8864C138.35 81.5909 137.828 82.1818 137.153 82.6591C136.479 83.1288 135.691 83.4545 134.79 83.6364V83.8636C135.79 83.9015 136.699 84.1553 137.517 84.625C138.335 85.0871 138.987 85.7273 139.472 86.5455C139.956 87.3561 140.199 88.3106 140.199 89.4091C140.199 90.6818 139.866 91.8144 139.199 92.8068C138.54 93.7992 137.6 94.5795 136.381 95.1477C135.161 95.7159 133.706 96 132.017 96H121.062ZM127.381 90.9545H130.335C131.396 90.9545 132.191 90.7576 132.722 90.3636C133.252 89.9621 133.517 89.3712 133.517 88.5909C133.517 88.0455 133.392 87.5833 133.142 87.2045C132.892 86.8258 132.536 86.5379 132.074 86.3409C131.619 86.1439 131.07 86.0455 130.426 86.0455H127.381V90.9545ZM127.381 82.1364H129.972C130.525 82.1364 131.013 82.0492 131.438 81.875C131.862 81.7008 132.191 81.4508 132.426 81.125C132.669 80.7917 132.79 80.3864 132.79 79.9091C132.79 79.1894 132.532 78.6402 132.017 78.2614C131.502 77.875 130.85 77.6818 130.062 77.6818H127.381V82.1364ZM148.483 96H141.665L149.347 72.7273H157.983L165.665 96H158.847L153.756 79.1364H153.574L148.483 96ZM147.21 86.8182H160.028V91.5455H147.21V86.8182ZM167.906 96V72.7273H174.224V90.9091H183.634V96H167.906Z" fill="#00536E"/>
<path d="M108.039 132V122.545H109.465V130.772H113.749V132H108.039ZM116.646 122.545V132H115.266V122.545H116.646ZM121.559 132.143C120.861 132.143 120.259 131.994 119.754 131.695C119.253 131.394 118.865 130.971 118.591 130.426C118.32 129.878 118.185 129.236 118.185 128.501C118.185 127.774 118.32 127.134 118.591 126.58C118.865 126.026 119.246 125.594 119.736 125.283C120.228 124.972 120.804 124.817 121.462 124.817C121.862 124.817 122.25 124.883 122.626 125.015C123.001 125.148 123.338 125.355 123.637 125.638C123.935 125.922 124.171 126.289 124.343 126.742C124.515 127.191 124.601 127.737 124.601 128.381V128.87H118.965V127.836H123.249C123.249 127.473 123.175 127.151 123.027 126.871C122.88 126.588 122.672 126.365 122.404 126.202C122.139 126.039 121.829 125.957 121.472 125.957C121.084 125.957 120.745 126.052 120.456 126.243C120.17 126.431 119.948 126.677 119.791 126.982C119.637 127.283 119.56 127.611 119.56 127.965V128.773C119.56 129.247 119.643 129.65 119.81 129.983C119.979 130.315 120.214 130.569 120.516 130.744C120.818 130.917 121.17 131.003 121.573 131.003C121.835 131.003 122.073 130.966 122.289 130.892C122.504 130.815 122.69 130.701 122.847 130.55C123.004 130.4 123.124 130.213 123.207 129.992L124.514 130.227C124.409 130.612 124.221 130.949 123.951 131.238C123.683 131.525 123.346 131.748 122.94 131.908C122.536 132.065 122.076 132.143 121.559 132.143ZM131.996 124.909L129.425 132H127.947L125.371 124.909H126.853L128.649 130.366H128.723L130.514 124.909H131.996ZM135.154 132.157C134.704 132.157 134.298 132.074 133.935 131.908C133.572 131.738 133.284 131.494 133.072 131.174C132.862 130.854 132.758 130.461 132.758 129.996C132.758 129.596 132.835 129.267 132.988 129.009C133.142 128.75 133.35 128.545 133.612 128.395C133.873 128.244 134.166 128.13 134.489 128.053C134.812 127.976 135.141 127.917 135.477 127.877C135.901 127.828 136.246 127.788 136.511 127.757C136.776 127.724 136.968 127.67 137.088 127.596C137.208 127.522 137.268 127.402 137.268 127.236V127.203C137.268 126.8 137.154 126.488 136.926 126.266C136.702 126.045 136.366 125.934 135.92 125.934C135.455 125.934 135.089 126.037 134.821 126.243C134.557 126.446 134.373 126.673 134.272 126.922L132.975 126.626C133.128 126.196 133.353 125.848 133.649 125.583C133.947 125.315 134.29 125.121 134.678 125.001C135.066 124.878 135.474 124.817 135.901 124.817C136.185 124.817 136.485 124.851 136.802 124.918C137.122 124.983 137.42 125.103 137.697 125.278C137.977 125.454 138.207 125.705 138.385 126.031C138.564 126.354 138.653 126.774 138.653 127.291V132H137.305V131.031H137.249C137.16 131.209 137.026 131.384 136.848 131.557C136.669 131.729 136.44 131.872 136.16 131.986C135.88 132.1 135.544 132.157 135.154 132.157ZM135.454 131.049C135.835 131.049 136.162 130.974 136.432 130.823C136.706 130.672 136.914 130.475 137.056 130.232C137.2 129.986 137.273 129.723 137.273 129.442V128.528C137.223 128.578 137.128 128.624 136.986 128.667C136.848 128.707 136.689 128.742 136.511 128.773C136.332 128.801 136.158 128.827 135.989 128.852C135.82 128.873 135.678 128.892 135.564 128.907C135.297 128.941 135.052 128.998 134.83 129.078C134.612 129.158 134.436 129.273 134.304 129.424C134.175 129.572 134.11 129.769 134.11 130.015C134.11 130.357 134.236 130.615 134.489 130.79C134.741 130.963 135.063 131.049 135.454 131.049ZM146.988 132.143C146.289 132.143 145.688 131.994 145.183 131.695C144.681 131.394 144.293 130.971 144.02 130.426C143.749 129.878 143.613 129.236 143.613 128.501C143.613 127.774 143.749 127.134 144.02 126.58C144.293 126.026 144.675 125.594 145.164 125.283C145.657 124.972 146.232 124.817 146.891 124.817C147.291 124.817 147.679 124.883 148.054 125.015C148.43 125.148 148.767 125.355 149.065 125.638C149.364 125.922 149.599 126.289 149.772 126.742C149.944 127.191 150.03 127.737 150.03 128.381V128.87H144.393V127.836H148.678C148.678 127.473 148.604 127.151 148.456 126.871C148.308 126.588 148.1 126.365 147.833 126.202C147.568 126.039 147.257 125.957 146.9 125.957C146.512 125.957 146.174 126.052 145.885 126.243C145.598 126.431 145.377 126.677 145.22 126.982C145.066 127.283 144.989 127.611 144.989 127.965V128.773C144.989 129.247 145.072 129.65 145.238 129.983C145.408 130.315 145.643 130.569 145.945 130.744C146.246 130.917 146.599 131.003 147.002 131.003C147.263 131.003 147.502 130.966 147.717 130.892C147.933 130.815 148.119 130.701 148.276 130.55C148.433 130.4 148.553 130.213 148.636 129.992L149.942 130.227C149.838 130.612 149.65 130.949 149.379 131.238C149.112 131.525 148.775 131.748 148.368 131.908C147.965 132.065 147.505 132.143 146.988 132.143ZM152.942 122.545V132H151.562V122.545H152.942ZM159.458 132H157.63L160.959 122.545H163.073L166.406 132H164.578L162.053 124.484H161.979L159.458 132ZM159.518 128.293H164.504V129.669H159.518V128.293ZM167.577 132V124.909H169.175V126.114H169.258C169.406 125.708 169.65 125.391 169.992 125.163C170.333 124.932 170.741 124.817 171.215 124.817C171.695 124.817 172.1 124.934 172.429 125.168C172.762 125.398 172.996 125.714 173.131 126.114H173.205C173.362 125.72 173.627 125.406 173.999 125.172C174.374 124.935 174.819 124.817 175.333 124.817C175.986 124.817 176.518 125.023 176.93 125.435C177.343 125.848 177.549 126.449 177.549 127.24V132H175.873V127.499C175.873 127.059 175.756 126.737 175.522 126.534C175.288 126.328 175.002 126.225 174.664 126.225C174.261 126.225 173.945 126.351 173.717 126.603C173.493 126.853 173.38 127.177 173.38 127.577V132H171.741V127.43C171.741 127.063 171.631 126.771 171.409 126.553C171.191 126.334 170.904 126.225 170.55 126.225C170.31 126.225 170.092 126.286 169.895 126.409C169.698 126.529 169.541 126.7 169.424 126.922C169.307 127.14 169.249 127.396 169.249 127.688V132H167.577ZM182.337 132.138C181.645 132.138 181.045 131.986 180.537 131.681C180.029 131.377 179.635 130.951 179.355 130.403C179.078 129.855 178.94 129.215 178.94 128.482C178.94 127.75 179.078 127.108 179.355 126.557C179.635 126.006 180.029 125.578 180.537 125.274C181.045 124.969 181.645 124.817 182.337 124.817C183.03 124.817 183.63 124.969 184.138 125.274C184.646 125.578 185.038 126.006 185.315 126.557C185.595 127.108 185.735 127.75 185.735 128.482C185.735 129.215 185.595 129.855 185.315 130.403C185.038 130.951 184.646 131.377 184.138 131.681C183.63 131.986 183.03 132.138 182.337 132.138ZM182.347 130.8C182.722 130.8 183.036 130.697 183.288 130.49C183.541 130.281 183.729 130.001 183.852 129.65C183.978 129.299 184.041 128.908 184.041 128.478C184.041 128.044 183.978 127.651 183.852 127.3C183.729 126.946 183.541 126.665 183.288 126.456C183.036 126.246 182.722 126.142 182.347 126.142C181.962 126.142 181.642 126.246 181.386 126.456C181.134 126.665 180.945 126.946 180.819 127.3C180.696 127.651 180.634 128.044 180.634 128.478C180.634 128.908 180.696 129.299 180.819 129.65C180.945 130.001 181.134 130.281 181.386 130.49C181.642 130.697 181.962 130.8 182.347 130.8ZM187.154 132V124.909H188.774V126.091H188.848C188.977 125.682 189.199 125.366 189.513 125.145C189.83 124.92 190.191 124.808 190.597 124.808C190.69 124.808 190.793 124.812 190.907 124.821C191.024 124.828 191.121 124.838 191.198 124.854V126.391C191.127 126.366 191.015 126.345 190.861 126.326C190.71 126.305 190.564 126.294 190.422 126.294C190.117 126.294 189.843 126.36 189.6 126.493C189.36 126.622 189.171 126.802 189.032 127.033C188.894 127.263 188.825 127.53 188.825 127.831V132H187.154ZM198.164 132.125C197.607 132.125 197.108 131.982 196.668 131.695C196.228 131.409 195.88 130.994 195.625 130.449C195.369 129.904 195.242 129.242 195.242 128.464C195.242 127.676 195.371 127.011 195.629 126.469C195.891 125.925 196.243 125.514 196.687 125.237C197.13 124.957 197.624 124.817 198.169 124.817C198.584 124.817 198.926 124.888 199.193 125.029C199.461 125.168 199.673 125.335 199.83 125.532C199.987 125.726 200.109 125.909 200.195 126.082H200.264V122.545H201.94V132H200.297V130.883H200.195C200.109 131.055 199.984 131.238 199.821 131.432C199.658 131.623 199.443 131.786 199.175 131.922C198.907 132.057 198.57 132.125 198.164 132.125ZM198.63 130.754C198.984 130.754 199.286 130.658 199.535 130.467C199.784 130.273 199.974 130.004 200.103 129.659C200.232 129.315 200.297 128.913 200.297 128.455C200.297 127.996 200.232 127.597 200.103 127.259C199.977 126.92 199.789 126.657 199.54 126.469C199.293 126.282 198.99 126.188 198.63 126.188C198.258 126.188 197.947 126.285 197.698 126.479C197.448 126.673 197.261 126.94 197.134 127.282C197.008 127.624 196.945 128.014 196.945 128.455C196.945 128.898 197.008 129.293 197.134 129.641C197.264 129.986 197.453 130.258 197.702 130.458C197.955 130.655 198.264 130.754 198.63 130.754ZM206.86 132.138C206.149 132.138 205.535 131.991 205.018 131.695C204.504 131.397 204.109 130.975 203.832 130.43C203.555 129.883 203.416 129.238 203.416 128.496C203.416 127.767 203.555 127.127 203.832 126.576C204.112 126.022 204.503 125.591 205.004 125.283C205.506 124.972 206.095 124.817 206.772 124.817C207.209 124.817 207.622 124.888 208.01 125.029C208.401 125.168 208.745 125.383 209.044 125.675C209.345 125.968 209.582 126.34 209.755 126.793C209.927 127.242 210.013 127.777 210.013 128.399V128.912H204.201V127.785H208.411C208.408 127.465 208.339 127.18 208.204 126.931C208.068 126.679 207.879 126.48 207.636 126.336C207.396 126.191 207.116 126.119 206.796 126.119C206.454 126.119 206.154 126.202 205.895 126.368C205.637 126.531 205.435 126.746 205.291 127.014C205.149 127.279 205.077 127.57 205.074 127.887V128.87C205.074 129.282 205.149 129.636 205.3 129.932C205.451 130.224 205.661 130.449 205.932 130.606C206.203 130.76 206.52 130.837 206.883 130.837C207.126 130.837 207.346 130.803 207.543 130.735C207.74 130.664 207.911 130.561 208.056 130.426C208.2 130.29 208.31 130.123 208.384 129.923L209.944 130.098C209.845 130.51 209.658 130.871 209.381 131.178C209.107 131.483 208.756 131.72 208.328 131.889C207.9 132.055 207.411 132.138 206.86 132.138ZM217.929 132H214.725V122.545H217.994C218.933 122.545 219.739 122.735 220.413 123.113C221.09 123.489 221.61 124.029 221.973 124.734C222.337 125.438 222.518 126.282 222.518 127.263C222.518 128.248 222.335 129.095 221.969 129.803C221.606 130.51 221.081 131.054 220.395 131.432C219.711 131.811 218.89 132 217.929 132ZM216.438 130.518H217.846C218.505 130.518 219.054 130.398 219.494 130.158C219.934 129.915 220.265 129.553 220.487 129.073C220.708 128.59 220.819 127.987 220.819 127.263C220.819 126.54 220.708 125.94 220.487 125.463C220.265 124.983 219.938 124.624 219.504 124.387C219.073 124.147 218.537 124.027 217.897 124.027H216.438V130.518ZM224.072 132V124.909H225.743V132H224.072ZM224.912 123.903C224.647 123.903 224.419 123.815 224.229 123.64C224.038 123.461 223.942 123.247 223.942 122.998C223.942 122.746 224.038 122.532 224.229 122.356C224.419 122.178 224.647 122.088 224.912 122.088C225.18 122.088 225.407 122.178 225.595 122.356C225.786 122.532 225.881 122.746 225.881 122.998C225.881 123.247 225.786 123.461 225.595 123.64C225.407 123.815 225.18 123.903 224.912 123.903ZM230.554 132.138C229.862 132.138 229.262 131.986 228.754 131.681C228.246 131.377 227.852 130.951 227.572 130.403C227.295 129.855 227.157 129.215 227.157 128.482C227.157 127.75 227.295 127.108 227.572 126.557C227.852 126.006 228.246 125.578 228.754 125.274C229.262 124.969 229.862 124.817 230.554 124.817C231.247 124.817 231.847 124.969 232.355 125.274C232.862 125.578 233.255 126.006 233.532 126.557C233.812 127.108 233.952 127.75 233.952 128.482C233.952 129.215 233.812 129.855 233.532 130.403C233.255 130.951 232.862 131.377 232.355 131.681C231.847 131.986 231.247 132.138 230.554 132.138ZM230.563 130.8C230.939 130.8 231.253 130.697 231.505 130.49C231.758 130.281 231.945 130.001 232.068 129.65C232.195 129.299 232.258 128.908 232.258 128.478C232.258 128.044 232.195 127.651 232.068 127.3C231.945 126.946 231.758 126.665 231.505 126.456C231.253 126.246 230.939 126.142 230.563 126.142C230.179 126.142 229.859 126.246 229.603 126.456C229.351 126.665 229.162 126.946 229.035 127.3C228.912 127.651 228.851 128.044 228.851 128.478C228.851 128.908 228.912 129.299 229.035 129.65C229.162 130.001 229.351 130.281 229.603 130.49C229.859 130.697 230.179 130.8 230.563 130.8ZM240.975 126.783L239.451 126.95C239.408 126.796 239.333 126.651 239.225 126.516C239.121 126.38 238.979 126.271 238.8 126.188C238.622 126.105 238.403 126.063 238.145 126.063C237.797 126.063 237.505 126.139 237.268 126.289C237.034 126.44 236.918 126.636 236.922 126.876C236.918 127.082 236.994 127.25 237.148 127.379C237.305 127.508 237.563 127.614 237.923 127.697L239.133 127.956C239.804 128.101 240.302 128.33 240.629 128.644C240.958 128.958 241.124 129.369 241.127 129.876C241.124 130.323 240.993 130.717 240.735 131.058C240.479 131.397 240.124 131.661 239.668 131.852C239.213 132.043 238.69 132.138 238.099 132.138C237.231 132.138 236.532 131.957 236.003 131.594C235.473 131.228 235.158 130.718 235.056 130.066L236.686 129.909C236.76 130.229 236.917 130.47 237.157 130.634C237.397 130.797 237.709 130.878 238.094 130.878C238.491 130.878 238.81 130.797 239.05 130.634C239.293 130.47 239.414 130.269 239.414 130.029C239.414 129.826 239.336 129.658 239.179 129.526C239.025 129.393 238.785 129.292 238.459 129.221L237.249 128.967C236.569 128.825 236.066 128.587 235.74 128.251C235.413 127.913 235.252 127.485 235.255 126.968C235.252 126.531 235.37 126.152 235.61 125.832C235.854 125.509 236.191 125.26 236.621 125.085C237.055 124.906 237.556 124.817 238.122 124.817C238.953 124.817 239.607 124.994 240.084 125.348C240.564 125.702 240.861 126.18 240.975 126.783ZM247.77 132.143C247.321 132.143 246.916 132.063 246.556 131.903C246.199 131.74 245.916 131.5 245.707 131.183C245.5 130.866 245.397 130.475 245.397 130.01C245.397 129.61 245.471 129.279 245.619 129.018C245.767 128.756 245.968 128.547 246.224 128.39C246.479 128.233 246.767 128.114 247.087 128.034C247.41 127.951 247.744 127.891 248.089 127.854C248.504 127.811 248.841 127.773 249.1 127.739C249.358 127.702 249.546 127.647 249.663 127.573C249.783 127.496 249.843 127.377 249.843 127.217V127.19C249.843 126.842 249.74 126.573 249.534 126.382C249.328 126.191 249.031 126.096 248.643 126.096C248.233 126.096 247.909 126.185 247.669 126.363C247.432 126.542 247.272 126.753 247.189 126.996L245.628 126.774C245.751 126.343 245.954 125.983 246.238 125.694C246.521 125.402 246.867 125.183 247.276 125.038C247.686 124.891 248.138 124.817 248.634 124.817C248.975 124.817 249.315 124.857 249.654 124.937C249.992 125.017 250.302 125.149 250.582 125.334C250.862 125.515 251.086 125.763 251.256 126.077C251.428 126.391 251.514 126.783 251.514 127.254V132H249.908V131.026H249.852C249.751 131.223 249.608 131.408 249.423 131.58C249.241 131.749 249.012 131.886 248.735 131.991C248.461 132.092 248.14 132.143 247.77 132.143ZM248.204 130.915C248.54 130.915 248.83 130.849 249.077 130.717C249.323 130.581 249.512 130.403 249.645 130.181C249.78 129.96 249.848 129.718 249.848 129.456V128.621C249.795 128.664 249.706 128.704 249.58 128.741C249.457 128.778 249.318 128.81 249.164 128.838C249.011 128.865 248.858 128.89 248.707 128.912C248.557 128.933 248.426 128.952 248.315 128.967C248.066 129.001 247.843 129.056 247.646 129.133C247.449 129.21 247.293 129.318 247.179 129.456C247.065 129.592 247.009 129.767 247.009 129.983C247.009 130.29 247.121 130.523 247.346 130.68C247.57 130.837 247.856 130.915 248.204 130.915ZM254.866 122.545V132H253.195V122.545H254.866ZM259.883 122.545H261.979L264.785 129.396H264.896L267.703 122.545H269.799V132H268.155V125.505H268.068L265.455 131.972H264.227L261.614 125.491H261.526V132H259.883V122.545ZM276.11 129.018V124.909H277.781V132H276.16V130.74H276.087C275.927 131.137 275.663 131.461 275.297 131.714C274.934 131.966 274.486 132.092 273.954 132.092C273.489 132.092 273.078 131.989 272.721 131.783C272.367 131.574 272.09 131.271 271.89 130.874C271.69 130.473 271.59 129.99 271.59 129.424V124.909H273.261V129.165C273.261 129.615 273.384 129.972 273.631 130.237C273.877 130.501 274.2 130.634 274.6 130.634C274.846 130.634 275.085 130.574 275.316 130.453C275.546 130.333 275.736 130.155 275.883 129.918C276.034 129.678 276.11 129.378 276.11 129.018ZM281.17 127.845V132H279.499V124.909H281.097V126.114H281.18C281.343 125.717 281.603 125.402 281.96 125.168C282.32 124.934 282.765 124.817 283.294 124.817C283.783 124.817 284.21 124.921 284.573 125.131C284.939 125.34 285.222 125.643 285.422 126.04C285.625 126.437 285.725 126.919 285.722 127.485V132H284.051V127.744C284.051 127.27 283.928 126.899 283.682 126.631C283.439 126.363 283.102 126.229 282.671 126.229C282.378 126.229 282.118 126.294 281.891 126.423C281.666 126.549 281.489 126.733 281.36 126.973C281.234 127.213 281.17 127.504 281.17 127.845ZM290.053 132.125C289.496 132.125 288.997 131.982 288.557 131.695C288.117 131.409 287.769 130.994 287.513 130.449C287.258 129.904 287.13 129.242 287.13 128.464C287.13 127.676 287.26 127.011 287.518 126.469C287.78 125.925 288.132 125.514 288.575 125.237C289.018 124.957 289.512 124.817 290.057 124.817C290.473 124.817 290.814 124.888 291.082 125.029C291.35 125.168 291.562 125.335 291.719 125.532C291.876 125.726 291.998 125.909 292.084 126.082H292.153V122.545H293.829V132H292.185V130.883H292.084C291.998 131.055 291.873 131.238 291.71 131.432C291.547 131.623 291.331 131.786 291.064 131.922C290.796 132.057 290.459 132.125 290.053 132.125ZM290.519 130.754C290.873 130.754 291.174 130.658 291.424 130.467C291.673 130.273 291.862 130.004 291.991 129.659C292.121 129.315 292.185 128.913 292.185 128.455C292.185 127.996 292.121 127.597 291.991 127.259C291.865 126.92 291.678 126.657 291.428 126.469C291.182 126.282 290.879 126.188 290.519 126.188C290.146 126.188 289.836 126.285 289.586 126.479C289.337 126.673 289.149 126.94 289.023 127.282C288.897 127.624 288.834 128.014 288.834 128.455C288.834 128.898 288.897 129.293 289.023 129.641C289.152 129.986 289.342 130.258 289.591 130.458C289.843 130.655 290.153 130.754 290.519 130.754ZM298.703 132.138C298.01 132.138 297.41 131.986 296.902 131.681C296.394 131.377 296.001 130.951 295.72 130.403C295.443 129.855 295.305 129.215 295.305 128.482C295.305 127.75 295.443 127.108 295.72 126.557C296.001 126.006 296.394 125.578 296.902 125.274C297.41 124.969 298.01 124.817 298.703 124.817C299.395 124.817 299.995 124.969 300.503 125.274C301.011 125.578 301.403 126.006 301.68 126.557C301.96 127.108 302.1 127.75 302.1 128.482C302.1 129.215 301.96 129.855 301.68 130.403C301.403 130.951 301.011 131.377 300.503 131.681C299.995 131.986 299.395 132.138 298.703 132.138ZM298.712 130.8C299.087 130.8 299.401 130.697 299.654 130.49C299.906 130.281 300.094 130.001 300.217 129.65C300.343 129.299 300.406 128.908 300.406 128.478C300.406 128.044 300.343 127.651 300.217 127.3C300.094 126.946 299.906 126.665 299.654 126.456C299.401 126.246 299.087 126.142 298.712 126.142C298.327 126.142 298.007 126.246 297.752 126.456C297.499 126.665 297.31 126.946 297.184 127.3C297.061 127.651 296.999 128.044 296.999 128.478C296.999 128.908 297.061 129.299 297.184 129.65C297.31 130.001 297.499 130.281 297.752 130.49C298.007 130.697 298.327 130.8 298.712 130.8ZM304.548 132.102C304.268 132.102 304.028 132.003 303.828 131.806C303.628 131.609 303.53 131.369 303.533 131.086C303.53 130.809 303.628 130.572 303.828 130.375C304.028 130.178 304.268 130.08 304.548 130.08C304.819 130.08 305.055 130.178 305.255 130.375C305.458 130.572 305.561 130.809 305.564 131.086C305.561 131.274 305.512 131.444 305.416 131.598C305.324 131.752 305.201 131.875 305.047 131.968C304.896 132.057 304.73 132.102 304.548 132.102Z" fill="black"/>
<rect x="40" y="4" width="59.375" height="30" rx="3" fill="black"/>
<rect x="40.5" y="4.5" width="58.375" height="29" rx="2.5" stroke="white" stroke-opacity="0.0980392"/>
<path d="M51.3438 16C51.2969 15.6042 51.1068 15.2969 50.7734 15.0781C50.4401 14.8594 50.0313 14.75 49.5469 14.75C49.1927 14.75 48.8828 14.8073 48.6172 14.9219C48.3542 15.0365 48.1484 15.194 48 15.3945C47.8542 15.5951 47.7813 15.8229 47.7813 16.0781C47.7813 16.2917 47.832 16.4753 47.9336 16.6289C48.0378 16.7799 48.1706 16.9062 48.332 17.0078C48.4935 17.1068 48.6628 17.1888 48.8398 17.2539C49.0169 17.3164 49.1797 17.3672 49.3281 17.4062L50.1406 17.625C50.349 17.6797 50.5807 17.7552 50.8359 17.8516C51.0938 17.9479 51.3398 18.0794 51.5742 18.2461C51.8112 18.4102 52.0065 18.6211 52.1602 18.8789C52.3138 19.1367 52.3906 19.4531 52.3906 19.8281C52.3906 20.2604 52.2773 20.651 52.0508 21C51.8268 21.349 51.4987 21.6263 51.0664 21.832C50.6367 22.0378 50.1146 22.1406 49.5 22.1406C48.9271 22.1406 48.431 22.0482 48.0117 21.8633C47.5951 21.6784 47.2669 21.4206 47.0273 21.0898C46.7904 20.7591 46.6563 20.375 46.625 19.9375H47.625C47.651 20.2396 47.7526 20.4896 47.9297 20.6875C48.1094 20.8828 48.3359 21.0286 48.6094 21.125C48.8854 21.2187 49.1823 21.2656 49.5 21.2656C49.8698 21.2656 50.2018 21.2057 50.4961 21.0859C50.7904 20.9635 51.0234 20.7943 51.1953 20.5781C51.3672 20.3594 51.4531 20.1042 51.4531 19.8125C51.4531 19.5469 51.3789 19.3307 51.2305 19.1641C51.082 18.9974 50.8867 18.862 50.6445 18.7578C50.4023 18.6536 50.1406 18.5625 49.8594 18.4844L48.875 18.2031C48.25 18.0234 47.7552 17.7669 47.3906 17.4336C47.026 17.1003 46.8438 16.6641 46.8438 16.125C46.8438 15.6771 46.9648 15.2865 47.207 14.9531C47.4518 14.6172 47.7799 14.3568 48.1914 14.1719C48.6055 13.9844 49.0677 13.8906 49.5781 13.8906C50.0938 13.8906 50.5521 13.9831 50.9531 14.168C51.3542 14.3503 51.6719 14.6003 51.9062 14.918C52.1432 15.2357 52.2682 15.5964 52.2813 16H51.3438ZM56.374 22.125C55.7959 22.125 55.2972 21.9974 54.8779 21.7422C54.4613 21.4844 54.1396 21.125 53.9131 20.6641C53.6891 20.2005 53.5771 19.6615 53.5771 19.0469C53.5771 18.4323 53.6891 17.8906 53.9131 17.4219C54.1396 16.9505 54.4548 16.5833 54.8584 16.3203C55.2646 16.0547 55.7386 15.9219 56.2803 15.9219C56.5928 15.9219 56.9014 15.974 57.2061 16.0781C57.5107 16.1823 57.7881 16.3516 58.0381 16.5859C58.2881 16.8177 58.4873 17.125 58.6357 17.5078C58.7842 17.8906 58.8584 18.362 58.8584 18.9219V19.3125H54.2334V18.5156H57.9209C57.9209 18.1771 57.8532 17.875 57.7178 17.6094C57.585 17.3437 57.3949 17.1341 57.1475 16.9805C56.9027 16.8268 56.6136 16.75 56.2803 16.75C55.9131 16.75 55.5954 16.8411 55.3271 17.0234C55.0615 17.2031 54.8571 17.4375 54.7139 17.7266C54.5706 18.0156 54.499 18.3255 54.499 18.6562V19.1875C54.499 19.6406 54.5771 20.0247 54.7334 20.3398C54.8923 20.6523 55.1123 20.8906 55.3936 21.0547C55.6748 21.2161 56.0016 21.2969 56.374 21.2969C56.6162 21.2969 56.835 21.263 57.0303 21.1953C57.2282 21.125 57.3988 21.0208 57.542 20.8828C57.6852 20.7422 57.7959 20.5677 57.874 20.3594L58.7646 20.6094C58.6709 20.9115 58.5133 21.1771 58.292 21.4062C58.0706 21.6328 57.7972 21.8099 57.4717 21.9375C57.1462 22.0625 56.7803 22.125 56.374 22.125ZM62.6982 22.125C62.1357 22.125 61.6514 21.9922 61.2451 21.7266C60.8389 21.4609 60.5264 21.0951 60.3076 20.6289C60.0889 20.1628 59.9795 19.6302 59.9795 19.0312C59.9795 18.4219 60.0915 17.8841 60.3154 17.418C60.542 16.9492 60.8571 16.5833 61.2607 16.3203C61.667 16.0547 62.141 15.9219 62.6826 15.9219C63.1045 15.9219 63.4847 16 63.8232 16.1562C64.1618 16.3125 64.4391 16.5312 64.6553 16.8125C64.8714 17.0937 65.0055 17.4219 65.0576 17.7969H64.1357C64.0654 17.5234 63.9092 17.2812 63.667 17.0703C63.4274 16.8568 63.1045 16.75 62.6982 16.75C62.3389 16.75 62.0238 16.8437 61.7529 17.0312C61.4847 17.2161 61.2751 17.4779 61.124 17.8164C60.9756 18.1523 60.9014 18.5469 60.9014 19C60.9014 19.4635 60.9743 19.8672 61.1201 20.2109C61.2686 20.5547 61.4769 20.8216 61.7451 21.0117C62.016 21.2018 62.3337 21.2969 62.6982 21.2969C62.9378 21.2969 63.1553 21.2552 63.3506 21.1719C63.5459 21.0885 63.7113 20.9688 63.8467 20.8125C63.9821 20.6562 64.0785 20.4687 64.1357 20.25H65.0576C65.0055 20.6042 64.8766 20.9232 64.6709 21.207C64.4678 21.4883 64.1982 21.7122 63.8623 21.8789C63.529 22.043 63.141 22.125 62.6982 22.125ZM69.0146 16V16.7812H65.9053V16H69.0146ZM66.8115 14.5625H67.7334V20.2812C67.7334 20.5417 67.7712 20.737 67.8467 20.8672C67.9248 20.9948 68.0238 21.0807 68.1436 21.125C68.266 21.1667 68.3949 21.1875 68.5303 21.1875C68.6318 21.1875 68.7152 21.1823 68.7803 21.1719C68.8454 21.1589 68.8975 21.1484 68.9365 21.1406L69.124 21.9687C69.0615 21.9922 68.9743 22.0156 68.8623 22.0391C68.7503 22.0651 68.6084 22.0781 68.4365 22.0781C68.1761 22.0781 67.9209 22.0221 67.6709 21.9102C67.4235 21.7982 67.2178 21.6276 67.0537 21.3984C66.8923 21.1693 66.8115 20.8802 66.8115 20.5312V14.5625ZM70.4014 22V16H71.3232V22H70.4014ZM70.8701 15C70.6904 15 70.5355 14.9388 70.4053 14.8164C70.2777 14.694 70.2139 14.5469 70.2139 14.375C70.2139 14.2031 70.2777 14.056 70.4053 13.9336C70.5355 13.8112 70.6904 13.75 70.8701 13.75C71.0498 13.75 71.2035 13.8112 71.3311 13.9336C71.4613 14.056 71.5264 14.2031 71.5264 14.375C71.5264 14.5469 71.4613 14.694 71.3311 14.8164C71.2035 14.9388 71.0498 15 70.8701 15ZM75.4492 22.125C74.9076 22.125 74.4323 21.9961 74.0234 21.7383C73.6172 21.4805 73.2995 21.1198 73.0703 20.6562C72.8438 20.1927 72.7305 19.651 72.7305 19.0312C72.7305 18.4062 72.8438 17.8607 73.0703 17.3945C73.2995 16.9284 73.6172 16.5664 74.0234 16.3086C74.4323 16.0508 74.9076 15.9219 75.4492 15.9219C75.9909 15.9219 76.4648 16.0508 76.8711 16.3086C77.2799 16.5664 77.5977 16.9284 77.8242 17.3945C78.0534 17.8607 78.168 18.4062 78.168 19.0312C78.168 19.651 78.0534 20.1927 77.8242 20.6562C77.5977 21.1198 77.2799 21.4805 76.8711 21.7383C76.4648 21.9961 75.9909 22.125 75.4492 22.125ZM75.4492 21.2969C75.8607 21.2969 76.1992 21.1914 76.4648 20.9805C76.7305 20.7695 76.9271 20.4922 77.0547 20.1484C77.1823 19.8047 77.2461 19.4323 77.2461 19.0312C77.2461 18.6302 77.1823 18.2565 77.0547 17.9102C76.9271 17.5638 76.7305 17.2839 76.4648 17.0703C76.1992 16.8568 75.8607 16.75 75.4492 16.75C75.0378 16.75 74.6992 16.8568 74.4336 17.0703C74.168 17.2839 73.9714 17.5638 73.8438 17.9102C73.7161 18.2565 73.6523 18.6302 73.6523 19.0312C73.6523 19.4323 73.7161 19.8047 73.8438 20.1484C73.9714 20.4922 74.168 20.7695 74.4336 20.9805C74.6992 21.1914 75.0378 21.2969 75.4492 21.2969ZM80.4971 18.3906V22H79.5752V16H80.4658V16.9375H80.5439C80.6846 16.6328 80.8981 16.388 81.1846 16.2031C81.471 16.0156 81.8408 15.9219 82.2939 15.9219C82.7002 15.9219 83.0557 16.0052 83.3604 16.1719C83.665 16.3359 83.902 16.5859 84.0713 16.9219C84.2406 17.2552 84.3252 17.6771 84.3252 18.1875V22H83.4033V18.25C83.4033 17.7786 83.2809 17.4115 83.0361 17.1484C82.7913 16.8828 82.4554 16.75 82.0283 16.75C81.734 16.75 81.471 16.8138 81.2393 16.9414C81.0101 17.069 80.8291 17.2552 80.6963 17.5C80.5635 17.7448 80.4971 18.0417 80.4971 18.3906ZM91.9004 14V22H90.9316V15.0156H90.8848L88.9316 16.3125V15.3281L90.9316 14H91.9004Z" fill="white"/>
</svg>
