<svg width="339" height="146" viewBox="0 0 339 146" fill="none" xmlns="http://www.w3.org/2000/svg">
<g clip-path="url(#clip0_2307_28)">
<path opacity="0.25" d="M245.44 32.6233C241.073 32.5527 237.287 36.1449 237.558 40.5006L241.018 96.1949C241.289 100.551 244.54 103.824 248.9 104.072L260.979 104.759C266.024 109.044 275.733 117.133 277.148 117.133C278.515 117.133 290.198 110.623 296.937 106.807L309.623 107.53C313.983 107.778 316.96 103.982 317.505 99.6527L324.809 41.6522C325.354 37.3225 321.292 33.8455 316.926 33.7751L245.44 32.6233Z" fill="black"/>
<g opacity="0.25">
<path d="M35.4802 65.4049C30.5717 63.1664 28.5225 61.69 28.2366 59.4992C27.9508 57.2131 29.5709 55.9272 32.0966 55.9272C36.5286 56.0224 36.3379 59.404 37.7676 61.4519C39.3879 63.7856 42.3425 63.7855 44.1534 62.3091C47.6799 59.3086 43.8676 52.2122 32.9544 51.6406C26.1398 51.3075 20.2306 52.9266 19.3728 60.2612C18.3244 68.834 29.0467 72.3106 33.6216 74.6444C35.5278 75.6446 37.1004 77.264 36.7668 79.1215C36.3853 81.2647 34.2888 81.5981 32.4303 81.4553C27.3312 81.1216 26.4733 77.883 25.3296 75.5969C23.9476 72.8346 20.2783 73.1205 18.658 74.7875C15.2268 78.3119 21.0884 85.7893 32.5733 85.7893C40.0551 85.7893 45.3924 83.7411 46.2502 77.121C47.0127 71.4534 43.3433 68.9769 35.4802 65.4049Z" fill="black"/>
<path d="M65.0062 52.0217C62.7188 52.0217 51.0909 52.0217 51.0432 52.0217C49.566 52.0217 48.8988 52.4984 48.8035 53.4984C48.7533 54.3557 49.0892 54.9271 50.3284 56.6416C51.1862 57.88 51.2815 59.4516 51.2815 62.7379V74.6445C51.2815 77.9783 51.1863 79.5501 50.3284 80.7407C49.0894 82.4553 48.7558 83.0747 48.8035 83.932C48.8987 84.8845 49.566 85.3606 51.0432 85.3606C51.0934 85.3606 60.6219 85.3606 60.8602 85.3606C62.3375 85.3606 62.9093 84.8843 63.0523 83.932C63.1951 83.0271 62.528 82.1696 61.1937 80.7407C60.4312 79.8835 60.2883 78.6451 60.2883 76.5496V74.3112C61.4797 74.3112 62.1468 74.3112 65.578 74.3112C72.8215 74.3112 77.5394 69.5009 77.5394 63.4999C77.5394 57.4989 74.2513 52.0217 65.0062 52.0217ZM62.8617 69.5008C62.8116 69.5008 62.7188 69.5008 62.6712 69.5008C60.4791 69.5008 60.2884 68.7389 60.2884 66.3575C60.2884 65.2621 60.2884 60.7851 60.2884 59.6421C60.2884 57.2607 60.4789 56.5462 62.6712 56.5462C62.7213 56.5462 62.8141 56.5462 62.8617 56.5462C66.0546 56.5462 67.9608 59.3089 67.9608 63.0238C67.9608 66.691 66.0546 69.5008 62.8617 69.5008Z" fill="black"/>
<path d="M96.7585 51.6407C86.7033 51.6407 79.4598 58.3087 79.4598 68.6913C79.4598 79.1216 86.7033 85.7893 96.7585 85.7893C106.814 85.7893 114.057 79.1216 114.057 68.6913C114.057 58.3087 106.814 51.6407 96.7585 51.6407ZM96.7585 81.5027C92.279 81.5027 89.6579 76.264 89.6579 68.6913C89.6579 61.1663 92.279 55.9273 96.7585 55.9273C101.238 55.9273 103.859 61.1663 103.859 68.6913C103.859 76.264 101.238 81.5027 96.7585 81.5027Z" fill="black"/>
<path d="M127.955 74.6445V62.7379C127.955 59.4516 128.005 57.88 128.86 56.6416C130.099 54.9271 130.48 54.3557 130.385 53.4984C130.335 52.4982 129.67 52.0217 128.193 52.0217C128.098 52.0217 118.805 52.0217 118.71 52.0217C117.232 52.0217 116.565 52.4984 116.47 53.4984C116.42 54.3557 116.756 54.9271 118.043 56.6416C118.9 57.88 118.948 59.4516 118.948 62.7379V74.6445C118.948 77.9783 118.898 79.5501 118.043 80.7407C116.756 82.4553 116.422 83.0747 116.47 83.932C116.565 84.9321 117.232 85.3606 118.71 85.3606C118.805 85.3606 128.098 85.3606 128.193 85.3606C129.67 85.3606 130.338 84.9319 130.385 83.932C130.48 83.0747 130.099 82.4553 128.86 80.7407C128.002 79.5501 127.955 77.9783 127.955 74.6445Z" fill="black"/>
<path d="M159.289 73.5968C157.049 73.5968 156 75.883 155.047 77.6452C154.38 78.9787 152.998 80.8838 149.662 80.8838H149.091C145.802 80.8838 144.802 80.0263 144.802 74.6445V62.7379C144.802 59.4516 144.852 57.88 145.707 56.6416C146.946 54.9271 147.28 54.3557 147.232 53.4984C147.137 52.4982 146.469 52.0217 144.992 52.0217C144.942 52.0217 135.604 52.0217 135.509 52.0217C134.032 52.0217 133.364 52.4984 133.317 53.4984C133.222 54.3557 133.602 54.9271 134.842 56.6416C135.7 57.88 135.747 59.4516 135.747 62.7379V74.6445C135.747 77.9783 135.697 79.5501 134.842 80.7407C133.603 82.4553 133.221 83.0747 133.317 83.932C133.367 84.9321 134.032 85.3606 135.509 85.3606C135.604 85.3606 156.143 85.3606 156.715 85.3606C158.669 85.3606 159.527 84.6938 159.861 82.6458C160.194 80.5978 160.718 77.9785 161.052 75.8829C161.29 74.4065 160.48 73.5968 159.289 73.5968Z" fill="black"/>
<path d="M188.98 73.5968C186.74 73.5968 185.692 75.883 184.739 77.6452C184.072 78.9787 182.69 80.8838 179.401 80.8838H178.782C175.494 80.8838 174.493 80.0263 174.493 74.6445V70.5964C176.066 70.6916 177.257 70.8341 177.924 71.4059C179.163 72.5013 179.401 73.5491 180.45 73.5491C181.736 73.5491 181.737 72.2632 181.737 70.8343C181.737 70.1676 181.737 66.5479 181.737 65.8811C181.737 64.4523 181.736 63.1666 180.45 63.1666C179.401 63.1666 179.163 64.2142 177.924 65.3096C177.257 65.8811 176.066 66.0241 174.493 66.1193V62.7379C174.493 57.5465 175.398 56.5941 178.496 56.4988C181.736 56.5489 183.071 58.4515 183.786 59.7375C184.691 61.4997 185.787 63.8332 187.979 63.8332C189.218 63.8332 189.981 62.9762 189.742 61.4997C189.409 59.4518 188.932 56.7846 188.599 54.7843C188.265 52.7363 187.407 52.0217 185.406 52.0217C184.882 52.0217 165.295 52.0217 165.2 52.0217C163.77 52.0217 163.056 52.4984 163.008 53.4984C162.958 54.3557 163.294 54.9271 164.533 56.6416C165.391 57.88 165.438 59.4516 165.438 62.7379V74.6445C165.438 77.9783 165.388 79.5501 164.533 80.7407C163.294 82.4553 162.96 83.0747 163.008 83.932C163.058 84.9321 163.77 85.3606 165.2 85.3606C165.295 85.3606 185.835 85.3606 186.407 85.3606C188.36 85.3606 189.218 84.6938 189.552 82.6458C189.885 80.5978 190.41 77.9785 190.743 75.8829C190.981 74.4065 190.171 73.5968 188.98 73.5968Z" fill="black"/>
<path d="M220.231 74.6445L218.134 71.1202C221.327 69.2152 223.28 66.0241 223.28 62.4997C223.28 56.9273 219.706 52.0217 210.461 52.0217C207.03 52.0217 195.545 52.0217 195.498 52.0217C194.02 52.0217 193.353 52.4984 193.258 53.4984C193.208 54.3557 193.543 54.9271 194.783 56.6416C195.64 57.88 195.736 59.4516 195.736 62.7379V74.6445C195.736 77.9783 195.64 79.5501 194.783 80.7407C193.544 82.4553 193.21 83.0747 193.258 83.932C193.353 84.8845 194.02 85.3606 195.498 85.3606C198.595 85.3606 204.886 85.3606 204.981 85.3606C206.458 85.3606 207.125 84.8843 207.173 83.932C207.268 83.0747 206.887 82.4553 205.648 80.7407C204.79 79.5501 204.743 77.9783 204.743 74.6445V72.9776C206.22 72.9776 206.792 72.9776 209.079 72.9776L210.08 74.6445C214.369 81.8361 210.985 81.0267 211.414 83.932C211.509 84.8845 212.463 85.3606 213.94 85.3606C215.274 85.3606 224.091 85.3606 224.519 85.3606C225.997 85.3606 226.616 84.8843 226.712 83.932C227.045 81.3601 223.757 80.5978 220.231 74.6445ZM207.65 68.5008C207.554 68.5008 207.173 68.5008 207.125 68.5008C204.933 68.5008 204.743 67.4054 204.743 65.0717C204.743 63.9286 204.743 61.0708 204.743 59.9754C204.743 57.594 204.933 56.5462 207.125 56.5462C207.175 56.5462 207.602 56.5462 207.65 56.5462C210.842 56.5462 213.082 58.7372 213.082 62.4997C213.082 66.3098 210.842 68.5008 207.65 68.5008Z" fill="black"/>
</g>
<path opacity="0.25" d="M253.276 146.181L279.138 82.7397L255.627 82.1522L288.541 15.774H324.396L299.71 61.0052L326.746 63.3549L253.276 146.181Z" fill="black" stroke="black" stroke-width="5.00414" stroke-linecap="round" stroke-linejoin="round"/>
<path d="M242.787 24.6699C238.421 24.5992 234.634 28.1915 234.905 32.5471L238.365 88.2414C238.636 92.597 241.887 95.8705 246.247 96.1186L258.326 96.8058C263.371 101.09 273.08 109.18 274.495 109.18C275.862 109.18 287.545 102.669 294.284 98.8538L306.971 99.5764C311.33 99.8244 314.308 96.029 314.852 91.6992L322.156 33.6987C322.701 29.369 318.639 25.8921 314.273 25.8216L242.787 24.6699Z" fill="#008066"/>
<path d="M32.8274 57.4512C27.9189 55.2127 25.8698 53.7363 25.5838 51.5455C25.2981 49.2594 26.9182 47.9735 29.4439 47.9735C33.8758 48.0687 33.6852 51.4502 35.1148 53.4982C36.7351 55.8319 39.6897 55.8319 41.5006 54.3555C45.0271 51.355 41.2148 44.2586 30.3016 43.687C23.487 43.3539 17.5778 44.973 16.72 52.3075C15.6716 60.8803 26.394 64.3571 30.9688 66.6909C32.8751 67.691 34.4476 69.3103 34.1141 71.1677C33.7326 73.3109 31.636 73.6444 29.7775 73.5015C24.6784 73.1679 23.8206 69.9294 22.6768 67.6433C21.2948 64.881 17.6254 65.1668 16.0051 66.8338C12.574 70.3581 18.4356 77.8355 29.9205 77.8355C37.4023 77.8355 42.7396 75.7875 43.5974 69.1674C44.3599 63.4998 40.6905 61.0232 32.8274 57.4512Z" fill="#333333"/>
<path d="M62.3534 44.0681C60.066 44.0681 48.4382 44.0681 48.3905 44.0681C46.9132 44.0681 46.246 44.5446 46.1507 45.5446C46.1006 46.4018 46.4364 46.9733 47.6756 48.6879C48.5334 49.9262 48.6288 51.4979 48.6288 54.7841V66.6909C48.6288 70.0247 48.5335 71.5964 47.6756 72.787C46.4366 74.5016 46.103 75.1208 46.1507 75.9781C46.2459 76.9306 46.9132 77.4069 48.3905 77.4069C48.4406 77.4069 57.9692 77.4069 58.2074 77.4069C59.6847 77.4069 60.2566 76.9304 60.3995 75.9781C60.5424 75.0731 59.8753 74.2159 58.541 72.787C57.7785 71.9298 57.6355 70.6915 57.6355 68.5959V66.3575C58.8269 66.3575 59.4941 66.3575 62.9253 66.3575C70.1688 66.3575 74.8867 61.5471 74.8867 55.5462C74.8867 49.5452 71.5985 44.0681 62.3534 44.0681ZM60.209 61.5472C60.1588 61.5472 60.0661 61.5472 60.0185 61.5472C57.8263 61.5472 57.6357 60.7851 57.6357 58.4038C57.6357 57.3084 57.6357 52.8314 57.6357 51.6884C57.6357 49.307 57.8262 48.5926 60.0185 48.5926C60.0686 48.5926 60.1613 48.5926 60.209 48.5926C63.4018 48.5926 65.308 51.355 65.308 55.0699C65.308 58.7371 63.4018 61.5472 60.209 61.5472Z" fill="#333333"/>
<path d="M94.1058 43.687C84.0506 43.687 76.807 50.3548 76.807 60.7375C76.807 71.1677 84.0506 77.8355 94.1058 77.8355C104.161 77.8355 111.405 71.1677 111.405 60.7375C111.405 50.3548 104.161 43.687 94.1058 43.687ZM94.1058 73.549C89.6262 73.549 87.0052 68.3101 87.0052 60.7375C87.0052 53.2124 89.6262 47.9734 94.1058 47.9734C98.5854 47.9734 101.206 53.2124 101.206 60.7375C101.206 68.3101 98.5854 73.549 94.1058 73.549Z" fill="#333333"/>
<path d="M125.302 66.6909V54.7841C125.302 51.4979 125.352 49.9262 126.207 48.6879C127.446 46.9733 127.828 46.4018 127.732 45.5446C127.682 44.5444 127.018 44.0681 125.54 44.0681C125.445 44.0681 116.152 44.0681 116.057 44.0681C114.58 44.0681 113.912 44.5446 113.817 45.5446C113.767 46.4018 114.103 46.9733 115.39 48.6879C116.248 49.9262 116.295 51.4979 116.295 54.7841V66.6909C116.295 70.0247 116.245 71.5964 115.39 72.787C114.103 74.5016 113.769 75.1208 113.817 75.9781C113.912 76.9782 114.58 77.4069 116.057 77.4069C116.152 77.4069 125.445 77.4069 125.54 77.4069C127.018 77.4069 127.685 76.978 127.732 75.9781C127.828 75.1208 127.447 74.5016 126.207 72.787C125.35 71.5964 125.302 70.0247 125.302 66.6909Z" fill="#333333"/>
<path d="M156.636 65.6431C154.396 65.6431 153.348 67.9292 152.395 69.6914C151.727 71.0249 150.345 72.9299 147.01 72.9299H146.438C143.15 72.9299 142.149 72.0727 142.149 66.6909V54.7841C142.149 51.4979 142.199 49.9262 143.054 48.6879C144.293 46.9733 144.627 46.4018 144.579 45.5446C144.484 44.5444 143.817 44.0681 142.339 44.0681C142.289 44.0681 132.951 44.0681 132.856 44.0681C131.379 44.0681 130.712 44.5446 130.664 45.5446C130.569 46.4018 130.95 46.9733 132.189 48.6879C133.047 49.9262 133.094 51.4979 133.094 54.7841V66.6909C133.094 70.0247 133.044 71.5964 132.189 72.787C130.95 74.5016 130.569 75.1208 130.664 75.9781C130.714 76.9782 131.379 77.4069 132.856 77.4069C132.951 77.4069 153.491 77.4069 154.063 77.4069C156.016 77.4069 156.874 76.7401 157.208 74.6921C157.542 72.6442 158.066 70.0247 158.399 67.9292C158.637 66.4528 157.827 65.6431 156.636 65.6431Z" fill="#333333"/>
<path d="M186.327 65.6431C184.087 65.6431 183.039 67.9292 182.086 69.6914C181.419 71.0249 180.037 72.9299 176.749 72.9299H176.129C172.841 72.9299 171.84 72.0727 171.84 66.6909V62.6426C173.413 62.7378 174.604 62.8805 175.271 63.4522C176.51 64.5476 176.749 65.5954 177.797 65.5954C179.084 65.5954 179.084 64.3095 179.084 62.8807C179.084 62.214 179.084 58.5942 179.084 57.9275C179.084 56.4987 179.084 55.2128 177.797 55.2128C176.749 55.2128 176.51 56.2606 175.271 57.356C174.604 57.9275 173.413 58.0704 171.84 58.1656V54.7841C171.84 49.5928 172.746 48.6402 175.843 48.545C179.084 48.5951 180.418 50.4977 181.133 51.7836C182.038 53.5458 183.134 55.8795 185.326 55.8795C186.565 55.8795 187.328 55.0222 187.09 53.5458C186.756 51.4979 186.28 48.8307 185.946 46.8304C185.612 44.7825 184.755 44.0681 182.753 44.0681C182.229 44.0681 162.643 44.0681 162.547 44.0681C161.118 44.0681 160.403 44.5446 160.355 45.5446C160.305 46.4018 160.641 46.9733 161.88 48.6879C162.738 49.9262 162.786 51.4979 162.786 54.7841V66.6909C162.786 70.0247 162.735 71.5964 161.88 72.787C160.641 74.5016 160.308 75.1208 160.355 75.9781C160.405 76.9782 161.118 77.4069 162.547 77.4069C162.643 77.4069 183.182 77.4069 183.754 77.4069C185.708 77.4069 186.566 76.7401 186.899 74.6921C187.232 72.6442 187.757 70.0247 188.09 67.9292C188.329 66.4528 187.519 65.6431 186.327 65.6431Z" fill="#333333"/>
<path d="M217.578 66.6909L215.481 63.1665C218.674 61.2614 220.628 58.0704 220.628 54.546C220.628 48.9736 217.054 44.0681 207.808 44.0681C204.377 44.0681 192.892 44.0681 192.845 44.0681C191.368 44.0681 190.7 44.5446 190.605 45.5446C190.555 46.4018 190.891 46.9733 192.13 48.6879C192.988 49.9262 193.083 51.4979 193.083 54.7841V66.6909C193.083 70.0247 192.988 71.5964 192.13 72.787C190.891 74.5016 190.557 75.1208 190.605 75.9781C190.7 76.9306 191.368 77.4069 192.845 77.4069C195.942 77.4069 202.233 77.4069 202.328 77.4069C203.805 77.4069 204.473 76.9304 204.52 75.9781C204.616 75.1208 204.235 74.5016 202.995 72.787C202.138 71.5964 202.09 70.0247 202.09 66.6909V65.0239C203.567 65.0239 204.139 65.0239 206.426 65.0239L207.427 66.6909C211.716 73.8825 208.333 73.0728 208.762 75.9781C208.857 76.9306 209.81 77.4069 211.287 77.4069C212.622 77.4069 221.438 77.4069 221.867 77.4069C223.344 77.4069 223.964 76.9304 224.059 75.9781C224.392 73.4062 221.104 72.6442 217.578 66.6909ZM204.997 60.547C204.902 60.547 204.52 60.547 204.473 60.547C202.281 60.547 202.09 59.4516 202.09 57.1178C202.09 55.9748 202.09 53.1172 202.09 52.0218C202.09 49.6404 202.28 48.5926 204.473 48.5926C204.523 48.5926 204.949 48.5926 204.997 48.5926C208.19 48.5926 210.43 50.7835 210.43 54.546C210.43 58.3561 208.19 60.547 204.997 60.547Z" fill="#333333"/>
<path d="M250.623 138.227L276.485 74.7863L252.974 74.1988L285.888 7.82062H321.743L297.057 53.0518L324.093 55.4014L250.623 138.227Z" fill="white" stroke="#008066" stroke-width="5.00414" stroke-linecap="round" stroke-linejoin="round"/>
<rect x="16" y="91" width="204" height="13" fill="#66B072"/>
<path d="M23.709 94.9453H21.3828V102H19.5664V94.9453H17.2402V93.4336H23.709V94.9453ZM25.7012 100.975C24.998 100.213 24.6465 99.1191 24.6465 97.6934C24.6465 96.2676 24.998 95.1797 25.7012 94.4297C26.4082 93.6758 27.418 93.2988 28.7305 93.2988C30.0469 93.2988 31.0547 93.6777 31.7539 94.4355C32.4531 95.1934 32.8027 96.2832 32.8027 97.7051C32.8027 99.123 32.4512 100.213 31.748 100.975C31.0449 101.736 30.0371 102.117 28.7246 102.117C27.4121 102.117 26.4043 101.736 25.7012 100.975ZM28.7363 94.8105C28.0137 94.8105 27.4688 95.0547 27.1016 95.543C26.7344 96.0273 26.5508 96.748 26.5508 97.7051C26.5508 99.6309 27.2754 100.594 28.7246 100.594C30.1738 100.594 30.8984 99.6309 30.8984 97.7051C30.8984 95.7754 30.1777 94.8105 28.7363 94.8105ZM34.5781 93.4336H37.2676C38.666 93.4336 39.752 93.8027 40.5254 94.541C41.2988 95.2793 41.6855 96.3105 41.6855 97.6348C41.6855 99.0449 41.2832 100.125 40.4785 100.875C39.6777 101.625 38.5195 102 37.0039 102H34.5781V93.4336ZM36.3945 94.9219V100.5H37.1738C38.9238 100.5 39.7988 99.5605 39.7988 97.6816C39.7988 95.8418 38.9863 94.9219 37.3613 94.9219H36.3945ZM44.1348 100.975C43.4316 100.213 43.0801 99.1191 43.0801 97.6934C43.0801 96.2676 43.4316 95.1797 44.1348 94.4297C44.8418 93.6758 45.8516 93.2988 47.1641 93.2988C48.4805 93.2988 49.4883 93.6777 50.1875 94.4355C50.8867 95.1934 51.2363 96.2832 51.2363 97.7051C51.2363 99.123 50.8848 100.213 50.1816 100.975C49.4785 101.736 48.4707 102.117 47.1582 102.117C45.8457 102.117 44.8379 101.736 44.1348 100.975ZM47.1699 94.8105C46.4473 94.8105 45.9023 95.0547 45.5352 95.543C45.168 96.0273 44.9844 96.748 44.9844 97.7051C44.9844 99.6309 45.709 100.594 47.1582 100.594C48.6074 100.594 49.332 99.6309 49.332 97.7051C49.332 95.7754 48.6113 94.8105 47.1699 94.8105ZM57.9453 100.5H61.4199V102H56.1289V93.4336H57.9453V100.5ZM63.5879 100.975C62.8848 100.213 62.5332 99.1191 62.5332 97.6934C62.5332 96.2676 62.8848 95.1797 63.5879 94.4297C64.2949 93.6758 65.3047 93.2988 66.6172 93.2988C67.9336 93.2988 68.9414 93.6777 69.6406 94.4355C70.3398 95.1934 70.6895 96.2832 70.6895 97.7051C70.6895 99.123 70.3379 100.213 69.6348 100.975C68.9316 101.736 67.9238 102.117 66.6113 102.117C65.2988 102.117 64.291 101.736 63.5879 100.975ZM66.623 94.8105C65.9004 94.8105 65.3555 95.0547 64.9883 95.543C64.6211 96.0273 64.4375 96.748 64.4375 97.7051C64.4375 99.6309 65.1621 100.594 66.6113 100.594C68.0605 100.594 68.7852 99.6309 68.7852 97.7051C68.7852 95.7754 68.0645 94.8105 66.623 94.8105ZM79.2793 102.117C77.9668 102.117 76.959 101.736 76.2559 100.975C75.5527 100.213 75.2012 99.1191 75.2012 97.6934C75.2012 96.2676 75.5527 95.1797 76.2559 94.4297C76.9629 93.6758 77.9727 93.2988 79.2852 93.2988C80.6016 93.2988 81.6094 93.6777 82.3086 94.4355C83.0078 95.1934 83.3574 96.2832 83.3574 97.7051C83.3574 98.7129 83.1777 99.5586 82.8184 100.242C82.4629 100.922 81.9395 101.42 81.248 101.736L83.3105 104.039H80.9844L79.4141 102.117H79.2793ZM79.291 94.8105C78.5684 94.8105 78.0234 95.0547 77.6562 95.543C77.2891 96.0273 77.1055 96.748 77.1055 97.7051C77.1055 99.6309 77.8301 100.594 79.2793 100.594C80.7285 100.594 81.4531 99.6309 81.4531 97.7051C81.4531 95.7754 80.7324 94.8105 79.291 94.8105ZM92.1055 93.4336V98.9766C92.1055 98.9883 92.1055 99 92.1055 99.0117C92.1055 99.9492 91.7891 100.701 91.1562 101.268C90.5234 101.834 89.6777 102.117 88.6191 102.117C88.5996 102.117 88.5781 102.117 88.5547 102.117C87.4531 102.117 86.5977 101.834 85.9883 101.268C85.3789 100.701 85.0742 99.9297 85.0742 98.9531V93.4336H86.8848V98.6777C86.8848 99.3418 87.0195 99.8281 87.2891 100.137C87.5586 100.441 87.9922 100.594 88.5898 100.594C89.1875 100.594 89.6211 100.439 89.8906 100.131C90.1602 99.8223 90.2949 99.334 90.2949 98.666V93.4336H92.1055ZM99.1367 94.9219H96.0195V96.8027H98.9141V98.291H96.0195V100.5H99.1367V102H94.2031V93.4336H99.1367V94.9219ZM107.855 102H105.875L102.969 93.4336H104.803L106.414 98.5312C106.512 98.8633 106.605 99.2188 106.695 99.5977C106.785 99.9727 106.844 100.246 106.871 100.418C106.914 100.055 107.061 99.4258 107.311 98.5312L108.934 93.4336H110.768L107.855 102ZM119.053 102H117.096L116.469 99.9609H113.352L112.73 102H110.773L113.797 93.3984H116.018L119.053 102ZM116.041 98.4375L115.068 95.3027C114.994 95.0449 114.943 94.8535 114.916 94.7285C114.787 95.2246 114.418 96.4609 113.809 98.4375H116.041ZM130.455 102H128.498L127.871 99.9609H124.754L124.133 102H122.176L125.199 93.3984H127.42L130.455 102ZM127.443 98.4375L126.471 95.3027C126.396 95.0449 126.346 94.8535 126.318 94.7285C126.189 95.2246 125.82 96.4609 125.211 98.4375H127.443ZM135.33 100.975C134.627 100.213 134.275 99.1191 134.275 97.6934C134.275 96.2676 134.627 95.1797 135.33 94.4297C136.037 93.6758 137.047 93.2988 138.359 93.2988C139.676 93.2988 140.684 93.6777 141.383 94.4355C142.082 95.1934 142.432 96.2832 142.432 97.7051C142.432 99.123 142.08 100.213 141.377 100.975C140.674 101.736 139.666 102.117 138.354 102.117C137.041 102.117 136.033 101.736 135.33 100.975ZM138.365 94.8105C137.643 94.8105 137.098 95.0547 136.73 95.543C136.363 96.0273 136.18 96.748 136.18 97.7051C136.18 99.6309 136.904 100.594 138.354 100.594C139.803 100.594 140.527 99.6309 140.527 97.7051C140.527 95.7754 139.807 94.8105 138.365 94.8105ZM147.67 102.117C146.424 102.117 145.471 101.74 144.811 100.986C144.15 100.232 143.82 99.1465 143.82 97.7285C143.82 97.709 143.82 97.6895 143.82 97.6699C143.82 96.8105 143.982 96.0488 144.307 95.3848C144.631 94.7168 145.094 94.2051 145.695 93.8496C146.297 93.4902 146.986 93.3105 147.764 93.3105C147.791 93.3105 147.816 93.3105 147.84 93.3105C148.68 93.3105 149.516 93.5117 150.348 93.9141L149.762 95.3906C148.969 95.0117 148.328 94.8223 147.84 94.8223C147.156 94.8223 146.627 95.0801 146.252 95.5957C145.877 96.1074 145.689 96.8223 145.689 97.7402C145.689 99.6504 146.406 100.605 147.84 100.605C148.438 100.605 149.166 100.455 150.025 100.154V101.678C149.322 101.971 148.537 102.117 147.67 102.117ZM158.832 93.4336V98.9766C158.832 98.9883 158.832 99 158.832 99.0117C158.832 99.9492 158.516 100.701 157.883 101.268C157.25 101.834 156.404 102.117 155.346 102.117C155.326 102.117 155.305 102.117 155.281 102.117C154.18 102.117 153.324 101.834 152.715 101.268C152.105 100.701 151.801 99.9297 151.801 98.9531V93.4336H153.611V98.6777C153.611 99.3418 153.746 99.8281 154.016 100.137C154.285 100.441 154.719 100.594 155.316 100.594C155.914 100.594 156.348 100.439 156.617 100.131C156.887 99.8223 157.021 99.334 157.021 98.666V93.4336H158.832ZM160.93 93.4336H163.426C164.586 93.4336 165.445 93.6445 166.004 94.0664C166.566 94.4883 166.848 95.1328 166.848 96C166.848 96.5039 166.709 96.9531 166.432 97.3477C166.154 97.7383 165.762 98.0449 165.254 98.2676C166.629 100.322 167.469 101.566 167.773 102H165.758L163.713 98.7129H162.746V102H160.93V93.4336ZM162.746 94.9219V97.2363H163.332C163.906 97.2363 164.33 97.1406 164.604 96.9492C164.877 96.7578 165.014 96.459 165.014 96.0527C165.014 95.6465 164.875 95.3574 164.598 95.1855C164.324 95.0098 163.891 94.9219 163.297 94.9219H162.746ZM168.852 93.4336H171.348C172.508 93.4336 173.367 93.6445 173.926 94.0664C174.488 94.4883 174.77 95.1328 174.77 96C174.77 96.5039 174.631 96.9531 174.354 97.3477C174.076 97.7383 173.684 98.0449 173.176 98.2676C174.551 100.322 175.391 101.566 175.695 102H173.68L171.635 98.7129H170.668V102H168.852V93.4336ZM170.668 94.9219V97.2363H171.254C171.828 97.2363 172.252 97.1406 172.525 96.9492C172.799 96.7578 172.936 96.459 172.936 96.0527C172.936 95.6465 172.797 95.3574 172.52 95.1855C172.246 95.0098 171.812 94.9219 171.219 94.9219H170.668ZM178.59 102H176.773V93.4336H178.59V102ZM180.746 93.4336H183.242C184.402 93.4336 185.262 93.6445 185.82 94.0664C186.383 94.4883 186.664 95.1328 186.664 96C186.664 96.5039 186.525 96.9531 186.248 97.3477C185.971 97.7383 185.578 98.0449 185.07 98.2676C186.445 100.322 187.285 101.566 187.59 102H185.574L183.529 98.7129H182.562V102H180.746V93.4336ZM182.562 94.9219V97.2363H183.148C183.723 97.2363 184.146 97.1406 184.42 96.9492C184.693 96.7578 184.83 96.459 184.83 96.0527C184.83 95.6465 184.691 95.3574 184.414 95.1855C184.141 95.0098 183.707 94.9219 183.113 94.9219H182.562ZM198.805 102H196.994V98.3027H193.602V102H191.785V93.4336H193.602V96.791H196.994V93.4336H198.805V102ZM201.646 100.975C200.943 100.213 200.592 99.1191 200.592 97.6934C200.592 96.2676 200.943 95.1797 201.646 94.4297C202.354 93.6758 203.363 93.2988 204.676 93.2988C205.992 93.2988 207 93.6777 207.699 94.4355C208.398 95.1934 208.748 96.2832 208.748 97.7051C208.748 99.123 208.396 100.213 207.693 100.975C206.99 101.736 205.982 102.117 204.67 102.117C203.357 102.117 202.35 101.736 201.646 100.975ZM204.682 94.8105C203.959 94.8105 203.414 95.0547 203.047 95.543C202.68 96.0273 202.496 96.748 202.496 97.7051C202.496 99.6309 203.221 100.594 204.67 100.594C206.119 100.594 206.844 99.6309 206.844 97.7051C206.844 95.7754 206.123 94.8105 204.682 94.8105ZM214.092 102H212.287V98.7246L209.445 93.4336H211.414L213.189 96.9609L214.977 93.4336H216.934L214.092 98.666V102Z" fill="#333333"/>
</g>
<defs>
<clipPath id="clip0_2307_28">
<rect width="339" height="146" fill="white"/>
</clipPath>
</defs>
</svg>
