<svg width="119" height="115" viewBox="0 0 119 115" fill="none" xmlns="http://www.w3.org/2000/svg">
<path d="M106.553 96.1803C95.5257 104.385 83.141 110.053 70.2368 112.629C57.7248 115.124 44.7418 114.73 32.0815 110.946C19.4184 107.165 8.35726 100.376 -0.720959 91.4288C-10.0815 82.1974 -17.3038 70.6758 -21.9979 57.7744C-23.1925 54.4845 -23.2805 51.1067 -22.3528 48.0181C-21.425 44.9295 -19.4942 42.1546 -16.681 40.0621C-9.9621 35.054 -2.72616 30.9975 4.79799 28.0136L-1.53119 9.90739C-2.6983 6.57646 -0.938107 2.93675 2.39149 1.77792C5.70579 0.617524 9.35084 2.35748 10.5004 5.68404L16.9916 24.1905C17.8679 23.9864 18.7427 23.7976 19.6299 23.6127C30.121 21.5294 40.9214 21.4582 51.5944 23.7126L57.1758 5.11305C58.1902 1.73455 61.7507 -0.186234 65.1288 0.823341C68.5069 1.83292 70.4234 5.38977 69.4089 8.76827L63.8275 27.3679C73.9829 31.3363 82.9688 37.3203 90.5877 44.8131C91.227 45.4553 91.8515 46.0909 92.4745 46.7417L108.096 34.8417C110.892 32.6934 114.892 33.2386 117.023 36.024C119.168 38.8161 118.632 42.823 115.821 44.9646L100.557 56.6204C105.201 63.2426 109.009 70.5959 111.862 78.4647C113.057 81.7546 113.145 85.1324 112.217 88.221C111.289 91.3096 109.356 94.0817 106.545 96.1769L106.553 96.1803ZM15.0622 37.8962L15.0255 37.9027C14.8562 37.9704 14.6957 38.003 14.5455 38.0598C6.23019 40.6744 -1.76468 44.8208 -9.07864 50.2523C-9.61115 50.6435 -9.9612 51.1383 -10.1225 51.6756C-10.2793 52.1953 -10.2595 52.8 -10.034 53.4334C-5.9861 64.5406 0.208696 74.4428 8.20801 82.3169C15.8312 89.8436 25.1205 95.5341 35.7494 98.7113C46.3936 101.89 57.2729 102.226 67.7898 100.117C78.8121 97.9283 89.4402 93.0542 98.9426 85.9918C99.4818 85.5859 99.8295 85.0883 99.9864 84.5686C100.148 84.0313 100.128 83.4266 99.898 82.8107C96.7827 74.2636 92.3977 66.4368 86.8948 59.6779C86.7808 59.5606 86.6683 59.4281 86.5653 59.2785L86.5287 59.2335C84.9877 57.3737 83.3676 55.6062 81.6598 53.9147C74.0328 46.4006 64.7582 40.7167 54.1146 37.5329C43.4857 34.3558 32.591 34.0181 22.0808 36.1123C19.7208 36.5898 17.3764 37.19 15.0645 37.899L15.0622 37.8962ZM52.2807 43.6505C65.7981 47.6893 73.4617 61.914 69.4033 75.4331C65.3449 88.9522 51.1058 96.633 37.5884 92.5942C24.071 88.5554 16.4073 74.3307 20.4657 60.8116C24.5241 47.2925 38.7632 39.6117 52.2807 43.6505Z" fill="#66B072"/>
</svg>
