<?xml version="1.0" standalone="no"?>
<!DOCTYPE svg PUBLIC "-//W3C//DTD SVG 20010904//EN"
 "http://www.w3.org/TR/2001/REC-SVG-20010904/DTD/svg10.dtd">
<svg version="1.0" xmlns="http://www.w3.org/2000/svg"
 width="486.000000pt" height="486.000000pt" viewBox="0 0 486.000000 486.000000"
 preserveAspectRatio="xMidYMid meet">

<g transform="translate(0.000000,486.000000) scale(0.100000,-0.100000)"
fill="#000000" stroke="none">
<path d="M2215 4844 c-118 -12 -322 -50 -430 -79 -936 -257 -1633 -1060 -1760
-2028 -18 -137 -20 -441 -4 -585 31 -287 130 -610 265 -862 67 -124 200 -321
292 -430 376 -448 912 -745 1512 -837 160 -24 520 -24 680 0 555 85 1030 328
1407 721 371 386 598 864 664 1401 18 146 15 444 -6 600 -55 421 -221 816
-488 1170 -80 105 -269 298 -382 390 -271 221 -595 385 -929 470 -204 52 -324
67 -566 70 -118 2 -233 1 -255 -1z m945 -2199 c287 -676 525 -1238 527 -1247
5 -17 -60 -18 -1257 -18 -1006 0 -1261 3 -1257 13 27 70 681 1594 686 1600 4
4 51 -95 105 -221 l97 -228 -169 -395 -169 -394 705 -3 c388 -1 707 0 709 2 3
3 -504 1205 -511 1214 -2 1 -40 -86 -86 -193 -46 -107 -86 -195 -89 -195 -3 0
-50 103 -103 229 l-98 229 176 403 c97 222 180 415 185 428 6 14 13 20 18 15
5 -5 244 -562 531 -1239z"/>
</g>
</svg>
