<?xml version="1.0" encoding="UTF-8"?>
<svg id="Capa_2" data-name="Capa 2" xmlns="http://www.w3.org/2000/svg" viewBox="0 0 343.57 151.45">
  <defs>
    <style>
      .cls-1 {
        fill: #008066;
        stroke-width: 0px;
      }
    </style>
  </defs>
  <g id="Capa_1-2" data-name="Capa 1">
    <g>
      <path class="cls-1" d="M34.81,9.17C44.52,1.16,52.33-.51,58.22,4.14c3.87,2.92,5.43,6.89,4.67,11.92-.61,4.9-3.08,7.49-7.4,7.74-2.03.14-4.26-.24-6.71-1.12-1.73,1.15-3.33,2.5-4.78,4.08-1.47,1.57-2.8,3.44-4.05,5.59-1.25,2.15-2.23,3.96-2.96,5.39-.73,1.44-1.68,3.53-2.86,6.24-1.17,2.75-2.04,4.68-2.64,5.83-1.9,4.19-3.59,8.06-5.05,11.65-1.47,3.6-2.84,7.62-4.09,12.08-1.25,4.46-2.04,8.47-2.35,12-.31,3.54-.08,6.99.68,10.39.77,3.4,2.24,6.18,4.38,8.36,2.15,2.19,5.31,3.86,9.49,5.05,4.17,1.18,9.29,1.57,15.35,1.18,3.89-.24,7.31.42,10.26,2.03,2.95,1.59,4.34,4.2,4.17,7.81.11,3.75-1.38,6.53-4.49,8.3-3.12,1.79-7.05,2.5-11.81,2.19-4.75-.32-9.12-.85-13.09-1.61-3.96-.74-7.44-1.65-10.47-2.68-7.48-2.49-13.29-6.69-17.43-12.55-4.15-5.88-6.44-12.53-6.9-19.96-.45-7.43.14-15.37,1.79-23.78,1.65-8.43,4.19-16.52,7.63-24.29,3.44-7.77,7.39-14.92,11.83-21.43,4.45-6.53,8.91-11.66,13.41-15.39Z"/>
      <path class="cls-1" d="M100.16,38.61c1.21,12.41,2.51,28.9,3.87,49.47,1.38,20.55,2.32,34.23,2.86,41.02,3.46.89,5.79,2.49,7,4.8,1.2,2.33,1.48,4.63.82,6.94-.66,2.3-1.72,4.08-3.17,5.38-2.48,2.14-6.83,3.48-13.12,4.02-6.28.54-10.85-.07-13.72-1.81-2.02-1.32-3.48-3.11-4.4-5.35-.93-2.23-.88-4.57.15-7.02,1.03-2.46,3.14-4.24,6.32-5.36-.95-11.26-1.94-27.5-3.03-48.71-1.07-21.22-1.8-35.2-2.2-41.99-4.17-.75-7.16-2.58-8.93-5.47-1.79-2.9-1.95-5.81-.49-8.77,1.46-2.94,4.37-4.9,8.7-5.89,9.38-2.23,16.74-1.96,22.06.81,3.87,2.19,5.41,5.33,4.58,9.45-.82,4.09-3.25,6.94-7.3,8.48Z"/>
      <path class="cls-1" d="M157.73,36.63c2.28,4.34,5.23,9.98,8.87,16.94,3.63,6.95,7.07,13.43,10.35,19.44,3.28,5.99,6.49,11.54,9.62,16.61,1.76-3.15,3.47-6.64,5.15-10.46,1.69-3.81,3.05-7.26,4.08-10.36,1.03-3.08,2.17-6.91,3.44-11.43,1.25-4.54,2.14-7.91,2.66-10.15.52-2.24,1.3-5.65,2.34-10.26,1.03-4.61,1.64-7.35,1.78-8.2.74-3.17,1.99-5.83,3.74-7.99,1.74-2.15,3.66-3.5,5.76-4.07,2.1-.56,4.11-.65,6.07-.28,1.94.38,3.63,1.43,5.06,3.17,1.43,1.74,2.21,3.92,2.33,6.52,2.67,31.46,6.62,65.59,11.84,102.4.82,5.64.58,9.5-.73,11.57-1.32,2.08-4.14,3.48-8.47,4.16-1.16.29-2.25.42-3.26.42-1-.01-1.91-.13-2.7-.34-.79-.24-1.48-.48-2.05-.78-.58-.28-1.07-.8-1.5-1.52-.44-.73-.79-1.35-1.07-1.85-.29-.51-.57-1.27-.85-2.27-.28-1.01-.49-1.8-.63-2.4-.14-.57-.29-1.51-.41-2.81-.14-.42-.21-.72-.21-.86-.69-4.34-1.72-12.31-3.08-23.93-1.35-11.62-2.46-19.74-3.29-24.35-2.94,5.89-5.56,10.84-7.89,14.85-2.33,4.03-4.67,7.22-7,9.59-2.32,2.36-4.35,4.18-6.09,5.47-1.74,1.28-3.72,1.55-5.95.83-2.24-.75-4.13-1.65-5.72-2.75-1.58-1.09-3.73-3.34-6.44-6.75-2.72-3.4-5.03-6.59-6.97-9.56-1.93-2.97-4.68-7.36-8.22-13.16.49,10.82-.42,28.64-2.76,53.42-.3,2.87-1.07,5.05-2.32,6.48-1.23,1.43-3.58,2.13-7.04,2.11-3.31-.02-5.58-.8-6.8-2.32-1.21-1.53-1.88-4.09-2-7.69-.24-7.66-1.09-40.25-2.57-97.81-.11-4.48,2.14-7.56,6.77-9.27,5.79-2.4,11.17.82,16.16,9.64Z"/>
      <path class="cls-1" d="M324.12,126.71c-1.13-2.75-3.27-7.24-6.4-13.45-21.94,2.58-34.07,4.01-36.37,4.27-.74,1.88-2.39,6.27-4.96,13.17-2.57,6.91-4.88,12.52-6.92,16.83-2.06,4.16-5.02,5.01-8.9,2.54-3.88-2.49-5.88-6.03-5.98-10.65,0-1.01.15-2.02.45-3.03,6.94-24.77,17.69-67.09,32.24-127,.89-3.74,2.82-6.42,5.79-8.06,2.96-1.64,6.1-1.76,9.41-.37,3.32,1.4,5.67,4.11,7.08,8.17,3.96,10.57,7.27,22.13,9.93,34.68,2.65,12.57,5.53,24.62,8.61,36.19,3.1,11.57,7.48,23.07,13.18,34.49,3.27,6.81,3.01,12.5-.76,17.08-3.06,3.87-6.53,4.86-10.4,2.96-2.74-1.33-4.73-3.93-6-7.82ZM286.47,97.03c7.22-1.4,14.73-2.8,22.53-4.19-.7-3.17-1.47-6.68-2.3-10.5-.84-3.84-1.6-7.27-2.31-10.29-.7-3.04-1.47-6.47-2.32-10.3-.83-3.82-1.6-7.26-2.31-10.29-.14,0-.29,0-.43,0s-.29,0-.43,0c-5.48,20.02-9.62,35.2-12.43,45.58Z"/>
    </g>
  </g>
</svg>