<?xml version="1.0" encoding="UTF-8"?>
<svg id="Capa_2" data-name="Capa 2" xmlns="http://www.w3.org/2000/svg" viewBox="0 0 725.58 132.74">
  <defs>
    <style>
      .cls-1 {
        fill: #008066;
      }

      .cls-1, .cls-2 {
        stroke-width: 0px;
      }

      .cls-2 {
        fill: #dbc9a7;
      }
    </style>
  </defs>
  <g id="Capa_1-2" data-name="Capa 1">
    <g>
      <path class="cls-2" d="M0,109.65c.03-5.44.42-17.55,1.16-36.3.73-18.76,1.31-32.33,1.74-40.68.27-3.87,1.25-6.59,2.96-8.15,2.8-2.77,6.84-4.7,12.11-5.82,5.28-1.11,10.48-1.48,15.63-1.07,5.15.4,9.82,1.23,14.06,2.46,6.76,1.85,12.13,5.38,16.08,10.55,3.96,5.18,6.4,11,7.33,17.48.92,6.5.93,13.03.04,19.62-.9,6.6-2.52,12.72-4.85,18.4-8.12,19.32-24.36,29.91-48.71,31.81C5.8,118.83-.04,116.07,0,109.65ZM18.5,34.24c-.16,6.04-.42,17.27-.78,33.67-.36,16.42-.62,27.51-.77,33.32,3.15-.46,5.18-.76,6.09-.87.91-.11,2.73-.4,5.46-.85,2.72-.48,4.73-1,6-1.6,1.27-.6,2.88-1.36,4.83-2.25,1.94-.89,3.53-2.03,4.74-3.41,1.22-1.39,2.26-2.97,3.12-4.79,1.96-3.86,3.59-8.1,4.9-12.77,1.29-4.64,2.15-9.54,2.55-14.68.39-5.15-.45-9.91-2.53-14.29-2.09-4.37-5.37-7.59-9.83-9.69-4.95-2.2-12.88-2.8-23.78-1.79Z"/>
      <path class="cls-2" d="M125.5,80.92c-6.91.43-13.99.63-21.26.58-.42,7.76-.22,13.86.6,18.35.23,1.7.58,2.76,1.07,3.19.48.43,1.56.77,3.26,1.02,8.11,1.04,15.14-.26,21.1-3.84,2.8-1.8,5.63-1.69,8.53.32,2.88,2.03,4.44,4.58,4.67,7.67.22,3.08-1.08,5.59-3.87,7.5-6.81,3.36-12.91,5.64-18.3,6.88-5.39,1.23-9.97,1.57-13.72,1-3.75-.57-6.98-2.05-9.68-4.42-2.71-2.39-4.81-5.18-6.3-8.41-1.5-3.21-2.58-7.21-3.28-11.99-.69-4.79-1.06-9.43-1.08-13.9-.03-4.49.24-9.64.83-15.43.58-5.82,1.19-10.99,1.83-15.52.64-4.53,1.46-9.53,2.47-14.97.76-4.95,2.72-8.9,5.89-11.85,3.17-2.94,7.02-4.83,11.57-5.64,4.54-.81,9.05-1.12,13.53-.9,4.48.21,8.89.94,13.25,2.17,3.38.87,5.39,2.86,6.04,5.95.64,3.09-.02,5.79-1.97,8.07-1.95,2.29-4.49,2.93-7.64,1.95-4.23-1.36-9.2-1.8-14.89-1.3-5.7.5-8.73,1.85-9.11,4.03,0,.49-1.46,8.53-4.35,24.12,1.46.13,3.42.09,5.91-.14,2.48-.22,4.81-.48,7-.78,2.18-.28,4.36-.39,6.54-.31,2.18.07,4.06.61,5.62,1.58,1.56.98,2.64,2.51,3.24,4.57.71,2.54.33,4.88-1.14,6.98-1.47,2.11-3.59,3.27-6.37,3.49Z"/>
      <path class="cls-2" d="M210.39,96.76c.32,5.8-.9,11.22-3.66,16.23-2.76,5.01-6.6,8.84-11.52,11.54-4.92,2.69-10.22,3.9-15.91,3.61-9.07-.42-16.32-3.61-21.73-9.59-2.52-2.44-3.9-5.27-4.11-8.47-.22-3.21,1.19-5.72,4.23-7.51,2.55-1.08,4.42-1.46,5.63-1.15,1.21.32,2.48,1.02,3.8,2.12,1.32,1.1,2.5,2.22,3.52,3.37,1.01,1.16,2.55,2.18,4.61,3.04,2.05.85,4.46,1.17,7.26.95,1.81-.11,3.48-.67,5-1.69,1.52-1.01,2.63-2.67,3.31-4.97.67-2.29.73-4.98.14-8.08-.58-3.09-2.37-7.07-5.36-11.94-3-4.86-7.13-10.1-12.43-15.7-7.08-7.43-7.93-17.37-2.51-29.8,3.81-9.05,9.31-16.1,16.48-21.14,7.31-5.15,12.69-5.42,16.18-.79.83,1.09,1.55,2.37,2.15,3.83.59,1.94-.06,3.86-1.95,5.71-1.88,1.87-4.78,4.06-8.67,6.57-3.89,2.4-6.79,6.47-8.7,12.19-1.93,5.75-1.5,10.57,1.25,14.45.12.13,1.44,1.65,3.96,4.57,2.52,2.92,4.57,5.45,6.12,7.56,1.56,2.14,3.45,4.78,5.67,7.95,2.22,3.16,3.92,6.21,5.1,9.11,1.19,2.91,1.91,5.59,2.13,8.01Z"/>
      <path class="cls-2" d="M251.31,8.78c8.16-6.72,14.71-8.13,19.64-4.22,3.25,2.45,4.57,5.79,3.93,10.02-.51,4.12-2.58,6.29-6.22,6.5-1.69.11-3.57-.2-5.62-.94-1.46.95-2.8,2.09-4.02,3.42-1.21,1.32-2.35,2.9-3.39,4.7-1.05,1.81-1.87,3.32-2.49,4.52-.61,1.21-1.41,2.96-2.39,5.25-.98,2.3-1.72,3.92-2.21,4.88-1.6,3.52-3.01,6.77-4.24,9.78-1.24,3.03-2.38,6.4-3.43,10.15-1.05,3.74-1.71,7.11-1.98,10.07-.26,2.96-.07,5.87.57,8.71.65,2.86,1.87,5.19,3.68,7.02,1.81,1.84,4.46,3.24,7.96,4.24,3.5,1,7.8,1.32,12.88,1,3.27-.21,6.14.35,8.61,1.7,2.47,1.35,3.64,3.54,3.5,6.55.09,3.16-1.16,5.48-3.77,6.97-2.62,1.51-5.92,2.11-9.91,1.84-4-.27-7.66-.71-10.98-1.35-3.33-.62-6.25-1.37-8.79-2.24-6.28-2.09-11.17-5.61-14.64-10.54-3.47-4.93-5.4-10.51-5.78-16.74-.39-6.24.11-12.91,1.49-19.97,1.38-7.07,3.52-13.86,6.41-20.38,2.89-6.52,6.19-12.52,9.93-18,3.72-5.49,7.48-9.79,11.25-12.92Z"/>
      <path class="cls-2" d="M350.38,126.26c-.96-2.32-1.67-4.83-2.13-7.57-.47-2.71-.9-5.84-1.3-9.36-.41-3.51-.77-6.3-1.12-8.36-.24.36-.67.97-1.29,1.81-2.32,3.5-4.21,6.18-5.68,8.05-1.47,1.86-3.48,4.09-6.03,6.67-2.56,2.59-5.21,4.53-7.94,5.84-2.74,1.33-5.68,2.09-8.82,2.3-7.63.56-13.95-1.07-18.95-4.85-5-3.79-7.95-9.14-8.87-16.04-2.18-18.29-.38-41.95,5.39-70.98.51-3.63,2.13-6.52,4.87-8.68,2.74-2.16,5.61-2.2,8.63-.12,2.4,1.59,3.9,3.68,4.5,6.29.59,2.6.02,4.88-1.68,6.79-1.1,1.32-1.78,2.96-2.03,4.88-3.26,32.93-4.3,52.35-3.13,58.29,1.76,8.73,6.28,10.57,13.58,5.54,5.23-3.47,9.56-8.29,12.99-14.45.37-.83.68-1.55.92-2.17,2.09-4.34,3.83-9.14,5.2-14.4,1.36-5.26,2.3-9.58,2.81-12.97.51-3.38,1.16-8.68,1.93-15.87.78-7.21,1.29-12.13,1.55-14.8.26-2.18,1.27-3.87,3.03-5.06,1.77-1.19,3.61-1.73,5.55-1.6,1.94.14,3.72.88,5.34,2.22,1.63,1.35,2.49,3.17,2.59,5.47.2,6.05.19,11.71-.02,16.97-.22,5.27-.44,10.72-.66,16.35-.22,5.62-.32,10.91-.29,15.88.03,4.97.48,10.11,1.35,15.44.86,5.33,2.2,10.36,3.98,15.11,2.61,7.04,2.14,12.67-1.39,16.88-2.68,3.12-5.59,3.77-8.73,1.93-1.8-1.09-3.19-2.93-4.14-5.46Z"/>
      <path class="cls-2" d="M405.54,2.05c5.08,1.48,9.33,4.09,12.75,7.8,3.42,3.71,5.72,7.92,6.9,12.57,1.18,4.67,1.51,9.58.99,14.72-.52,5.14-1.95,9.89-4.27,14.23,6.9-.32,13.16.45,18.78,2.3,5.61,1.86,10.1,4.62,13.47,8.27,3.36,3.65,5.75,7.85,7.17,12.58,1.43,4.74,1.56,10,.44,15.81-1.13,5.81-3.53,11.6-7.2,17.38-1.72,3.02-3.98,5.6-6.78,7.76-2.8,2.16-5.53,3.87-8.2,5.13-2.68,1.25-6.01,2.34-10.01,3.28-4.01.95-7.34,1.59-10,1.94-2.67.35-6.12.75-10.36,1.19-4.25.46-7.79.46-10.63.02-2.83-.44-4.92-1.33-6.25-2.67-1.32-1.35-2.22-2.68-2.69-4.01-.47-1.34-.83-3.11-1.06-5.28-.44-4.6-1.46-12.81-3-24.63-1.55-11.81-3.28-24.36-5.18-37.64-1.91-13.26-2.98-20.87-3.21-22.8-.23-1.82-.57-4.18-1.04-7.09-.46-2.91-.79-4.99-.95-6.27-.18-1.28-.32-2.89-.43-4.81-.1-1.94.03-3.33.4-4.17.37-.85.88-1.82,1.56-2.9.66-1.09,1.67-1.89,3.01-2.43,1.33-.54,2.97-1.04,4.92-1.52,7.75-1.4,14.71-.99,20.87,1.24ZM398.06,59.38c2.32-2.88,4.4-6.15,6.24-9.76,1.84-3.62,3.24-7.39,4.16-11.32.94-3.93,1.2-7.47.8-10.61-.4-3.15-2.04-5.74-4.94-7.77-2.88-2.01-6.94-2.91-12.14-2.71.45,3.64,1.39,10.22,2.76,19.73,1.39,9.51,2.42,16.99,3.12,22.44ZM429.78,68.5c-1.82.11-5.63.47-11.45,1.1-5.82.63-10.6,1.05-14.36,1.26-1.33.12-2.4.6-3.19,1.43-.79.84-1.19,1.87-1.2,3.07.11.85.26,2.24.42,4.18.17,1.95.28,3.43.33,4.45.06,1.03.2,2.42.43,4.18.22,1.75.43,3.22.59,4.35.18,1.16.42,2.44.7,3.84.3,1.39.62,2.57.98,3.55.35.97.74,1.91,1.16,2.82s.93,1.68,1.53,2.29c2.41,2.44,5.39,3.82,8.96,4.15,3.57.32,7.05-.18,10.46-1.48,3.4-1.3,6.53-2.86,9.38-4.66,2.86-1.79,5.02-3.53,6.49-5.23.98-1.18,1.9-3,2.76-5.42.87-2.42,1.4-5.04,1.6-7.89.19-2.84-.05-5.51-.77-7.99-.7-2.49-2.33-4.53-4.86-6.12-2.53-1.59-5.86-2.23-9.97-1.89Z"/>
      <path class="cls-2" d="M477.91,119.87c.01-1.69.24-8.23.68-19.61.44-11.38.88-23.44,1.34-36.22.45-12.77.75-22.17.92-28.23-6.38-5-6.71-9.79-.99-14.35,5.72-4.56,14.27-6.92,25.66-7.09,14.89-.15,26.49,3.95,34.79,12.23.24.36.53.67.9.91,4.32,4.88,7.01,10.55,8.06,17.03,1.04,6.49.61,12.75-1.31,18.8-1.92,6.03-5.02,11.64-9.28,16.81-4.27,5.19-9.33,9.01-15.15,11.52,1.45.74,4.25,2.09,8.41,4.06,4.16,1.98,7.34,3.56,9.5,4.78,3.02,1.48,3.73,4.09,2.13,7.82-1.6,3.88-4.22,6.09-7.86,6.68-1.57.23-3.08.04-4.53-.58-5.56-2.1-17.52-6.42-35.88-12.96-.06,9.68-.11,15.01-.11,15.98.19,7.88-3.41,11.59-10.79,11.18-2.07-.13-3.65-1.09-4.79-2.84-1.14-1.76-1.71-3.73-1.69-5.91ZM532.67,53.96c.63-3.74.33-7.1-.92-10.09-1.25-2.97-3.14-5.28-5.68-6.94-2.53-1.66-5.42-3.04-8.68-4.14-3.26-1.12-6.59-1.69-9.97-1.71-3.4-.03-6.67.13-9.81.47-.15,3.76-.48,12.38-1,25.88-.52,13.49-.79,22.42-.82,26.77,4.36.03,8.79-1.06,13.28-3.26,4.49-2.22,8.35-4.9,11.59-8.09,3.23-3.19,5.95-6.5,8.15-9.94,2.21-3.43,3.5-6.42,3.88-8.96Z"/>
      <path class="cls-2" d="M604.01,84.23c-6.91.43-13.99.63-21.26.58-.42,7.76-.22,13.86.6,18.35.23,1.7.58,2.76,1.07,3.19.48.43,1.57.78,3.26,1.02,8.11,1.04,15.14-.26,21.1-3.83,2.8-1.81,5.64-1.69,8.53.31,2.89,2.03,4.44,4.59,4.67,7.67.22,3.08-1.08,5.59-3.86,7.5-6.82,3.36-12.92,5.64-18.31,6.88-5.39,1.23-9.97,1.57-13.72,1-3.75-.57-6.98-2.05-9.68-4.42-2.7-2.38-4.81-5.18-6.3-8.41-1.49-3.2-2.58-7.21-3.28-11.99-.68-4.79-1.05-9.42-1.08-13.9-.03-4.49.25-9.63.84-15.43.57-5.82,1.19-10.99,1.83-15.52.63-4.53,1.46-9.53,2.46-14.96.76-4.96,2.72-8.91,5.9-11.86,3.16-2.94,7.02-4.83,11.57-5.65,4.54-.81,9.05-1.12,13.53-.9,4.48.21,8.9.94,13.25,2.18,3.39.86,5.4,2.85,6.04,5.94.64,3.1-.01,5.79-1.97,8.07-1.96,2.29-4.5,2.94-7.65,1.95-4.22-1.36-9.19-1.8-14.88-1.29-5.69.5-8.73,1.86-9.11,4.03,0,.49-1.45,8.53-4.34,24.12,1.45.13,3.41.09,5.9-.14,2.48-.22,4.81-.48,6.99-.77,2.19-.29,4.36-.39,6.54-.32,2.18.07,4.06.61,5.62,1.58,1.56.98,2.65,2.52,3.23,4.58.71,2.54.33,4.87-1.13,6.97-1.48,2.12-3.6,3.27-6.38,3.49Z"/>
    </g>
    <path class="cls-1" d="M695.01,58.99c.4,0,2.19-.03,5.35-.12,3.16-.08,5.3-.07,6.43.05s2.96.28,5.51.49c2.54.23,4.37.7,5.5,1.42,1.11.72,2.44,1.6,3.96,2.62,1.52,1.03,2.58,2.46,3.18,4.3.6,1.84.78,3.99.57,6.43-.22,2.45-.9,4.54-2.04,6.26-1.13,1.72-2.37,3.04-3.7,3.95-1.33.91-3.17,1.66-5.52,2.26-2.35.59-4.4.94-6.13,1.03-1.74.09-3.98.17-6.73.26-2.76.08-4.75.23-5.97.42-.64,3.05-.32,7.69.97,13.92,1.28,6.24,1.56,11.49.8,15.77-.75,4.28-3.67,7.31-8.78,9.12-3.89.99-7.3.82-10.25-.53-2.95-1.34-5.13-3.19-6.54-5.55-1.42-2.36-2.52-5.68-3.3-9.97-.79-4.28-1.22-7.75-1.31-10.41-.09-2.65-.22-6.02-.39-10.1-3.26-.64-6.77-.61-10.55.08-3.78.69-7.04.87-9.8.55-2.74-.33-5.54-1.92-8.38-4.8-2.63-2.87-3.68-6.14-3.14-9.81.53-3.67,2.34-6.82,5.42-9.45,1.02-1.01,2.25-1.82,3.69-2.42,1.43-.6,3.27-1.15,5.52-1.64,2.25-.49,4.08-.79,5.51-.88,1.42-.08,3.62-.28,6.58-.57,2.96-.28,4.85-.42,5.66-.42.21-1.02.37-2.85.49-5.51.12-2.65.24-4.84.35-6.57.12-1.73.34-3.82.66-6.27.33-2.45.84-4.43,1.57-5.95.73-1.53,1.66-3,2.79-4.43,1.13-1.41,2.57-2.43,4.31-3.03,1.73-.6,3.72-.69,5.96-.27,5.09.85,8.49,2.97,10.21,6.35,1.71,3.37,2.2,7.05,1.45,11.02-.75,3.98-.72,8.11.07,12.4Z"/>
  </g>
</svg>