<?xml version="1.0" encoding="UTF-8"?>
<svg id="Capa_2" data-name="Capa 2" xmlns="http://www.w3.org/2000/svg" viewBox="0 0 872.15 112.04">
  <defs>
    <style>
      .cls-1 {
        fill: #dbc9a7;
      }

      .cls-1, .cls-2 {
        stroke-width: 0px;
      }

      .cls-2 {
        fill: #e19500;
      }
    </style>
  </defs>
  <g id="Capa_1-2" data-name="Capa 1">
    <g>
      <path class="cls-1" d="M33.72,67.7c-6.09.38-12.33.56-18.74.51-.37,6.83-.19,12.22.53,16.16.2,1.51.51,2.44.94,2.82.42.38,1.38.68,2.88.89,7.14.91,13.34-.23,18.59-3.38,2.46-1.58,4.97-1.49,7.51.28,2.55,1.79,3.92,4.04,4.11,6.76.19,2.71-.94,4.92-3.4,6.61-6,2.95-11.38,4.97-16.13,6.06-4.76,1.08-8.79,1.37-12.09.87-3.31-.49-6.15-1.8-8.53-3.9-2.39-2.09-4.24-4.57-5.56-7.4-1.32-2.82-2.28-6.36-2.89-10.58C.35,79.18.02,75.1,0,71.16c-.03-3.95.21-8.49.73-13.6.51-5.12,1.05-9.67,1.61-13.67.57-4,1.29-8.4,2.18-13.19.67-4.37,2.4-7.86,5.2-10.45,2.79-2.59,6.19-4.26,10.19-4.98,4.01-.72,7.98-.99,11.93-.8,3.95.19,7.84.83,11.67,1.93,2.98.76,4.76,2.5,5.33,5.23.57,2.73-.02,5.1-1.73,7.11-1.73,2.02-3.97,2.58-6.74,1.72-3.72-1.2-8.1-1.59-13.11-1.14-5.02.44-7.7,1.64-8.03,3.55,0,.43-1.28,7.51-3.83,21.26,1.28.11,3.01.08,5.21-.13,2.19-.2,4.24-.42,6.16-.68,1.92-.25,3.84-.34,5.76-.28,1.92.07,3.57.54,4.95,1.4,1.38.87,2.33,2.22,2.85,4.02.62,2.25.29,4.3-1.01,6.16-1.29,1.86-3.17,2.89-5.62,3.08Z"/>
      <path class="cls-1" d="M90.5,97.87c-.95-1.81-2.16-4.33-3.63-7.55-1.48-3.21-2.53-5.41-3.16-6.58-1.3,1.91-2.56,3.99-3.81,6.21-1.24,2.23-2.62,4.67-4.13,7.33-1.51,2.66-2.7,4.73-3.57,6.21-1.41,2.88-3.52,4.36-6.35,4.44-2.83.1-5.06-.96-6.7-3.16-1.64-2.2-1.81-4.79-.51-7.77.65-1.7,2.67-5.18,6.07-10.45,3.4-5.25,6.31-10.14,8.75-14.66,2.43-4.53,3.28-7.42,2.54-8.71-3.14-9.52-5.89-19.78-8.27-30.79-.73-3.31-.12-5.78,1.81-7.43,1.93-1.65,4.12-2.21,6.57-1.72,2.45.49,3.93,1.71,4.46,3.64.41,1.6.98,3.9,1.72,6.89.72,2.99,1.43,5.73,2.1,8.17.68,2.47,1.49,4.82,2.43,7.06,4.52-6.15,9.7-14.16,15.53-24.05,1.3-2.12,2.83-3.76,4.6-4.94,1.77-1.16,3.61-1.36,5.53-.6,5,1.86,5.12,7.19.36,16.02-2.8,5.2-8.86,14.98-18.12,29.32-.98,1.69-1.09,3.41-.35,5.12,1.04,2.67,2.67,6.48,4.88,11.4s3.79,8.5,4.73,10.75c1.04,2.67.71,5.01-1.01,7.03-1.73,2.02-3.92,2.96-6.58,2.83-2.67-.12-4.63-1.47-5.89-4.04Z"/>
      <path class="cls-1" d="M129.74,24.99c13.65-13.79,25.69-18.5,36.11-14.16,7.24,2.94,12.15,9.38,14.75,19.31,2.91,10.8,2.09,21.25-2.46,31.36-5.41,11.81-14.59,18.79-27.52,20.94-1.71.31-3.47.51-5.28.6.28,4.91,1.26,11.37,2.91,19.38.62,2.79-.12,5.04-2.21,6.79-2.09,1.74-4.45,2.34-7.05,1.79-2.61-.57-4.28-2.22-5.01-5-1.77-6.62-3.13-14.21-4.09-22.76-.96-8.53-1.52-15.38-1.7-20.5-.18-5.12-.39-12.86-.64-23.21.01-.74-.31-1.71-.94-2.89-.95-2.25-1.09-4.33-.44-6.24.66-1.92,1.84-3.72,3.56-5.42ZM156.34,65.51c3.22-2.22,5.88-5.35,7.99-9.39,2.11-4.04,3.32-8.64,3.62-13.82.3-5.17-.81-10.49-3.33-15.95-.63-1.62-1.91-2.53-3.82-2.75-1.92-.23-3.97.13-6.17,1.08s-4.31,2.13-6.34,3.55c-2.04,1.44-3.7,3.13-5,5.09-1.29,1.97-1.89,3.85-1.8,5.67.59,7.05,1.33,15.96,2.21,26.74,0,1.39.52,2.3,1.58,2.73,1.07.43,2.32.5,3.77.19s2.83-.76,4.17-1.34c1.33-.57,2.38-1.17,3.13-1.82Z"/>
      <path class="cls-1" d="M227.87,69.05c-6.09.38-12.33.55-18.74.51-.36,6.82-.19,12.22.53,16.16.2,1.5.51,2.44.94,2.82.42.37,1.38.67,2.87.89,7.14.91,13.34-.23,18.59-3.39,2.46-1.58,4.97-1.49,7.52.29,2.55,1.78,3.91,4.03,4.11,6.75.19,2.72-.95,4.92-3.4,6.62-6.01,2.94-11.38,4.97-16.14,6.06-4.75,1.08-8.78,1.36-12.08.86-3.31-.49-6.16-1.8-8.54-3.9-2.38-2.09-4.24-4.56-5.56-7.4-1.31-2.83-2.27-6.36-2.89-10.59-.6-4.22-.93-8.3-.95-12.25-.03-3.94.22-8.48.74-13.6.5-5.11,1.04-9.67,1.61-13.66.56-4,1.28-8.41,2.17-13.19.67-4.37,2.4-7.86,5.2-10.45,2.79-2.59,6.19-4.25,10.19-4.98,4-.71,7.98-.99,11.92-.79,3.95.19,7.84.83,11.68,1.92,2.98.76,4.75,2.51,5.33,5.23.57,2.73,0,5.1-1.73,7.11-1.72,2.02-3.96,2.58-6.73,1.72-3.73-1.2-8.11-1.58-13.11-1.13-5.02.44-7.7,1.63-8.04,3.54,0,.43-1.28,7.52-3.82,21.26,1.28.12,3.01.08,5.2-.12,2.19-.2,4.25-.42,6.17-.69,1.93-.25,3.84-.34,5.76-.28,1.92.07,3.57.54,4.95,1.4,1.38.86,2.34,2.21,2.85,4.02.62,2.25.29,4.3-1,6.16-1.3,1.86-3.17,2.89-5.62,3.09Z"/>
      <path class="cls-1" d="M259.34,101.44c0-1.49.21-7.26.6-17.28.39-10.03.78-20.67,1.18-31.93.4-11.24.66-19.54.81-24.88-5.62-4.41-5.91-8.63-.87-12.65,5.04-4.02,12.59-6.1,22.61-6.25,13.13-.13,23.34,3.46,30.66,10.78.21.32.47.59.79.8,3.81,4.29,6.18,9.29,7.09,15.01.92,5.72.54,11.23-1.15,16.56-1.69,5.32-4.42,10.27-8.19,14.82-3.77,4.56-8.21,7.95-13.35,10.15,1.28.65,3.76,1.84,7.42,3.58,3.67,1.74,6.46,3.14,8.37,4.22,2.66,1.29,3.29,3.6,1.88,6.89-1.41,3.41-3.72,5.36-6.92,5.88-1.39.21-2.72.04-4-.5-4.89-1.86-15.43-5.66-31.61-11.43-.06,8.54-.09,13.23-.1,14.09.16,6.94-3.01,10.22-9.51,9.86-1.82-.12-3.23-.96-4.23-2.51-1-1.55-1.49-3.3-1.48-5.22ZM307.6,43.35c.56-3.29.29-6.25-.82-8.88-1.09-2.61-2.76-4.67-5-6.11-2.23-1.46-4.78-2.68-7.66-3.66-2.87-.98-5.8-1.48-8.79-1.5-2.99-.02-5.87.12-8.65.42-.13,3.31-.42,10.9-.88,22.8-.46,11.9-.7,19.77-.72,23.61,3.84.02,7.74-.93,11.71-2.88,3.96-1.95,7.36-4.33,10.21-7.14,2.84-2.81,5.24-5.73,7.18-8.76,1.95-3.02,3.08-5.65,3.42-7.9Z"/>
      <path class="cls-1" d="M355.09,27.04c.9,9.18,1.86,21.38,2.87,36.6,1.02,15.21,1.72,25.33,2.11,30.35,2.55.64,4.29,1.84,5.18,3.55.9,1.71,1.1,3.43.6,5.13-.49,1.7-1.27,3.03-2.35,3.99-1.83,1.58-5.06,2.57-9.71,2.97-4.64.4-8.03-.06-10.16-1.35-1.48-.97-2.57-2.29-3.25-3.96-.69-1.64-.65-3.38.11-5.19.76-1.81,2.32-3.13,4.67-3.97-.68-8.33-1.43-20.34-2.22-36.03-.8-15.7-1.34-26.04-1.63-31.07-3.09-.54-5.3-1.9-6.61-4.04-1.33-2.14-1.44-4.3-.36-6.49,1.08-2.17,3.22-3.62,6.44-4.36,6.94-1.65,12.39-1.46,16.32.6,2.86,1.62,3.99,3.94,3.4,6.98-.61,3.04-2.42,5.13-5.41,6.29Z"/>
      <path class="cls-1" d="M397.68,25.57c1.68,3.22,3.87,7.39,6.56,12.53,2.68,5.14,5.23,9.93,7.66,14.39,2.42,4.44,4.79,8.54,7.11,12.29,1.3-2.32,2.57-4.91,3.81-7.73,1.25-2.82,2.26-5.38,3.02-7.66.76-2.29,1.61-5.12,2.54-8.46s1.59-5.85,1.98-7.5c.38-1.66.96-4.18,1.74-7.6.77-3.41,1.21-5.43,1.32-6.07.55-2.34,1.47-4.31,2.76-5.9,1.29-1.6,2.71-2.6,4.26-3.01,1.55-.41,3.04-.48,4.49-.21,1.43.28,2.68,1.06,3.74,2.34,1.06,1.29,1.63,2.91,1.73,4.82,1.97,23.28,4.9,48.53,8.76,75.77.61,4.16.43,7.02-.55,8.56-.97,1.54-3.05,2.57-6.25,3.08-.86.21-1.66.31-2.41.31-.74-.01-1.42-.1-2-.25-.59-.18-1.09-.36-1.52-.58-.43-.21-.8-.59-1.12-1.11-.31-.54-.58-1-.79-1.37-.21-.38-.42-.94-.63-1.69-.21-.75-.37-1.33-.46-1.76-.11-.42-.21-1.12-.31-2.08-.1-.32-.15-.54-.15-.64-.51-3.21-1.28-9.11-2.28-17.7-1.01-8.6-1.82-14.6-2.43-18.02-2.17,4.36-4.11,8.03-5.85,11-1.72,2.98-3.44,5.34-5.17,7.09-1.72,1.75-3.22,3.1-4.51,4.05-1.29.95-2.75,1.16-4.4.61-1.66-.54-3.07-1.21-4.23-2.02-1.18-.81-2.76-2.48-4.77-5-2.01-2.53-3.72-4.88-5.15-7.08-1.43-2.2-3.46-5.43-6.09-9.73.37,8.01-.3,21.18-2.04,39.52-.22,2.13-.8,3.73-1.71,4.78-.91,1.06-2.65,1.59-5.21,1.57-2.45-.02-4.13-.6-5.03-1.72-.9-1.12-1.39-3.02-1.49-5.68-.18-5.67-.8-29.78-1.9-72.37-.09-3.31,1.58-5.59,5.01-6.85,4.28-1.78,8.27.6,11.96,7.13Z"/>
      <path class="cls-1" d="M507.96,70.99c-6.08.38-12.33.56-18.74.51-.36,6.83-.19,12.22.53,16.16.2,1.51.52,2.44.94,2.82.42.38,1.38.68,2.87.89,7.14.91,13.34-.23,18.59-3.39,2.46-1.58,4.97-1.48,7.52.29,2.55,1.79,3.92,4.03,4.11,6.76.19,2.71-.94,4.92-3.4,6.61-6,2.95-11.38,4.97-16.14,6.06-4.75,1.08-8.78,1.37-12.08.87-3.31-.5-6.16-1.8-8.54-3.9-2.38-2.09-4.24-4.57-5.56-7.4-1.31-2.82-2.27-6.36-2.88-10.58-.61-4.22-.93-8.31-.96-12.25-.03-3.95.22-8.48.74-13.6.51-5.12,1.05-9.67,1.61-13.67.56-4,1.29-8.4,2.17-13.19.67-4.37,2.4-7.86,5.2-10.45,2.79-2.59,6.19-4.26,10.19-4.98s7.98-.99,11.93-.8c3.94.19,7.84.83,11.67,1.93,2.98.76,4.76,2.5,5.33,5.23.57,2.73,0,5.1-1.73,7.11-1.73,2.02-3.97,2.58-6.74,1.72-3.72-1.2-8.1-1.59-13.11-1.14-5.02.44-7.7,1.64-8.03,3.55,0,.43-1.28,7.51-3.83,21.26,1.28.11,3.01.08,5.2-.13,2.19-.2,4.25-.42,6.16-.68,1.93-.25,3.84-.34,5.76-.28,1.93.07,3.57.54,4.95,1.4,1.38.87,2.33,2.22,2.85,4.03.62,2.25.29,4.29-1,6.16-1.29,1.85-3.17,2.89-5.62,3.08Z"/>
      <path class="cls-1" d="M582.49,80.8c.1-.11.28-8.81.5-26.1.22-17.29.3-27.85.22-31.69-.08-4.91,2.02-7.77,6.3-8.59,2.13-.31,3.87-.27,5.2.11,1.33.39,2.26,1.21,2.78,2.5.53,1.28.87,2.4,1.02,3.37.15.96.23,2.45.21,4.48,0,.64,0,1.17,0,1.6.1.43.22,2.84.34,7.2.13,4.39.24,7.82.33,10.33.09,2.51.12,6.27.08,11.29-.03,5.02-.15,9.37-.33,13.05-.18,3.68-.54,7.82-1.04,12.4-.51,4.58-1.21,8.74-2.09,12.46-.77,3.62-2.59,6.47-5.42,8.53-2.85,2.06-5.86,2.12-9.05.18-3.92-2.69-7.29-6.24-10.08-10.63-2.8-4.4-5.54-9.91-8.21-16.55-2.67-6.63-4.69-11.18-6.07-13.65-.65,2.66-3.88,13.84-9.67,33.55-1.09,3.62-2.28,6.04-3.57,7.26-1.29,1.22-3.11,1.39-5.44.52-2.34-.66-3.75-1.57-4.22-2.75-.47-1.17-.38-3.64.29-7.35.77-3.62,2.15-10.2,4.14-19.74,1.99-9.53,3.83-18.41,5.55-26.61,1.7-8.21,2.78-13.27,3.22-15.19.55-1.91,1.79-3.37,3.71-4.37,1.93-1,3.87-1.25,5.84-.76,1.97.49,3.33,1.69,4.06,3.63,1.68,3.96,3.9,9.63,6.68,17.01,2.78,7.39,5.29,13.75,7.55,19.11,2.26,5.34,4.65,10.48,7.18,15.42Z"/>
      <path class="cls-1" d="M638.98,104.56c.12-2.78.5-11.45,1.14-26.01.63-14.56,1.27-26.08,1.92-34.56.65-8.5,1.4-13.57,2.27-15.28-1.71.31-4.09.53-7.13.67-3.05.15-5.71.45-8.01.91s-4.35,1.32-6.18,2.59c-2.15,1.48-4.2,2.11-6.17,1.88s-3.62-.84-4.94-1.8c-1.33-.97-2.42-2.19-3.26-3.7-.95-1.93-1.02-3.71-.2-5.37.81-1.65,2.23-3.04,4.27-4.21,5.04-2.84,12.49-4.56,22.36-5.14,9.87-.56,18.49-.48,25.85.27,7.35.75,13.44,1.61,18.23,2.61.64.11,1.57.27,2.79.5,1.23.22,2.06.38,2.48.49.42.12,1.01.24,1.75.41s1.25.36,1.52.57c.26.22.61.48,1.03.8s.77.68,1.03,1.05c.27.38.5.88.71,1.53.84,1.71.62,3.45-.68,5.19-1.29,1.75-3.11,2.84-5.46,3.25-4.48.39-7.45.53-8.89.41-1.44-.11-3.84-.52-7.19-1.24-3.35-.71-6.26-1.18-8.72-1.42-.97,1.06-2.8,26.5-5.49,76.31-.13,2.56-1.47,4.31-4.05,5.25-2.56.95-5.07.82-7.52-.38-2.44-1.18-3.6-3.06-3.48-5.61Z"/>
      <path class="cls-1" d="M741.02,93.74c-.84-2.04-2.42-5.36-4.74-9.95-16.23,1.91-25.2,2.97-26.91,3.17-.55,1.38-1.77,4.63-3.67,9.74-1.9,5.1-3.61,9.25-5.13,12.45-1.52,3.08-3.71,3.7-6.57,1.87-2.87-1.83-4.35-4.46-4.43-7.87,0-.75.12-1.5.33-2.23,5.14-18.32,13.09-49.64,23.86-93.96.66-2.77,2.09-4.76,4.29-5.97,2.19-1.22,4.51-1.31,6.96-.27,2.45,1.02,4.2,3.04,5.24,6.03,2.94,7.81,5.38,16.36,7.34,25.66,1.97,9.3,4.1,18.23,6.38,26.78,2.29,8.55,5.53,17.06,9.75,25.52,2.42,5.03,2.23,9.24-.57,12.63-2.26,2.87-4.83,3.61-7.7,2.2-2.03-.98-3.51-2.91-4.44-5.8ZM713.17,71.78c5.33-1.03,10.9-2.06,16.66-3.08-.52-2.34-1.09-4.95-1.7-7.78-.62-2.84-1.19-5.38-1.71-7.62-.52-2.25-1.09-4.78-1.71-7.62-.62-2.82-1.19-5.38-1.71-7.62-.11,0-.22,0-.32,0-.11,0-.22,0-.32,0-4.05,14.81-7.12,26.05-9.19,33.71Z"/>
    </g>
    <path class="cls-2" d="M786,47.24c-1.93-6.87-.85-12.07,3.23-15.57,4.07-3.5,9.02-5.73,14.82-6.68,3.44-.97,7.82-1.6,13.13-1.91,5.31-.3,11.69-.41,19.13-.3,7.45.11,13.58,1.85,18.4,5.21,4.83,3.38,7.08,8.13,6.78,14.29-.46,3.16-2.42,5.48-5.89,6.96-3.45,1.48-7.22,2.19-11.28,2.15-4.05-.04-8.74-.24-14.08-.61-5.32-.36-8.97-.43-10.93-.22-1.56.44-4.47,1.17-8.74,2.19-4.26,1.03-7.76,1.76-10.51,2.19-2.74.44-5.53.12-8.36-.94-2.82-1.06-4.72-3.31-5.69-6.76ZM796.64,85.23c-1.92-6.87-.84-12.06,3.22-15.57,4.08-3.5,9.02-5.73,14.82-6.68,3.45-.97,7.82-1.6,13.13-1.91,5.31-.3,11.72-.32,19.2-.07,7.49.26,13.63,2,18.4,5.21,4.78,3.21,7.02,7.9,6.71,14.05-.45,3.16-2.42,5.48-5.89,6.96-3.45,1.48-7.22,2.2-11.27,2.15-4.06-.04-8.75-.24-14.09-.61-5.32-.36-8.97-.44-10.93-.22-1.55.44-4.47,1.17-8.74,2.19-4.26,1.03-7.74,1.84-10.44,2.42-2.7.59-5.48.27-8.36-.95-2.87-1.22-4.79-3.54-5.75-6.99Z"/>
  </g>
</svg>