<?xml version="1.0" encoding="utf-8"?>
<svg xmlns="http://www.w3.org/2000/svg" viewBox="5.552 59.836 482.856 361.55" width="482.856px" height="361.55px">
  <g transform="matrix(1, 0, 0, 1, 5.684341886080802e-14, 0)">
    <rect x="8.935" y="156.137" width="193.685" height="92.206" style="stroke: rgb(0, 0, 0); stroke-linecap: square; stroke-width: 0px; fill: rgb(255, 165, 0); fill-opacity: 0.5;"/>
    <rect x="202.62" y="63.416" width="93.543" height="272.498" style="stroke: rgb(0, 0, 0); stroke-linecap: square; stroke-width: 0px; fill: rgb(255, 165, 0); fill-opacity: 0.5;"/>
    <rect x="294.306" y="359.012" width="110.755" height="56.86" style="stroke: rgb(0, 0, 0); stroke-linecap: square; stroke-width: 0px; fill: rgb(255, 165, 0); fill-opacity: 0.5;"/>
    <rect x="268.04" y="335.911" width="26.271" height="65.537" style="stroke: rgb(0, 0, 0); stroke-linecap: square; stroke-width: 0px; fill: rgb(255, 165, 0); fill-opacity: 0.5;"/>
    <rect x="296.164" y="246.367" width="189.93" height="112.657" style="stroke: rgb(0, 0, 0); stroke-linecap: square; stroke-width: 0px; fill: rgb(255, 165, 0); fill-opacity: 0.5;"/>
    <rect x="294.31" y="335.896" width="1.854" height="23.152" style="stroke: rgb(0, 0, 0); stroke-width: 0px; fill: rgb(255, 165, 0); fill-opacity: 0.5;"/>
  </g>
  <g transform="matrix(1, 0, 0, 1, 5.684341886080802e-14, 0)">
    <path style="stroke-width: 12px; fill: rgb(11, 127, 103); stroke: rgb(11, 127, 103);" d="M 8.649 247.786 L 207.1 247.786"/>
    <path style="fill: rgb(216, 216, 216); stroke-width: 12px; stroke: rgb(11, 127, 103);" d="M 5.552 158.51 L 202.781 158.476"/>
    <path style="fill: rgb(216, 216, 216); stroke-width: 12px; transform-box: fill-box; transform-origin: 50% 50%; stroke: rgb(11, 127, 103);" d="M 11.535 158.188 L 11.536 253.813"/>
    <path style="fill: rgb(216, 216, 216); stroke-width: 12px; transform-origin: 200.508px 113.565px; stroke: rgb(11, 127, 103);" d="M 200.484 164.475 L 200.508 62.652" transform="matrix(-1, 0, 0, -1, 0.000008, -0.000004)"/>
    <path style="fill: rgb(216, 216, 216); stroke-width: 12px; transform-origin: 294.117px 152.687px; stroke: rgb(11, 127, 103);" d="M 294.077 245.538 L 294.117 59.834" transform="matrix(-1, 0, 0, -1, -0.000011, 0.000004)"/>
    <path style="fill: rgb(216, 216, 216); stroke-width: 12px; transform-origin: 296.664px 65.615px; stroke: rgb(11, 127, 103);" d="M 194.533 65.584 L 296.053 65.646"/>
    <path style="fill: rgb(216, 216, 216); stroke-width: 12px; transform-origin: 201.203px 292.641px; stroke: rgb(11, 127, 103);" d="M 201.105 339.982 L 201.203 245.698"/>
    <path style="fill: rgb(216, 216, 216); stroke-width: 12px; transform-origin: 262.357px 333.984px; stroke: rgb(11, 127, 103);" d="M 195.417 334.019 L 262.435 333.95"/>
    <path style="fill: rgb(216, 216, 216); stroke-width: 12px; transform-origin: 266.936px 366.703px; stroke: rgb(11, 127, 103);" d="M 266.261 327.962 L 266.936 405.082"/>
    <path style="fill: rgb(216, 216, 216); stroke-width: 12px; transform-origin: 296.621px 399.68px; stroke: rgb(11, 127, 103);" d="M 263.945 399.243 L 296.621 400.113"/>
    <path style="fill: rgb(216, 216, 216); stroke-width: 12px; transform-origin: 488.408px 247.056px; stroke: rgb(11, 127, 103);" d="M 288.113 247.119 L 488.408 246.996"/>
    <path style="fill: rgb(216, 216, 216); stroke-width: 12px; transform-origin: 410.194px 415.791px; stroke: rgb(11, 127, 103);" d="M 291.69 415.668 L 410.194 415.913"/>
    <path style="fill: rgb(216, 216, 216); stroke-width: 12px; transform-origin: 291.399px 408.07px; stroke: rgb(11, 127, 103);" d="M 291.357 421.386 L 291.399 394.862"/>
    <path style="fill: rgb(216, 216, 216); stroke-width: 12px; transform-origin: 404.401px 385.741px; stroke: rgb(11, 127, 103);" d="M 404.359 418.592 L 404.401 353.156"/>
    <path style="fill: rgb(216, 216, 216); stroke-width: 12px; transform-origin: 482.442px 302.677px; stroke: rgb(11, 127, 103);" d="M 482.282 240.912 L 482.442 363.94" transform="matrix(-1, 0, 0, -1, 0.000042, 0.000001)"/>
    <path style="fill: rgb(216, 216, 216); stroke-width: 12px; transform-origin: 483.322px 358.245px; stroke: rgb(11, 127, 103);" d="M 399.025 358.123 L 483.334 358.367"/>
  </g>
</svg>