<svg width="23" height="15" viewBox="0 0 23 15" fill="none" xmlns="http://www.w3.org/2000/svg">
	<mask id="path-1-inside-1_2147_1933" fill="white">
		<path d="M18.1357 5.18693C17.619 3.90449 15.9134 0.942825 14.1965 1.33497C9.96751 3.88875 5.99828 6.93698 1.80208 9.55234C-0.393565 9.24492 -0.433426 11.9228 0.879177 13.0011C1.75659 13.7228 2.21804 13.227 3.04059 12.7677L6.39595 12.5575C6.79034 13.4742 6.62668 14.2122 7.81595 14.2826C8.87672 14.3446 10.066 14.134 11.1422 14.1997C12.0595 13.8802 11.5835 13.0001 11.3542 12.3446L16.675 12.0186C19.6378 11.3691 18.9625 7.23838 18.1357 5.1874M1.44286 10.3264C1.50664 11.1191 1.68625 11.7654 2.15895 12.4219C1.07708 13.3251 0.043969 10.2223 1.44286 10.3264ZM12.9186 3.00029C12.792 4.57719 13.2253 6.03835 13.9682 7.42404L12.8459 7.71155C12.8061 7.71386 12.6223 7.49024 12.6148 7.46802L12.1055 5.97168L2.38733 10.1417L12.9191 3.00029H12.9186ZM7.56177 13.4969L7.22319 12.5446L10.5265 12.3571L10.8899 13.3983C9.79259 13.5126 8.6685 13.5052 7.56177 13.4969ZM14.1693 11.4089L12.9688 11.4769C12.9688 11.4769 12.9679 11.4765 12.9674 11.4755L11.923 11.533H11.9216C11.7448 11.5825 11.2356 11.6052 11.1099 11.5788L10.0974 11.6343L10.1194 11.6723L9.3452 11.676L4.68568 11.9344L4.39493 11.9506L3.0087 12.0288C2.51442 11.9658 2.46659 11.3955 2.32121 11.0181L11.6145 6.94393C12.1439 8.12452 12.6874 9.30604 13.4964 10.3283C13.8012 10.7135 14.1581 11.0403 14.4976 11.3899L14.1703 11.4084L14.1693 11.4089ZM17.7643 10.3963C16.3711 12.8515 13.7787 9.93661 13.1231 8.42546L15.0913 7.7722C14.2359 6.4541 13.5358 4.98785 13.6474 3.39012C13.805 1.13079 15.3764 2.17295 16.2599 3.35123C17.4009 4.87257 18.7824 8.60231 17.7643 10.3959" />
	</mask>
	<path d="M18.1357 5.18693C17.619 3.90449 15.9134 0.942825 14.1965 1.33497C9.96751 3.88875 5.99828 6.93698 1.80208 9.55234C-0.393565 9.24492 -0.433426 11.9228 0.879177 13.0011C1.75659 13.7228 2.21804 13.227 3.04059 12.7677L6.39595 12.5575C6.79034 13.4742 6.62668 14.2122 7.81595 14.2826C8.87672 14.3446 10.066 14.134 11.1422 14.1997C12.0595 13.8802 11.5835 13.0001 11.3542 12.3446L16.675 12.0186C19.6378 11.3691 18.9625 7.23838 18.1357 5.1874M1.44286 10.3264C1.50664 11.1191 1.68625 11.7654 2.15895 12.4219C1.07708 13.3251 0.043969 10.2223 1.44286 10.3264ZM12.9186 3.00029C12.792 4.57719 13.2253 6.03835 13.9682 7.42404L12.8459 7.71155C12.8061 7.71386 12.6223 7.49024 12.6148 7.46802L12.1055 5.97168L2.38733 10.1417L12.9191 3.00029H12.9186ZM7.56177 13.4969L7.22319 12.5446L10.5265 12.3571L10.8899 13.3983C9.79259 13.5126 8.6685 13.5052 7.56177 13.4969ZM14.1693 11.4089L12.9688 11.4769C12.9688 11.4769 12.9679 11.4765 12.9674 11.4755L11.923 11.533H11.9216C11.7448 11.5825 11.2356 11.6052 11.1099 11.5788L10.0974 11.6343L10.1194 11.6723L9.3452 11.676L4.68568 11.9344L4.39493 11.9506L3.0087 12.0288C2.51442 11.9658 2.46659 11.3955 2.32121 11.0181L11.6145 6.94393C12.1439 8.12452 12.6874 9.30604 13.4964 10.3283C13.8012 10.7135 14.1581 11.0403 14.4976 11.3899L14.1703 11.4084L14.1693 11.4089ZM17.7643 10.3963C16.3711 12.8515 13.7787 9.93661 13.1231 8.42546L15.0913 7.7722C14.2359 6.4541 13.5358 4.98785 13.6474 3.39012C13.805 1.13079 15.3764 2.17295 16.2599 3.35123C17.4009 4.87257 18.7824 8.60231 17.7643 10.3959" fill="black" />
	<path d="M14.1965 1.33497L13.9739 0.360073L13.8172 0.39586L13.6796 0.478938L14.1965 1.33497ZM1.80208 9.55234L1.66342 10.5427L2.02294 10.593L2.33102 10.401L1.80208 9.55234ZM0.879177 13.0011L1.51447 12.2288L1.51394 12.2283L0.879177 13.0011ZM3.04059 12.7677L2.97807 11.7697L2.75138 11.7839L2.55308 11.8946L3.04059 12.7677ZM6.39595 12.5575L7.31454 12.1623L7.03624 11.5155L6.33343 11.5595L6.39595 12.5575ZM7.81595 14.2826L7.75688 15.2808L7.75756 15.2809L7.81595 14.2826ZM11.1422 14.1997L11.0813 15.1978L11.2816 15.2101L11.4711 15.1441L11.1422 14.1997ZM11.3542 12.3446L11.2931 11.3464L9.97391 11.4272L10.4103 12.6747L11.3542 12.3446ZM16.675 12.0186L16.7361 13.0167L16.8134 13.012L16.8891 12.9954L16.675 12.0186ZM1.44286 10.3264L2.43964 10.2462L2.37096 9.39278L1.51712 9.3292L1.44286 10.3264ZM2.15895 12.4219L2.79985 13.1895L3.51438 12.5929L2.97047 11.8375L2.15895 12.4219ZM12.9186 3.00029V2.00029H11.9957L11.9218 2.92026L12.9186 3.00029ZM13.9682 7.42404L14.2163 8.39275L15.4523 8.07609L14.8495 6.95157L13.9682 7.42404ZM12.8459 7.71155L12.9039 8.70986L13.0005 8.70426L13.0941 8.68026L12.8459 7.71155ZM12.6148 7.46802L13.5622 7.14812L13.5614 7.14582L12.6148 7.46802ZM12.1055 5.97168L13.0521 5.64948L12.704 4.62666L11.7111 5.05271L12.1055 5.97168ZM2.38733 10.1417L1.82611 9.31405L2.78166 11.0607L2.38733 10.1417ZM12.9191 3.00029L13.4803 3.82796L16.1757 2.00029H12.9191V3.00029ZM7.56177 13.4969L6.61955 13.8319L6.85409 14.4916L7.55424 14.4969L7.56177 13.4969ZM7.22319 12.5446L7.16652 11.5462L5.83381 11.6218L6.28096 12.8795L7.22319 12.5446ZM10.5265 12.3571L11.4706 12.0275L11.2223 11.316L10.4698 11.3587L10.5265 12.3571ZM10.8899 13.3983L10.9936 14.3929L12.2506 14.2619L11.8341 13.0687L10.8899 13.3983ZM14.1693 11.4089L14.2259 12.4073L14.4293 12.3957L14.612 12.3056L14.1693 11.4089ZM12.9688 11.4769L12.5267 12.3739L12.7627 12.4902L13.0254 12.4753L12.9688 11.4769ZM12.9674 11.4755L13.8595 11.0237L13.5645 10.4412L12.9125 10.4771L12.9674 11.4755ZM11.923 11.533V12.533H11.9505L11.9779 12.5314L11.923 11.533ZM11.9216 11.533V10.533H11.7842L11.6518 10.57L11.9216 11.533ZM11.1099 11.5788L11.3154 10.6001L11.1865 10.5731L11.0551 10.5803L11.1099 11.5788ZM10.0974 11.6343L10.0426 10.6358L8.41325 10.7253L9.2326 12.1365L10.0974 11.6343ZM10.1194 11.6723L10.1242 12.6723L11.8516 12.664L10.9843 11.1702L10.1194 11.6723ZM9.3452 11.676L9.34042 10.676L9.31511 10.6761L9.28985 10.6775L9.3452 11.676ZM4.68568 11.9344L4.63032 10.9359L4.63003 10.9359L4.68568 11.9344ZM4.39493 11.9506L4.33928 10.9521L4.33857 10.9522L4.39493 11.9506ZM3.0087 12.0288L2.88233 13.0208L2.9734 13.0324L3.06505 13.0272L3.0087 12.0288ZM2.32121 11.0181L1.9197 10.1023L1.04452 10.486L1.38807 11.3776L2.32121 11.0181ZM11.6145 6.94393L12.5269 6.53473L12.1211 5.62992L11.213 6.02808L11.6145 6.94393ZM13.4964 10.3283L12.7122 10.9488L13.4964 10.3283ZM14.4976 11.3899L14.5541 12.3883L16.7413 12.2646L15.2149 10.6931L14.4976 11.3899ZM14.1703 11.4084L14.1138 10.41L13.9104 10.4215L13.7276 10.5117L14.1703 11.4084ZM13.1231 8.42546L12.8081 7.47637L11.7707 7.82069L12.2057 8.82345L13.1231 8.42546ZM15.0913 7.7722L15.4063 8.72128L16.6347 8.31356L15.9301 7.22783L15.0913 7.7722ZM13.6474 3.39012L14.645 3.45981L14.645 3.45969L13.6474 3.39012ZM16.2599 3.35123L15.4599 3.95114L15.4599 3.95122L16.2599 3.35123ZM19.0633 4.81317C18.775 4.09781 18.171 2.94222 17.3862 1.99501C16.9938 1.52136 16.5188 1.05384 15.9734 0.73071C15.4209 0.403384 14.7285 0.187696 13.9739 0.360073L14.4192 2.30986C14.5229 2.28616 14.6876 2.29363 14.9539 2.4514C15.2273 2.61338 15.5329 2.8929 15.8461 3.27095C16.4726 4.02714 16.9797 4.99361 17.2082 5.5607L19.0633 4.81317ZM13.6796 0.478938C11.5363 1.77321 9.46402 3.18963 7.41994 4.59689C5.36832 6.00933 3.34774 7.41065 1.27314 8.70368L2.33102 10.401C4.45262 9.07867 6.51475 7.6482 8.55406 6.24424C10.6009 4.83509 12.6277 3.4505 14.7135 2.19099L13.6796 0.478938ZM1.94074 8.562C1.18871 8.45671 0.487494 8.59391 -0.0628087 9.01733C-0.603192 9.43312 -0.872796 10.0288 -0.962841 10.6018C-1.13561 11.7013 -0.698285 12.9994 0.244415 13.7738L1.51394 12.2283C1.14404 11.9245 0.944992 11.3445 1.01291 10.9123C1.04321 10.7195 1.11322 10.636 1.15681 10.6024C1.19049 10.5765 1.31763 10.4943 1.66342 10.5427L1.94074 8.562ZM0.243886 13.7733C0.53616 14.0138 0.855574 14.2045 1.21386 14.3C1.58757 14.3996 1.93594 14.3776 2.24831 14.2907C2.53837 14.2101 2.7898 14.075 2.97969 13.9652C3.2299 13.8206 3.3045 13.7657 3.5281 13.6408L2.55308 11.8946C2.43506 11.9605 2.32616 12.0256 2.23121 12.0828C2.13177 12.1428 2.0547 12.1898 1.97879 12.2337C1.8234 12.3235 1.7504 12.3533 1.7126 12.3638C1.69939 12.3675 1.69981 12.366 1.70943 12.3658C1.71384 12.3657 1.7185 12.3659 1.72281 12.3664C1.7271 12.3669 1.72929 12.3675 1.72891 12.3674C1.7282 12.3672 1.6609 12.3492 1.51447 12.2288L0.243886 13.7733ZM3.10311 13.7658L6.45847 13.5556L6.33343 11.5595L2.97807 11.7697L3.10311 13.7658ZM5.47736 12.9527C5.54879 13.1188 5.59717 13.281 5.65775 13.4866C5.71043 13.6653 5.78853 13.9398 5.91706 14.1918C6.06098 14.4739 6.28226 14.7623 6.63905 14.9732C6.97867 15.1739 7.36242 15.2575 7.75688 15.2808L7.87502 13.2843C7.67483 13.2725 7.63307 13.2375 7.65657 13.2513C7.69725 13.2754 7.71181 13.3088 7.69868 13.283C7.67016 13.2271 7.6409 13.1408 7.57619 12.9212C7.51936 12.7284 7.4403 12.4546 7.31454 12.1623L5.47736 12.9527ZM7.75756 15.2809C8.3611 15.3162 8.98793 15.2734 9.53815 15.2376C10.1145 15.2002 10.617 15.1695 11.0813 15.1978L11.2032 13.2016C10.5912 13.1642 9.96097 13.2059 9.40842 13.2419C8.82975 13.2795 8.33157 13.311 7.87433 13.2843L7.75756 15.2809ZM11.4711 15.1441C11.8642 15.0072 12.2272 14.765 12.4571 14.3733C12.6802 13.993 12.7023 13.5994 12.6736 13.3021C12.6454 13.0106 12.5615 12.7391 12.4913 12.5374C12.4548 12.4326 12.4162 12.3309 12.3835 12.2447C12.349 12.1537 12.3216 12.0815 12.2981 12.0144L10.4103 12.6747C10.4441 12.7715 10.4818 12.8702 10.5136 12.9541C10.5472 13.0428 10.5763 13.1199 10.6024 13.1948C10.6572 13.3524 10.678 13.4439 10.6828 13.4943C10.6871 13.5389 10.6705 13.4661 10.7321 13.3612C10.8004 13.2448 10.8789 13.2325 10.8133 13.2553L11.4711 15.1441ZM11.4153 13.3427L16.7361 13.0167L16.6138 11.0205L11.2931 11.3464L11.4153 13.3427ZM16.8891 12.9954C17.8795 12.7783 18.6157 12.249 19.1015 11.5203C19.5696 10.8181 19.7673 9.99011 19.8239 9.20002C19.9362 7.6325 19.5136 5.93079 19.0632 4.81352L17.2083 5.56127C17.5847 6.49499 17.9131 7.88412 17.829 9.05707C17.7874 9.63722 17.6501 10.0919 17.4374 10.4109C17.2423 10.7035 16.9519 10.9342 16.4608 11.0418L16.8891 12.9954ZM0.446081 10.4066C0.520181 11.3275 0.740641 12.1635 1.34743 13.0062L2.97047 11.8375C2.63185 11.3673 2.49309 10.9106 2.43964 10.2462L0.446081 10.4066ZM1.51806 11.6542C1.5262 11.6474 1.60652 11.5889 1.74621 11.587C1.87784 11.5852 1.95838 11.6352 1.97518 11.6472C1.98793 11.6563 1.96531 11.6427 1.92526 11.5814C1.8874 11.5234 1.84878 11.4452 1.8184 11.3549C1.788 11.2646 1.77171 11.1796 1.76699 11.1121C1.76197 11.0403 1.77199 11.0192 1.76584 11.0387C1.75806 11.0633 1.71968 11.1591 1.60452 11.2404C1.4834 11.326 1.37834 11.3244 1.3686 11.3237L1.51712 9.3292C1.15765 9.30243 0.778877 9.37503 0.450725 9.6068C0.128528 9.83436 -0.0501954 10.1485 -0.140939 10.4352C-0.311214 10.9732 -0.224449 11.555 -0.0771624 11.9927C0.0705749 12.4318 0.353391 12.9465 0.812677 13.2746C1.05661 13.4488 1.38442 13.5923 1.77417 13.5868C2.17198 13.5812 2.52124 13.4221 2.79985 13.1895L1.51806 11.6542ZM11.9218 2.92026C11.7756 4.74124 12.2819 6.39505 13.0868 7.8965L14.8495 6.95157C14.1687 5.68164 13.8084 4.41315 13.9154 3.08033L11.9218 2.92026ZM13.72 6.45532L12.5978 6.74283L13.0941 8.68026L14.2163 8.39275L13.72 6.45532ZM12.788 6.71323C13.0087 6.70041 13.1722 6.76521 13.2308 6.79028C13.304 6.82168 13.3565 6.85511 13.3817 6.87201C13.4327 6.90619 13.4642 6.93535 13.4688 6.93951C13.4827 6.95222 13.4819 6.95289 13.4658 6.93481C13.4528 6.92014 13.4407 6.90553 13.4345 6.89768C13.4309 6.89303 13.4342 6.89702 13.4418 6.90772C13.4451 6.9124 13.4555 6.92715 13.4685 6.94828C13.4751 6.95885 13.4866 6.97788 13.4997 7.00273C13.5095 7.02126 13.5374 7.07474 13.5622 7.14812L11.6673 7.78791C11.7082 7.90913 11.766 7.99772 11.7678 8.0006C11.7844 8.02745 11.7995 8.04928 11.8086 8.0622C11.8278 8.08937 11.8471 8.11446 11.8623 8.13386C11.894 8.17412 11.9318 8.21943 11.9706 8.26316C12.0065 8.30347 12.0595 8.361 12.1194 8.41568C12.1469 8.44083 12.1994 8.48725 12.2681 8.53331C12.3022 8.55615 12.3626 8.59416 12.443 8.6286C12.5086 8.6567 12.6782 8.72297 12.9039 8.70986L12.788 6.71323ZM13.5614 7.14582L13.0521 5.64948L11.1588 6.29388L11.6681 7.79022L13.5614 7.14582ZM11.7111 5.05271L1.99301 9.22274L2.78166 11.0607L12.4998 6.89065L11.7111 5.05271ZM2.94856 10.9694L13.4803 3.82796L12.3579 2.17263L1.82611 9.31405L2.94856 10.9694ZM12.9191 2.00029H12.9186V4.00029H12.9191V2.00029ZM8.50399 13.1619L8.16541 12.2096L6.28096 12.8795L6.61955 13.8319L8.50399 13.1619ZM7.27986 13.543L10.5832 13.3554L10.4698 11.3587L7.16652 11.5462L7.27986 13.543ZM9.58236 12.6866L9.9458 13.7278L11.8341 13.0687L11.4706 12.0275L9.58236 12.6866ZM10.7863 12.4037C9.75349 12.5113 8.68502 12.5053 7.5693 12.4969L7.55424 14.4969C8.65199 14.5051 9.83168 14.514 10.9936 14.3929L10.7863 12.4037ZM14.1127 10.4105L12.9122 10.4785L13.0254 12.4753L14.2259 12.4073L14.1127 10.4105ZM12.9688 11.4769C13.4109 10.58 13.4111 10.5801 13.4114 10.5802C13.4115 10.5803 13.4118 10.5804 13.4119 10.5805C13.4123 10.5806 13.4126 10.5808 13.413 10.581C13.4137 10.5813 13.4144 10.5817 13.4151 10.582C13.4165 10.5827 13.4179 10.5835 13.4194 10.5842C13.4222 10.5856 13.4252 10.5871 13.4281 10.5887C13.4341 10.5917 13.4402 10.595 13.4465 10.5984C13.4592 10.6053 13.4729 10.6131 13.4873 10.6219C13.5157 10.6391 13.5502 10.662 13.5876 10.6915C13.6549 10.7445 13.7718 10.8505 13.8595 11.0237L12.0753 11.9274C12.1635 12.1015 12.2811 12.2082 12.349 12.2617C12.3866 12.2914 12.4214 12.3145 12.45 12.3318C12.4646 12.3407 12.4783 12.3485 12.491 12.3554C12.4974 12.3589 12.5035 12.3621 12.5095 12.3652C12.5125 12.3667 12.5154 12.3682 12.5183 12.3697C12.5197 12.3704 12.5211 12.3711 12.5225 12.3718C12.5232 12.3722 12.5239 12.3725 12.5246 12.3729C12.525 12.3731 12.5253 12.3732 12.5257 12.3734C12.5259 12.3735 12.5261 12.3736 12.5262 12.3737C12.5265 12.3738 12.5267 12.3739 12.9688 11.4769ZM12.9125 10.4771L11.8682 10.5345L11.9779 12.5314L13.0223 12.474L12.9125 10.4771ZM11.923 10.533H11.9216V12.533H11.923V10.533ZM11.6518 10.57C11.6753 10.5635 11.6849 10.5624 11.6728 10.5645C11.6634 10.5661 11.6467 10.5686 11.6223 10.5714C11.5731 10.5772 11.5107 10.5823 11.4448 10.5857C11.3787 10.5891 11.3195 10.5903 11.2768 10.5898C11.2553 10.5895 11.2442 10.5889 11.2422 10.5888C11.2326 10.5881 11.2642 10.5894 11.3154 10.6001L10.9044 12.5574C11.0418 12.5863 11.1857 12.5889 11.253 12.5897C11.3466 12.5908 11.4493 12.5881 11.5484 12.583C11.7118 12.5745 11.9844 12.5539 12.1914 12.4959L11.6518 10.57ZM11.0551 10.5803L10.0426 10.6358L10.1522 12.6328L11.1647 12.5773L11.0551 10.5803ZM9.2326 12.1365L9.25464 12.1744L10.9843 11.1702L10.9622 11.1322L9.2326 12.1365ZM10.1147 10.6723L9.34042 10.676L9.34999 12.676L10.1242 12.6723L10.1147 10.6723ZM9.28985 10.6775L4.63032 10.9359L4.74104 12.9328L9.40056 12.6745L9.28985 10.6775ZM4.63003 10.9359L4.33928 10.9521L4.45057 12.949L4.74132 12.9328L4.63003 10.9359ZM4.33857 10.9522L2.95234 11.0304L3.06505 13.0272L4.45128 12.949L4.33857 10.9522ZM3.13506 11.0368C3.16772 11.041 3.21113 11.0514 3.25908 11.0734C3.30709 11.0953 3.34782 11.1234 3.37993 11.1521C3.44007 11.2059 3.45365 11.2472 3.44085 11.2196C3.4271 11.1901 3.40908 11.1404 3.37731 11.0358C3.36477 10.9945 3.34418 10.925 3.32675 10.8692C3.30771 10.8082 3.28371 10.7348 3.25435 10.6586L1.38807 11.3776C1.40734 11.4276 1.42258 11.4819 1.4636 11.6169C1.49713 11.7273 1.54921 11.895 1.62738 12.0631C1.79521 12.4239 2.15879 12.9286 2.88233 13.0208L3.13506 11.0368ZM2.72272 11.934L12.016 7.85978L11.213 6.02808L1.9197 10.1023L2.72272 11.934ZM10.702 7.35313C11.2267 8.52301 11.8152 9.81531 12.7122 10.9488L14.2806 9.70775C13.5597 8.79677 13.0612 7.72603 12.5269 6.53473L10.702 7.35313ZM12.7122 10.9488C13.0589 11.387 13.4945 11.7924 13.7803 12.0866L15.2149 10.6931C14.8217 10.2883 14.5435 10.04 14.2806 9.70775L12.7122 10.9488ZM14.4411 10.3915L14.1138 10.41L14.2268 12.4068L14.5541 12.3883L14.4411 10.3915ZM13.7276 10.5117L13.7267 10.5122L14.612 12.3056L14.6129 12.3051L13.7276 10.5117ZM16.8946 9.9028C16.6608 10.3149 16.4858 10.3371 16.4365 10.3424C16.3222 10.3547 16.087 10.3128 15.7268 10.0696C15.0022 9.58015 14.3037 8.63413 14.0405 8.02746L12.2057 8.82345C12.5981 9.72794 13.5236 10.9949 14.6074 11.727C15.1514 12.0944 15.8665 12.4154 16.6506 12.3309C17.4998 12.2395 18.1713 11.7054 18.6341 10.8899L16.8946 9.9028ZM13.4381 9.37454L15.4063 8.72128L14.7763 6.82311L12.8081 7.47637L13.4381 9.37454ZM15.9301 7.22783C15.1066 5.95878 14.5567 4.72351 14.645 3.45981L12.6498 3.32043C12.5149 5.25219 13.3653 6.94942 14.2525 8.31656L15.9301 7.22783ZM14.645 3.45969C14.6789 2.97284 14.7813 2.89 14.7378 2.93789C14.7014 2.9779 14.6352 3.02402 14.5506 3.04497C14.476 3.06344 14.4345 3.05071 14.4483 3.05401C14.4962 3.06552 14.6413 3.12791 14.8614 3.31109C15.067 3.48223 15.2784 3.7092 15.4599 3.95114L17.06 2.75132C16.7997 2.40412 16.4834 2.05897 16.1409 1.77392C15.8129 1.5009 15.3896 1.22304 14.9146 1.10914C14.3869 0.982598 13.7423 1.0597 13.2579 1.5925C12.8478 2.0436 12.6946 2.67773 12.6498 3.32055L14.645 3.45969ZM15.4599 3.95122C15.9393 4.59034 16.5212 5.78085 16.8558 7.0302C17.0212 7.64743 17.1158 8.24189 17.1193 8.75911C17.1228 9.28502 17.0317 9.66078 16.8947 9.90223L18.634 10.8895C19.006 10.2342 19.1241 9.47116 19.1192 8.74576C19.1143 8.01167 18.9832 7.24231 18.7877 6.51274C18.4009 5.06849 17.7216 3.63346 17.0599 2.75124L15.4599 3.95122Z" fill="black" mask="url(#path-1-inside-1_2147_1933)" />
	<path d="M19.6219 9.83161L19.492 10.3957L21.9736 10.3753C22.1005 10.3279 22.1386 9.79845 22.0167 9.74597L19.6219 9.83124V9.83161Z" fill="black" />
	<path d="M19.4898 0.59081C19.5274 0.468725 19.0644 -0.0793696 18.8631 0.00974722L16.8931 1.38307L17.5335 1.9492L19.4898 0.59081Z" fill="black" />
	<path d="M19.5849 8.4465L22.0909 7.91714L21.9829 7.14703L19.492 7.56719L19.5849 8.4465Z" fill="black" />
	<path d="M18.5586 3.89836L20.7914 2.78209L20.4305 1.94916L18.1925 3.07863L18.5586 3.89836Z" fill="black" />
	<path d="M21.2016 4.54964L19.1183 5.24994L19.3605 5.97043L21.4438 5.27013L21.2016 4.54964Z" fill="black" />
</svg>
