<?xml version="1.0" encoding="utf-8"?>
<svg xmlns="http://www.w3.org/2000/svg" viewBox="20.9999 11.5014 442.1097 189.0998" width="442.11px" height="189.1px" xmlns:bx="https://boxy-svg.com">
  <path d="M 107.469 1.863 Q 112.149 -0.577 116.829 1.863 L 201.068 45.787 Q 205.748 48.227 205.748 53.107 L 205.748 140.955 Q 205.748 145.835 201.068 148.275 L 116.829 192.199 Q 112.149 194.639 107.469 192.199 L 23.23 148.275 Q 18.55 145.835 18.55 140.955 L 18.55 53.107 Q 18.55 48.227 23.23 45.787 Z" bx:shape="n-gon 112.149 97.031 108.079 97.608 6 0.05 1@7fd2d35d" style="stroke: rgb(11, 127, 103); stroke-width: 8px; fill: rgb(255, 165, 0); fill-opacity: 0.5; fill-rule: evenodd; paint-order: fill; transform-origin: 112.149px 97.031px;" transform="matrix(-0.006740999874, 0.999976933002, -0.999976933002, -0.006740999874, 5.867613429039, 8.717021395265)"/>
  <path d="M 218.224 107.675 L 218.224 158.816 L 189.458 158.816 L 218.224 107.675 Z" bx:shape="triangle 189.458 107.675 28.766 51.141 1 0 1@e2b3353d" style="fill: rgb(11, 127, 103); stroke: rgb(11, 127, 103);"/>
  <path d="M 107.469 0.942 Q 112.149 -1.522 116.829 0.942 L 201.068 45.291 Q 205.748 47.755 205.748 52.682 L 205.748 141.38 Q 205.748 146.308 201.068 148.771 L 116.829 193.12 Q 112.149 195.584 107.469 193.12 L 23.23 148.771 Q 18.55 146.308 18.55 141.38 L 18.55 52.682 Q 18.55 47.754 23.23 45.291 Z" bx:shape="n-gon 112.149 97.031 108.079 98.553 6 0.05 1@bb55fefb" style="stroke: rgb(11, 127, 103); stroke-width: 8px; fill: rgb(255, 165, 0); fill-opacity: 0.5; fill-rule: evenodd; paint-order: fill; transform-origin: 112.149px 97.031px;" transform="matrix(-0.006740999874, 0.999976933002, -0.999976933002, -0.006740999874, 253.010912399847, 9.317405162756)"/>
  <path d="M -262.222 106.395 L -262.222 158.904 L -290.74 158.904 L -262.222 106.395 Z" bx:shape="triangle -290.74 106.395 28.518 52.509 1 0 1@72fbfd0d" style="fill: rgb(11, 127, 103); stroke: rgb(11, 127, 103);" transform="matrix(-1, 0, 0, 1, 0, 0)"/>
  <rect x="217.398" y="104.935" width="48.401" height="42.923" style="fill: rgb(11, 127, 103); stroke: rgb(11, 127, 103); fill-rule: evenodd; fill-opacity: 0; stroke-width: 6px;"/>
  <rect x="278.583" y="155.249" width="12.329" height="7.762" style="fill: rgb(11, 127, 103); stroke: rgb(11, 127, 103);"/>
</svg>